<svg width="72" height="72" viewBox="0 0 72 72" fill="none" xmlns="http://www.w3.org/2000/svg">
<path d="M10.5 31.5C10.5 18.27 21.27 7.5 34.5 7.5C38.7904 7.5 42.8222 8.63267 46.3118 10.6146L45 13.318C41.9094 11.5264 38.3224 10.5 34.5 10.5C22.92 10.5 13.5 19.92 13.5 31.5C13.5 36.09 14.94 40.44 17.7 44.1C18.21 44.76 18.06 45.69 17.4 46.2C16.74 46.71 15.81 46.56 15.3 45.9C12.15 41.73 10.5 36.75 10.5 31.5Z" fill="#15C3A9"/>
<path d="M51.3 44.1C54.06 40.44 55.5 36.09 55.5 31.5L58 26.6151C58.3277 28.1929 58.5 29.8268 58.5 31.5C58.5 36.75 56.85 41.73 53.7 45.9C53.4 46.29 52.95 46.5 52.5 46.5C52.2 46.5 51.87 46.41 51.6 46.2C50.94 45.69 50.79 44.76 51.3 44.1Z" fill="#15C3A9"/>
<path d="M53.5 3C54.4105 3 55.55 3.47718 55.8965 4.67871H55.8975C56.422 6.41786 57.7127 9.64113 60.748 12.1592L61.0469 12.4004L61.0508 12.4033L61.3301 12.6191C62.7421 13.6762 64.3812 14.4498 66.1631 14.9551L66.1621 14.9561C67.2512 15.2575 68 16.2487 68 17.3574C68 18.4693 67.2474 19.4643 66.1533 19.7627L66.1494 19.7637C64.2729 20.2678 62.5625 21.1354 61.0439 22.3164L61.043 22.3174C57.7929 24.839 56.4094 28.2156 55.9023 30.0186L55.9014 30.0225C55.5974 31.086 54.6018 31.8271 53.5 31.8271C52.4026 31.8271 51.4108 31.0919 51.1025 30.0352V30.0361C50.5611 28.2409 49.2033 24.8643 45.9531 22.3145L45.9492 22.3115C44.4757 21.1438 42.7376 20.2988 40.8369 19.7598V19.7588C39.7483 19.457 39 18.4659 39 17.3574C39 16.2456 39.7527 15.2516 40.8467 14.9531L40.8506 14.9521L41.2002 14.8525C42.94 14.3374 44.5324 13.5057 45.9561 12.3984L45.957 12.3975L46.2559 12.1582C49.2923 9.66596 50.6064 6.44292 51.0977 4.69629C51.438 3.48166 52.585 3 53.5 3ZM53.5059 11.3574C52.4482 13.0347 50.996 14.7748 49.0498 16.3125L49.0488 16.3115C48.5819 16.6817 48.0897 17.0359 47.5801 17.3662C47.9538 17.6079 48.3214 17.8605 48.6836 18.127L49.0381 18.3936L49.0498 18.4033C51.0001 19.9443 52.4341 21.685 53.4932 23.3564C54.5505 21.6798 56.0031 19.9416 57.9482 18.4043L58.2969 18.1348C58.6588 17.8611 59.0338 17.5973 59.4189 17.3477C58.9231 17.0269 58.4384 16.6865 57.9619 16.3213L57.9561 16.3164L57.9502 16.3125C55.9994 14.7711 54.565 13.0293 53.5059 11.3574Z" fill="#15C3A9" stroke="white" stroke-width="2"/>
<path d="M46.5 46.5H22.5C20.85 46.5 19.5 47.85 19.5 49.5V51C19.5 54.63 22.08 57.66 25.5 58.35V60C25.5 62.49 27.51 64.5 30 64.5H39C41.49 64.5 43.5 62.49 43.5 60V58.35C46.92 57.66 49.5 54.63 49.5 51V49.5C49.5 47.85 48.15 46.5 46.5 46.5ZM40.5 60C40.5 60.84 39.84 61.5 39 61.5H30C29.16 61.5 28.5 60.84 28.5 60V58.5H40.5V60ZM46.5 51C46.5 53.49 44.49 55.5 42 55.5H27C24.51 55.5 22.5 53.49 22.5 51V49.5H46.5V51Z" fill="#2A5FAC"/>
<path d="M20.4284 40.38C21.1784 40.68 22.0784 40.32 22.3784 39.54L24.3884 34.47H29.5484L31.5584 39.54C31.7984 40.14 32.3684 40.47 32.9384 40.47C33.1184 40.47 33.2984 40.44 33.5084 40.35C34.2884 40.05 34.6484 39.18 34.3484 38.4L28.3484 23.4C27.8984 22.26 26.0084 22.26 25.5584 23.4L19.5584 38.4C19.2584 39.18 19.6184 40.05 20.3984 40.35L20.4284 40.38ZM26.9984 28.05L28.3784 31.5H25.6184L26.9984 28.05ZM38.9984 37.5C38.1584 37.5 37.4984 38.16 37.4984 39C37.4984 39.84 38.1584 40.5 38.9984 40.5H44.9984C45.8384 40.5 46.4984 39.84 46.4984 39C46.4984 38.16 45.8384 37.5 44.9984 37.5H43.4984V25.5H44.9984C45.8384 25.5 46.4984 24.84 46.4984 24C46.4984 23.16 45.8384 22.5 44.9984 22.5H38.9984C38.1584 22.5 37.4984 23.16 37.4984 24C37.4984 24.84 38.1584 25.5 38.9984 25.5H40.4984V37.5H38.9984Z" fill="#2A5FAC"/>
</svg>
