<svg width="48" height="48" viewBox="0 0 48 48" fill="none" xmlns="http://www.w3.org/2000/svg">
<g clip-path="url(#clip0_1015_985)">
<path d="M25.965 20.5197L22.0875 23.5347C19.725 25.3797 16.2975 24.8997 14.5275 22.4697C12.8625 20.1822 13.2825 16.9872 15.48 15.2097L21.72 10.1622C20.85 9.79465 19.9125 9.60715 18.96 9.60715C17.55 9.59965 16.1775 10.0197 15 10.7997L9.6 14.3997V31.1997H11.715L18.57 37.4547C20.04 38.7972 22.3125 38.6922 23.655 37.2222C24.0675 36.7647 24.345 36.2322 24.4875 35.6772L25.7625 36.8472C27.225 38.1897 29.505 38.0922 30.8475 36.6297C31.185 36.2622 31.4325 35.8347 31.59 35.3922C33.045 36.3672 35.025 36.1647 36.2475 34.8297C37.59 33.3672 37.4925 31.0872 36.03 29.7447L25.965 20.5197ZM1.2 14.3997C0.54 14.3997 0 14.9397 0 15.5997V31.1997C0 32.5272 1.0725 33.5997 2.4 33.5997H4.8C6.1275 33.5997 7.2 32.5272 7.2 31.1997V14.3997H1.2ZM3.6 28.7997C3.91826 28.7997 4.22348 28.9261 4.44853 29.1511C4.67357 29.3762 4.8 29.6814 4.8 29.9997C4.8 30.3179 4.67357 30.6231 4.44853 30.8482C4.22348 31.0732 3.91826 31.1997 3.6 31.1997C3.28174 31.1997 2.97652 31.0732 2.75147 30.8482C2.52643 30.6231 2.4 30.3179 2.4 29.9997C2.4 29.6814 2.52643 29.3762 2.75147 29.1511C2.97652 28.9261 3.28174 28.7997 3.6 28.7997Z" fill="#195BD7"/>
<path d="M16.995 17.0696L24.255 11.1896C25.53 10.1621 27.12 9.59961 28.755 9.59961C30.12 9.59961 31.4625 9.98961 32.61 10.7246L38.055 14.2121L38.3475 14.3996H38.4V28.5596L27.975 18.9596L29.5425 17.7446C30.0675 17.3321 30.165 16.5821 29.7525 16.0571C29.34 15.5321 28.59 15.4421 28.065 15.8471L20.6175 21.6371C19.32 22.6496 17.4375 22.3871 16.47 21.0521C15.555 19.7996 15.7875 18.0446 16.995 17.0696Z" fill="#15C3A9"/>
<path d="M40.8008 31.1994V14.3994H46.8008C47.4608 14.3994 48.0008 14.9394 48.0008 15.5994V31.1994C48.0008 32.5269 46.9283 33.5994 45.6008 33.5994H43.2008C41.8733 33.5994 40.8008 32.5269 40.8008 31.1994Z" fill="#15C3A9"/>
<path d="M43.5507 29.1513C43.3256 29.3763 43.1992 29.6815 43.1992 29.9998C43.1992 30.3181 43.3256 30.6233 43.5507 30.8483C43.7757 31.0734 44.081 31.1998 44.3992 31.1998C44.7175 31.1998 45.0227 31.0734 45.2477 30.8483C45.4728 30.6233 45.5992 30.3181 45.5992 29.9998C45.5992 29.6815 45.4728 29.3763 45.2477 29.1513C45.0227 28.9262 44.7175 28.7998 44.3992 28.7998C44.081 28.7998 43.7757 28.9262 43.5507 29.1513Z" fill="white"/>
</g>
<defs>
<clipPath id="clip0_1015_985">
<rect width="48" height="48" fill="white"/>
</clipPath>
</defs>
</svg>
