<svg width="64" height="64" viewBox="0 0 64 64" fill="none" xmlns="http://www.w3.org/2000/svg">
<path d="M38 15C42.7739 15 47.3523 16.8964 50.7279 20.2721C54.1036 23.6477 56 28.2261 56 33C56 37.7739 54.1036 42.3523 50.7279 45.7279C47.3523 49.1036 42.7739 51 38 51C33.2261 51 28.6477 49.1036 25.2721 45.7279C21.8964 42.3523 20 37.7739 20 33C20 28.2261 21.8964 23.6477 25.2721 20.2721C28.6477 16.8964 33.2261 15 38 15ZM38 19.5C34.4196 19.5 30.9858 20.9223 28.4541 23.4541C25.9223 25.9858 24.5 29.4196 24.5 33C24.5 36.5804 25.9223 40.0142 28.4541 42.5459C30.9858 45.0777 34.4196 46.5 38 46.5C41.5804 46.5 45.0142 45.0777 47.5459 42.5459C50.0777 40.0142 51.5 36.5804 51.5 33C51.5 29.4196 50.0777 25.9858 47.5459 23.4541C45.0142 20.9223 41.5804 19.5 38 19.5ZM35.75 24H39.125V32.505L44.3675 37.7475L41.9825 40.1325L35.75 33.9V24Z" fill="#2A5FAC"/>
<path d="M7.6346 45.3654C8.04093 45.7717 8.59203 46 9.16667 46H20C19.0033 44.6567 18.1367 43.205 17.465 41.6667H9.16667C8.59203 41.6667 8.04093 41.8949 7.6346 42.3013C7.22827 42.7076 7 43.2587 7 43.8333C7 44.408 7.22827 44.9591 7.6346 45.3654Z" fill="#15C3A9"/>
<path d="M9.80127 34.5321C10.2076 34.9384 10.7587 35.1667 11.3333 35.1667H15.775L15.6667 33L15.775 30.8333H11.3333C10.7587 30.8333 10.2076 31.0616 9.80127 31.4679C9.39494 31.8743 9.16667 32.4254 9.16667 33C9.16667 33.5746 9.39494 34.1257 9.80127 34.5321Z" fill="#15C3A9"/>
<path d="M11.9679 23.6987C12.3743 24.1051 12.9254 24.3333 13.5 24.3333H17.465C18.1367 22.795 19.0033 21.3433 20 20H13.5C12.9254 20 12.3743 20.2283 11.9679 20.6346C11.5616 21.0409 11.3333 21.592 11.3333 22.1667C11.3333 22.7413 11.5616 23.2924 11.9679 23.6987Z" fill="#15C3A9"/>
</svg>
