<svg width="64" height="64" viewBox="0 0 64 64" fill="none" xmlns="http://www.w3.org/2000/svg">
<path d="M25.2263 20.5622H21.8401C24.6619 18.1045 28.048 16.7811 31.8104 16.7811C32.3748 16.7811 32.9391 16.7811 33.5035 16.9701C34.4441 17.1592 35.3847 16.403 35.5728 15.2687C35.7609 14.3234 35.0084 13.3781 33.8797 13.1891C33.1272 13 32.5629 13 31.8104 13C27.2956 13 22.9688 14.7015 19.5827 17.5373V14.8905C19.5827 13.7562 18.8302 13 17.7015 13C16.5728 13 15.8203 13.7562 15.8203 14.8905V22.4527C15.8203 23.5871 16.5728 24.3433 17.7015 24.3433H25.2263C26.355 24.3433 27.1074 23.5871 27.1074 22.4527C27.1074 21.3184 26.355 20.5622 25.2263 20.5622ZM47.4243 40.4129L46.8599 39.8458C46.6718 39.6567 46.4837 39.6567 46.2956 39.6567H38.3946C37.2659 39.6567 36.5134 40.4129 36.5134 41.5473C36.5134 42.6816 37.2659 43.4378 38.3946 43.4378H41.7807C39.147 45.8955 35.5728 47.2189 31.8104 47.2189C31.2461 47.2189 30.6817 47.2189 30.1173 47.0299C29.1767 46.8408 28.2362 47.597 28.048 48.7313C27.8599 49.8657 28.6124 50.6219 29.7411 50.8109C30.4936 50.8109 31.0579 51 31.8104 51C36.3253 51 40.652 49.2985 44.0381 46.4627V48.9204C44.0381 50.0547 44.7906 50.8109 45.9193 50.8109C47.048 50.8109 47.8005 50.0547 47.8005 48.9204V41.3582C47.8005 40.9801 47.6124 40.602 47.4243 40.4129Z" fill="#2A5FAC"/>
<path d="M20.5248 38.5224C20.5248 37.3881 21.2772 36.6318 22.4059 36.6318C23.5347 36.6318 24.2871 37.3881 24.099 38.5224V46.6517C24.099 46.8408 23.9109 47.0298 23.9109 47.2189C23.5347 47.597 22.9703 47.9751 22.4059 47.9751H14.8812C13.7525 47.9751 13 47.2189 13 46.0846C13 44.9502 13.7525 44.194 14.8812 44.194H17.5149C14.6931 40.791 13 36.4428 13 31.9055C13 31.1492 13 30.5821 13.1881 29.8259C13.3762 28.6915 14.3168 27.9353 15.2574 28.1244C16.3861 28.3134 17.1386 29.2587 16.9505 30.204C16.7624 30.7711 16.7624 31.3383 16.7624 31.9055C16.7624 35.6866 18.0792 39.0895 20.5248 41.9254V38.5224Z" fill="#15C3A9"/>
<path d="M50.6238 17.7264C50.6238 18.8607 49.8713 19.6169 48.7426 19.6169H46.4851C49.3069 23.0199 51 27.3682 51 31.9055C51 32.6617 50.8119 33.2289 50.8119 33.9851C50.6238 34.9303 49.8713 35.6866 48.9307 35.6866H48.7426C47.6139 35.4975 46.8614 34.5522 47.0495 33.607C47.2376 33.0398 47.2376 32.4726 47.2376 31.9055C47.2376 28.1244 45.9208 24.5323 43.4752 21.8856V24.9104C43.4752 26.0448 42.7228 26.801 41.5941 26.801C40.4653 26.801 39.7129 26.0448 39.7129 24.9104V16.7811C39.7129 16.7811 39.901 16.592 39.901 16.403C39.901 16.2139 40.0891 16.2139 40.2772 16.0249C40.4653 16.0249 40.6535 15.8358 40.8416 15.8358H48.7426C49.8713 15.8358 50.6238 16.592 50.6238 17.7264Z" fill="#15C3A9"/>
</svg>
