<svg width="64" height="64" viewBox="0 0 64 64" fill="none" xmlns="http://www.w3.org/2000/svg">
<path d="M27.7343 33.7355C25.7864 32.0641 23.2986 31.1912 20.7143 31.1355V36.7069L13 29.2783L20.7143 21.8498V27.4212C23.935 27.4212 27.0786 28.4798 29.6436 30.3741C28.8591 31.4105 28.2174 32.5403 27.7343 33.7355ZM30.3571 29.5012C31.4757 28.2755 32.7679 27.2169 34.2143 26.3626V18.1355H40L32.2857 10.7069L24.5714 18.1355H30.3571V29.5012Z" fill="#2A5FAC"/>
<path d="M43.278 31.3541V37.1425L51 29.4247L43.278 21.7069V27.4952C39.9323 27.3851 36.6726 28.5661 34.1746 30.7933C31.6766 33.0205 30.132 36.1231 29.8611 39.4578C28.2201 40.0366 26.8688 41.3293 26.3283 42.9887C25.2665 45.9986 26.8688 49.2979 29.8611 50.3784C31.3101 50.8877 32.9021 50.8021 34.2881 50.1402C35.6741 49.4784 36.7409 48.2943 37.2549 46.8476C38.3166 43.8376 36.7336 40.519 33.7221 39.4578C34.5908 31.6628 42.3128 31.3541 43.278 31.3541Z" fill="#15C3A9"/>
<circle cx="32" cy="45" r="5" fill="white"/>
<path d="M35.2501 39.0049C36.3814 39.6581 37.3224 40.5953 37.98 41.7239C38.6377 42.8525 38.9892 44.1332 38.9998 45.4394C39.0103 46.7456 38.6795 48.0319 38.0402 49.1709C37.4008 50.31 36.4751 51.2623 35.3546 51.9337C34.2341 52.605 32.9576 52.972 31.6517 52.9985C30.3457 53.0249 29.0555 52.7098 27.9087 52.0844C26.762 51.4589 25.7984 50.5448 25.1135 49.4326C24.4286 48.3203 24.0461 47.0485 24.0038 45.7429L24 45.4999L24.0038 45.2569C24.0458 43.9617 24.4227 42.6994 25.0977 41.5932C25.7728 40.4869 26.723 39.5745 27.8557 38.9448C28.9884 38.3152 30.2649 37.9897 31.5608 38.0002C32.8568 38.0108 34.1278 38.3569 35.2501 39.0049ZM31.5001 40.9999C31.3164 40.9999 31.1391 41.0674 31.0018 41.1895C30.8645 41.3115 30.7768 41.4797 30.7553 41.6622L30.7501 41.7499V45.4999L30.7568 45.5982C30.7739 45.7283 30.8249 45.8516 30.9046 45.9559L30.9698 46.0309L33.2199 48.2809L33.2904 48.3424C33.4219 48.4445 33.5836 48.4999 33.7501 48.4999C33.9166 48.4999 34.0783 48.4445 34.2099 48.3424L34.2804 48.2802L34.3426 48.2097C34.4447 48.0781 34.5001 47.9164 34.5001 47.7499C34.5001 47.5834 34.4447 47.4217 34.3426 47.2902L34.2804 47.2197L32.2501 45.1887V41.7499L32.2449 41.6622C32.2234 41.4797 32.1357 41.3115 31.9984 41.1895C31.8611 41.0674 31.6838 40.9999 31.5001 40.9999Z" fill="#15C3A9"/>
<path d="M40.3345 42C40.764 43.0831 41 44.264 41 45.5C41 46.736 40.764 47.9169 40.3345 49M22.6655 42C22.236 43.0831 22 44.264 22 45.5C22 46.736 22.236 47.9169 22.6655 49" stroke="#2A5FAC" stroke-width="2" stroke-linecap="round"/>
<path d="M43.1243 41C43.6894 42.3926 44 43.9109 44 45.5C44 47.0891 43.6894 48.6074 43.1243 50M19.8757 41C19.3106 42.3926 19 43.9109 19 45.5C19 47.0891 19.3106 48.6074 19.8757 50" stroke="#2A5FAC" stroke-width="2" stroke-linecap="round"/>
</svg>
