<svg width="48" height="48" viewBox="0 0 48 48" fill="none" xmlns="http://www.w3.org/2000/svg">
<path d="M20.8359 20.1952C20.8359 19.3478 21.1726 18.5351 21.7718 17.9359C22.371 17.3366 23.1838 17 24.0312 17C24.8786 17 25.6913 17.3366 26.2906 17.9359C26.8898 18.5351 27.2264 19.3478 27.2264 20.1952C27.2264 21.0427 26.8898 21.8554 26.2906 22.4546C25.6913 23.0539 24.8786 23.3905 24.0312 23.3905C23.1838 23.3905 22.371 23.0539 21.7718 22.4546C21.1726 21.8554 20.8359 21.0427 20.8359 20.1952Z" fill="#195BD7"/>
<path d="M24.0295 24.6686C27.3884 24.6686 30.835 26.8533 31.0582 31.2397C31.0668 31.409 31.0078 31.5747 30.8942 31.7005C30.7806 31.8262 30.6216 31.9017 30.4524 31.9103C28.6809 32.0006 20.473 32.056 17.6058 31.9103C17.4367 31.9015 17.278 31.8259 17.1646 31.7002C17.0511 31.5744 16.9922 31.4088 17.0008 31.2397C17.2241 26.8524 20.6707 24.6686 24.0295 24.6686Z" fill="#15C3A9"/>
<path d="M31 35.3096H39.4004C39.5476 35.3096 39.6431 35.3126 39.7334 35.3652L39.8232 35.4355L40.4238 36.0332C40.5799 36.1887 40.7499 36.5238 40.75 36.8506V44.8105C40.75 45.3503 40.57 45.781 40.2734 46.0762C39.9767 46.3714 39.5436 46.5508 39 46.5508C38.4564 46.5508 38.0233 46.3714 37.7266 46.0762C37.43 45.781 37.25 45.3503 37.25 44.8105V41.6914L36.8408 42.0312C33.2826 44.9817 28.7379 46.75 24 46.75C23.6202 46.75 23.2867 46.7032 22.9355 46.6533C22.5936 46.6047 22.2342 46.5527 21.8242 46.5508C21.2737 46.4564 20.8383 46.2305 20.5635 45.915C20.3252 45.6414 20.1936 45.2853 20.2236 44.8467L20.2461 44.6533C20.4285 43.5643 21.3189 42.9055 22.1445 43.0654C22.7809 43.2715 23.4127 43.2695 24 43.2695C28.057 43.2695 31.9193 41.857 34.7695 39.2236L35.2393 38.79H31C30.4565 38.79 30.0233 38.6106 29.7266 38.3154C29.43 38.0203 29.25 37.5896 29.25 37.0498C29.25 36.51 29.4299 36.0793 29.7266 35.7842C30.0233 35.489 30.4565 35.3096 31 35.3096ZM24 7.25C24.8003 7.25 25.3726 7.25059 26.1396 7.44141L26.1494 7.44434L26.1592 7.44531C27.1906 7.61637 27.8357 8.41037 27.7764 9.18457L27.7549 9.33887L27.7539 9.34668C27.5714 10.4362 26.6804 11.0943 25.8545 10.9336C25.2185 10.7279 24.5869 10.7305 24 10.7305C19.938 10.7305 16.2801 12.1457 13.2363 14.7705L12.7275 15.21H17C17.5435 15.21 17.9767 15.3894 18.2734 15.6846C18.57 15.9797 18.75 16.4104 18.75 16.9502C18.75 17.49 18.5701 17.9207 18.2734 18.2158C17.9767 18.511 17.5435 18.6904 17 18.6904H9C8.45651 18.6904 8.02329 18.511 7.72656 18.2158C7.42994 17.9207 7.25 17.49 7.25 16.9502V8.99023L7.25879 8.79297C7.29722 8.34481 7.46699 7.98289 7.72656 7.72461C8.02329 7.42939 8.45647 7.25 9 7.25C9.54353 7.25 9.97671 7.42939 10.2734 7.72461C10.5701 8.01975 10.75 8.45041 10.75 8.99023V12.3086L11.1592 11.9688C14.7174 9.01835 19.2621 7.25 24 7.25Z" fill="#195BD7" stroke="white" stroke-width="0.5"/>
<path d="M6.17383 23.2236L6.32715 23.2451L6.33496 23.2461C7.41771 23.4284 8.07373 24.3191 7.91309 25.1465C7.70866 25.7822 7.70996 26.4132 7.70996 27C7.70996 31.0617 9.11958 34.7189 11.7314 37.7627L12.1709 38.2754V34C12.1709 33.4561 12.3489 33.0222 12.6426 32.7256C12.9361 32.4292 13.3649 32.25 13.9014 32.25C14.4399 32.2501 14.8627 32.4304 15.1279 32.7188C15.3905 33.0043 15.5247 33.4239 15.4365 33.959L15.4336 33.9795V42.5996C15.4336 42.6298 15.4169 42.6748 15.3604 42.7891C15.3282 42.854 15.2729 42.9591 15.248 43.0801C14.873 43.44 14.3699 43.7498 13.9014 43.75H5.98047C5.4442 43.75 5.01614 43.5706 4.72266 43.2744C4.42894 42.9778 4.25 42.5439 4.25 42C4.25 41.4561 4.42894 41.0222 4.72266 40.7256C5.01614 40.4294 5.4442 40.25 5.98047 40.25H9.2832L8.94531 39.8408C6.00957 36.2827 4.25 31.7382 4.25 27C4.25 26.2998 4.25059 25.7741 4.37793 25.1396L4.44043 24.8604L4.44336 24.8506L4.44434 24.8408C4.61473 23.8082 5.40513 23.1644 6.17383 23.2236ZM33.3066 10.25H41.624C42.1603 10.2501 42.5884 10.4293 42.8818 10.7256C43.1756 11.0222 43.3535 11.4561 43.3535 12C43.3535 12.5439 43.1756 12.9778 42.8818 13.2744C42.5884 13.5707 42.1603 13.7499 41.624 13.75H38.7168L39.0547 14.1592C41.9904 17.7173 43.75 22.2618 43.75 27C43.75 27.3801 43.703 27.7141 43.6533 28.0654C43.6053 28.4048 43.5544 28.761 43.5518 29.167C43.3662 30.0707 42.6607 30.7497 41.8223 30.75H41.6475C40.5749 30.5609 39.9256 29.6756 40.0859 28.8525C40.2902 28.2171 40.29 27.5866 40.29 27C40.29 22.9433 38.8842 19.0808 36.2637 16.2305L35.8291 15.7588V19.5996C35.8291 20.1434 35.651 20.5774 35.3574 20.874C35.0639 21.1705 34.6351 21.3496 34.0986 21.3496C33.5623 21.3495 33.1343 21.1704 32.8408 20.874C32.5472 20.5774 32.3691 20.1435 32.3691 19.5996V11.0889C32.3865 11.0667 32.4075 11.0419 32.4268 11.0127C32.4825 10.9282 32.558 10.7847 32.5635 10.6182C32.5674 10.6152 32.5732 10.6121 32.5801 10.6074C32.6183 10.5817 32.718 10.5242 32.8203 10.4375C32.9465 10.4135 33.057 10.3566 33.123 10.3232C33.2361 10.2661 33.2788 10.2501 33.3066 10.25Z" fill="#15C3A9" stroke="white" stroke-width="0.5"/>
</svg>
