<svg width="82" height="82" viewBox="0 0 82 82" fill="none" xmlns="http://www.w3.org/2000/svg">
<g clip-path="url(#clip0_1023_1542)">
<path d="M49.6539 11.4024C52.1543 9.53254 55.6298 9.53254 58.1303 11.4024L87.8125 33.5659C91.5931 36.3882 89.5652 42.2782 84.8156 42.3016H22.9626C18.2189 42.2782 16.1851 36.3882 19.9716 33.5659L49.6539 11.4024ZM53.8891 32.0759C55.079 32.0759 56.2201 31.6141 57.0615 30.7923C57.9029 29.9704 58.3755 28.8557 58.3755 27.6934C58.3755 26.5311 57.9029 25.4164 57.0615 24.5945C56.2201 23.7727 55.079 23.311 53.8891 23.311C52.6992 23.311 51.5581 23.7727 50.7167 24.5945C49.8753 25.4164 49.4027 26.5311 49.4027 27.6934C49.4027 28.8557 49.8753 29.9704 50.7167 30.7923C51.5581 31.6141 52.6992 32.0759 53.8891 32.0759Z" fill="#195BD7"/>
<path d="M49.6539 11.4024C52.1543 9.53254 55.6298 9.53254 58.1303 11.4024L87.8125 33.5659C91.5931 36.3882 89.5652 42.2782 84.8156 42.3016H22.9626C18.2189 42.2782 16.1851 36.3882 19.9716 33.5659L49.6539 11.4024ZM53.8891 32.0759C55.079 32.0759 56.2201 31.6141 57.0615 30.7923C57.9029 29.9704 58.3755 28.8557 58.3755 27.6934C58.3755 26.5311 57.9029 25.4164 57.0615 24.5945C56.2201 23.7727 55.079 23.311 53.8891 23.311C52.6992 23.311 51.5581 23.7727 50.7167 24.5945C49.8753 25.4164 49.4027 26.5311 49.4027 27.6934C49.4027 28.8557 49.8753 29.9704 50.7167 30.7923C51.5581 31.6141 52.6992 32.0759 53.8891 32.0759Z" fill="url(#paint0_radial_1023_1542)"/>
<path d="M26.9727 66.5278V49.4797H35.9453V66.5278H26.9727Z" fill="#15C3A9"/>
<path d="M41.9271 66.5278V49.4797H50.8997V66.5278H41.9271Z" fill="#15C3A9"/>
<path d="M56.8815 66.5278V49.4797H65.8542V66.5278H56.8815Z" fill="#15C3A9"/>
<path d="M71.8359 66.5278V49.4797H80.8086V66.5278H71.8359Z" fill="#15C3A9"/>
<path d="M25.4772 72.2105C21.3498 72.2105 18 75.3928 18 79.3138V80.7345C18 81.4881 18.3151 82.2108 18.876 82.7436C19.4369 83.2765 20.1977 83.5758 20.9909 83.5758H86.7904C87.5836 83.5758 88.3443 83.2765 88.9052 82.7436C89.4661 82.2108 89.7812 81.4881 89.7812 80.7345V79.3138C89.7812 75.3928 86.4315 72.2105 82.304 72.2105H25.4772Z" fill="#15C3A9"/>
</g>
<rect x="1" y="1" width="80" height="80" rx="17" stroke="#2F9AFB" stroke-opacity="0.1" stroke-width="2"/>
<defs>
<radialGradient id="paint0_radial_1023_1542" cx="0" cy="0" r="1" gradientUnits="userSpaceOnUse" gradientTransform="translate(53.8906 -32.8608) rotate(90) scale(82.9318 64.5073)">
<stop stop-color="#7EB2FF"/>
<stop offset="0.98486" stop-color="#043071"/>
</radialGradient>
<clipPath id="clip0_1023_1542">
<rect x="2" y="2" width="78" height="78" rx="16" fill="white"/>
</clipPath>
</defs>
</svg>
