<svg width="20" height="21" viewBox="0 0 20 21" fill="none" xmlns="http://www.w3.org/2000/svg">
<path d="M18.5516 8.27624C18.7216 7.76305 18.8083 7.22573 18.8084 6.68487C18.8083 5.7899 18.571 4.91109 18.1209 4.13878C17.2165 2.55707 15.5386 1.58055 13.7227 1.58055C13.3654 1.58055 13.0076 1.61846 12.6583 1.69378C12.1878 1.16122 11.6103 0.734904 10.9639 0.442947C10.3174 0.15099 9.61666 2.26846e-05 8.90788 0H8.87605C8.87279 0.000111013 8.86782 0.000110952 8.86412 0.000110952C6.66476 0.000110952 4.71436 1.42585 4.03821 3.52777C2.62236 3.81857 1.4001 4.71061 0.685493 5.97172C0.236761 6.74871 0.000286517 7.63099 0 8.52929C0.000178369 9.79172 0.466659 11.0092 1.30911 11.9459C1.13905 12.4591 1.05232 12.9964 1.05225 13.5373C1.05232 14.4322 1.28959 15.311 1.73967 16.0833C2.64407 17.6655 4.32208 18.6415 6.13817 18.6415C6.49573 18.6415 6.85229 18.6035 7.20191 18.5282C7.67247 19.0608 8.25005 19.4871 8.89657 19.7791C9.54309 20.071 10.2439 20.222 10.9527 20.2221H10.9845L10.9975 20.222C13.198 20.222 15.1478 18.7963 15.824 16.6925C17.2398 16.4015 18.4621 15.5095 19.1767 14.2483C19.6249 13.4721 19.861 12.5905 19.8609 11.6931C19.8607 10.4307 19.3942 9.21322 18.5518 8.27652L18.5516 8.27624ZM10.9858 18.9H10.9807C10.1001 18.8997 9.24751 18.5894 8.57113 18.023C8.6113 18.0013 8.651 17.9787 8.69019 17.9552L12.6981 15.6295C12.7981 15.5723 12.8812 15.4895 12.9391 15.3896C12.9969 15.2896 13.0274 15.1761 13.0275 15.0605V9.3801L14.7215 10.3628C14.7395 10.3718 14.7519 10.3894 14.7544 10.4094V15.1104C14.7521 17.2004 13.0664 18.8958 10.9858 18.9ZM2.8812 15.4226C2.55016 14.8475 2.37576 14.195 2.37555 13.5306C2.37555 13.314 2.39439 13.0968 2.43108 12.8833C2.46086 12.9012 2.51285 12.9331 2.55014 12.9546L6.55802 15.2804C6.65797 15.3389 6.77159 15.3697 6.88727 15.3697C7.00295 15.3697 7.11656 15.3388 7.21649 15.2803L12.1096 12.4418V14.4072C12.1102 14.4172 12.1083 14.4272 12.104 14.4363C12.0998 14.4454 12.0934 14.4534 12.0854 14.4594L8.03392 16.8095C7.46062 17.1409 6.81079 17.3155 6.14933 17.3157C5.4872 17.3156 4.83673 17.1406 4.26314 16.8083C3.68955 16.476 3.213 15.998 2.88126 15.4224L2.8812 15.4226ZM1.82686 6.63258C2.26702 5.86444 2.96207 5.27628 3.79035 4.97105C3.79035 5.00574 3.78836 5.06713 3.78836 5.10982V9.76131L3.78831 9.7652C3.78833 9.88069 3.81878 9.99412 3.87655 10.094C3.93433 10.1938 4.01738 10.2765 4.11727 10.3337L9.01048 13.1717L7.31644 14.1544C7.30808 14.16 7.29849 14.1633 7.28852 14.1642C7.27855 14.1651 7.26852 14.1635 7.25931 14.1596L3.2074 11.8075C2.63459 11.4742 2.15904 10.9954 1.82842 10.4192C1.4978 9.84308 1.32373 9.18973 1.32364 8.52468C1.32391 7.86066 1.4975 7.20832 1.82708 6.63275L1.82686 6.63258ZM15.7449 9.88643L10.8517 7.04799L12.5457 6.06569C12.5541 6.06015 12.5637 6.05677 12.5736 6.05586C12.5836 6.05495 12.5937 6.05654 12.6029 6.06047L16.6548 8.41056C17.8211 9.08747 18.5406 10.3392 18.5406 11.6928C18.5406 13.2805 17.5544 14.7012 16.0717 15.2495V10.4589C16.0719 10.4571 16.0719 10.4553 16.0719 10.4535C16.0719 10.2194 15.947 10.0029 15.7449 9.88643ZM17.431 7.33701C17.4012 7.31864 17.3492 7.28717 17.3119 7.26563L13.3041 4.93985C13.2041 4.88134 13.0905 4.85048 12.9749 4.85043C12.8593 4.85043 12.7456 4.88141 12.6457 4.93985L7.75253 7.77829V5.81292L7.75248 5.80953C7.75248 5.80005 7.75467 5.7907 7.75889 5.78222C7.76311 5.77375 7.76924 5.76637 7.77679 5.76068L11.8283 3.41259C12.4014 3.08067 13.0513 2.90592 13.7128 2.90587C15.796 2.90587 17.4854 4.6031 17.4854 6.69591C17.4852 6.91068 17.467 7.12505 17.431 7.33674V7.33701ZM6.83156 10.84L5.13714 9.85728C5.12825 9.85284 5.12059 9.84626 5.11485 9.83813C5.1091 9.82999 5.10545 9.82056 5.10421 9.81066V5.1097C5.10509 3.01794 6.79449 1.32216 8.87677 1.32216C9.75867 1.32236 10.6127 1.63272 11.2906 2.19939C11.2505 2.22121 11.2108 2.24383 11.1715 2.26722L7.16367 4.59294C7.06368 4.6501 6.98053 4.73285 6.92268 4.83276C6.86484 4.93267 6.83435 5.04619 6.83432 5.16177V5.16554L6.83156 10.84ZM7.75176 8.84673L9.93112 7.58218L12.1104 8.8459V11.3742L9.93112 12.6379L7.75176 11.3742V8.84673Z" fill="white"/>
</svg>
