<svg width="20" height="20" viewBox="0 0 20 20" fill="none" xmlns="http://www.w3.org/2000/svg">
<path d="M2.29175 17.3234H17.7084M4.98175 2.67676H10.7634C11.3767 2.67676 11.9649 2.9204 12.3986 3.35407C12.8323 3.78775 13.0759 4.37594 13.0759 4.98926V17.3226H2.66925V4.98926C2.66925 4.37594 2.91289 3.78775 3.34656 3.35407C3.78024 2.9204 4.36844 2.67676 4.98175 2.67676Z" stroke="white" stroke-width="1.5" stroke-linecap="round" stroke-linejoin="round"/>
<path d="M5.56006 5.76074H10.1851M5.56006 8.84408H10.1851M13.0751 7.68741H14.6167C14.9205 7.68719 15.2214 7.74684 15.5022 7.86296C15.7829 7.97907 16.0381 8.14938 16.253 8.36413C16.4679 8.57889 16.6384 8.83389 16.7547 9.11457C16.871 9.39524 16.9309 9.69609 16.9309 9.99991V17.3232M7.10923 11.9274H8.65089C8.95752 11.9276 9.25156 12.0494 9.46854 12.2661C9.68551 12.4828 9.80773 12.7766 9.80839 13.0832V17.3232H5.95339V13.0832C5.95339 12.7767 6.07517 12.4827 6.29193 12.2659C6.50869 12.0492 6.80268 11.9274 7.10923 11.9274Z" stroke="white" stroke-width="1.5" stroke-linecap="round" stroke-linejoin="round"/>
</svg>
