<svg width="48" height="48" viewBox="0 0 48 48" fill="none" xmlns="http://www.w3.org/2000/svg">
<path d="M4 44V4H44V36H12L4 44ZM10.3 32H40V8H8V34.25L10.3 32Z" fill="#195BD7"/>
<path d="M33.2773 14.9091C34.1125 14.9091 34.85 15.1304 35.4775 15.58H35.4766C36.1076 16.0257 36.5897 16.6483 36.9258 17.4374L37.0469 17.7362C37.3112 18.4487 37.4404 19.2552 37.4404 20.1512C37.4404 21.1743 37.2709 22.0839 36.9258 22.8749L36.9268 22.8759C36.6324 23.56 36.2261 24.1224 35.707 24.5565L35.4775 24.7352C34.8506 25.1844 34.118 25.4061 33.291 25.4061C32.4718 25.4061 31.74 25.1841 31.1055 24.7362L31.1045 24.7352C30.5597 24.3449 30.1225 23.8189 29.791 23.1649L29.6553 22.8768C29.3097 22.0855 29.1406 21.175 29.1406 20.1512C29.1406 19.12 29.3048 18.2096 29.6416 17.4266L29.6426 17.4237L29.7783 17.1385C30.1099 16.4915 30.5468 15.9697 31.0908 15.58L31.0928 15.579L31.335 15.4218C31.9112 15.0792 32.5606 14.9091 33.2773 14.9091ZM33.2773 17.2294C32.9791 17.2294 32.73 17.31 32.5195 17.4686L32.4316 17.5409C32.1968 17.7537 32.0036 18.0747 31.8652 18.5223V18.5233C31.7278 18.96 31.6553 19.5009 31.6553 20.1512C31.6553 20.7922 31.7273 21.3337 31.8652 21.7802L31.9199 21.9423C32.0524 22.3065 32.2259 22.5797 32.4326 22.7743C32.6689 22.9804 32.9544 23.0858 33.3037 23.0858C33.6445 23.0858 33.9213 22.9808 34.1494 22.7743C34.3842 22.5615 34.5775 22.2405 34.7158 21.7928L34.7646 21.621C34.8708 21.2088 34.9258 20.7199 34.9258 20.1512C34.9258 19.5009 34.8533 18.96 34.7158 18.5233V18.5223C34.578 18.0764 34.3818 17.7566 34.1396 17.5438L34.1367 17.5409C33.9096 17.3352 33.6285 17.2294 33.2773 17.2294Z" fill="#15C3A9" stroke="#15C3A9" stroke-width="0.5"/>
<path d="M23.5234 14.9091C24.3586 14.9091 25.0961 15.1304 25.7236 15.58H25.7227C26.3537 16.0257 26.8358 16.6483 27.1719 17.4374L27.293 17.7362C27.5573 18.4487 27.6865 19.2552 27.6865 20.1512C27.6865 21.1743 27.517 22.0839 27.1719 22.8749L27.1729 22.8759C26.8785 23.56 26.4722 24.1224 25.9531 24.5565L25.7236 24.7352C25.0967 25.1844 24.3641 25.4061 23.5371 25.4061C22.7179 25.4061 21.9861 25.1841 21.3516 24.7362L21.3506 24.7352C20.8058 24.3449 20.3686 23.8189 20.0371 23.1649L19.9014 22.8768C19.5558 22.0855 19.3867 21.175 19.3867 20.1512C19.3867 19.12 19.5509 18.2096 19.8877 17.4266L19.8887 17.4237L20.0244 17.1385C20.356 16.4915 20.7929 15.9697 21.3369 15.58L21.3389 15.579L21.5811 15.4218C22.1573 15.0792 22.8067 14.9091 23.5234 14.9091ZM23.5234 17.2294C23.2252 17.2294 22.9761 17.31 22.7656 17.4686L22.6777 17.5409C22.4429 17.7537 22.2497 18.0747 22.1113 18.5223V18.5233C21.9739 18.96 21.9014 19.5009 21.9014 20.1512C21.9014 20.7922 21.9734 21.3337 22.1113 21.7802L22.166 21.9423C22.2985 22.3065 22.472 22.5797 22.6787 22.7743C22.915 22.9804 23.2005 23.0858 23.5498 23.0858C23.8906 23.0858 24.1674 22.9808 24.3955 22.7743C24.6303 22.5615 24.8235 22.2405 24.9619 21.7928L25.0107 21.621C25.1168 21.2088 25.1719 20.7199 25.1719 20.1512C25.1719 19.5009 25.0994 18.96 24.9619 18.5233V18.5223C24.8241 18.0764 24.6279 17.7566 24.3857 17.5438L24.3828 17.5409C24.1557 17.3352 23.8746 17.2294 23.5234 17.2294Z" fill="#15C3A9" stroke="#15C3A9" stroke-width="0.5"/>
<path d="M18.1924 15.0649V17.061L18.168 17.1118L14.3721 25.1069L14.3047 25.2495H11.5098L11.6855 24.8901L15.4219 17.2554H11.1016V15.0649H18.1924Z" fill="#15C3A9" stroke="#15C3A9" stroke-width="0.5"/>
</svg>
