<svg width="72" height="72" viewBox="0 0 72 72" fill="none" xmlns="http://www.w3.org/2000/svg">
<path d="M60.6855 17.0181H11.3919C10.988 17.0181 10.6602 16.6903 10.6602 16.2864C10.6602 15.8825 10.988 15.5547 11.3919 15.5547H60.6841C61.088 15.5547 61.4158 15.8825 61.4158 16.2864C61.4158 16.6903 61.0894 17.0181 60.6855 17.0181ZM18.6841 13.7693C17.0465 13.7693 15.7133 12.4362 15.7133 10.7986C15.7133 9.16105 17.0465 7.82788 18.6841 7.82788C20.3216 7.82788 21.6548 9.16105 21.6548 10.7986C21.6548 12.4376 20.3216 13.7693 18.6841 13.7693ZM18.6841 9.2913C17.8528 9.2913 17.1767 9.96739 17.1767 10.7986C17.1767 11.6298 17.8528 12.3059 18.6841 12.3059C19.5153 12.3059 20.1914 11.6298 20.1914 10.7986C20.1914 9.96739 19.5153 9.2913 18.6841 9.2913ZM26.0597 13.7693C24.4221 13.7693 23.0889 12.4362 23.0889 10.7986C23.0889 9.16105 24.4221 7.82788 26.0597 7.82788C27.6972 7.82788 29.0304 9.16105 29.0304 10.7986C29.0304 12.4376 27.6972 13.7693 26.0597 13.7693ZM26.0597 9.2913C25.2284 9.2913 24.5524 9.96739 24.5524 10.7986C24.5524 11.6298 25.2284 12.3059 26.0597 12.3059C26.8909 12.3059 27.567 11.6298 27.567 10.7986C27.567 9.96739 26.8909 9.2913 26.0597 9.2913ZM33.4353 13.7693C31.7977 13.7693 30.4645 12.4362 30.4645 10.7986C30.4645 9.16105 31.7977 7.82788 33.4353 7.82788C35.0728 7.82788 36.406 9.16105 36.406 10.7986C36.406 12.4376 35.0728 13.7693 33.4353 13.7693ZM33.4353 9.2913C32.6041 9.2913 31.928 9.96739 31.928 10.7986C31.928 11.6298 32.6041 12.3059 33.4353 12.3059C34.2665 12.3059 34.9426 11.6298 34.9426 10.7986C34.9426 9.96739 34.2665 9.2913 33.4353 9.2913ZM37.2138 44.6986C36.9606 44.6986 36.7148 44.5669 36.5802 44.3328L34.2314 40.2645C34.0294 39.9147 34.1494 39.4669 34.4992 39.265C34.8489 39.063 35.2967 39.183 35.4987 39.5328L37.8475 43.6011C38.0494 43.9508 37.9294 44.3986 37.5797 44.6006C37.4641 44.6664 37.3382 44.6986 37.2138 44.6986ZM32.6099 44.6986C32.4724 44.6986 32.3333 44.6591 32.2089 44.5786L29.1094 42.5445C28.9031 42.4098 28.7787 42.1786 28.7787 41.9328C28.7787 41.6869 28.9031 41.4557 29.1094 41.321L32.2089 39.2869C32.547 39.0645 33.0006 39.1596 33.2216 39.4976C33.4441 39.8357 33.3489 40.2893 33.0109 40.5103L30.8436 41.9328L33.0109 43.3552C33.3489 43.5776 33.4426 44.0313 33.2216 44.3679C33.0826 44.5815 32.8484 44.6986 32.6099 44.6986ZM39.4675 44.6986C39.2289 44.6986 38.9963 44.583 38.8558 44.3679C38.6333 44.0298 38.7285 43.5762 39.0665 43.3552L41.2338 41.9328L39.0665 40.5103C38.7285 40.2879 38.6348 39.8342 38.8558 39.4976C39.0782 39.1596 39.5319 39.0659 39.8684 39.2869L42.968 41.321C43.1743 41.4557 43.2987 41.6869 43.2987 41.9328C43.2987 42.1786 43.1743 42.4098 42.968 42.5445L39.8684 44.5786C39.7441 44.6591 39.605 44.6986 39.4675 44.6986Z" fill="#15C3A9"/>
<path d="M39.8868 60.5342H32.1892C31.7853 60.5342 31.4575 60.2064 31.4575 59.8025V55.3771C30.8824 55.1811 30.3175 54.9469 29.7716 54.6776L26.6414 57.8079C26.5038 57.9454 26.318 58.0215 26.1233 58.0215C25.9287 58.0215 25.7429 57.944 25.6053 57.8079L20.1614 52.364C19.876 52.0786 19.876 51.6147 20.1614 51.3293L23.2916 48.1991C23.0224 47.6518 22.7882 47.0884 22.5921 46.5132H18.1653C17.7614 46.5132 17.4336 46.1854 17.4336 45.7815V38.084C17.4336 37.6801 17.7614 37.3523 18.1653 37.3523H22.5907C22.7868 36.7771 23.0209 36.2123 23.2902 35.6664L20.1599 32.5362C20.0224 32.3986 19.9463 32.2128 19.9463 32.0181C19.9463 31.8235 20.0238 31.6376 20.1599 31.5001L25.6038 26.0562C25.8892 25.7708 26.3531 25.7708 26.6385 26.0562L29.7687 29.1864C30.316 28.9171 30.8794 28.683 31.4546 28.4869V24.0601C31.4546 23.6562 31.7824 23.3284 32.1863 23.3284H39.8838C40.2877 23.3284 40.6155 23.6562 40.6155 24.0601V28.4869C41.1907 28.683 41.7555 28.9171 42.3014 29.1864L45.4316 26.0562C45.717 25.7708 46.1809 25.7708 46.4663 26.0562L51.9102 31.5001C52.0477 31.6376 52.1238 31.8235 52.1238 32.0181C52.1238 32.2128 52.0463 32.3986 51.9102 32.5362L48.7799 35.6664C49.0492 36.2137 49.2833 36.7771 49.4794 37.3523H53.9048C54.3087 37.3523 54.6365 37.6801 54.6365 38.084V45.7815C54.6365 46.1854 54.3087 46.5132 53.9048 46.5132H49.4794C49.2833 47.0884 49.0492 47.6532 48.7799 48.1991L51.9102 51.3293C52.1955 51.6147 52.1955 52.0786 51.9102 52.364L46.4663 57.8079C46.1809 58.0932 45.717 58.0932 45.4316 57.8079L42.3014 54.6776C41.7541 54.9469 41.1907 55.1811 40.6155 55.3771V59.804C40.6185 60.2064 40.2907 60.5342 39.8868 60.5342ZM32.9209 59.0708H39.1551V54.8415C39.1551 54.5181 39.3673 54.2328 39.6775 54.1406C40.5116 53.8918 41.3238 53.5552 42.0936 53.1381C42.379 52.9845 42.7302 53.0357 42.9599 53.264L45.9512 56.2552L50.359 51.8459L47.3677 48.8547C47.138 48.6264 47.0868 48.2737 47.2419 47.9884C47.659 47.2201 47.9955 46.4064 48.2443 45.5708C48.3365 45.2606 48.6219 45.0484 48.9453 45.0484H53.1731V38.8142H48.9453C48.6219 38.8142 48.3365 38.602 48.2443 38.2918C47.9955 37.4562 47.659 36.644 47.2419 35.8742C47.0882 35.5889 47.1394 35.2376 47.3677 35.0079L50.359 32.0167L45.9497 27.6074L42.9585 30.5986C42.7302 30.8269 42.3775 30.8796 42.0921 30.7245C41.3238 30.3074 40.5102 29.9708 39.6746 29.722C39.3643 29.6298 39.1521 29.3445 39.1521 29.0211V24.7918H32.918V29.0211C32.918 29.3445 32.7058 29.6298 32.3955 29.722C31.5614 29.9708 30.7477 30.3074 29.978 30.7245C29.6926 30.8781 29.3414 30.8269 29.1116 30.5986L26.1204 27.6074L21.7112 32.0167L24.7024 35.0079C24.9307 35.2362 24.9834 35.5889 24.8282 35.8742C24.4112 36.6425 24.0746 37.4562 23.8258 38.2918C23.7336 38.602 23.4482 38.8142 23.1248 38.8142H18.897V45.0484H23.1263C23.4497 45.0484 23.7351 45.2606 23.8273 45.5708C24.076 46.405 24.4126 47.2186 24.8297 47.9884C24.9833 48.2737 24.9321 48.625 24.7038 48.8547L21.7126 51.8459L26.1219 56.2552L29.1131 53.264C29.3429 53.0342 29.6941 52.983 29.9794 53.1381C30.7477 53.5552 31.5614 53.8918 32.397 54.1406C32.7073 54.2328 32.9194 54.5181 32.9194 54.8415V59.0708H32.9209Z" fill="#2A5FAC"/>
<path d="M36.0385 52.0376C30.4658 52.0376 25.9336 47.504 25.9336 41.9328C25.9336 36.3615 30.4673 31.8279 36.0385 31.8279C41.6112 31.8279 46.1433 36.3615 46.1433 41.9328C46.1433 47.504 41.6112 52.0376 36.0385 52.0376ZM36.0385 33.2898C31.2736 33.2898 27.397 37.1664 27.397 41.9313C27.397 46.6962 31.2736 50.5728 36.0385 50.5728C40.8033 50.5728 44.6799 46.6962 44.6799 41.9313C44.6799 37.1664 40.8033 33.2898 36.0385 33.2898Z" fill="#15C3A9"/>
<path d="M42.6649 49.2921C42.4776 49.2921 42.2903 49.2204 42.1469 49.0785L28.8898 35.8229C28.6044 35.5375 28.6044 35.0736 28.8898 34.7882C29.1752 34.5029 29.6391 34.5029 29.9244 34.7882L43.1801 48.0453C43.4654 48.3307 43.4654 48.7946 43.1801 49.08C43.0396 49.2204 42.8522 49.2921 42.6649 49.2921Z" fill="#15C3A9"/>
<path d="M57.6021 68.3092H14.4724C12.3694 68.3092 10.6602 66.5984 10.6602 64.497V7.71942C10.6602 5.61649 12.3709 3.90723 14.4724 3.90723H57.6036C59.7065 3.90723 61.4158 5.61796 61.4158 7.71942V64.497C61.4158 66.5984 59.705 68.3092 57.6021 68.3092ZM14.4724 5.37064C13.1772 5.37064 12.1236 6.4243 12.1236 7.71942V64.497C12.1236 65.7921 13.1772 66.8458 14.4724 66.8458H57.6036C58.8987 66.8458 59.9523 65.7921 59.9523 64.497V7.71942C59.9523 6.4243 58.8987 5.37064 57.6036 5.37064H14.4724Z" fill="#2A5FAC"/>
</svg>
