<svg width="72" height="72" viewBox="0 0 72 72" fill="none" xmlns="http://www.w3.org/2000/svg">
<path d="M29.9895 49.6081H7.39231C6.59644 49.6073 5.8334 49.2908 5.27064 48.7281C4.70788 48.1653 4.39139 47.4023 4.39062 46.6064V7.39377C4.39139 6.59791 4.70788 5.83486 5.27064 5.2721C5.8334 4.70934 6.59644 4.39285 7.39231 4.39209H29.9895C30.7854 4.39285 31.5484 4.70934 32.1112 5.2721C32.6739 5.83486 32.9904 6.59791 32.9912 7.39377V46.6064C32.9904 47.4023 32.6739 48.1653 32.1112 48.7281C31.5484 49.2908 30.7854 49.6073 29.9895 49.6081ZM7.39231 6.40809C7.13094 6.40828 6.88034 6.51219 6.69553 6.697C6.51073 6.88181 6.40682 7.13241 6.40662 7.39377V46.6064C6.40682 46.8678 6.51073 47.1184 6.69553 47.3032C6.88034 47.488 7.13094 47.5919 7.39231 47.5921H29.9895C30.2509 47.5919 30.5015 47.488 30.6863 47.3032C30.8711 47.1184 30.975 46.8678 30.9752 46.6064V7.39377C30.975 7.13241 30.8711 6.88181 30.6863 6.697C30.5015 6.51219 30.2509 6.40828 29.9895 6.40809H7.39231Z" fill="#15C3A9"/>
<path d="M24.6723 10.7281H12.7095C12.517 10.7281 12.3285 10.673 12.1663 10.5692C12.0042 10.4655 11.8751 10.3175 11.7944 10.1427L9.79999 5.82273C9.72903 5.66909 9.69789 5.50005 9.70946 5.33121C9.72102 5.16237 9.77491 4.99916 9.86616 4.85663C9.9574 4.71409 10.0831 4.59683 10.2316 4.51564C10.38 4.43446 10.5466 4.39197 10.7158 4.39209H26.666C26.8352 4.39197 27.0018 4.43446 27.1503 4.51564C27.2987 4.59683 27.4244 4.71409 27.5157 4.85663C27.6069 4.99916 27.6608 5.16237 27.6724 5.33121C27.6839 5.50005 27.6528 5.66909 27.5818 5.82273L25.5874 10.1427C25.5067 10.3175 25.3776 10.4655 25.2155 10.5692C25.0533 10.673 24.8648 10.7281 24.6723 10.7281ZM13.3546 8.71209H24.0272L25.0906 6.40809H12.2912L13.3546 8.71209ZM31.9832 41.6327H5.39863C5.13129 41.6327 4.8749 41.5265 4.68586 41.3374C4.49682 41.1484 4.39062 40.892 4.39062 40.6246C4.39062 40.3573 4.49682 40.1009 4.68586 39.9119C4.8749 39.7229 5.13129 39.6166 5.39863 39.6166H31.9832C32.2505 39.6166 32.5069 39.7229 32.6959 39.9119C32.885 40.1009 32.9912 40.3573 32.9912 40.6246C32.9912 40.892 32.885 41.1484 32.6959 41.3374C32.5069 41.5265 32.2505 41.6327 31.9832 41.6327ZM20.6849 45.6207H16.6969C16.4295 45.6207 16.1731 45.5145 15.9841 45.3255C15.7951 45.1365 15.6889 44.8801 15.6889 44.6127C15.6889 44.3454 15.7951 44.089 15.9841 43.9C16.1731 43.7109 16.4295 43.6047 16.6969 43.6047H20.6849C20.9523 43.6047 21.2087 43.7109 21.3977 43.9C21.5867 44.089 21.6929 44.3454 21.6929 44.6127C21.6929 44.8801 21.5867 45.1365 21.3977 45.3255C21.2087 45.5145 20.9523 45.6207 20.6849 45.6207Z" fill="#15C3A9"/>
<path d="M12.2322 35.0697C12.3744 35.1425 12.5318 35.1805 12.6915 35.1805C12.9035 35.1803 13.11 35.1132 13.2817 34.9888C13.4533 34.8645 13.5814 34.6892 13.6477 34.4879L18.692 19.36L23.7356 34.4879C23.7737 34.6177 23.8376 34.7386 23.9234 34.8432C24.0092 34.9479 24.1152 35.0341 24.2351 35.0969C24.355 35.1597 24.4863 35.1978 24.6212 35.2087C24.756 35.2197 24.8917 35.2034 25.0202 35.1608C25.1486 35.1182 25.2672 35.0501 25.3688 34.9607C25.4704 34.8713 25.5529 34.7624 25.6115 34.6404C25.6701 34.5184 25.7035 34.3859 25.7098 34.2507C25.716 34.1155 25.695 33.9804 25.6479 33.8536L19.6482 15.8536C19.5814 15.6527 19.4531 15.4779 19.2814 15.3541C19.1097 15.2302 18.9034 15.1636 18.6917 15.1636C18.48 15.1636 18.2737 15.2302 18.102 15.3541C17.9303 15.4779 17.8019 15.6527 17.7351 15.8536L11.7354 33.8536C11.6848 34.0051 11.671 34.1665 11.6951 34.3244C11.7192 34.4823 11.7804 34.6322 11.8738 34.7618C11.9672 34.8914 12.09 34.9969 12.2322 35.0697Z" fill="#15C3A9"/>
<path d="M22.4374 28.4142H14.9494C14.6821 28.4142 14.4257 28.308 14.2366 28.119C14.0476 27.9299 13.9414 27.6735 13.9414 27.4062C13.9414 27.1389 14.0476 26.8825 14.2366 26.6934C14.4257 26.5044 14.6821 26.3982 14.9494 26.3982H22.4374C22.7047 26.3982 22.9611 26.5044 23.1502 26.6934C23.3392 26.8825 23.4454 27.1389 23.4454 27.4062C23.4454 27.6735 23.3392 27.9299 23.1502 28.119C22.9611 28.308 22.7047 28.4142 22.4374 28.4142Z" fill="#15C3A9"/>
<path d="M42.0095 67.6081H64.6067C65.4026 67.6073 66.1656 67.2908 66.7284 66.7281C67.2911 66.1653 67.6076 65.4023 67.6084 64.6064V25.3938C67.6076 24.5979 67.2911 23.8349 66.7284 23.2721C66.1656 22.7093 65.4026 22.3929 64.6067 22.3921H42.0095C41.2136 22.3929 40.4506 22.7093 39.8878 23.2721C39.3251 23.8349 39.0086 24.5979 39.0078 25.3938V64.6064C39.0086 65.4023 39.3251 66.1653 39.8878 66.7281C40.4506 67.2908 41.2136 67.6073 42.0095 67.6081Z" fill="#2A5FAC"/>
<path d="M41.3123 24.6971C41.4972 24.5123 41.7478 24.4084 42.0091 24.4082H64.6063C64.8677 24.4084 65.1183 24.5123 65.3031 24.6971C65.4879 24.8819 65.5918 25.1325 65.592 25.3939V64.6065C65.5918 64.8679 65.4879 65.1185 65.3031 65.3033C65.1183 65.4881 64.8677 65.592 64.6063 65.5922H42.0091C41.7478 65.592 41.4972 65.4881 41.3123 65.3033C41.1275 65.1185 41.0236 64.8679 41.0234 64.6065V25.3939C41.0236 25.1325 41.1275 24.8819 41.3123 24.6971Z" fill="white"/>
<path d="M59.2894 28.7281H47.3266C47.1341 28.7281 46.9456 28.673 46.7835 28.5692C46.6213 28.4655 46.4922 28.3175 46.4115 28.1427L44.4171 23.8227C44.3461 23.6691 44.315 23.5001 44.3266 23.3312C44.3381 23.1624 44.392 22.9992 44.4833 22.8566C44.5745 22.7141 44.7002 22.5968 44.8487 22.5156C44.9972 22.4345 45.1637 22.392 45.3329 22.3921H61.2831C61.4523 22.392 61.6189 22.4345 61.7674 22.5156C61.9159 22.5968 62.0415 22.7141 62.1328 22.8566C62.224 22.9992 62.2779 23.1624 62.2895 23.3312C62.301 23.5001 62.2699 23.6691 62.1989 23.8227L60.2045 28.1427C60.1238 28.3175 59.9947 28.4655 59.8326 28.5692C59.6704 28.673 59.4819 28.7281 59.2894 28.7281ZM47.9717 26.7121H58.6443L59.7077 24.4081H46.9083L47.9717 26.7121Z" fill="#2A5FAC"/>
<path d="M40.0158 59.6327H66.6004C66.8677 59.6327 67.1241 59.5265 67.3131 59.3375C67.5022 59.1484 67.6084 58.892 67.6084 58.6247C67.6084 58.3574 67.5022 58.101 67.3131 57.9119C67.1241 57.7229 66.8677 57.6167 66.6004 57.6167H40.0158C39.7485 57.6167 39.4921 57.7229 39.303 57.9119C39.114 58.101 39.0078 58.3574 39.0078 58.6247C39.0078 58.892 39.114 59.1484 39.303 59.3375C39.4921 59.5265 39.7485 59.6327 40.0158 59.6327Z" fill="#2A5FAC"/>
<path d="M51.314 63.6208H55.3021C55.5695 63.6208 55.8259 63.5146 56.0149 63.3255C56.2039 63.1365 56.3101 62.8801 56.3101 62.6128C56.3101 62.3454 56.2039 62.0891 56.0149 61.9C55.8259 61.711 55.5695 61.6048 55.3021 61.6048H51.314C51.0467 61.6048 50.7903 61.711 50.6013 61.9C50.4122 62.0891 50.306 62.3454 50.306 62.6128C50.306 62.8801 50.4122 63.1365 50.6013 63.3255C50.7903 63.5146 51.0467 63.6208 51.314 63.6208Z" fill="#2A5FAC"/>
<path d="M47.3088 44.1808H53.009C54.4698 44.1808 55.8708 43.6005 56.9038 42.5675C57.9367 41.5346 58.517 40.1336 58.517 38.6728C58.517 37.212 57.9367 35.811 56.9038 34.7781C55.8708 33.7451 54.4698 33.1648 53.009 33.1648H47.3088C47.0414 33.1648 46.7851 33.271 46.596 33.46C46.407 33.6491 46.3008 33.9055 46.3008 34.1728V43.1728C46.3008 43.4401 46.407 43.6965 46.596 43.8856C46.7851 44.0746 47.0414 44.1808 47.3088 44.1808Z" fill="#2A5FAC"/>
<path d="M53.0086 42.1647H48.3164V35.1807H53.0086C53.9348 35.1807 54.823 35.5486 55.4779 36.2034C56.1327 36.8583 56.5006 37.7465 56.5006 38.6727C56.5006 39.5988 56.1327 40.487 55.4779 41.1419C54.823 41.7968 53.9348 42.1647 53.0086 42.1647Z" fill="white"/>
<path d="M54.809 53.1808H47.3088C47.0414 53.1808 46.7851 53.0746 46.596 52.8856C46.407 52.6965 46.3008 52.4401 46.3008 52.1728V43.1728C46.3008 42.9055 46.407 42.6491 46.596 42.46C46.7851 42.271 47.0414 42.1648 47.3088 42.1648H54.809C56.2698 42.1648 57.6708 42.7451 58.7038 43.778C59.7367 44.811 60.317 46.212 60.317 47.6728C60.317 49.1336 59.7367 50.5346 58.7038 51.5675C57.6708 52.6005 56.2698 53.1808 54.809 53.1808ZM48.3168 51.1648H54.809C55.7352 51.1648 56.6234 50.7969 57.2782 50.142C57.9331 49.4871 58.301 48.5989 58.301 47.6728C58.301 46.7467 57.9331 45.8585 57.2782 45.2036C56.6234 44.5487 55.7352 44.1808 54.809 44.1808H48.3168V51.1648Z" fill="#2A5FAC"/>
</svg>
