<svg width="72" height="72" viewBox="0 0 72 72" fill="none" xmlns="http://www.w3.org/2000/svg">
<path fill-rule="evenodd" clip-rule="evenodd" d="M11.25 23.625H12.375V29.25C12.375 29.8718 12.8782 30.375 13.5 30.375H15.2842L30.375 45.4658V54C30.375 54.6218 30.8782 55.125 31.5 55.125C32.1218 55.125 32.625 54.6218 32.625 54V45C32.625 44.7012 32.5063 44.4155 32.2954 44.2046L18.4658 30.375H53.5899C53.2866 30.8135 53.3096 31.4095 53.7001 31.7999C53.9198 32.0197 54.2076 32.1295 54.4955 32.1295C54.7833 32.1295 55.0712 32.0197 55.2909 31.7999L56.7158 30.375H58.5C59.1218 30.375 59.625 29.8718 59.625 29.25V23.625H60.75C61.3718 23.625 61.875 23.1218 61.875 22.5C61.875 21.8782 61.3718 21.375 60.75 21.375H11.25C10.6282 21.375 10.125 21.8782 10.125 22.5C10.125 23.1218 10.6282 23.625 11.25 23.625ZM57.375 23.625V28.125H14.625V23.625H57.375ZM30.375 67.5C30.375 67.89 30.5771 68.2515 30.9089 68.4569C31.0891 68.569 31.2946 68.625 31.5 68.625C31.6725 68.625 31.8439 68.5854 32.0032 68.5063L41.0032 64.0063C41.3844 63.8152 41.625 63.4263 41.625 63V59.2196C41.625 58.5978 41.1218 58.0946 40.5 58.0946C39.8782 58.0946 39.375 58.5978 39.375 59.2196V62.3046L32.625 65.6796V63C32.625 62.3782 32.1218 61.875 31.5 61.875C30.8782 61.875 30.375 62.3782 30.375 63V67.5Z" fill="#2A5FAC"/>
<path fill-rule="evenodd" clip-rule="evenodd" d="M59.625 45C59.625 38.1764 54.0736 32.625 47.25 32.625C40.4264 32.625 34.875 38.1764 34.875 45C34.875 51.8236 40.4264 57.375 47.25 57.375C54.0736 57.375 59.625 51.8236 59.625 45ZM37.125 45C37.125 39.4167 41.6667 34.875 47.25 34.875C52.8333 34.875 57.375 39.4167 57.375 45C57.375 50.5833 52.8333 55.125 47.25 55.125C41.6667 55.125 37.125 50.5833 37.125 45Z" fill="#2A5FAC"/>
<path fill-rule="evenodd" clip-rule="evenodd" d="M48.375 51.75V50.625H49.5C51.3611 50.625 52.875 49.1111 52.875 47.25C52.875 45.3889 51.3611 43.875 49.5 43.875H48.375V41.625H51.75C52.3718 41.625 52.875 41.1218 52.875 40.5C52.875 39.8782 52.3718 39.375 51.75 39.375H48.375V38.25C48.375 37.6282 47.8718 37.125 47.25 37.125C46.6282 37.125 46.125 37.6282 46.125 38.25V39.375H45C43.1389 39.375 41.625 40.8889 41.625 42.75C41.625 44.6111 43.1389 46.125 45 46.125H46.125V48.375H42.75C42.1282 48.375 41.625 48.8782 41.625 49.5C41.625 50.1218 42.1282 50.625 42.75 50.625H46.125V51.75C46.125 52.3718 46.6282 52.875 47.25 52.875C47.8718 52.875 48.375 52.3718 48.375 51.75ZM45 43.875C44.3793 43.875 43.875 43.3707 43.875 42.75C43.875 42.1293 44.3793 41.625 45 41.625H46.125V43.875H45ZM48.375 46.125H49.5C50.1207 46.125 50.625 46.6293 50.625 47.25C50.625 47.8707 50.1207 48.375 49.5 48.375H48.375V46.125ZM15.75 19.125H56.25C56.8718 19.125 57.375 18.6218 57.375 18C57.375 14.8487 55.5018 12.1433 52.821 10.8857C53.546 10.0865 54 9.03667 54 7.875C54 5.39319 51.9818 3.375 49.5 3.375C47.0182 3.375 45 5.39319 45 7.875C45 9.03667 45.454 10.0865 46.179 10.8857C44.7422 11.5597 43.5557 12.6519 42.75 14.0085C41.9443 12.6519 40.7578 11.5597 39.321 10.8857C40.046 10.0865 40.5 9.03667 40.5 7.875C40.5 5.39319 38.4818 3.375 36 3.375C33.5182 3.375 31.5 5.39319 31.5 7.875C31.5 9.03667 31.954 10.0865 32.679 10.8857C31.2422 11.5597 30.0557 12.6519 29.25 14.0085C28.4443 12.6519 27.2578 11.5597 25.821 10.8857C26.546 10.0865 27 9.03667 27 7.875C27 5.39319 24.9818 3.375 22.5 3.375C20.0182 3.375 18 5.39319 18 7.875C18 9.03667 18.454 10.0865 19.179 10.8857C16.4982 12.1433 14.625 14.8487 14.625 18C14.625 18.6218 15.1282 19.125 15.75 19.125ZM47.25 7.875C47.25 6.63464 48.2596 5.625 49.5 5.625C50.7404 5.625 51.75 6.63464 51.75 7.875C51.75 9.11536 50.7404 10.125 49.5 10.125C48.2596 10.125 47.25 9.11536 47.25 7.875ZM49.5 12.375C52.2169 12.375 54.4889 14.3108 55.0118 16.875H43.9882C44.5111 14.3108 46.7831 12.375 49.5 12.375ZM33.75 7.875C33.75 6.63464 34.7596 5.625 36 5.625C37.2404 5.625 38.25 6.63464 38.25 7.875C38.25 9.11536 37.2404 10.125 36 10.125C34.7596 10.125 33.75 9.11536 33.75 7.875ZM36 12.375C38.7169 12.375 40.9889 14.3108 41.5118 16.875H30.4882C31.0111 14.3108 33.2831 12.375 36 12.375ZM20.25 7.875C20.25 6.63464 21.2596 5.625 22.5 5.625C23.7404 5.625 24.75 6.63464 24.75 7.875C24.75 9.11536 23.7404 10.125 22.5 10.125C21.2596 10.125 20.25 9.11536 20.25 7.875ZM22.5 12.375C25.2169 12.375 27.4889 14.3108 28.0118 16.875H16.9882C17.5111 14.3108 19.7831 12.375 22.5 12.375Z" fill="#15C3A9"/>
<path d="M31.5 59.625C32.1213 59.625 32.625 59.1213 32.625 58.5C32.625 57.8787 32.1213 57.375 31.5 57.375C30.8787 57.375 30.375 57.8787 30.375 58.5C30.375 59.1213 30.8787 59.625 31.5 59.625Z" fill="black"/>
</svg>
