<svg width="72" height="72" viewBox="0 0 72 72" fill="none" xmlns="http://www.w3.org/2000/svg">
<g clip-path="url(#clip0_1099_7859)">
<path d="M66.15 4.36304H48.6112C49.4212 4.99786 50.1075 5.78272 50.5913 6.67147H66.15C68.175 6.67147 69.75 8.28737 69.75 10.365V49.3775H50.625C49.95 49.3775 49.5 49.8391 49.5 50.5317C49.5 51.2242 49.95 51.6859 50.625 51.6859H69.75V55.3794C69.75 57.457 68.175 59.0729 66.15 59.0729H5.85C3.825 59.0729 2.25 57.457 2.25 55.3794V51.6859H45.9C46.575 51.6859 47.025 51.2242 47.025 50.5317C47.025 49.8391 46.575 49.3775 45.9 49.3775H2.25V10.365C2.25 8.28737 3.825 6.67147 5.85 6.67147H19.9237C22.6462 3.98215 26.9325 3.532 29.16 6.04819C29.0475 6.25595 37.8225 4.62851 38.1263 4.36304H5.85C2.5875 4.47846 0 7.13316 0 10.365V55.3794C0 58.7266 2.5875 61.3813 5.85 61.3813H24.6375L22.275 69.6917H16.65C15.975 69.6917 15.525 70.1534 15.525 70.8459C15.525 71.5384 15.975 72.0001 16.65 72.0001H55.35C56.025 72.0001 56.475 71.5384 56.475 70.8459C56.475 70.1534 56.025 69.6917 55.35 69.6917H49.725L47.3625 61.3813H66.15C69.4125 61.3813 72 58.7266 72 55.3794V10.365C72 7.01773 69.4125 4.36304 66.15 4.36304ZM24.6375 69.6917L27 61.3813H45L47.3625 69.6917H24.6375Z" fill="#2A5FAC"/>
<path d="M5.9625 54.3404C5.5125 54.6867 5.5125 55.4946 5.9625 55.9563C6.4125 56.418 7.0875 56.418 7.5375 55.9563C7.9875 55.4946 7.9875 54.8021 7.5375 54.3404C7.0875 53.8787 6.4125 53.8787 5.9625 54.3404Z" fill="#15C3A9"/>
<path d="M35.5484 13.712C35.0984 14.1737 35.0984 14.8662 35.5484 15.3279C36.7859 16.5975 36.7859 18.7905 35.5484 20.0602C34.3109 21.3298 32.1734 21.3298 30.9359 20.0602C30.4859 19.5985 29.8109 19.5985 29.3609 20.0602C28.9109 20.5219 28.9109 21.2144 29.3609 21.6761C31.4984 23.9845 34.9859 23.9845 37.1234 21.7915C38.1359 20.7527 38.6984 19.2522 38.6984 17.7517C38.6984 16.2513 38.1359 14.8662 37.1234 13.712C36.6734 13.2503 35.9984 13.2503 35.5484 13.712Z" fill="#15C3A9"/>
<path d="M11.8141 54.3404C11.3641 54.6867 11.3641 55.4946 11.8141 55.9563C12.2641 56.418 12.9391 56.418 13.3891 55.9563C13.8391 55.4946 13.8391 54.8021 13.3891 54.3404C13.0516 53.8787 12.2641 53.8787 11.8141 54.3404Z" fill="#15C3A9"/>
<path d="M17.6617 54.3404C17.2117 54.6867 17.2117 55.4946 17.6617 55.9563C18.1117 56.418 18.7867 56.418 19.2367 55.9563C19.6867 55.4946 19.6867 54.8021 19.2367 54.3404C18.8992 53.8787 18.1117 53.8787 17.6617 54.3404Z" fill="#15C3A9"/>
<path d="M60.1212 35.7609C58.3767 35.7609 56.9592 36.9849 56.5231 38.5428H53.034V29.3067H57.3954C61.7568 29.3067 65.3549 24.4105 63.5013 17.3999C62.8471 14.7292 60.6664 12.1698 57.7225 10.3894C56.305 9.49914 54.7785 9.05402 53.2521 8.94274C53.2521 8.72019 53.2521 8.49763 53.143 8.27507L52.5979 6.42785L52.4888 6.0495C52.1944 5.3707 51.8455 4.75867 51.453 4.20228C47.6259 -1.25037 39.5355 -1.33939 35.4794 3.60137C33.9529 3.04498 32.2083 3.15626 30.8999 4.15777C28.2831 1.38693 23.1803 1.07535 19.5167 4.20228C18.9061 4.71416 18.3282 5.33732 17.8158 6.0495L17.6086 6.42785L16.6164 8.27507C16.0712 9.61041 15.8531 10.9458 15.8531 12.2811C12.1459 12.3924 8.76587 15.3969 8.11166 20.2932C7.34842 25.7458 10.6195 29.3067 14.2176 29.3067H19.5603V37.43H16.0712C15.6351 35.8721 14.1086 34.6481 12.4731 34.6481C10.4014 34.6481 8.65683 36.4285 8.65683 38.5428C8.65683 40.6571 10.4014 42.4376 12.4731 42.4376C14.2176 42.4376 15.6351 41.2135 16.0712 39.6556H20.6507C21.3049 39.6556 21.741 39.2105 21.741 38.5428V35.3158H29.3734V39.4331C27.847 39.8782 26.6476 41.4361 26.6476 43.1053C26.6476 45.2195 28.3921 47 30.4638 47C32.5354 47 34.28 45.2195 34.28 43.1053C34.28 41.3248 33.0806 39.8782 31.5541 39.4331V34.203C31.5541 33.5353 31.118 33.0902 30.4638 33.0902H21.741V29.3067H41.0402V34.9819C39.5137 35.427 38.3143 36.9849 38.3143 38.6541C38.3143 40.7684 40.0588 42.5489 42.1305 42.5489C44.2022 42.5489 45.9467 40.7684 45.9467 38.6541C45.9467 36.8737 44.7473 35.427 43.2209 34.9819V29.3067H50.8533V39.6556C50.8533 40.3233 51.2894 40.7684 51.9436 40.7684H56.5231C56.9592 42.3263 58.4857 43.5504 60.1212 43.5504C62.1929 43.5504 63.9375 41.7699 63.9375 39.6556C63.9375 37.5413 62.1929 35.7609 60.1212 35.7609ZM12.364 40.3233C11.4917 40.3233 10.7285 39.5443 10.7285 38.6541C10.7285 37.7639 11.4917 36.9849 12.364 36.9849C13.2363 36.9849 13.9995 37.7639 13.9995 38.6541C13.9995 39.5443 13.2363 40.3233 12.364 40.3233ZM32.0993 43.3278C32.0993 44.218 31.3361 44.997 30.4638 44.997C29.5915 44.997 28.8283 44.218 28.8283 43.3278C28.8283 42.4376 29.4825 41.6586 30.4638 41.6586C31.3361 41.6586 32.0993 42.4376 32.0993 43.3278ZM43.657 38.8767C43.657 39.7669 42.8938 40.5458 42.0215 40.5458C41.1492 40.5458 40.386 39.7669 40.386 38.8767C40.386 37.9864 41.1492 37.2075 42.0215 37.2075C42.8938 37.2075 43.657 37.9864 43.657 38.8767ZM53.5792 19.9593C53.143 19.6255 52.3798 19.7368 52.0527 20.1819C50.1991 22.8526 50.3081 25.412 51.0714 27.1924H19.8874C20.1055 25.7458 20.8687 23.2977 23.8127 22.0736C24.3578 21.8511 24.5759 21.1834 24.3578 20.627C24.1398 20.0706 23.4856 19.848 22.9404 20.0706C18.7971 21.9623 17.9248 25.412 17.7067 27.3037H13.9995C11.7098 27.3037 9.52911 24.8556 10.0743 20.8495C10.5104 17.7337 12.364 15.0631 15.308 14.7292C14.9809 16.1758 15.417 17.5112 16.2893 18.4014C16.7254 18.8465 17.3796 18.8465 17.8158 18.4014C18.2519 17.9563 18.2519 17.2886 17.8158 16.8435C16.5073 15.6195 18.1429 13.5052 19.6693 14.3954C20.2145 14.7292 20.8687 14.6179 21.1958 14.0616C21.5229 13.5052 21.4139 12.8375 20.8687 12.5037C19.9965 11.9473 19.0151 11.836 18.0338 12.0585C18.1102 9.67718 19.0697 7.76319 20.4217 6.42785C23.0603 3.83506 27.2146 3.40107 29.3734 5.82694C29.2644 6.02725 29.1663 6.22755 29.09 6.42785C28.8392 7.0065 28.7192 7.6074 28.7192 8.27507C28.7192 8.94274 29.1554 9.38786 29.8096 9.38786C30.4638 9.38786 30.8999 8.94274 30.8999 8.27507C30.8999 7.6074 31.118 7.05101 31.5541 6.49462L31.6196 6.42785C32.5027 5.48198 34.0837 5.29281 35.1523 6.0495C35.3158 6.17191 35.4576 6.29431 35.5884 6.42785C36.0791 6.93973 36.3517 7.59627 36.3517 8.38635C36.3517 9.05402 36.7878 9.49914 37.442 9.49914C38.0962 9.49914 38.5324 9.05402 38.5324 8.38635C38.5324 7.71868 38.4015 7.03988 38.1289 6.42785C37.9218 5.91597 37.6165 5.4486 37.2239 5.04799C37.4856 4.73641 37.7691 4.45822 38.0635 4.20228C41.1383 1.54272 45.4452 2.03235 48.2256 4.20228C49.0106 4.81431 49.6757 5.571 50.1446 6.42785C50.6352 7.28469 50.9296 8.24169 50.9623 9.27658C49.981 9.61041 48.3455 10.3894 46.71 12.6149C44.9654 11.9473 43.1118 12.3924 42.0215 13.839C41.5853 14.2841 41.6944 15.0631 42.1305 15.3969C42.5666 15.7307 43.3299 15.7307 43.657 15.2856C44.4202 14.3954 45.7287 14.2841 46.4919 15.1743C47.1461 15.842 47.2551 16.9548 46.6009 17.7337C46.2738 18.1789 46.2738 18.9578 46.819 19.2916C47.2551 19.6255 48.0184 19.6255 48.3455 19.0691C49.4358 17.6225 49.5449 15.6195 48.3455 13.9503C50.5262 10.9458 53.2521 10.3894 56.4141 12.2811C58.9219 13.839 60.6664 15.9533 61.2116 18.0676C62.3019 22.0736 61.2116 27.1924 57.1773 27.1924H53.4701C52.925 26.4135 51.9436 24.1879 53.7972 21.5172C54.1243 21.0721 54.0153 20.2932 53.5792 19.9593ZM60.1212 41.4361C59.249 41.4361 58.4857 40.6571 58.4857 39.7669C58.4857 38.8767 59.249 38.0977 60.1212 38.0977C60.9935 38.0977 61.7568 38.8767 61.7568 39.7669C61.7568 40.6571 60.9935 41.4361 60.1212 41.4361Z" fill="#15C3A9"/>
</g>
<defs>
<clipPath id="clip0_1099_7859">
<rect width="72" height="72" fill="white"/>
</clipPath>
</defs>
</svg>
