<svg width="72" height="72" viewBox="0 0 72 72" fill="none" xmlns="http://www.w3.org/2000/svg">
<path d="M16.6924 62.9604C21.9439 62.9604 26.2012 58.7032 26.2012 53.4517C26.2012 48.2001 21.9439 43.9429 16.6924 43.9429C11.4408 43.9429 7.18359 48.2001 7.18359 53.4517C7.18359 58.7032 11.4408 62.9604 16.6924 62.9604Z" fill="white"/>
<path d="M67.1115 57.4918C66.9457 57.986 66.7458 58.4681 66.5132 58.9346L68.688 61.1094L62.966 66.8314L60.7982 64.6566C60.3316 64.889 59.8496 65.0889 59.3554 65.2549V68.3306H51.2615V65.2549C50.7687 65.086 50.2831 64.8888 49.8187 64.6566L47.6509 66.8314L41.9289 61.1094L44.1037 58.9346C43.8713 58.468 43.6714 57.9859 43.5054 57.4918H40.4297V49.4049H43.5054C43.6743 48.9123 43.8715 48.4267 44.1037 47.9621L41.9289 45.7874L47.6509 40.0653L49.8257 42.2402C50.2919 42.0142 50.7713 41.8167 51.2615 41.6489V38.5732H59.3554V41.6489C59.8483 41.8154 60.3302 42.0129 60.7982 42.2402L62.966 40.0653L68.688 45.7874L66.5132 47.9621C66.7455 48.4267 66.9426 48.9123 67.1115 49.4049H70.1872V57.4918H67.1115Z" fill="white"/>
<path d="M36.0016 32.7573C42.2652 32.7573 47.343 27.6796 47.343 21.4159C47.343 15.1522 42.2652 10.0745 36.0016 10.0745C29.7379 10.0745 24.6602 15.1522 24.6602 21.4159C24.6602 27.6796 29.7379 32.7573 36.0016 32.7573Z" fill="white"/>
<path d="M1.81653 58.1749H4.41148C4.49069 58.3829 4.57575 58.5886 4.66658 58.7918L2.83241 60.626C2.7689 60.6895 2.71853 60.7648 2.68416 60.8478C2.64979 60.9307 2.6321 61.0196 2.6321 61.1094C2.6321 61.1992 2.64979 61.2881 2.68416 61.371C2.71853 61.454 2.7689 61.5293 2.83241 61.5928L8.55444 67.3148C8.61792 67.3783 8.69329 67.4287 8.77625 67.4631C8.8592 67.4974 8.94812 67.5151 9.03791 67.5151H9.03861C9.22002 67.5148 9.3939 67.4425 9.52208 67.3141L11.3502 65.48C11.5485 65.5687 11.7538 65.6535 11.9647 65.7344V68.3303C11.9647 68.4201 11.9824 68.509 12.0167 68.592C12.0511 68.675 12.1014 68.7503 12.1649 68.8138C12.2284 68.8773 12.3038 68.9277 12.3868 68.962C12.4697 68.9964 12.5587 69.014 12.6485 69.014H20.7424C20.8322 69.014 20.9211 68.9964 21.0041 68.962C21.0871 68.9277 21.1625 68.8773 21.226 68.8138C21.2894 68.7503 21.3398 68.675 21.3742 68.592C21.4085 68.509 21.4262 68.4201 21.4261 68.3303V65.7356C21.6335 65.6563 21.8387 65.5712 22.0414 65.4805L23.8692 67.314C23.9326 67.3776 24.008 67.4281 24.0909 67.4626C24.1739 67.4971 24.2628 67.5149 24.3527 67.5149H24.3534C24.5347 67.5148 24.7085 67.4428 24.8368 67.3147L30.5589 61.5927C30.6224 61.5292 30.6728 61.4538 30.7071 61.3709C30.7415 61.2879 30.7592 61.199 30.7592 61.1092C30.7592 61.0194 30.7415 60.9305 30.7071 60.8475C30.6728 60.7646 30.6224 60.6892 30.5589 60.6257L28.7244 58.7916C28.8152 58.5884 28.9003 58.3826 28.9795 58.1746H31.5745C31.6643 58.1747 31.7532 58.157 31.8362 58.1227C31.9191 58.0883 31.9945 58.038 32.058 57.9745C32.1215 57.911 32.1719 57.8356 32.2062 57.7526C32.2406 57.6696 32.2582 57.5807 32.2582 57.4909V49.4046C32.2582 49.3148 32.2406 49.2258 32.2062 49.1429C32.1719 49.0599 32.1215 48.9845 32.058 48.921C31.9945 48.8575 31.9191 48.8072 31.8362 48.7728C31.7532 48.7385 31.6643 48.7208 31.5745 48.7208H28.9782C28.8991 48.5133 28.8144 48.3081 28.7241 48.1052L30.5589 46.2704C30.6224 46.207 30.6728 46.1316 30.7071 46.0486C30.7415 45.9657 30.7592 45.8768 30.7592 45.787C30.7592 45.6972 30.7415 45.6083 30.7071 45.5253C30.6728 45.4424 30.6224 45.367 30.5589 45.3035L24.8368 39.5808C24.7734 39.5173 24.698 39.4669 24.615 39.4325C24.5321 39.3982 24.4432 39.3805 24.3534 39.3805H24.3527C24.1712 39.3809 23.9973 39.4532 23.8689 39.5815L22.0384 41.4183C21.8364 41.3296 21.6323 41.2459 21.4261 41.1673V38.5726C21.4262 38.4828 21.4085 38.3939 21.3742 38.3109C21.3398 38.228 21.2894 38.1526 21.226 38.0891C21.1625 38.0256 21.0871 37.9752 21.0041 37.9409C20.9211 37.9065 20.8322 37.8889 20.7424 37.8889H12.6483C12.5585 37.8889 12.4696 37.9065 12.3866 37.9409C12.3037 37.9752 12.2283 38.0256 12.1648 38.0891C12.1013 38.1526 12.0509 38.228 12.0166 38.3109C11.9822 38.3939 11.9646 38.4828 11.9646 38.5726V41.1693C11.7605 41.2473 11.5585 41.3306 11.3586 41.419L9.52123 39.5809C9.45776 39.5174 9.3824 39.467 9.29944 39.4326C9.21648 39.3982 9.12756 39.3805 9.03777 39.3805C8.94797 39.3805 8.85905 39.3982 8.77609 39.4326C8.69313 39.467 8.61777 39.5174 8.5543 39.5809L2.83227 45.3036C2.76876 45.3671 2.71839 45.4425 2.68402 45.5254C2.64965 45.6084 2.63196 45.6973 2.63196 45.787C2.63196 45.8768 2.64965 45.9657 2.68402 46.0487C2.71839 46.1316 2.76876 46.207 2.83227 46.2704L4.667 48.1052C4.57669 48.3081 4.49187 48.5134 4.41261 48.7208H1.81653C1.72673 48.7208 1.63781 48.7385 1.55484 48.7728C1.47187 48.8072 1.39648 48.8575 1.33299 48.921C1.26949 48.9845 1.21913 49.0599 1.18478 49.1429C1.15044 49.2258 1.13278 49.3148 1.13281 49.4046V57.4909C1.13274 57.5807 1.15037 57.6697 1.1847 57.7527C1.21903 57.8357 1.26939 57.9111 1.33289 57.9746C1.39639 58.0382 1.47179 58.0886 1.55477 58.1229C1.63776 58.1573 1.72671 58.1749 1.81653 58.1749ZM2.50025 50.0887H4.89228C5.03478 50.0887 5.17372 50.0441 5.28965 49.9613C5.40559 49.8784 5.49272 49.7614 5.53888 49.6266C5.70748 49.1353 5.89677 48.6778 6.10208 48.2679C6.16616 48.1395 6.18825 47.9942 6.16524 47.8526C6.14222 47.711 6.07526 47.5802 5.97383 47.4787L4.28253 45.7874L9.03777 41.0315L10.7291 42.7233C10.8295 42.824 10.9588 42.8909 11.0991 42.9144C11.2393 42.938 11.3834 42.9172 11.5112 42.8548C11.9525 42.6409 12.4063 42.4541 12.8702 42.2953C13.0049 42.2488 13.1218 42.1616 13.2045 42.0456C13.2873 41.9296 13.3318 41.7907 13.3319 41.6482V39.2566H20.0584V41.6482C20.0584 41.7913 20.1032 41.9307 20.1866 42.0469C20.2699 42.1631 20.3877 42.2502 20.5232 42.296C20.9887 42.4537 21.444 42.6403 21.8862 42.8548C22.1484 42.9809 22.4628 42.9289 22.6694 42.7226L24.3537 41.032L29.1082 45.7873L27.4166 47.4786C27.3152 47.58 27.2482 47.7109 27.2253 47.8525C27.2023 47.9942 27.2245 48.1394 27.2888 48.2677C27.4931 48.6764 27.6824 49.133 27.8517 49.6265C27.8979 49.7613 27.985 49.8783 28.1009 49.9612C28.2169 50.044 28.3558 50.0886 28.4983 50.0886H30.8903V56.8075H28.4983C28.3553 56.8074 28.2159 56.8523 28.0997 56.9356C27.9835 57.019 27.8963 57.1367 27.8506 57.2722C27.6949 57.737 27.5071 58.1904 27.2884 58.629C27.2243 58.7574 27.2022 58.9026 27.2252 59.0443C27.2482 59.1859 27.3152 59.3167 27.4166 59.4182L29.1082 61.1095L24.3537 65.864L22.6691 64.1741C22.568 64.0721 22.4372 64.0047 22.2954 63.9816C22.1537 63.9585 22.0082 63.9808 21.8799 64.0453C21.4411 64.2636 20.9878 64.4515 20.5232 64.6075C20.3877 64.6533 20.27 64.7404 20.1866 64.8565C20.1032 64.9727 20.0584 65.1121 20.0584 65.2551V67.6467H13.332V65.2551C13.3319 65.1126 13.2874 64.9737 13.2047 64.8578C13.1219 64.7418 13.0051 64.6545 12.8704 64.6081C12.382 64.4405 11.9242 64.2516 11.5107 64.0452C11.3824 63.9805 11.2369 63.9581 11.0951 63.9813C10.9533 64.0044 10.8225 64.0719 10.7215 64.174L9.0372 65.8639L4.28267 61.1093L5.97397 59.418C6.07534 59.3167 6.14227 59.186 6.16529 59.0445C6.18831 58.903 6.16624 58.7578 6.10222 58.6296C5.88348 58.1907 5.69562 57.7371 5.54 57.2721C5.49424 57.1366 5.40713 57.0189 5.29093 56.9355C5.17473 56.8521 5.0353 56.8073 4.89228 56.8073H2.50025V50.0887Z" fill="#2A5FAC"/>
<path d="M16.6925 63.644C22.3127 63.644 26.885 59.0718 26.885 53.4518C26.885 47.8313 22.3127 43.259 16.6925 43.259C11.0723 43.259 6.5 47.8313 6.5 53.4518C6.5 59.0718 11.0723 63.644 16.6925 63.644ZM16.6925 44.6265C21.5585 44.6265 25.5176 48.5858 25.5176 53.4518C25.5176 58.3179 21.5585 62.2766 16.6925 62.2766C11.8265 62.2766 7.86744 58.3179 7.86744 53.4518C7.86744 48.5858 11.8263 44.6265 16.6925 44.6265Z" fill="#15C3A9"/>
<path d="M70.1833 48.7214H67.5871C67.508 48.5139 67.4232 48.3086 67.333 48.1058L69.1677 46.271C69.2312 46.2076 69.2816 46.1322 69.3159 46.0493C69.3503 45.9663 69.368 45.8774 69.368 45.7876C69.368 45.6979 69.3503 45.609 69.3159 45.526C69.2816 45.4431 69.2312 45.3677 69.1677 45.3042L63.4457 39.5815C63.3821 39.5179 63.3066 39.4675 63.2236 39.4332C63.1405 39.3988 63.0515 39.3812 62.9616 39.3812C62.8717 39.3813 62.7827 39.3991 62.6997 39.4336C62.6167 39.4681 62.5413 39.5186 62.4779 39.5822L60.6474 41.4191C60.4454 41.3303 60.2412 41.2466 60.0351 41.168V38.5734C60.0351 38.4836 60.0175 38.3946 59.9831 38.3117C59.9488 38.2287 59.8984 38.1533 59.8349 38.0898C59.7714 38.0263 59.696 37.976 59.6131 37.9416C59.5301 37.9073 59.4412 37.8896 59.3514 37.8896H51.2577C51.1679 37.8896 51.079 37.9073 50.996 37.9416C50.913 37.976 50.8376 38.0263 50.7741 38.0898C50.7106 38.1533 50.6603 38.2287 50.6259 38.3117C50.5916 38.3946 50.5739 38.4836 50.574 38.5734V41.17C50.3698 41.2481 50.1676 41.3313 49.9677 41.4198L48.1303 39.5816C47.874 39.3253 47.4199 39.3253 47.1635 39.5816L41.4415 45.3044C41.378 45.3678 41.3276 45.4432 41.2933 45.5262C41.2589 45.6091 41.2412 45.698 41.2412 45.7878C41.2412 45.8776 41.2589 45.9665 41.2933 46.0494C41.3276 46.1324 41.378 46.2077 41.4415 46.2712L43.2762 48.1059C43.186 48.3088 43.1012 48.5141 43.0221 48.7216H40.4259C40.3361 48.7215 40.2472 48.7392 40.1642 48.7735C40.0812 48.8079 40.0059 48.8582 39.9424 48.9217C39.8789 48.9852 39.8285 49.0606 39.7942 49.1436C39.7598 49.2266 39.7422 49.3155 39.7422 49.4053V57.4916C39.7422 57.5814 39.7598 57.6704 39.7942 57.7533C39.8285 57.8363 39.8789 57.9117 39.9424 57.9752C40.0059 58.0387 40.0812 58.089 40.1642 58.1234C40.2472 58.1577 40.3361 58.1754 40.4259 58.1754H43.0209C43.1001 58.3834 43.1851 58.5891 43.276 58.7923L41.4415 60.6265C41.378 60.6899 41.3276 60.7653 41.2933 60.8482C41.2589 60.9312 41.2412 61.0201 41.2412 61.1099C41.2412 61.1996 41.2589 61.2885 41.2933 61.3715C41.3276 61.4544 41.378 61.5298 41.4415 61.5933L47.1635 67.3153C47.2271 67.3789 47.3025 67.4293 47.3855 67.4636C47.4686 67.498 47.5576 67.5157 47.6474 67.5156C47.7373 67.5155 47.8263 67.4977 47.9092 67.4633C47.9922 67.4288 48.0676 67.3782 48.131 67.3146L49.9592 65.4804C50.1618 65.5707 50.3669 65.6555 50.5741 65.7348V68.3307C50.5741 68.4205 50.5917 68.5095 50.6261 68.5924C50.6604 68.6754 50.7108 68.7508 50.7743 68.8143C50.8378 68.8778 50.9132 68.9281 50.9961 68.9625C51.0791 68.9968 51.168 69.0145 51.2578 69.0145H59.3515C59.4413 69.0145 59.5302 68.9968 59.6132 68.9625C59.6962 68.9281 59.7715 68.8778 59.835 68.8143C59.8985 68.7508 59.9489 68.6754 59.9832 68.5924C60.0176 68.5095 60.0353 68.4205 60.0352 68.3307V65.7361C60.2426 65.6567 60.4478 65.5716 60.6505 65.481L62.4783 67.3144C62.5417 67.3781 62.6171 67.4286 62.7001 67.4631C62.7831 67.4976 62.872 67.5154 62.9619 67.5155C63.0518 67.5155 63.1408 67.4979 63.2238 67.4635C63.3068 67.4291 63.3823 67.3787 63.4458 67.3151L69.1678 61.5931C69.2313 61.5296 69.2817 61.4543 69.3161 61.3713C69.3504 61.2884 69.3681 61.1995 69.3681 61.1097C69.3681 61.0199 69.3504 60.931 69.3161 60.8481C69.2817 60.7651 69.2313 60.6898 69.1678 60.6263L67.3334 58.7921C67.4242 58.589 67.5093 58.3832 67.5885 58.1752H70.1834C70.2732 58.1753 70.3621 58.1576 70.4451 58.1233C70.5281 58.0889 70.6035 58.0385 70.667 57.975C70.7305 57.9116 70.7808 57.8362 70.8152 57.7532C70.8495 57.6702 70.8672 57.5813 70.8671 57.4915V49.4051C70.8672 49.3153 70.8495 49.2264 70.8152 49.1434C70.7808 49.0604 70.7304 48.9851 70.6669 48.9216C70.6034 48.8581 70.528 48.8077 70.445 48.7734C70.362 48.739 70.2731 48.7214 70.1833 48.7214ZM69.4996 56.8076H67.1075C66.9645 56.8076 66.8251 56.8524 66.7089 56.9358C66.5927 57.0192 66.5056 57.1369 66.4598 57.2724C66.3042 57.7372 66.1163 58.1905 65.8976 58.6292C65.8335 58.7575 65.8114 58.9028 65.8344 59.0444C65.8575 59.1861 65.9244 59.3169 66.0258 59.4184L67.7174 61.1096L62.9629 65.8642L61.2783 64.1743C61.1772 64.0723 61.0464 64.0049 60.9047 63.9818C60.7629 63.9586 60.6175 63.9809 60.4892 64.0455C60.0503 64.2638 59.597 64.4516 59.1324 64.6077C58.9969 64.6534 58.8792 64.7405 58.7958 64.8567C58.7125 64.9729 58.6676 65.1123 58.6676 65.2553V67.6469H51.9414V65.2553C51.9414 64.9628 51.7558 64.703 51.4793 64.6083C50.9909 64.4406 50.5336 64.2518 50.1199 64.0453C49.9916 63.9808 49.8461 63.9585 49.7044 63.9816C49.5626 64.0048 49.4318 64.0722 49.3307 64.1741L47.6462 65.864L42.8916 61.1095L44.5832 59.4182C44.6846 59.3167 44.7516 59.1859 44.7746 59.0443C44.7976 58.9027 44.7755 58.7574 44.7115 58.629C44.4928 58.1904 44.3049 57.737 44.1492 57.2723C44.1035 57.1368 44.0164 57.0191 43.9002 56.9357C43.784 56.8523 43.6447 56.8075 43.5017 56.8075H41.1096V50.0886H43.5017C43.6442 50.0886 43.7831 50.044 43.899 49.9612C44.015 49.8783 44.1021 49.7613 44.1483 49.6265C44.3176 49.133 44.5068 48.6764 44.7112 48.2678C44.7754 48.1395 44.7976 47.9942 44.7747 47.8525C44.7517 47.7109 44.6848 47.5801 44.5833 47.4786L42.8919 45.7876L47.6471 41.0316L49.3387 42.7235C49.4391 42.8242 49.5685 42.891 49.7087 42.9146C49.849 42.9382 49.9931 42.9173 50.1209 42.855C50.562 42.6411 51.0158 42.4542 51.4796 42.2954C51.6145 42.2493 51.7316 42.1621 51.8144 42.046C51.8973 41.93 51.9418 41.791 51.9417 41.6484V39.2568H58.6679V41.6484C58.6679 41.7914 58.7127 41.9309 58.7961 42.0471C58.8795 42.1633 58.9972 42.2504 59.1327 42.2961C59.5982 42.4539 60.0535 42.6405 60.4958 42.855C60.7579 42.9811 61.0723 42.9291 61.2789 42.7228L62.9632 41.0322L67.7177 45.7874L66.0261 47.4787C65.9247 47.5802 65.8577 47.711 65.8348 47.8527C65.8118 47.9943 65.8341 48.1396 65.8983 48.2679C66.1026 48.6766 66.2919 49.1332 66.4612 49.6266C66.5074 49.7614 66.5945 49.8785 66.7104 49.9613C66.8264 50.0442 66.9653 50.0887 67.1078 50.0887H69.4998L69.4996 56.8076Z" fill="#2A5FAC"/>
<path d="M16.6984 54.1357C16.695 54.135 16.6921 54.1357 16.6884 54.1357C15.3068 54.1357 14.1871 53.018 14.1836 51.6369C14.1806 50.4936 14.9517 49.536 15.9985 49.2332L15.9968 48.591C15.9965 48.5012 16.0139 48.4122 16.048 48.3291C16.0821 48.246 16.1323 48.1705 16.1956 48.1068C16.2589 48.0432 16.3342 47.9926 16.417 47.958C16.4999 47.9234 16.5888 47.9055 16.6786 47.9053H16.6805C16.8615 47.9053 17.0351 47.9771 17.1633 48.1049C17.2914 48.2327 17.3637 48.406 17.3643 48.587L17.3659 49.2286C18.4983 49.5464 19.192 50.5383 19.1946 51.6237C19.1949 51.7135 19.1774 51.8025 19.1433 51.8855C19.1091 51.9686 19.059 52.0441 18.9956 52.1078C18.9323 52.1715 18.857 52.222 18.7742 52.2566C18.6913 52.2912 18.6024 52.3091 18.5126 52.3094H18.5109C18.3299 52.3093 18.1563 52.2376 18.0282 52.1098C17.9 51.982 17.8278 51.8086 17.8272 51.6276C17.8267 51.3261 17.7065 51.0371 17.493 50.8242C17.2796 50.6113 16.9903 50.4917 16.6888 50.4919H16.6856C16.0586 50.4932 15.5495 51.0054 15.5512 51.633C15.5519 51.9342 15.672 52.2229 15.8852 52.4357C16.0984 52.6485 16.3873 52.768 16.6886 52.7681H16.6985C18.0769 52.7681 19.2007 53.8879 19.2046 55.2673C19.2073 56.3461 18.5246 57.3463 17.3887 57.6713L17.3904 58.3125C17.3907 58.4023 17.3733 58.4913 17.3392 58.5743C17.3051 58.6574 17.2549 58.733 17.1916 58.7966C17.1283 58.8603 17.0531 58.9109 16.9702 58.9455C16.8873 58.9801 16.7985 58.998 16.7087 58.9982H16.7067C16.5257 58.9982 16.3521 58.9264 16.224 58.7986C16.0958 58.6708 16.0235 58.4974 16.023 58.3164L16.0213 57.6742C14.9725 57.3772 14.1964 56.4231 14.1933 55.2805C14.1931 55.1907 14.2105 55.1017 14.2447 55.0187C14.2788 54.9356 14.329 54.8601 14.3923 54.7964C14.4556 54.7327 14.5309 54.6821 14.6138 54.6476C14.6967 54.613 14.7855 54.595 14.8753 54.5948H14.877C15.058 54.5948 15.2316 54.6666 15.3598 54.7944C15.4879 54.9222 15.5602 55.0956 15.5607 55.2766C15.5624 55.9029 16.0726 56.4117 16.6985 56.4117H16.7018C17.328 56.4104 17.8386 55.9018 17.8372 55.2714C17.8351 54.6444 17.3247 54.1357 16.6984 54.1357Z" fill="#15C3A9"/>
<path d="M55.3058 43.259C49.6856 43.259 45.1133 47.8313 45.1133 53.4518C45.1133 59.0718 49.6856 63.644 55.3058 63.644C60.926 63.644 65.4983 59.0718 65.4983 53.4518C65.4983 47.8313 60.926 43.259 55.3058 43.259ZM55.3058 62.2766C50.4397 62.2766 46.4807 58.3179 46.4807 53.4518C46.4807 48.5858 50.4397 44.6265 55.3058 44.6265C60.1718 44.6265 64.1308 48.5858 64.1308 53.4518C64.1308 58.3179 60.1718 62.2766 55.3058 62.2766Z" fill="#15C3A9"/>
<path d="M53.7468 26.9181C53.8366 26.9181 53.9255 26.9005 54.0085 26.8661C54.0915 26.8318 54.1669 26.7814 54.2303 26.7179C54.2938 26.6544 54.3442 26.579 54.3786 26.4961C54.4129 26.4131 54.4306 26.3242 54.4305 26.2344V16.5891C54.4306 16.4993 54.4129 16.4103 54.3786 16.3274C54.3442 16.2444 54.2938 16.169 54.2303 16.1055C54.1669 16.042 54.0915 15.9917 54.0085 15.9573C53.9255 15.923 53.8366 15.9053 53.7468 15.9053H50.5593C50.4458 15.6029 50.3224 15.3043 50.1894 15.01L52.4422 12.7572C52.5057 12.6937 52.5561 12.6183 52.5905 12.5354C52.6248 12.4525 52.6425 12.3636 52.6425 12.2738C52.6425 12.184 52.6248 12.0951 52.5905 12.0121C52.5561 11.9292 52.5057 11.8538 52.4422 11.7904L45.6174 4.96542C45.5539 4.90192 45.4786 4.85155 45.3956 4.81719C45.3126 4.78283 45.2237 4.76515 45.1339 4.76517C44.9524 4.7654 44.7777 4.83768 44.6495 4.96612L42.4024 7.22161C42.1092 7.09041 41.8119 6.96838 41.511 6.8557V3.66956C41.5111 3.57976 41.4934 3.49084 41.459 3.40787C41.4247 3.3249 41.3743 3.24951 41.3108 3.18601C41.2473 3.12252 41.172 3.07216 41.089 3.03781C41.006 3.00346 40.9171 2.9858 40.8273 2.98584H31.1737C31.0839 2.9858 30.995 3.00346 30.912 3.03781C30.829 3.07216 30.7536 3.12252 30.6901 3.18601C30.6266 3.24951 30.5763 3.3249 30.5419 3.40787C30.5076 3.49084 30.4899 3.57976 30.49 3.66956V6.85767C30.1917 6.97017 29.897 7.09153 29.606 7.22161L27.3506 4.96542C27.2872 4.90189 27.2118 4.8515 27.1288 4.81712C27.0459 4.78273 26.957 4.76504 26.8672 4.76504C26.7774 4.76504 26.6885 4.78273 26.6055 4.81712C26.5225 4.8515 26.4472 4.90189 26.3837 4.96542L19.5586 11.7905C19.4951 11.854 19.4447 11.9293 19.4104 12.0123C19.376 12.0952 19.3583 12.1841 19.3583 12.2739C19.3583 12.3637 19.376 12.4526 19.4104 12.5355C19.4447 12.6185 19.4951 12.6938 19.5586 12.7573L21.8114 15.0101C21.6787 15.3045 21.5554 15.6031 21.4419 15.9055H18.254C18.1642 15.9054 18.0753 15.9231 17.9923 15.9574C17.9094 15.9918 17.834 16.0422 17.7705 16.1057C17.707 16.1692 17.6566 16.2445 17.6223 16.3275C17.5879 16.4105 17.5703 16.4994 17.5703 16.5892V26.2345C17.5703 26.3243 17.5879 26.4132 17.6223 26.4962C17.6566 26.5792 17.707 26.6546 17.7705 26.7181C17.834 26.7816 17.9094 26.8319 17.9923 26.8663C18.0753 26.9006 18.1642 26.9183 18.254 26.9182H21.4402C21.5536 27.2208 21.6772 27.5194 21.8107 27.8136L19.5589 30.0656C19.4954 30.129 19.445 30.2044 19.4106 30.2873C19.3763 30.3703 19.3586 30.4592 19.3586 30.549C19.3586 30.6388 19.3763 30.7277 19.4106 30.8106C19.445 30.8935 19.4954 30.9689 19.5589 31.0324L26.384 37.8575C26.4475 37.921 26.5228 37.9713 26.6058 38.0057C26.6888 38.0401 26.7777 38.0577 26.8675 38.0577C27.0417 38.0404 27.2234 37.9856 27.3515 37.8568L29.5959 35.6054C29.8813 35.7342 30.18 35.8578 30.4902 35.9746V39.1622C30.4902 39.252 30.5079 39.3409 30.5422 39.4239C30.5766 39.5068 30.6269 39.5822 30.6904 39.6457C30.7539 39.7092 30.8293 39.7596 30.9123 39.7939C30.9952 39.8283 31.0842 39.8459 31.174 39.8459H40.8276C40.9174 39.8459 41.0063 39.8283 41.0893 39.7939C41.1722 39.7596 41.2476 39.7092 41.3111 39.6457C41.3746 39.5822 41.425 39.5068 41.4593 39.4239C41.4937 39.3409 41.5113 39.252 41.5113 39.1622V35.976C41.8138 35.8632 42.1122 35.7396 42.406 35.6055L44.6501 37.8569C44.7135 37.9205 44.7888 37.971 44.8718 38.0055C44.9547 38.04 45.0437 38.0578 45.1335 38.0579C45.3148 38.0577 45.4894 37.9857 45.6177 37.8576L52.4424 31.0325C52.5059 30.969 52.5562 30.8937 52.5906 30.8107C52.625 30.7278 52.6427 30.6389 52.6427 30.5491C52.6427 30.4593 52.625 30.3704 52.5906 30.2875C52.5562 30.2045 52.5059 30.1292 52.4424 30.0657L50.1903 27.8136C50.3239 27.5195 50.4475 27.2208 50.5608 26.9182L53.7468 26.9181ZM48.8815 28.4384L50.992 30.5489L45.1348 36.4065L43.0326 34.2973C42.9313 34.1952 42.8004 34.1278 42.6585 34.1047C42.5167 34.0815 42.3711 34.1038 42.2427 34.1684C41.7239 34.4282 41.1894 34.6498 40.6085 34.8461C40.473 34.8919 40.3553 34.979 40.2719 35.0952C40.1885 35.2114 40.1437 35.3508 40.1437 35.4938V38.4783H31.8575V35.4938C31.8574 35.3513 31.8128 35.2124 31.73 35.0964C31.6472 34.9804 31.5302 34.8932 31.3954 34.8468C30.8033 34.6439 30.2524 34.4155 29.7586 34.1684C29.6301 34.1042 29.4846 34.082 29.3428 34.1051C29.201 34.1283 29.0701 34.1955 28.9687 34.2973L26.8665 36.4065L21.0089 30.5489L23.1194 28.4384C23.2209 28.337 23.2879 28.2062 23.3109 28.0645C23.334 27.9229 23.3118 27.7776 23.2476 27.6492C22.9872 27.1285 22.7658 26.5935 22.5702 26.0154C22.5245 25.8799 22.4374 25.7622 22.3212 25.6788C22.205 25.5954 22.0655 25.5506 21.9225 25.5507H18.9376V17.2728H21.9225C22.065 17.2728 22.204 17.2282 22.3199 17.1454C22.4358 17.0625 22.523 16.9455 22.5691 16.8107C22.7715 16.2205 22.9997 15.6697 23.2475 15.1735C23.3117 15.0452 23.3338 14.8999 23.3108 14.7582C23.2878 14.6166 23.2208 14.4858 23.1192 14.3843L21.0087 12.2738L26.867 6.41554L28.9775 8.52675C29.078 8.62729 29.2074 8.69399 29.3476 8.71755C29.4878 8.74112 29.6318 8.72038 29.7597 8.65823C30.2908 8.40086 30.8369 8.17587 31.3952 7.9845C31.5299 7.93814 31.6469 7.85089 31.7297 7.73491C31.8125 7.61893 31.8571 7.48 31.8573 7.33748V4.35314H40.1434V7.33776C40.1434 7.48078 40.1882 7.62021 40.2716 7.73641C40.355 7.85261 40.4727 7.93972 40.6082 7.98548C41.1687 8.17541 41.7168 8.4002 42.2493 8.65851C42.512 8.78536 42.8259 8.73262 43.0324 8.52632L45.1344 6.41639L50.9915 12.274L48.881 14.3845C48.7796 14.486 48.7126 14.6168 48.6896 14.7584C48.6666 14.9 48.6887 15.0453 48.7528 15.1737C48.9994 15.6671 49.2278 16.2179 49.4314 16.8108C49.4776 16.9456 49.5647 17.0627 49.6807 17.1455C49.7966 17.2284 49.9355 17.2729 50.078 17.2729H53.0625V25.5508H50.078C49.935 25.5508 49.7956 25.5956 49.6794 25.679C49.5632 25.7623 49.4761 25.8801 49.4303 26.0156C49.2337 26.5965 49.012 27.1306 48.7526 27.6494C48.6888 27.7778 48.6668 27.9231 48.69 28.0646C48.7131 28.2062 48.7801 28.3369 48.8815 28.4384Z" fill="#2A5FAC"/>
<path d="M55.3021 52.7681H55.3121C56.6909 52.7681 57.8142 53.8877 57.8178 55.267C57.8204 56.3459 57.1377 57.346 56.0019 57.671L56.0036 58.3122C56.0039 58.402 55.9864 58.491 55.9523 58.5741C55.9182 58.6571 55.8681 58.7327 55.8048 58.7963C55.7415 58.86 55.6662 58.9106 55.5833 58.9452C55.5005 58.9798 55.4116 58.9977 55.3218 58.9979H55.3198C55.1389 58.9979 54.9653 58.9261 54.8371 58.7983C54.709 58.6705 54.6367 58.4971 54.6361 58.3162L54.6344 57.6739C53.5856 57.3769 52.8095 56.4228 52.8064 55.2802C52.8062 55.1904 52.8237 55.1014 52.8578 55.0184C52.8919 54.9353 52.9421 54.8598 53.0055 54.7961C53.0688 54.7324 53.144 54.6819 53.2269 54.6473C53.3098 54.6127 53.3987 54.5948 53.4885 54.5945H53.4902C53.6711 54.5946 53.8447 54.6663 53.9729 54.7941C54.1011 54.9219 54.1733 55.0953 54.1739 55.2763C54.1756 55.9026 54.6858 56.4114 55.3117 56.4114H55.3149C55.9411 56.4101 56.4517 55.9015 56.4503 55.2711C56.4491 54.6498 55.946 54.1354 55.312 54.1354C55.309 54.1347 55.3061 54.1354 55.302 54.1354C53.9205 54.1354 52.8004 53.0178 52.7969 51.6369C52.7939 50.4936 53.565 49.5358 54.6119 49.2332L54.6104 48.591C54.6101 48.5011 54.6275 48.4121 54.6616 48.3291C54.6958 48.246 54.7459 48.1704 54.8093 48.1067C54.8726 48.0431 54.9479 47.9925 55.0308 47.9579C55.1137 47.9233 55.2026 47.9055 55.2924 47.9053H55.2941C55.4751 47.9053 55.6487 47.9771 55.7768 48.1049C55.905 48.2327 55.9773 48.406 55.9778 48.587L55.9794 49.2286C57.1117 49.5464 57.8052 50.5385 57.8079 51.6237C57.8082 51.7135 57.7907 51.8025 57.7566 51.8855C57.7224 51.9686 57.6722 52.0441 57.6089 52.1078C57.5456 52.1714 57.4703 52.222 57.3874 52.2566C57.3046 52.2912 57.2157 52.3091 57.1259 52.3094H57.1242C56.9432 52.3093 56.7696 52.2376 56.6415 52.1098C56.5133 51.982 56.441 51.8086 56.4405 51.6276C56.44 51.3261 56.3198 51.0371 56.1063 50.8242C55.8929 50.6112 55.6036 50.4917 55.3021 50.4919H55.2987C54.6717 50.4932 54.1626 51.0054 54.1643 51.633C54.166 52.2593 54.6762 52.7681 55.3021 52.7681Z" fill="#15C3A9"/>
<path d="M36.0015 9.39087C29.3711 9.39087 23.9766 14.7851 23.9766 21.4159C23.9766 28.0466 29.3711 33.4407 36.0015 33.4407C42.6323 33.4407 48.0268 28.0465 48.0268 21.4157C48.0268 14.785 42.6323 9.39087 36.0015 9.39087ZM36.0015 32.0733C30.125 32.0733 25.344 27.292 25.344 21.4157C25.344 15.5394 30.125 10.7583 36.0015 10.7583C41.8781 10.7583 46.6594 15.5396 46.6594 21.4159C46.6594 27.2922 41.8781 32.0733 36.0015 32.0733Z" fill="#15C3A9"/>
<path d="M36.0049 20.7323C36.001 20.7315 35.9969 20.7315 35.993 20.7323C35.1667 20.7323 34.5064 20.0621 34.5043 19.2475C34.5019 18.4262 35.1679 17.7558 35.9892 17.7539H35.9931C36.82 17.7539 37.4806 18.4232 37.4827 19.2401C37.4833 19.4211 37.5556 19.5945 37.6837 19.7223C37.8119 19.8501 37.9855 19.9219 38.1665 19.9219H38.1684C38.3498 19.9213 38.5234 19.8488 38.6513 19.7202C38.7791 19.5916 38.8507 19.4175 38.8502 19.2362C38.8468 17.9479 37.9856 16.7955 36.6692 16.4762L36.6668 15.6141C36.6663 15.4331 36.594 15.2598 36.4658 15.132C36.3377 15.0042 36.1641 14.9324 35.9831 14.9324H35.9812C35.8914 14.9326 35.8025 14.9505 35.7196 14.9851C35.6367 15.0197 35.5615 15.0703 35.4982 15.1339C35.4349 15.1976 35.3847 15.2732 35.3506 15.3562C35.3165 15.4393 35.2991 15.5283 35.2994 15.6181L35.3018 16.4805C34.0584 16.7924 33.1331 17.9128 33.1367 19.2517C33.1408 20.8261 34.4177 22.1 35.9924 22.1H36.0048C36.8243 22.1 37.492 22.7657 37.4944 23.5856C37.4964 24.4061 36.8301 25.0765 36.0084 25.0785H36.0045C35.1856 25.0785 34.5182 24.4135 34.5158 23.5936C34.5153 23.4126 34.443 23.2392 34.3148 23.1115C34.1867 22.9837 34.0131 22.9119 33.8321 22.9119H33.8302C33.7404 22.9121 33.6515 22.93 33.5686 22.9646C33.4857 22.9992 33.4105 23.0497 33.3472 23.1134C33.2839 23.1771 33.2337 23.2526 33.1996 23.3357C33.1655 23.4188 33.1481 23.5077 33.1484 23.5975C33.1521 24.9357 34.0834 26.0513 35.3282 26.3562L35.3303 27.2184C35.3309 27.3993 35.4032 27.5727 35.5313 27.7005C35.6595 27.8283 35.8331 27.9001 36.0141 27.9001C36.4147 27.8981 36.699 27.593 36.6978 27.2144L36.6957 26.3521C37.9394 26.0402 38.8652 24.92 38.8619 23.5817C38.8576 22.0089 37.5767 20.7323 36.0049 20.7323Z" fill="#15C3A9"/>
</svg>
