<svg width="72" height="72" viewBox="0 0 72 72" fill="none" xmlns="http://www.w3.org/2000/svg">
<path d="M65.0625 35.2164H62.1316C61.7918 33.9022 60.7535 32.8653 59.4375 32.5259V28.6019H57.5625V32.5259C56.2465 32.8653 55.2082 33.9022 54.8684 35.2164H51.9375C51.4195 35.2164 51 35.6354 51 36.1526V64.2396H43.5V43.6425C43.5 43.1252 43.0805 42.7063 42.5625 42.7063H39.6316C39.2918 41.392 38.2535 40.3551 36.9375 40.0158V36.0918H35.0625V40.0158C33.7465 40.3551 32.7082 41.392 32.3684 42.7063H29.4375C28.9195 42.7063 28.5 43.1252 28.5 43.6425V64.2396H21V28.6628C21 28.1455 20.5805 27.7265 20.0625 27.7265H17.1316C16.7918 26.4123 15.7535 25.3754 14.4375 25.036V21.1121H12.5625V25.036C11.2465 25.3754 10.2082 26.4123 9.86836 27.7265H6.9375C6.41953 27.7265 6 28.1455 6 28.6628V65.1758C6 65.6931 6.41953 66.1121 6.9375 66.1121H65.0625C65.5805 66.1121 66 65.6931 66 65.1758V36.1526C66 35.6354 65.5805 35.2164 65.0625 35.2164ZM58.5 34.2802C59.5336 34.2802 60.375 35.1204 60.375 36.1526C60.375 37.1848 59.5336 38.0251 58.5 38.0251C57.4664 38.0251 56.625 37.1848 56.625 36.1526C56.625 35.1204 57.4664 34.2802 58.5 34.2802ZM36 41.77C37.0336 41.77 37.875 42.6103 37.875 43.6425C37.875 44.6747 37.0336 45.515 36 45.515C34.9664 45.515 34.125 44.6747 34.125 43.6425C34.125 42.6103 34.9664 41.77 36 41.77ZM13.5 26.7903C14.5336 26.7903 15.375 27.6306 15.375 28.6628C15.375 29.695 14.5336 30.5352 13.5 30.5352C12.4664 30.5352 11.625 29.695 11.625 28.6628C11.625 27.6306 12.4664 26.7903 13.5 26.7903ZM7.875 64.2396V29.599H9.86836C10.2855 31.2128 11.7551 32.4077 13.5 32.4077C15.2449 32.4077 16.7145 31.2128 17.1316 29.599H19.125V64.2396H7.875ZM30.375 64.2396V44.5787H32.3684C32.7855 46.1926 34.2551 47.3874 36 47.3874C37.7449 47.3874 39.2145 46.1926 39.6316 44.5787H41.625V64.2396H30.375ZM52.875 64.2396V37.0889H54.8684C55.2855 38.7027 56.7551 39.8976 58.5 39.8976C60.2449 39.8976 61.7145 38.7027 62.1316 37.0889H64.125V64.2396H52.875Z" fill="#2A5FAC"/>
<path d="M36.0049 25.3906C36.2473 25.3906 36.4453 25.5879 36.4453 25.833V30.4199L37.2998 29.5645L37.5742 29.2891C37.7242 29.1388 37.9565 29.1197 38.127 29.2324L38.1953 29.2891C38.3457 29.4398 38.3649 29.6733 38.252 29.8447L38.1953 29.9141C37.1731 30.9382 36.7022 31.4109 36.4795 31.6338C36.3675 31.7459 36.3223 31.7908 36.3018 31.8105L36.291 31.8203L36.2881 31.8223C36.1971 31.8984 36.0826 31.9372 35.9609 31.9248L35.9619 31.9238C35.8677 31.9145 35.8562 31.908 35.8447 31.9023C35.8175 31.8888 35.7568 31.8499 35.6123 31.7168C35.465 31.5811 35.2715 31.3869 34.9873 31.0986L33.8145 29.9141C33.664 29.7633 33.6457 29.5289 33.7588 29.3574L33.8145 29.2891C33.9644 29.1389 34.1967 29.1198 34.3672 29.2324L34.4365 29.2891L34.7109 29.5645L35.5654 30.4199V25.833C35.5654 25.588 35.7626 25.3908 36.0049 25.3906ZM58.5635 17.8428C58.6195 17.8428 58.7631 17.8799 59.1592 18.249C59.35 18.4269 59.5625 18.6447 59.8213 18.9111L60.7588 19.8682C60.9091 20.0188 60.9281 20.2524 60.8154 20.4238L60.7588 20.4932C60.609 20.6432 60.3774 20.6622 60.207 20.5498L60.1377 20.4932L59.8623 20.2178L59.0088 19.3623V23.9492C59.0087 24.1943 58.8107 24.3906 58.5684 24.3906C58.3261 24.3905 58.129 24.1942 58.1289 23.9492V19.3584L57.2734 20.2188C57.0994 20.3939 57.0256 20.4796 56.9287 20.5488C56.8633 20.5955 56.8007 20.623 56.6885 20.623C56.3242 20.623 56.1253 20.2039 56.3311 19.9219L56.377 19.8682C57.122 19.1214 57.5866 18.611 57.9678 18.2529C58.3632 17.8815 58.5069 17.843 58.5635 17.8428ZM13.4355 10.3066C13.4913 10.3067 13.6342 10.3441 14.0303 10.7139C14.2211 10.892 14.4337 11.1095 14.6924 11.376L15.6299 12.333C15.7802 12.4837 15.7993 12.7173 15.6865 12.8887L15.6299 12.958C15.4799 13.1081 15.2476 13.1273 15.0771 13.0146L15.0088 12.958L14.7334 12.6826L13.8799 11.8271V16.4141C13.8796 16.659 13.6817 16.8555 13.4395 16.8555C13.1972 16.8554 12.9993 16.659 12.999 16.4141V11.8232L12.1445 12.6826C11.9702 12.858 11.8968 12.9444 11.7998 13.0137C11.7344 13.0604 11.6717 13.0878 11.5596 13.0879C11.1942 13.0879 10.9959 12.6681 11.2012 12.3867L11.248 12.333C11.994 11.5854 12.4595 11.0738 12.8408 10.7158C13.2364 10.3445 13.3794 10.3068 13.4355 10.3066Z" fill="#15C3A9" stroke="#15C3A9"/>
<path d="M13.4363 20.212C17.047 20.212 19.9741 17.2795 19.9741 13.662C19.9741 10.0446 17.047 7.11206 13.4363 7.11206C9.82553 7.11206 6.89844 10.0446 6.89844 13.662C6.89844 17.2795 9.82553 20.212 13.4363 20.212Z" stroke="#15C3A9" stroke-width="2" stroke-miterlimit="10"/>
<path d="M35.9988 35.2088C39.6095 35.2088 42.5366 32.2763 42.5366 28.6589C42.5366 25.0414 39.6095 22.1089 35.9988 22.1089C32.388 22.1089 29.4609 25.0414 29.4609 28.6589C29.4609 32.2763 32.388 35.2088 35.9988 35.2088Z" stroke="#15C3A9" stroke-width="2" stroke-miterlimit="10"/>
<path d="M58.5652 27.6673C62.1759 27.6673 65.103 24.7348 65.103 21.1174C65.103 17.4999 62.1759 14.5674 58.5652 14.5674C54.9544 14.5674 52.0273 17.4999 52.0273 21.1174C52.0273 24.7348 54.9544 27.6673 58.5652 27.6673Z" stroke="#15C3A9" stroke-width="2" stroke-miterlimit="10"/>
</svg>
