<svg width="72" height="72" viewBox="0 0 72 72" fill="none" xmlns="http://www.w3.org/2000/svg">
<path d="M39.9038 63H6.75V9H14.625C15.2437 9 15.75 8.49375 15.75 7.875C15.75 7.25625 15.2437 6.75 14.625 6.75H5.625C5.00625 6.75 4.5 7.25625 4.5 7.875V64.125C4.5 64.7438 5.00625 65.25 5.625 65.25H39.9038C40.5225 65.25 41.0288 64.7438 41.0288 64.125C41.0288 63.5062 40.5225 63 39.9038 63ZM43.875 9H51.75V32.625C51.75 33.2437 52.2562 33.75 52.875 33.75C53.4938 33.75 54 33.2437 54 32.625V7.875C54 7.25625 53.4938 6.75 52.875 6.75H43.875C43.2562 6.75 42.75 7.25625 42.75 7.875C42.75 8.49375 43.2562 9 43.875 9Z" fill="#2A5FAC"/>
<path d="M19.125 13.5H39.375C39.9937 13.5 40.5 12.9937 40.5 12.375V7.875C40.5 7.25625 39.9937 6.75 39.375 6.75H34.7625C34.245 4.185 31.9725 2.25 29.25 2.25C26.5275 2.25 24.2663 4.185 23.7375 6.75H19.125C18.5062 6.75 18 7.25625 18 7.875V12.375C18 12.9937 18.5062 13.5 19.125 13.5ZM20.25 9H24.75C25.3687 9 25.875 8.49375 25.875 7.875C25.875 6.01875 27.3937 4.5 29.25 4.5C31.1063 4.5 32.625 6.01875 32.625 7.875C32.625 8.49375 33.1313 9 33.75 9H38.25V11.25H20.25V9ZM18 41.625C18 41.0062 17.4938 40.5 16.875 40.5H12.375C11.7562 40.5 11.25 41.0062 11.25 41.625V46.125C11.25 46.7438 11.7562 47.25 12.375 47.25H16.875C17.4938 47.25 18 46.7438 18 46.125V41.625ZM15.75 45H13.5V42.75H15.75V45ZM16.875 51.75H12.375C11.7562 51.75 11.25 52.2562 11.25 52.875V57.375C11.25 57.9938 11.7562 58.5 12.375 58.5H16.875C17.4938 58.5 18 57.9938 18 57.375V52.875C18 52.2562 17.4938 51.75 16.875 51.75ZM15.75 56.25H13.5V54H15.75V56.25ZM46.125 18H22.5C21.8813 18 21.375 18.5063 21.375 19.125C21.375 19.7437 21.8813 20.25 22.5 20.25H46.125C46.7438 20.25 47.25 19.7437 47.25 19.125C47.25 18.5063 46.7438 18 46.125 18ZM22.5 24.75H33.75C34.3687 24.75 34.875 24.2437 34.875 23.625C34.875 23.0063 34.3687 22.5 33.75 22.5H22.5C21.8813 22.5 21.375 23.0063 21.375 23.625C21.375 24.2437 21.8813 24.75 22.5 24.75ZM47.25 30.375C47.25 29.7563 46.7438 29.25 46.125 29.25H22.5C21.8813 29.25 21.375 29.7563 21.375 30.375C21.375 30.9937 21.8813 31.5 22.5 31.5H46.125C46.7438 31.5 47.25 30.9937 47.25 30.375ZM22.5 36H33.75C34.3687 36 34.875 35.4938 34.875 34.875C34.875 34.2562 34.3687 33.75 33.75 33.75H22.5C21.8813 33.75 21.375 34.2562 21.375 34.875C21.375 35.4938 21.8813 36 22.5 36ZM22.5 42.75H34.9312C35.55 42.75 36.0562 42.2438 36.0562 41.625C36.0562 41.0062 35.55 40.5 34.9312 40.5H22.5C21.8813 40.5 21.375 41.0062 21.375 41.625C21.375 42.2438 21.8813 42.75 22.5 42.75ZM22.5 47.25H33.75C34.3687 47.25 34.875 46.7438 34.875 46.125C34.875 45.5062 34.3687 45 33.75 45H22.5C21.8813 45 21.375 45.5062 21.375 46.125C21.375 46.7438 21.8813 47.25 22.5 47.25ZM36.8775 52.875C36.8775 52.2562 36.3713 51.75 35.7525 51.75H22.5C21.8813 51.75 21.375 52.2562 21.375 52.875C21.375 53.4938 21.8813 54 22.5 54H35.7525C36.3713 54 36.8775 53.4938 36.8775 52.875ZM22.5 56.25C21.8813 56.25 21.375 56.7562 21.375 57.375C21.375 57.9938 21.8813 58.5 22.5 58.5H33.75C34.3687 58.5 34.875 57.9938 34.875 57.375C34.875 56.7562 34.3687 56.25 33.75 56.25H22.5Z" fill="#2A5FAC"/>
<path d="M11.6563 20.5086C12.1401 20.1149 12.8488 20.1824 13.2426 20.6549H13.2313L14.2438 21.8699L17.1351 18.4049C17.5288 17.9211 18.2376 17.8536 18.7213 18.2586C19.2051 18.6636 19.2613 19.3724 18.8676 19.8449L15.1213 24.3449C14.9076 24.6036 14.5926 24.7499 14.2551 24.7499C13.9176 24.7499 13.6026 24.6036 13.3888 24.3449L11.5101 22.0949C11.1163 21.6111 11.1838 20.9024 11.6563 20.5086Z" fill="#15C3A9"/>
<path d="M17.1351 29.6549C17.5288 29.1711 18.2488 29.1149 18.7213 29.5086H18.7101C19.1938 29.9136 19.2501 30.6224 18.8563 31.0949L15.1101 35.5949C14.8963 35.8536 14.5813 35.9999 14.2438 35.9999C13.9063 35.9999 13.5913 35.8536 13.3776 35.5949L11.4988 33.3449C11.1051 32.8611 11.1726 32.1524 11.6451 31.7586C12.1288 31.3649 12.8376 31.4324 13.2313 31.9049L14.2438 33.1199L17.1351 29.6549Z" fill="#15C3A9"/>
<path d="M66.3555 41.3886C66.9518 41.3886 67.4468 41.8611 67.4805 42.4574V42.4686C67.5255 43.4136 68.4705 65.8911 53.148 69.7274C53.0581 69.7611 52.9681 69.7611 52.8781 69.7611H52.878C52.788 69.7611 52.698 69.7499 52.608 69.7274C37.2855 65.8911 38.2305 43.4249 38.2755 42.4686C38.3093 41.8724 38.8043 41.3999 39.4005 41.3999C48.8168 41.3999 52.0905 38.5874 52.1243 38.5536C52.5518 38.1599 53.2155 38.1599 53.643 38.5536C53.6655 38.5761 56.9393 41.3886 66.3555 41.3886Z" fill="#15C3A9"/>
<path d="M40.5039 43.6275C40.5264 47.97 41.3589 64.3275 52.8789 67.4663C64.4102 64.3275 65.2427 47.97 65.2539 43.6275C58.0652 43.47 54.3527 41.7038 52.8789 40.77C51.4052 41.6925 47.6927 43.4588 40.5039 43.6275Z" fill="white"/>
<path d="M48.0364 52.6386C47.5977 52.1999 46.8889 52.1999 46.4502 52.6386C46.0114 53.0774 46.0114 53.7861 46.4502 54.2249L49.8252 57.5999C50.0502 57.8249 50.3314 57.9261 50.6239 57.9261C50.9164 57.9261 51.1977 57.8136 51.4227 57.5999L59.2977 49.7249C59.7364 49.2861 59.7364 48.5774 59.2977 48.1386C58.8589 47.6999 58.1502 47.6999 57.7114 48.1386L50.6352 55.2149L48.0589 52.6386H48.0364Z" fill="#15C3A9"/>
</svg>
