<svg width="64" height="65" viewBox="0 0 64 65" fill="none" xmlns="http://www.w3.org/2000/svg">
<circle cx="24" cy="30" r="8" fill="#2A5FAC"/>
<path d="M8 51.1666H56V56.5H8V51.1666Z" fill="#2A5FAC"/>
<path d="M42.6693 37.8333C42.6693 40.7667 45.0693 43.1667 48.0026 43.1667C50.9359 43.1667 53.3359 40.7667 53.3359 37.8333C53.3359 34.9 50.9359 32.5 48.0026 32.5H47.4693L44.0026 25.3C44.8026 24.5 45.3359 23.1667 45.3359 21.8333C45.3359 18.9 42.9359 16.5 40.0026 16.5C37.0693 16.5 34.6693 18.9 34.6693 21.8333V22.3667L27.4693 25.8333C26.6693 25.0333 25.3359 24.5 24.0026 24.5H23.4693L20.0026 17.3C20.8026 16.5 21.3359 15.1667 21.3359 13.8333C21.3359 10.9 18.9359 8.5 16.0026 8.5C13.0693 8.5 10.6693 10.9 10.6693 13.8333C10.6693 16.7667 13.0693 19.1667 16.0026 19.1667H16.5359L20.0026 26.3667C19.2026 27.4333 18.6693 28.5 18.6693 29.8333C18.6693 32.7667 21.0693 35.1667 24.0026 35.1667C26.9359 35.1667 29.3359 32.7667 29.3359 29.8333V29.5667L36.5359 25.8333C37.3359 26.6333 38.6693 27.1667 40.0026 27.1667H40.5359L44.0026 34.3667C43.2026 35.1667 42.6693 36.5 42.6693 37.8333Z" fill="#15C3A9"/>
</svg>
