<svg width="64" height="65" viewBox="0 0 64 65" fill="none" xmlns="http://www.w3.org/2000/svg">
<path d="M8 51.1666H56V56.5H8V51.1666Z" fill="#2A5FAC"/>
<path d="M21.3346 37.8333C21.3346 40.7667 18.9346 43.1667 16.0013 43.1667C13.068 43.1667 10.668 40.7667 10.668 37.8333C10.668 34.9 13.068 32.5 16.0013 32.5H16.5346L20.0013 25.3C19.2013 24.5 18.668 23.1667 18.668 21.8333C18.668 18.9 21.068 16.5 24.0013 16.5C26.9346 16.5 29.3346 18.9 29.3346 21.8333V22.3667L36.5346 25.8333C37.3346 25.0333 38.668 24.5 40.0013 24.5H40.5346L44.0013 17.3C43.2013 16.5 42.668 15.1667 42.668 13.8333C42.668 10.9 45.068 8.5 48.0013 8.5C50.9346 8.5 53.3346 10.9 53.3346 13.8333C53.3346 16.7667 50.9346 19.1667 48.0013 19.1667H47.468L44.0013 26.3667C44.8013 27.4333 45.3346 28.5 45.3346 29.8333C45.3346 32.7667 42.9346 35.1667 40.0013 35.1667C37.068 35.1667 34.668 32.7667 34.668 29.8333V29.5667L27.468 25.8333C26.668 26.6333 25.3346 27.1667 24.0013 27.1667H23.468L20.0013 34.3667C20.8013 35.1667 21.3346 36.5 21.3346 37.8333Z" fill="#15C3A9"/>
<path d="M47.9987 19.6667C51.6654 19.6667 54.6654 16.6667 54.6654 13C54.6654 9.33337 51.6654 6.33337 47.9987 6.33337C44.332 6.33337 41.332 9.33337 41.332 13C41.332 16.6667 44.332 19.6667 47.9987 19.6667Z" fill="#15C3A9"/>
<path d="M45.168 12.9999L47.0546 14.8866L50.8346 11.1133" stroke="white" stroke-width="1.5" stroke-linecap="round" stroke-linejoin="round"/>
</svg>
