<svg width="64" height="65" viewBox="0 0 64 65" fill="none" xmlns="http://www.w3.org/2000/svg">
<path d="M45.1267 28.5089C45.1267 32.3727 43.9043 35.9418 41.8453 38.8375L52.2309 49.5028C53.2564 50.5551 53.2564 52.2639 52.2309 53.3161C51.2055 54.3683 49.5402 54.3683 48.5147 53.3161L38.1291 42.6508C35.307 44.7721 31.8288 46.0179 28.0633 46.0179C18.6375 46.0179 11 38.181 11 28.5089C11 18.8369 18.6375 11 28.0633 11C37.4892 11 45.1267 18.8369 45.1267 28.5089ZM28.0633 40.6305C29.6146 40.6305 31.1508 40.317 32.584 39.7078C34.0172 39.0987 35.3195 38.2058 36.4164 37.0802C37.5134 35.9546 38.3835 34.6183 38.9772 33.1477C39.5709 31.677 39.8764 30.1008 39.8764 28.5089C39.8764 26.9171 39.5709 25.3409 38.9772 23.8702C38.3835 22.3996 37.5134 21.0633 36.4164 19.9377C35.3195 18.8121 34.0172 17.9192 32.584 17.3101C31.1508 16.7009 29.6146 16.3874 28.0633 16.3874C26.512 16.3874 24.9759 16.7009 23.5427 17.3101C22.1094 17.9192 20.8072 18.8121 19.7102 19.9377C18.6133 21.0633 17.7431 22.3996 17.1495 23.8702C16.5558 25.3409 16.2503 26.9171 16.2503 28.5089C16.2503 30.1008 16.5558 31.677 17.1495 33.1477C17.7431 34.6183 18.6133 35.9546 19.7102 37.0802C20.8072 38.2058 22.1094 39.0987 23.5427 39.7078C24.9759 40.317 26.512 40.6305 28.0633 40.6305Z" fill="#2A5FAC"/>
<path d="M35.1819 32.5663L29.1332 21.534C28.7045 20.7518 27.5624 20.7518 27.1333 21.534L21.0849 32.5663C20.9919 32.7361 20.9452 32.9268 20.9495 33.1196C20.9538 33.3124 21.0089 33.5008 21.1095 33.6664C21.2101 33.8321 21.3527 33.9693 21.5233 34.0646C21.694 34.16 21.8869 34.2103 22.0833 34.2105H34.1818C34.3783 34.2106 34.5714 34.1605 34.7424 34.0653C34.9133 33.97 35.0561 33.8329 35.1569 33.6672C35.2577 33.5015 35.313 33.313 35.3174 33.12C35.3217 32.927 35.2751 32.7363 35.1819 32.5663ZM28.1334 32.5025C27.993 32.5025 27.8558 32.4617 27.7391 32.3851C27.6223 32.3085 27.5314 32.1996 27.4776 32.0722C27.4239 31.9448 27.4099 31.8046 27.4373 31.6694C27.4646 31.5342 27.5322 31.4099 27.6315 31.3124C27.7308 31.2149 27.8573 31.1486 27.995 31.1217C28.1326 31.0948 28.2754 31.1086 28.4051 31.1613C28.5348 31.2141 28.6456 31.3034 28.7236 31.4181C28.8016 31.5327 28.8432 31.6675 28.8432 31.8054C28.8432 31.9903 28.7685 32.1676 28.6353 32.2984C28.5022 32.4291 28.3217 32.5025 28.1334 32.5025ZM28.9043 25.491L28.7006 29.7436C28.7006 29.8915 28.6407 30.0334 28.5343 30.138C28.4278 30.2426 28.2833 30.3013 28.1327 30.3013C27.9821 30.3013 27.8377 30.2426 27.7312 30.138C27.6247 30.0334 27.5649 29.8915 27.5649 29.7436L27.3611 25.4928C27.3566 25.3912 27.3729 25.2897 27.4091 25.1945C27.4452 25.0992 27.5006 25.0121 27.5718 24.9383C27.643 24.8645 27.7286 24.8055 27.8235 24.7649C27.9184 24.7243 28.0207 24.7028 28.1242 24.7019H28.1317C28.2359 24.7018 28.339 24.7225 28.4349 24.7627C28.5308 24.8028 28.6173 24.8617 28.6894 24.9356C28.7615 25.0096 28.8176 25.0971 28.8542 25.1929C28.8909 25.2887 28.9075 25.3908 28.9029 25.4931L28.9043 25.491Z" fill="#15C3A9"/>
</svg>
