<svg width="64" height="65" viewBox="0 0 64 65" fill="none" xmlns="http://www.w3.org/2000/svg">
<path fill-rule="evenodd" clip-rule="evenodd" d="M17.9981 30.1827C16.9632 30.1823 15.9664 30.5732 15.2075 31.2769C14.4487 31.9806 13.9838 32.9452 13.9062 33.9772L13.896 34.2848V46.5914C13.8956 47.6263 14.2865 48.6231 14.9902 49.382C15.6939 50.1409 16.6585 50.6057 17.6905 50.6833L17.9981 50.6936H26.2025C27.2374 50.6939 28.2342 50.303 28.9931 49.5993C29.752 48.8956 30.2168 47.9311 30.2944 46.899L30.3047 46.5914V34.2848C30.305 33.2499 29.9141 32.2531 29.2104 31.4942C28.5067 30.7354 27.5422 30.2705 26.5102 30.1929L26.2025 30.1827H17.9981ZM17.9981 13.7739C16.9102 13.7739 15.8668 14.2061 15.0975 14.9754C14.3282 15.7447 13.896 16.7881 13.896 17.8761V21.9783C13.896 23.0663 14.3282 24.1097 15.0975 24.879C15.8668 25.6483 16.9102 26.0805 17.9981 26.0805H26.2025C27.2905 26.0805 28.3339 25.6483 29.1032 24.879C29.8725 24.1097 30.3047 23.0663 30.3047 21.9783V17.8761C30.3047 16.7881 29.8725 15.7447 29.1032 14.9754C28.3339 14.2061 27.2905 13.7739 26.2025 13.7739H17.9981Z" fill="#2A5FAC"/>
<path fill-rule="evenodd" clip-rule="evenodd" d="M41.3003 13.0618C40.2494 12.7802 39.1297 12.9276 38.1875 13.4716C37.2453 14.0156 36.5578 14.9116 36.2762 15.9625L33.091 27.8497C32.8094 28.9006 32.9568 30.0203 33.5008 30.9625C34.0448 31.9047 34.9408 32.5922 35.9917 32.8738L43.9165 34.9972C44.9674 35.2788 46.0871 35.1314 47.0293 34.5874C47.9715 34.0434 48.659 33.1475 48.9406 32.0966L52.1258 20.2094C52.4074 19.1585 52.26 18.0387 51.716 17.0965C51.172 16.1543 50.276 15.4668 49.2251 15.1852L41.3003 13.0618Z" fill="#15C3A9"/>
<path fill-rule="evenodd" clip-rule="evenodd" d="M38.5099 38.3871C37.4219 38.3871 36.3785 38.8193 35.6092 39.5886C34.8399 40.3579 34.4077 41.4013 34.4077 42.4893V46.5914C34.4077 47.6794 34.8399 48.7228 35.6092 49.4921C36.3785 50.2614 37.4219 50.6936 38.5099 50.6936H46.7142C47.8022 50.6936 48.8456 50.2614 49.6149 49.4921C50.3842 48.7228 50.8164 47.6794 50.8164 46.5914V42.4893C50.8164 41.4013 50.3842 40.3579 49.6149 39.5886C48.8456 38.8193 47.8022 38.3871 46.7142 38.3871H38.5099Z" fill="#2A5FAC"/>
</svg>
