<svg width="82" height="82" viewBox="0 0 82 82" fill="none" xmlns="http://www.w3.org/2000/svg">
<rect x="1" y="1" width="80" height="80" rx="17" stroke="#2F9AFB" stroke-opacity="0.1" stroke-width="2"/>
<g clip-path="url(#clip0_1023_1547)">
<path d="M42.965 37.5196L39.0875 40.5346C36.725 42.3796 33.2975 41.8996 31.5275 39.4696C29.8625 37.1821 30.2825 33.9871 32.48 32.2096L38.72 27.1621C37.85 26.7946 36.9125 26.6071 35.96 26.6071C34.55 26.5996 33.1775 27.0196 32 27.7996L26.6 31.3996V48.1996H28.715L35.57 54.4546C37.04 55.7971 39.3125 55.6921 40.655 54.2221C41.0675 53.7646 41.345 53.2321 41.4875 52.6771L42.7625 53.8471C44.225 55.1896 46.505 55.0921 47.8475 53.6296C48.185 53.2621 48.4325 52.8346 48.59 52.3921C50.045 53.3671 52.025 53.1646 53.2475 51.8296C54.59 50.3671 54.4925 48.0871 53.03 46.7446L42.965 37.5196ZM18.2 31.3996C17.54 31.3996 17 31.9396 17 32.5996V48.1996C17 49.5271 18.0725 50.5996 19.4 50.5996H21.8C23.1275 50.5996 24.2 49.5271 24.2 48.1996V31.3996H18.2ZM20.6 45.7996C20.9183 45.7996 21.2235 45.926 21.4485 46.1511C21.6736 46.3761 21.8 46.6814 21.8 46.9996C21.8 47.3179 21.6736 47.6231 21.4485 47.8481C21.2235 48.0732 20.9183 48.1996 20.6 48.1996C20.2817 48.1996 19.9765 48.0732 19.7515 47.8481C19.5264 47.6231 19.4 47.3179 19.4 46.9996C19.4 46.6814 19.5264 46.3761 19.7515 46.1511C19.9765 45.926 20.2817 45.7996 20.6 45.7996Z" fill="#195BD7"/>
<path d="M33.995 34.0696L41.255 28.1896C42.53 27.1621 44.12 26.5996 45.755 26.5996C47.12 26.5996 48.4625 26.9896 49.61 27.7246L55.055 31.2121L55.3475 31.3996H55.4V45.5596L44.975 35.9596L46.5425 34.7446C47.0675 34.3321 47.165 33.5821 46.7525 33.0571C46.34 32.5321 45.59 32.4421 45.065 32.8471L37.6175 38.6371C36.32 39.6496 34.4375 39.3871 33.47 38.0521C32.555 36.7996 32.7875 35.0446 33.995 34.0696Z" fill="#15C3A9"/>
<path d="M57.8008 48.1994V31.3994H63.8008C64.4608 31.3994 65.0008 31.9394 65.0008 32.5994V48.1994C65.0008 49.5269 63.9283 50.5994 62.6008 50.5994H60.2008C58.8733 50.5994 57.8008 49.5269 57.8008 48.1994Z" fill="#15C3A9"/>
<path d="M60.5507 46.1513C60.3256 46.3763 60.1992 46.6815 60.1992 46.9998C60.1992 47.3181 60.3256 47.6233 60.5507 47.8483C60.7757 48.0734 61.081 48.1998 61.3992 48.1998C61.7175 48.1998 62.0227 48.0734 62.2477 47.8483C62.4728 47.6233 62.5992 47.3181 62.5992 46.9998C62.5992 46.6815 62.4728 46.3763 62.2477 46.1513C62.0227 45.9262 61.7175 45.7998 61.3992 45.7998C61.081 45.7998 60.7757 45.9262 60.5507 46.1513Z" fill="white"/>
</g>
<defs>
<clipPath id="clip0_1023_1547">
<rect width="48" height="48" fill="white" transform="translate(17 17)"/>
</clipPath>
</defs>
</svg>
