<svg width="48" height="48" viewBox="0 0 48 48" fill="none" xmlns="http://www.w3.org/2000/svg">
<path d="M16.5 15C16.5 13.0109 17.2902 11.1032 18.6967 9.6967C20.1032 8.29018 22.0109 7.5 24 7.5C25.9891 7.5 27.8968 8.29018 29.3033 9.6967C30.7098 11.1032 31.5 13.0109 31.5 15C31.5 16.9891 30.7098 18.8968 29.3033 20.3033C27.8968 21.7098 25.9891 22.5 24 22.5C22.0109 22.5 20.1032 21.7098 18.6967 20.3033C17.2902 18.8968 16.5 16.9891 16.5 15Z" fill="#195BD7"/>
<path d="M23.9999 25.5C31.8839 25.5 39.9739 30.628 40.4979 40.924C40.5181 41.3213 40.3796 41.7103 40.1129 42.0055C39.8462 42.3007 39.4732 42.4778 39.0759 42.498C34.9179 42.71 15.6519 42.84 8.92193 42.498C8.525 42.4773 8.1525 42.2999 7.88626 42.0048C7.62001 41.7097 7.48178 41.321 7.50193 40.924C8.02593 30.626 16.1159 25.5 23.9999 25.5Z" fill="#15C3A9"/>
<path d="M28.9635 31.2608C28.9001 30.8681 28.6834 30.5167 28.3609 30.2838C28.0384 30.051 27.6366 29.9558 27.2439 30.0192C26.8512 30.0826 26.4998 30.2993 26.2669 30.6218L22.8409 35.3638L21.6449 33.9958C21.3829 33.6964 21.0126 33.5133 20.6156 33.4868C20.2186 33.4604 19.8273 33.5928 19.5279 33.8548C19.2285 34.1168 19.0454 34.4871 19.0189 34.8841C18.9925 35.2811 19.1249 35.6724 19.3869 35.9718L21.4549 38.3358C21.648 38.556 21.8882 38.7298 22.1577 38.8443C22.4272 38.9588 22.7191 39.0111 23.0116 38.9973C23.3041 38.9834 23.5897 38.9038 23.8472 38.7644C24.1047 38.6249 24.3275 38.4292 24.4989 38.1918L28.6989 32.3778C28.9317 32.0553 29.0269 31.6535 28.9635 31.2608Z" fill="white"/>
</svg>
