<svg width="24" height="24" viewBox="0 0 24 24" fill="none" xmlns="http://www.w3.org/2000/svg">
<path d="M9.72583 14.84L16.3742 9.72C16.7004 9.46957 17.1667 9.56609 17.3217 9.95696C18.1392 12.0126 17.7733 14.4835 16.1471 16.1809C14.5208 17.877 12.2583 18.2487 10.1892 17.4017L7.92958 18.4935C11.1704 20.8043 15.1062 20.2326 17.565 17.6661C19.5158 15.6317 20.1196 12.8583 19.5546 10.3565L19.5592 10.3613C18.74 6.68652 19.76 5.21826 21.8512 2.21565C21.8996 2.14435 21.95 2.07217 22 2L19.2492 4.86913V4.85957L9.72417 14.8413M8.35333 16.0835C6.0275 13.7665 6.42875 10.1796 8.4125 8.11C9.87958 6.5787 12.285 5.95435 14.3837 6.87217L16.6387 5.78652C16.2329 5.48043 15.7121 5.15174 15.1142 4.91957C12.415 3.76043 9.18167 4.33696 6.98708 6.62478C4.87667 8.82652 4.2125 12.2122 5.35208 15.1013C6.20375 17.26 4.8075 18.7883 3.40125 20.3287C2.90167 20.8743 2.40292 21.4217 2 22L8.35042 16.0835" fill="white"/>
</svg>
