<svg width="20" height="20" viewBox="0 0 20 20" fill="none" xmlns="http://www.w3.org/2000/svg">
<path d="M5.33431 2.54221C5.23217 2.54221 5.13104 2.56216 5.03667 2.60093C4.94231 2.63969 4.85657 2.69652 4.78435 2.76815C4.71213 2.83978 4.65484 2.92481 4.61576 3.0184C4.57667 3.11199 4.55655 3.2123 4.55655 3.3136C4.55655 3.4149 4.57667 3.51521 4.61576 3.6088C4.65484 3.70239 4.71213 3.78743 4.78435 3.85906C4.85657 3.93069 4.94231 3.98751 5.03667 4.02628C5.13104 4.06504 5.23217 4.08499 5.33431 4.08499C5.54058 4.08499 5.73841 4.00372 5.88426 3.85906C6.03012 3.7144 6.11206 3.51819 6.11206 3.3136C6.11206 3.10902 6.03012 2.91281 5.88426 2.76815C5.73841 2.62348 5.54058 2.54221 5.33431 2.54221ZM3.00104 3.3136C3.00117 2.88937 3.11887 2.47333 3.34129 2.11096C3.5637 1.74859 3.88227 1.45384 4.26217 1.2589C4.64208 1.06397 5.0687 0.976356 5.49541 1.00565C5.92212 1.03494 6.3325 1.18 6.68171 1.42499C7.03091 1.66997 7.3055 2.00544 7.47546 2.39475C7.64543 2.78405 7.70422 3.2122 7.64543 3.63241C7.58663 4.05261 7.4125 4.44871 7.14208 4.77739C6.87165 5.10608 6.51533 5.35472 6.11206 5.49613V9.51354C6.20194 9.44771 6.29527 9.38669 6.39206 9.33046C7.37618 8.74215 8.63718 8.57038 9.70841 8.42536L9.89403 8.39965C11.098 8.23303 12.0738 8.06847 12.7738 7.60049C13.2975 7.24873 13.7455 6.66453 13.8606 5.48584C13.3443 5.2973 12.9117 4.93385 12.6394 4.45968C12.367 3.98551 12.2724 3.43114 12.3722 2.89448C12.4719 2.35781 12.7597 1.87339 13.1847 1.52677C13.6097 1.18015 14.1445 0.993635 14.6947 1.00017C15.2448 1.0067 15.775 1.20585 16.1915 1.56246C16.6079 1.91907 16.884 2.41019 16.9708 2.94906C17.0576 3.48794 16.9496 4.03991 16.6659 4.50747C16.3822 4.97504 15.941 5.32812 15.4202 5.50436C15.2896 7.12634 14.6549 8.20114 13.6449 8.87791C12.5944 9.58245 11.237 9.77273 10.1087 9.92701L10.0828 9.93112C8.86947 10.0977 7.89779 10.2314 7.19366 10.6511C6.86701 10.8465 6.61086 11.0995 6.42939 11.4554C6.24273 11.8195 6.11206 12.3358 6.11206 13.0846V14.5019C6.63128 14.6839 7.06892 15.042 7.34761 15.5131C7.6263 15.9842 7.72811 16.5378 7.63503 17.0761C7.54195 17.6144 7.25998 18.1028 6.83896 18.4548C6.41795 18.8069 5.88499 19 5.33431 19C4.78362 19 4.25067 18.8069 3.82965 18.4548C3.40864 18.1028 3.12667 17.6144 3.03359 17.0761C2.94051 16.5378 3.04232 15.9842 3.32101 15.5131C3.5997 15.042 4.03733 14.6839 4.55655 14.5019V5.49613C4.10153 5.33657 3.70759 5.04099 3.429 4.65011C3.15042 4.25923 3.0009 3.79228 3.00104 3.3136ZM14.6674 2.54221C14.5652 2.54221 14.4641 2.56216 14.3697 2.60093C14.2754 2.63969 14.1896 2.69652 14.1174 2.76815C14.0452 2.83978 13.9879 2.92481 13.9488 3.0184C13.9097 3.11199 13.8896 3.2123 13.8896 3.3136C13.8896 3.4149 13.9097 3.51521 13.9488 3.6088C13.9879 3.70239 14.0452 3.78743 14.1174 3.85906C14.1896 3.93069 14.2754 3.98751 14.3697 4.02628C14.4641 4.06504 14.5652 4.08499 14.6674 4.08499C14.8736 4.08499 15.0715 4.00372 15.2173 3.85906C15.3632 3.7144 15.4451 3.51819 15.4451 3.3136C15.4451 3.10902 15.3632 2.91281 15.2173 2.76815C15.0715 2.62348 14.8736 2.54221 14.6674 2.54221ZM5.33431 15.913C5.12803 15.913 4.93021 15.9943 4.78435 16.1389C4.63849 16.2836 4.55655 16.4798 4.55655 16.6844C4.55655 16.889 4.63849 17.0852 4.78435 17.2299C4.93021 17.3745 5.12803 17.4558 5.33431 17.4558C5.54058 17.4558 5.73841 17.3745 5.88426 17.2299C6.03012 17.0852 6.11206 16.889 6.11206 16.6844C6.11206 16.4798 6.03012 16.2836 5.88426 16.1389C5.73841 15.9943 5.54058 15.913 5.33431 15.913Z" fill="white"/>
</svg>
