<svg width="72" height="72" viewBox="0 0 72 72" fill="none" xmlns="http://www.w3.org/2000/svg">
<path d="M31.0985 65.5331C27.1063 65.5331 23.859 62.2858 23.859 58.2936C23.859 54.3014 27.1063 51.054 31.0985 51.054C35.0907 51.054 38.3381 54.3014 38.3381 58.2936C38.3381 62.2858 35.0907 65.5331 31.0985 65.5331ZM31.0985 52.4575C27.8805 52.4575 25.2639 55.0755 25.2639 58.2921C25.2639 61.5087 27.882 64.1267 31.0985 64.1267C34.3151 64.1267 36.9332 61.5087 36.9332 58.2921C36.9332 55.0755 34.3151 52.4575 31.0985 52.4575ZM46.1322 57.2033H43.3224C42.9346 57.2033 42.62 56.8887 42.62 56.5009C42.62 56.1131 42.9346 55.7984 43.3224 55.7984H46.1322C46.52 55.7984 46.8346 56.1131 46.8346 56.5009C46.8346 56.8887 46.5215 57.2033 46.1322 57.2033ZM9.80439 56.5038C9.53366 56.5038 9.2761 56.3472 9.16049 56.0838C9.05659 55.8467 9.00391 55.595 9.00391 55.336V53.0048C9.00391 52.617 9.31854 52.3023 9.70635 52.3023C10.0942 52.3023 10.4088 52.617 10.4088 53.0048V55.3345C10.4088 55.3989 10.422 55.4604 10.4468 55.5175C10.6034 55.8731 10.441 56.2872 10.0854 56.4438C9.99464 56.4848 9.89805 56.5038 9.80439 56.5038ZM9.70635 49.4926C9.31854 49.4926 9.00391 49.1779 9.00391 48.7901V45.9804C9.00391 45.5926 9.31854 45.2779 9.70635 45.2779C10.0942 45.2779 10.4088 45.5926 10.4088 45.9804V48.7901C10.4088 49.1779 10.0942 49.4926 9.70635 49.4926ZM9.70635 42.4682C9.31854 42.4682 9.00391 42.1536 9.00391 41.7658V38.956C9.00391 38.5682 9.31854 38.2536 9.70635 38.2536C10.0942 38.2536 10.4088 38.5682 10.4088 38.956V41.7658C10.4088 42.1536 10.0942 42.4682 9.70635 42.4682ZM51.7107 37.4165H48.901C48.5132 37.4165 48.1985 37.1019 48.1985 36.714C48.1985 36.3262 48.5132 36.0116 48.901 36.0116H51.7107C52.0985 36.0116 52.4132 36.3262 52.4132 36.714C52.4132 37.1019 52.0985 37.4165 51.7107 37.4165ZM44.6863 37.4165H41.8766C41.4888 37.4165 41.1741 37.1019 41.1741 36.714C41.1741 36.3262 41.4888 36.0116 41.8766 36.0116H44.6863C45.0742 36.0116 45.3888 36.3262 45.3888 36.714C45.3888 37.1019 45.0742 37.4165 44.6863 37.4165ZM37.662 37.4165H34.8522C34.4644 37.4165 34.1498 37.1019 34.1498 36.714C34.1498 36.3262 34.4644 36.0116 34.8522 36.0116H37.662C38.0498 36.0116 38.3644 36.3262 38.3644 36.714C38.3644 37.1019 38.0498 37.4165 37.662 37.4165ZM14.9893 37.4165H12.1795C11.7917 37.4165 11.4771 37.1019 11.4771 36.714C11.4771 36.3262 11.7917 36.0116 12.1795 36.0116H14.9893C15.3771 36.0116 15.6917 36.3262 15.6917 36.714C15.6917 37.1019 15.3771 37.4165 14.9893 37.4165ZM55.9107 37.317C55.6415 37.317 55.3854 37.1618 55.2683 36.8999C55.1103 36.5458 55.2698 36.1301 55.6239 35.9721C55.7922 35.8975 55.9005 35.7306 55.9005 35.5477V34.0828C55.9005 33.695 56.2151 33.3804 56.6029 33.3804C56.9907 33.3804 57.3054 33.695 57.3054 34.0828V35.5477C57.3054 36.2853 56.8693 36.954 56.1946 37.2555C56.1039 37.2979 56.0073 37.317 55.9107 37.317ZM56.6044 30.5721C56.2166 30.5721 55.902 30.2575 55.902 29.8697V27.0599C55.902 26.6721 56.2166 26.3575 56.6044 26.3575C56.9922 26.3575 57.3068 26.6721 57.3068 27.0599V29.8697C57.3068 30.2575 56.9937 30.5721 56.6044 30.5721ZM56.6044 23.5477C56.2166 23.5477 55.902 23.2331 55.902 22.8453V22.0316C55.902 21.6438 56.2166 21.3292 56.6044 21.3292C56.9922 21.3292 57.3068 21.6438 57.3068 22.0316V22.8453C57.3068 23.2331 56.9937 23.5477 56.6044 23.5477ZM48.5878 14.0516H45.778C45.3902 14.0516 45.0756 13.737 45.0756 13.3492C45.0756 12.9614 45.3902 12.6467 45.778 12.6467H48.5878C48.9756 12.6467 49.2902 12.9614 49.2902 13.3492C49.2902 13.737 48.9756 14.0516 48.5878 14.0516ZM41.5634 14.0516H38.7537C38.3659 14.0516 38.0512 13.737 38.0512 13.3492C38.0512 12.9614 38.3659 12.6467 38.7537 12.6467H41.5634C41.9512 12.6467 42.2659 12.9614 42.2659 13.3492C42.2659 13.737 41.9512 14.0516 41.5634 14.0516ZM34.539 14.0516H31.7293C31.3415 14.0516 31.0268 13.737 31.0268 13.3492C31.0268 12.9614 31.3415 12.6467 31.7293 12.6467H34.539C34.9268 12.6467 35.2415 12.9614 35.2415 13.3492C35.2415 13.737 34.9268 14.0516 34.539 14.0516ZM27.5146 14.0516H24.7049C24.3171 14.0516 24.0024 13.737 24.0024 13.3492C24.0024 12.9614 24.3171 12.6467 24.7049 12.6467H27.5146C27.9024 12.6467 28.2171 12.9614 28.2171 13.3492C28.2171 13.737 27.9024 14.0516 27.5146 14.0516ZM54.9361 52.917C54.5483 52.917 54.2337 52.6023 54.2337 52.2145V50.6897C54.2337 50.3019 54.5483 49.9872 54.9361 49.9872C55.3239 49.9872 55.6385 50.3019 55.6385 50.6897V52.2145C55.6385 52.6023 55.3239 52.917 54.9361 52.917ZM54.7488 63.016C54.361 63.016 54.0463 62.7014 54.0463 62.3136V60.7887C54.0463 60.4009 54.361 60.0862 54.7488 60.0862C55.1366 60.0862 55.4512 60.4009 55.4512 60.7887V62.3136C55.4512 62.7014 55.1366 63.016 54.7488 63.016Z" fill="#15C3A9"/>
<path d="M31.0972 68.2801C25.5904 68.2801 21.1094 63.7991 21.1094 58.2922C21.1094 52.7854 25.5904 48.3044 31.0972 48.3044C36.604 48.3044 41.085 52.784 41.085 58.2922C41.085 63.8005 36.604 68.2801 31.0972 68.2801ZM31.0972 49.7108C26.3645 49.7108 22.5143 53.561 22.5143 58.2937C22.5143 63.0264 26.3645 66.8766 31.0972 66.8766C35.8299 66.8766 39.6801 63.0264 39.6801 58.2937C39.6786 53.561 35.8284 49.7108 31.0972 49.7108Z" fill="#2A5FAC"/>
<path d="M22.8669 63.2942H21.0742C19.9869 63.2942 19.1016 62.4088 19.1016 61.3215V55.2644C19.1016 54.1771 19.9869 53.2917 21.0742 53.2917H22.8669C23.1128 53.2917 23.3411 53.4205 23.4684 53.6298C23.5957 53.8405 23.6045 54.101 23.4903 54.3191C22.845 55.5527 22.5172 56.8903 22.5172 58.2922C22.5172 59.6942 22.845 61.0303 23.4903 62.2654C23.6045 62.4835 23.5957 62.7439 23.4684 62.9547C23.3411 63.1654 23.1128 63.2942 22.8669 63.2942ZM21.0742 54.6966C20.7611 54.6966 20.5064 54.9513 20.5064 55.2644V61.3215C20.5064 61.6347 20.7611 61.8893 21.0742 61.8893H21.7796C21.3406 60.7478 21.1108 59.523 21.1108 58.2937C21.1108 57.0644 21.3406 55.8396 21.7796 54.6981H21.0742V54.6966Z" fill="#2A5FAC"/>
<path d="M19.8045 61.4869H8.81426C7.05378 61.4869 5.62109 60.0542 5.62109 58.2938C5.62109 56.5333 7.05378 55.1006 8.81426 55.1006H19.8045C20.1923 55.1006 20.5069 55.4152 20.5069 55.803V60.786C20.5069 61.1723 20.1923 61.4869 19.8045 61.4869ZM8.81426 56.504C7.82792 56.504 7.02597 57.306 7.02597 58.2923C7.02597 59.2786 7.82792 60.0806 8.81426 60.0806H19.1021V56.5025H8.81426V56.504Z" fill="#2A5FAC"/>
<path d="M54.6251 61.4942C54.5724 61.4942 54.5212 61.4927 54.4685 61.4898C53.2919 61.4313 51.9251 60.6366 51.9455 58.5922C51.9499 58.2074 52.2631 57.8971 52.648 57.8971C52.6509 57.8971 52.6524 57.8971 52.6553 57.8971C53.0431 57.9015 53.3548 58.2191 53.3504 58.6069C53.3387 59.7805 53.9914 60.06 54.5387 60.0878C55.3641 60.1288 56.1997 59.6093 56.2538 59.0181C56.2553 59.0093 56.2553 58.9991 56.2568 58.9903C56.4031 57.8766 54.9236 57.2474 54.467 57.082C52.4972 56.3664 51.6865 55.2834 52.0568 53.8654C52.5397 52.0113 54.0997 51.363 55.3451 51.5444C56.807 51.7581 57.7904 52.961 57.7363 54.4698C57.7231 54.8576 57.4012 55.1605 57.009 55.1474C56.6212 55.1342 56.3182 54.8078 56.3314 54.42C56.3665 53.4586 55.7109 53.0195 55.1402 52.9361C54.5226 52.8454 53.7002 53.1278 53.4148 54.221C53.2933 54.6878 53.3943 55.1986 54.9455 55.7634C55.6494 56.0195 57.9207 57.0205 57.6499 59.1615C57.5124 60.5883 56.008 61.4942 54.6251 61.4942Z" fill="#15C3A9"/>
<path d="M14.8727 9.76398C14.4849 9.76398 14.1702 9.44935 14.1702 9.06155V7.53667C14.1702 7.14886 14.4849 6.83423 14.8727 6.83423C15.2605 6.83423 15.5751 7.14886 15.5751 7.53667V9.06155C15.5751 9.44935 15.2619 9.76398 14.8727 9.76398ZM14.6868 19.863C14.299 19.863 13.9844 19.5484 13.9844 19.1606V17.6357C13.9844 17.2479 14.299 16.9333 14.6868 16.9333C15.0746 16.9333 15.3893 17.2479 15.3893 17.6357V19.1606C15.3893 19.5498 15.0746 19.863 14.6868 19.863Z" fill="#15C3A9"/>
<path d="M54.8428 47.8398C59.6191 47.8401 63.5049 51.7265 63.5049 56.5029C63.5047 61.2775 59.6177 65.1638 54.8428 65.1641C50.0677 65.1641 46.1799 61.2776 46.1797 56.5029C46.1797 51.7278 50.0663 47.8398 54.8428 47.8398Z" stroke="#2A5FAC" stroke-width="1.5"/>
<path d="M14.5626 18.341C14.5099 18.341 14.4587 18.3395 14.406 18.3366C13.2294 18.2781 11.8626 17.4834 11.883 15.439C11.8874 15.0512 12.2021 14.7351 12.5928 14.7439C12.9806 14.7483 13.2923 15.0659 13.2879 15.4537C13.2762 16.6273 13.9289 16.9068 14.4762 16.9347C15.3045 16.9756 16.1372 16.4561 16.1913 15.8649C16.1928 15.8561 16.1928 15.8459 16.1943 15.8371C16.3406 14.7234 14.8611 14.0942 14.4045 13.9288C12.4362 13.2132 11.624 12.1303 11.9943 10.7122C12.4772 8.85807 14.0372 8.20831 15.2826 8.39124C16.7445 8.6049 17.7279 9.80782 17.6738 11.3166C17.6591 11.7044 17.3313 12.0044 16.9465 11.9927C16.5587 11.9781 16.2557 11.6532 16.2704 11.2654C16.3055 10.3039 15.6499 9.86489 15.0791 9.78148C14.4601 9.69075 13.6391 9.97319 13.3538 11.0664C13.2323 11.5332 13.3333 12.0439 14.8845 12.6088C15.5884 12.8649 17.8596 13.8659 17.5889 16.0068C17.4513 17.4351 15.9469 18.341 14.5626 18.341Z" fill="#15C3A9"/>
<path d="M14.7823 22.7604C9.59304 22.7604 5.37109 18.5385 5.37109 13.3492C5.37109 8.15994 9.59304 3.93652 14.7823 3.93652C19.9716 3.93652 24.195 8.15847 24.195 13.3492C24.1935 18.5385 19.9716 22.7604 14.7823 22.7604ZM14.7823 5.3414C10.3672 5.3414 6.77597 8.93408 6.77597 13.3492C6.77597 17.7643 10.3672 21.3555 14.7823 21.3555C19.1974 21.3555 22.7901 17.7643 22.7901 13.3492C22.7887 8.93408 19.1974 5.3414 14.7823 5.3414Z" fill="#2A5FAC"/>
<path d="M56.6898 9.06155C56.6898 9.44935 57.0044 9.76398 57.3922 9.76398C57.78 9.76398 58.0946 9.44935 58.0946 9.06155V7.53667C58.0946 7.14886 57.78 6.83423 57.3922 6.83423C57.0044 6.83423 56.6898 7.14886 56.6898 7.53667V9.06155Z" fill="#15C3A9"/>
<path d="M56.5039 19.1606C56.5039 19.5484 56.8185 19.863 57.2063 19.863C57.5942 19.863 57.9088 19.5498 57.9088 19.1606V17.6357C57.9088 17.2479 57.5942 16.9333 57.2063 16.9333C56.8185 16.9333 56.5039 17.2479 56.5039 17.6357V19.1606Z" fill="#15C3A9"/>
<path d="M57.0782 18.3409C57.0255 18.3409 56.9743 18.3394 56.9216 18.3365C55.745 18.2779 54.3782 17.4833 54.3987 15.4389C54.4031 15.054 54.7162 14.7438 55.1011 14.7438C55.104 14.7438 55.1055 14.7438 55.1084 14.7438C55.4962 14.7482 55.8079 15.0657 55.8035 15.4535C55.7918 16.6272 56.4445 16.9067 56.9918 16.9345C57.8187 16.974 58.6528 16.456 58.707 15.8648C58.7084 15.856 58.7084 15.8457 58.7099 15.837C58.8562 14.7233 57.3767 14.094 56.9201 13.9272C54.9504 13.2116 54.1396 12.1287 54.5099 10.7106C54.9928 8.85647 56.5528 8.20818 57.7982 8.38964C59.2601 8.6033 60.2435 9.80623 60.1894 11.315C60.1762 11.7028 59.8455 12.0057 59.4621 11.9926C59.0743 11.9794 58.7713 11.6531 58.7845 11.2653C58.8196 10.3038 58.164 9.86476 57.5933 9.78135C56.9772 9.69062 56.1533 9.97306 55.8679 11.0662C55.7465 11.5331 55.8474 12.0438 57.3987 12.6087C58.1026 12.8648 60.3738 13.8657 60.1031 16.0067C59.967 17.435 58.4626 18.3409 57.0782 18.3409Z" fill="#15C3A9"/>
<path d="M57.2955 22.7604C52.1062 22.7604 47.8828 18.5385 47.8828 13.3492C47.8828 8.15994 52.1048 3.93652 57.2955 3.93652C62.4848 3.93652 66.7067 8.15847 66.7067 13.3492C66.7082 18.5385 62.4862 22.7604 57.2955 22.7604ZM57.2955 5.3414C52.8804 5.3414 49.2877 8.93408 49.2877 13.3492C49.2877 17.7643 52.8804 21.3555 57.2955 21.3555C61.7106 21.3555 65.3018 17.7643 65.3018 13.3492C65.3033 8.93408 61.7106 5.3414 57.2955 5.3414Z" fill="#2A5FAC"/>
<path d="M25.535 32.5083C25.535 32.8961 25.8496 33.2108 26.2374 33.2108C26.6252 33.2108 26.9399 32.8961 26.9399 32.5083V30.9834C26.9399 30.5956 26.6252 30.281 26.2374 30.281C25.8496 30.281 25.535 30.5956 25.535 30.9834V32.5083Z" fill="#15C3A9"/>
<path d="M25.3477 42.6088C25.3477 42.9966 25.6623 43.3112 26.0501 43.3112C26.4379 43.3112 26.7525 42.9966 26.7525 42.6088V41.0839C26.7525 40.6961 26.4379 40.3815 26.0501 40.3815C25.6623 40.3815 25.3477 40.6961 25.3477 41.0839V42.6088Z" fill="#15C3A9"/>
<path d="M25.9258 41.7879C25.8732 41.7879 25.8219 41.7864 25.7692 41.7835C24.5927 41.725 23.2258 40.9303 23.2463 38.8859C23.2507 38.4981 23.5683 38.1835 23.9561 38.1908C24.3439 38.1952 24.6556 38.5128 24.6512 38.9006C24.6395 40.0742 25.2922 40.3537 25.8395 40.3815C26.6663 40.424 27.5005 39.903 27.5546 39.3118C27.5561 39.303 27.5561 39.2928 27.5575 39.284C27.7039 38.1703 26.2244 37.5411 25.7678 37.3757C23.7995 36.6601 22.9873 35.5772 23.3575 34.1591C23.8405 32.305 25.4019 31.6567 26.6458 31.8381C28.1078 32.0518 29.0912 33.2547 29.0371 34.7635C29.0224 35.1513 28.6975 35.4542 28.3097 35.4411C27.9219 35.4279 27.619 35.1015 27.6322 34.7137C27.6673 33.7523 27.0117 33.3133 26.441 33.2298C25.8234 33.1391 25.001 33.4215 24.7171 34.5147C24.5956 34.9815 24.6966 35.4923 26.2478 36.0572C26.9517 36.3133 29.2229 37.3142 28.9522 39.4552C28.8131 40.882 27.3088 41.7879 25.9258 41.7879Z" fill="#15C3A9"/>
<path d="M26.1417 46.2072C20.9524 46.2072 16.7305 41.9852 16.7305 36.7945C16.7305 31.6038 20.9524 27.3818 26.1417 27.3818C31.331 27.3818 35.5544 31.6038 35.5544 36.7945C35.5544 41.9852 31.331 46.2072 26.1417 46.2072ZM26.1417 28.7882C21.7266 28.7882 18.1339 32.3809 18.1339 36.796C18.1339 41.2111 21.7266 44.8038 26.1417 44.8038C30.5568 44.8038 34.1495 41.2111 34.1495 36.796C34.148 32.3809 30.5568 28.7882 26.1417 28.7882Z" fill="#2A5FAC"/>
</svg>
