<svg width="82" height="82" viewBox="0 0 82 82" fill="none" xmlns="http://www.w3.org/2000/svg">
<g clip-path="url(#clip0_1023_1455)">
<path d="M57.6621 16.5C60.4831 16.5001 63.1888 17.6205 65.1836 19.6152L65.5469 19.998C67.3138 21.9494 68.2988 24.4927 68.2988 27.1377V94.8623C68.2988 97.5073 67.3138 100.051 65.5469 102.002L65.1836 102.385C63.1888 104.379 60.4831 105.5 57.6621 105.5H24.3369C21.692 105.5 19.1486 104.515 17.1973 102.748L16.8145 102.385C14.8195 100.39 13.6992 97.6835 13.6992 94.8623V27.1377C13.6992 24.3165 14.8195 21.6102 16.8145 19.6152L17.1973 19.252C19.1486 17.4851 21.692 16.5 24.3369 16.5H57.6621Z" fill="#15C3A9" stroke="#88D3C8" stroke-width="3"/>
<path d="M30.7891 22.3H51.2141C51.9268 22.3 52.6104 22.5832 53.1144 23.0872C53.6184 23.5912 53.9016 24.2748 53.9016 24.9875C53.9016 25.7003 53.6184 26.3839 53.1144 26.8879C52.6104 27.3919 51.9268 27.675 51.2141 27.675H30.7891C30.0763 27.675 29.3927 27.3919 28.8887 26.8879C28.3847 26.3839 28.1016 25.7003 28.1016 24.9875C28.1016 24.2748 28.3847 23.5912 28.8887 23.0872C29.3927 22.5832 30.0763 22.3 30.7891 22.3Z" fill="white"/>
<rect x="19.5039" y="34.2" width="43" height="21.5" rx="6.45" fill="#195BD7"/>
<rect x="19.5039" y="34.2" width="43" height="21.5" rx="6.45" fill="url(#paint0_radial_1023_1455)"/>
<rect x="19.5039" y="61" width="43" height="8.6" rx="4.3" fill="#195BD7"/>
<rect x="19.5039" y="61" width="43" height="8.6" rx="4.3" fill="white"/>
<rect x="19.5039" y="73.9" width="43" height="8.6" rx="4.3" fill="#195BD7"/>
<rect x="19.5039" y="73.9" width="43" height="8.6" rx="4.3" fill="white"/>
</g>
<rect x="1" y="1" width="80" height="80" rx="17" stroke="#2F9AFB" stroke-opacity="0.1" stroke-width="2"/>
<defs>
<radialGradient id="paint0_radial_1023_1455" cx="0" cy="0" r="1" gradientUnits="userSpaceOnUse" gradientTransform="translate(41.0039 5.67176) rotate(90) scale(55.1996 38.6426)">
<stop stop-color="#7EB2FF"/>
<stop offset="0.98486" stop-color="#043071"/>
</radialGradient>
<clipPath id="clip0_1023_1455">
<rect x="2" y="2" width="78" height="78" rx="16" fill="white"/>
</clipPath>
</defs>
</svg>
