<svg width="20" height="20" viewBox="0 0 20 20" fill="none" xmlns="http://www.w3.org/2000/svg">
<path d="M12.5 9.16699H15M15 9.16699H17.5M15 9.16699V11.667M15 9.16699V6.66699M12.5 15.8337V14.792C12.5 13.0662 10.9008 11.667 8.92833 11.667H6.07167C4.09917 11.667 2.5 13.0662 2.5 14.792V15.8337M10 6.66699C10 7.33003 9.73661 7.96592 9.26777 8.43476C8.79893 8.9036 8.16304 9.16699 7.5 9.16699C6.83696 9.16699 6.20107 8.9036 5.73223 8.43476C5.26339 7.96592 5 7.33003 5 6.66699C5 6.00395 5.26339 5.36807 5.73223 4.89923C6.20107 4.43038 6.83696 4.16699 7.5 4.16699C8.16304 4.16699 8.79893 4.43038 9.26777 4.89923C9.73661 5.36807 10 6.00395 10 6.66699Z" stroke="white" stroke-width="1.5" stroke-linecap="round" stroke-linejoin="round"/>
</svg>
