<svg width="24" height="24" viewBox="0 0 24 24" fill="none" xmlns="http://www.w3.org/2000/svg">
<path d="M20.6422 7.9188H18.7218V2.08255L12.4805 7.36376V2.15744H11.5202V7.30766L5.7588 2.02637V7.9188H3.3584V16.5606H5.75889V21.9737L11.5203 16.6884V21.8418H12.4806V16.816L18.2419 21.953V16.5607H20.6424L20.6422 7.9188ZM17.7618 4.15291V7.9188H13.311L17.7618 4.15291ZM6.7191 4.2091L10.766 7.9188H6.7191V4.2091ZM4.31861 15.6005V8.87909H10.841L5.75872 13.9612V15.6005H4.31861ZM6.7191 19.7898V16.5606L6.71918 14.3591L11.5201 9.55813V15.3853L6.7191 19.7898ZM17.2817 19.8104L12.4805 15.5293V9.55796L17.2817 14.3591V19.8104ZM19.6822 15.6005H18.2418V13.9612L13.1596 8.87909H19.6822V15.6005Z" fill="white"/>
</svg>
