<svg width="268" height="245" viewBox="0 0 268 245" fill="none" xmlns="http://www.w3.org/2000/svg">
<g clip-path="url(#clip0_1046_4026)">
<rect width="268" height="245" rx="16" fill="#F6F6F6"/>
<path d="M27.964 83.668C27.2267 83.668 26.5453 83.5373 25.92 83.276C25.304 83.0053 24.7627 82.6273 24.296 82.142C23.8387 81.6567 23.484 81.0873 23.232 80.434C22.98 79.7807 22.854 79.0667 22.854 78.292C22.854 77.508 22.98 76.7893 23.232 76.136C23.484 75.4827 23.8387 74.9133 24.296 74.428C24.7533 73.9427 25.2947 73.5693 25.92 73.308C26.5453 73.0373 27.2267 72.902 27.964 72.902C28.6827 72.902 29.3267 73.028 29.896 73.28C30.4747 73.532 30.96 73.8587 31.352 74.26C31.7533 74.6613 32.038 75.0907 32.206 75.548L30.946 76.122C30.7033 75.5433 30.3253 75.0767 29.812 74.722C29.2987 74.358 28.6827 74.176 27.964 74.176C27.236 74.176 26.5873 74.3487 26.018 74.694C25.458 75.0393 25.0193 75.52 24.702 76.136C24.3847 76.752 24.226 77.4707 24.226 78.292C24.226 79.104 24.3847 79.818 24.702 80.434C25.0193 81.05 25.458 81.5307 26.018 81.876C26.5873 82.2213 27.236 82.394 27.964 82.394C28.6827 82.394 29.2987 82.2167 29.812 81.862C30.3253 81.498 30.7033 81.0267 30.946 80.448L32.206 81.022C32.038 81.4793 31.7533 81.9087 31.352 82.31C30.96 82.7113 30.4747 83.038 29.896 83.29C29.3267 83.542 28.6827 83.668 27.964 83.668ZM37.3654 83.668C36.6374 83.668 35.9794 83.5 35.3914 83.164C34.8034 82.8187 34.3368 82.3473 33.9914 81.75C33.6461 81.1527 33.4734 80.476 33.4734 79.72C33.4734 78.964 33.6414 78.292 33.9774 77.704C34.3228 77.116 34.7894 76.6493 35.3774 76.304C35.9654 75.9587 36.6281 75.786 37.3654 75.786C38.0934 75.786 38.7514 75.9587 39.3394 76.304C39.9274 76.64 40.3894 77.102 40.7254 77.69C41.0708 78.278 41.2434 78.9547 41.2434 79.72C41.2434 80.4853 41.0661 81.1667 40.7114 81.764C40.3568 82.352 39.8854 82.8187 39.2974 83.164C38.7188 83.5 38.0748 83.668 37.3654 83.668ZM37.3654 82.408C37.8321 82.408 38.2521 82.2913 38.6254 82.058C39.0081 81.8247 39.3068 81.5027 39.5214 81.092C39.7454 80.6813 39.8574 80.224 39.8574 79.72C39.8574 79.2067 39.7454 78.754 39.5214 78.362C39.3068 77.9607 39.0081 77.6433 38.6254 77.41C38.2521 77.1673 37.8321 77.046 37.3654 77.046C36.8894 77.046 36.4601 77.1673 36.0774 77.41C35.7041 77.6433 35.4054 77.9607 35.1814 78.362C34.9574 78.754 34.8454 79.2067 34.8454 79.72C34.8454 80.224 34.9574 80.6813 35.1814 81.092C35.4054 81.5027 35.7041 81.8247 36.0774 82.058C36.4601 82.2913 36.8894 82.408 37.3654 82.408ZM42.9416 83.5V75.954H44.2156V77.494L44.0336 77.256C44.2203 76.78 44.5189 76.416 44.9296 76.164C45.3403 75.912 45.8023 75.786 46.3156 75.786C46.9036 75.786 47.4309 75.9493 47.8976 76.276C48.3736 76.6027 48.7003 77.032 48.8776 77.564L48.5136 77.578C48.7096 76.99 49.0409 76.5467 49.5076 76.248C49.9743 75.94 50.4923 75.786 51.0616 75.786C51.5843 75.786 52.0556 75.9073 52.4756 76.15C52.9049 76.3927 53.2456 76.7287 53.4976 77.158C53.7496 77.5873 53.8756 78.0727 53.8756 78.614V83.5H52.5596V79.034C52.5596 78.614 52.4849 78.2593 52.3356 77.97C52.1863 77.6807 51.9809 77.4567 51.7196 77.298C51.4676 77.13 51.1689 77.046 50.8236 77.046C50.4876 77.046 50.1843 77.13 49.9136 77.298C49.6523 77.4567 49.4423 77.6853 49.2836 77.984C49.1343 78.2733 49.0596 78.6233 49.0596 79.034V83.5H47.7436V79.034C47.7436 78.614 47.6689 78.2593 47.5196 77.97C47.3703 77.6807 47.1649 77.4567 46.9036 77.298C46.6516 77.13 46.3529 77.046 46.0076 77.046C45.6716 77.046 45.3683 77.13 45.0976 77.298C44.8363 77.4567 44.6263 77.6853 44.4676 77.984C44.3183 78.2733 44.2436 78.6233 44.2436 79.034V83.5H42.9416ZM55.7248 86.3V75.954H56.9988V77.578L56.8308 77.256C57.1108 76.808 57.4935 76.4533 57.9788 76.192C58.4641 75.9213 59.0195 75.786 59.6448 75.786C60.3541 75.786 60.9888 75.9587 61.5488 76.304C62.1181 76.6493 62.5661 77.1207 62.8928 77.718C63.2195 78.306 63.3828 78.978 63.3828 79.734C63.3828 80.4713 63.2195 81.1387 62.8928 81.736C62.5661 82.3333 62.1181 82.8047 61.5488 83.15C60.9888 83.4953 60.3495 83.668 59.6308 83.668C59.0241 83.668 58.4688 83.5327 57.9648 83.262C57.4701 82.9913 57.0875 82.6087 56.8168 82.114L57.0268 81.89V86.3H55.7248ZM59.5328 82.408C60.0088 82.408 60.4335 82.2913 60.8068 82.058C61.1801 81.8247 61.4695 81.5073 61.6748 81.106C61.8895 80.6953 61.9968 80.238 61.9968 79.734C61.9968 79.2113 61.8895 78.754 61.6748 78.362C61.4695 77.9607 61.1801 77.6433 60.8068 77.41C60.4335 77.1673 60.0088 77.046 59.5328 77.046C59.0568 77.046 58.6275 77.1627 58.2448 77.396C57.8715 77.6293 57.5728 77.9513 57.3488 78.362C57.1341 78.7633 57.0268 79.2207 57.0268 79.734C57.0268 80.238 57.1341 80.6953 57.3488 81.106C57.5728 81.5073 57.8715 81.8247 58.2448 82.058C58.6275 82.2913 59.0568 82.408 59.5328 82.408ZM67.302 83.668C66.8074 83.668 66.3687 83.5793 65.986 83.402C65.6127 83.2153 65.3187 82.9633 65.104 82.646C64.8894 82.3193 64.782 81.946 64.782 81.526C64.782 81.1247 64.866 80.7653 65.034 80.448C65.2114 80.1213 65.482 79.846 65.846 79.622C66.2194 79.398 66.686 79.2393 67.246 79.146L70.046 78.684V79.776L67.54 80.196C67.0547 80.28 66.7 80.434 66.476 80.658C66.2614 80.882 66.154 81.1573 66.154 81.484C66.154 81.792 66.2754 82.0487 66.518 82.254C66.77 82.4593 67.0827 82.562 67.456 82.562C67.932 82.562 68.3427 82.464 68.688 82.268C69.0427 82.0627 69.318 81.7873 69.514 81.442C69.7194 81.0967 69.822 80.714 69.822 80.294V78.376C69.822 77.9653 69.668 77.634 69.36 77.382C69.0614 77.1207 68.6647 76.99 68.17 76.99C67.7407 76.99 67.358 77.102 67.022 77.326C66.6954 77.5407 66.4527 77.83 66.294 78.194L65.16 77.606C65.3 77.2607 65.524 76.9527 65.832 76.682C66.14 76.402 66.4994 76.1827 66.91 76.024C67.3207 75.8653 67.75 75.786 68.198 75.786C68.7767 75.786 69.2854 75.898 69.724 76.122C70.1627 76.3367 70.5034 76.64 70.746 77.032C70.998 77.4147 71.124 77.8627 71.124 78.376V83.5H69.85V82.072L70.088 82.156C69.9294 82.4547 69.7147 82.716 69.444 82.94C69.1734 83.164 68.856 83.3413 68.492 83.472C68.128 83.6027 67.7314 83.668 67.302 83.668ZM73.1428 83.5V75.954H74.4168V77.424L74.2068 77.298C74.3934 76.822 74.6921 76.4533 75.1028 76.192C75.5228 75.9213 76.0128 75.786 76.5728 75.786C77.1141 75.786 77.5948 75.9073 78.0148 76.15C78.4441 76.3927 78.7801 76.7287 79.0228 77.158C79.2748 77.5873 79.4008 78.0727 79.4008 78.614V83.5H78.0848V79.034C78.0848 78.614 78.0101 78.2593 77.8608 77.97C77.7114 77.6807 77.4968 77.4567 77.2168 77.298C76.9461 77.13 76.6334 77.046 76.2788 77.046C75.9241 77.046 75.6068 77.13 75.3268 77.298C75.0561 77.4567 74.8414 77.6853 74.6828 77.984C74.5241 78.2733 74.4448 78.6233 74.4448 79.034V83.5H73.1428ZM81.5331 86.58C81.3651 86.58 81.1971 86.566 81.0291 86.538C80.8611 86.51 80.7025 86.4633 80.5531 86.398V85.236C80.6558 85.2547 80.7818 85.2733 80.9311 85.292C81.0898 85.32 81.2438 85.334 81.3931 85.334C81.8318 85.334 82.1631 85.236 82.3871 85.04C82.6205 84.8533 82.8398 84.5267 83.0451 84.06L83.5211 82.926L83.4931 84.06L80.2731 75.954H81.6871L84.1931 82.394H83.7731L86.2651 75.954H87.7071L84.3051 84.396C84.1465 84.7973 83.9411 85.1613 83.6891 85.488C83.4465 85.824 83.1478 86.09 82.7931 86.286C82.4385 86.482 82.0185 86.58 81.5331 86.58ZM91.4393 83.5V73.07H92.5873L98.5793 81.498L98.0613 81.554V73.07H99.4473V83.5H98.2993L92.3353 75.016L92.8113 74.96V83.5H91.4393ZM103.833 83.668C103.339 83.668 102.9 83.5793 102.517 83.402C102.144 83.2153 101.85 82.9633 101.635 82.646C101.421 82.3193 101.313 81.946 101.313 81.526C101.313 81.1247 101.397 80.7653 101.565 80.448C101.743 80.1213 102.013 79.846 102.377 79.622C102.751 79.398 103.217 79.2393 103.777 79.146L106.577 78.684V79.776L104.071 80.196C103.586 80.28 103.231 80.434 103.007 80.658C102.793 80.882 102.685 81.1573 102.685 81.484C102.685 81.792 102.807 82.0487 103.049 82.254C103.301 82.4593 103.614 82.562 103.987 82.562C104.463 82.562 104.874 82.464 105.219 82.268C105.574 82.0627 105.849 81.7873 106.045 81.442C106.251 81.0967 106.353 80.714 106.353 80.294V78.376C106.353 77.9653 106.199 77.634 105.891 77.382C105.593 77.1207 105.196 76.99 104.701 76.99C104.272 76.99 103.889 77.102 103.553 77.326C103.227 77.5407 102.984 77.83 102.825 78.194L101.691 77.606C101.831 77.2607 102.055 76.9527 102.363 76.682C102.671 76.402 103.031 76.1827 103.441 76.024C103.852 75.8653 104.281 75.786 104.729 75.786C105.308 75.786 105.817 75.898 106.255 76.122C106.694 76.3367 107.035 76.64 107.277 77.032C107.529 77.4147 107.655 77.8627 107.655 78.376V83.5H106.381V82.072L106.619 82.156C106.461 82.4547 106.246 82.716 105.975 82.94C105.705 83.164 105.387 83.3413 105.023 83.472C104.659 83.6027 104.263 83.668 103.833 83.668ZM109.674 83.5V75.954H110.948V77.494L110.766 77.256C110.953 76.78 111.251 76.416 111.662 76.164C112.073 75.912 112.535 75.786 113.048 75.786C113.636 75.786 114.163 75.9493 114.63 76.276C115.106 76.6027 115.433 77.032 115.61 77.564L115.246 77.578C115.442 76.99 115.773 76.5467 116.24 76.248C116.707 75.94 117.225 75.786 117.794 75.786C118.317 75.786 118.788 75.9073 119.208 76.15C119.637 76.3927 119.978 76.7287 120.23 77.158C120.482 77.5873 120.608 78.0727 120.608 78.614V83.5H119.292V79.034C119.292 78.614 119.217 78.2593 119.068 77.97C118.919 77.6807 118.713 77.4567 118.452 77.298C118.2 77.13 117.901 77.046 117.556 77.046C117.22 77.046 116.917 77.13 116.646 77.298C116.385 77.4567 116.175 77.6853 116.016 77.984C115.867 78.2733 115.792 78.6233 115.792 79.034V83.5H114.476V79.034C114.476 78.614 114.401 78.2593 114.252 77.97C114.103 77.6807 113.897 77.4567 113.636 77.298C113.384 77.13 113.085 77.046 112.74 77.046C112.404 77.046 112.101 77.13 111.83 77.298C111.569 77.4567 111.359 77.6853 111.2 77.984C111.051 78.2733 110.976 78.6233 110.976 79.034V83.5H109.674ZM125.929 83.668C125.201 83.668 124.553 83.4953 123.983 83.15C123.414 82.8047 122.966 82.3333 122.639 81.736C122.313 81.1293 122.149 80.4527 122.149 79.706C122.149 78.95 122.308 78.278 122.625 77.69C122.952 77.102 123.391 76.64 123.941 76.304C124.501 75.9587 125.127 75.786 125.817 75.786C126.377 75.786 126.872 75.8887 127.301 76.094C127.74 76.29 128.109 76.5607 128.407 76.906C128.715 77.242 128.949 77.6293 129.107 78.068C129.275 78.4973 129.359 78.9453 129.359 79.412C129.359 79.5147 129.35 79.6313 129.331 79.762C129.322 79.8833 129.308 80 129.289 80.112H123.101V78.992H128.533L127.917 79.496C128.001 79.0107 127.955 78.5767 127.777 78.194C127.6 77.8113 127.339 77.508 126.993 77.284C126.648 77.06 126.256 76.948 125.817 76.948C125.379 76.948 124.977 77.06 124.613 77.284C124.249 77.508 123.965 77.83 123.759 78.25C123.563 78.6607 123.484 79.1507 123.521 79.72C123.484 80.2707 123.568 80.756 123.773 81.176C123.988 81.5867 124.287 81.9087 124.669 82.142C125.061 82.366 125.486 82.478 125.943 82.478C126.447 82.478 126.872 82.3613 127.217 82.128C127.563 81.8947 127.843 81.596 128.057 81.232L129.149 81.792C129 82.1373 128.767 82.4547 128.449 82.744C128.141 83.024 127.773 83.248 127.343 83.416C126.923 83.584 126.452 83.668 125.929 83.668Z" fill="#666666"/>
<path d="M133.338 78.222L132.414 77.564L133.562 76.038L131.84 75.45L132.19 74.372L133.926 74.946V73.07H135.06V74.946L136.796 74.372L137.146 75.45L135.424 76.038L136.558 77.564L135.648 78.222L134.486 76.696L133.338 78.222Z" fill="#FF0F0F"/>
<path d="M18 102.1C18 98.7397 18 97.0595 18.654 95.7761C19.2292 94.6471 20.1471 93.7292 21.2761 93.154C22.5595 92.5 24.2397 92.5 27.6 92.5H310.4C313.76 92.5 315.44 92.5 316.724 93.154C317.853 93.7292 318.771 94.6471 319.346 95.7761C320 97.0595 320 98.7397 320 102.1V130.9C320 134.26 320 135.94 319.346 137.224C318.771 138.353 317.853 139.271 316.724 139.846C315.44 140.5 313.76 140.5 310.4 140.5H27.6C24.2397 140.5 22.5595 140.5 21.2761 139.846C20.1471 139.271 19.2292 138.353 18.654 137.224C18 135.94 18 134.26 18 130.9V102.1Z" fill="white"/>
<path d="M18 102.1C18 98.7397 18 97.0595 18.654 95.7761C19.2292 94.6471 20.1471 93.7292 21.2761 93.154C22.5595 92.5 24.2397 92.5 27.6 92.5H310.4C313.76 92.5 315.44 92.5 316.724 93.154C317.853 93.7292 318.771 94.6471 319.346 95.7761C320 97.0595 320 98.7397 320 102.1V130.9C320 134.26 320 135.94 319.346 137.224C318.771 138.353 317.853 139.271 316.724 139.846C315.44 140.5 313.76 140.5 310.4 140.5H27.6C24.2397 140.5 22.5595 140.5 21.2761 139.846C20.1471 139.271 19.2292 138.353 18.654 137.224C18 135.94 18 134.26 18 130.9V102.1Z" stroke="#CCCCCC"/>
<path d="M40.0013 124.833C44.5846 124.833 48.3346 121.083 48.3346 116.5C48.3346 111.917 44.5846 108.167 40.0013 108.167C35.418 108.167 31.668 111.917 31.668 116.5C31.668 121.083 35.418 124.833 40.0013 124.833Z" fill="#9AB0CE"/>
<path d="M36.457 116.5L38.8154 118.858L43.5404 114.142" stroke="white" stroke-width="1.5" stroke-linecap="round" stroke-linejoin="round"/>
<path d="M58.176 123.5L62.368 111.58H64.704L68.896 123.5H66.88L65.968 120.828H61.12L60.192 123.5H58.176ZM61.664 119.148H65.392L63.28 112.908H63.808L61.664 119.148ZM70.1341 123.5V111.388H71.9421V123.5H70.1341ZM78.232 127.02C77.6027 127.02 77.0213 126.919 76.488 126.716C75.9547 126.513 75.496 126.231 75.112 125.868C74.728 125.516 74.44 125.1 74.248 124.62L75.912 123.932C76.0613 124.337 76.3333 124.673 76.728 124.94C77.1333 125.207 77.6293 125.34 78.216 125.34C78.6747 125.34 79.0853 125.249 79.448 125.068C79.8107 124.897 80.0987 124.641 80.312 124.3C80.5253 123.969 80.632 123.569 80.632 123.1V121.148L80.952 121.516C80.6533 122.071 80.2373 122.492 79.704 122.78C79.1813 123.068 78.5893 123.212 77.928 123.212C77.128 123.212 76.408 123.025 75.768 122.652C75.128 122.279 74.6213 121.767 74.248 121.116C73.8853 120.465 73.704 119.735 73.704 118.924C73.704 118.103 73.8853 117.372 74.248 116.732C74.6213 116.092 75.1227 115.585 75.752 115.212C76.3813 114.839 77.1013 114.652 77.912 114.652C78.5733 114.652 79.16 114.796 79.672 115.084C80.1947 115.361 80.6213 115.767 80.952 116.3L80.712 116.748V114.844H82.424V123.1C82.424 123.847 82.2427 124.513 81.88 125.1C81.528 125.697 81.0373 126.167 80.408 126.508C79.7787 126.849 79.0533 127.02 78.232 127.02ZM78.136 121.532C78.616 121.532 79.0427 121.42 79.416 121.196C79.7893 120.961 80.0827 120.652 80.296 120.268C80.52 119.873 80.632 119.431 80.632 118.94C80.632 118.449 80.52 118.007 80.296 117.612C80.072 117.217 79.7733 116.908 79.4 116.684C79.0267 116.449 78.6053 116.332 78.136 116.332C77.6453 116.332 77.208 116.449 76.824 116.684C76.44 116.908 76.136 117.217 75.912 117.612C75.6987 117.996 75.592 118.439 75.592 118.94C75.592 119.42 75.6987 119.857 75.912 120.252C76.136 120.647 76.44 120.961 76.824 121.196C77.208 121.42 77.6453 121.532 78.136 121.532ZM88.6044 123.692C87.7404 123.692 86.9724 123.495 86.3004 123.1C85.639 122.695 85.1217 122.151 84.7484 121.468C84.375 120.775 84.1884 120.001 84.1884 119.148C84.1884 118.273 84.375 117.5 84.7484 116.828C85.1324 116.156 85.6444 115.628 86.2844 115.244C86.9244 114.849 87.6497 114.652 88.4604 114.652C89.111 114.652 89.6924 114.764 90.2044 114.988C90.7164 115.212 91.1484 115.521 91.5004 115.916C91.8524 116.3 92.119 116.743 92.3004 117.244C92.4924 117.745 92.5884 118.279 92.5884 118.844C92.5884 118.983 92.583 119.127 92.5724 119.276C92.5617 119.425 92.5404 119.564 92.5084 119.692H85.6124V118.252H91.4844L90.6204 118.908C90.727 118.385 90.6897 117.921 90.5084 117.516C90.3377 117.1 90.071 116.775 89.7084 116.54C89.3564 116.295 88.9404 116.172 88.4604 116.172C87.9804 116.172 87.5537 116.295 87.1804 116.54C86.807 116.775 86.519 117.116 86.3164 117.564C86.1137 118.001 86.0337 118.535 86.0764 119.164C86.023 119.751 86.103 120.263 86.3164 120.7C86.5404 121.137 86.8497 121.479 87.2444 121.724C87.6497 121.969 88.1084 122.092 88.6204 122.092C89.143 122.092 89.5857 121.975 89.9484 121.74C90.3217 121.505 90.615 121.201 90.8284 120.828L92.3004 121.548C92.1297 121.953 91.863 122.321 91.5004 122.652C91.1484 122.972 90.7217 123.228 90.2204 123.42C89.7297 123.601 89.191 123.692 88.6044 123.692ZM98.9769 123.692C98.3049 123.692 97.6915 123.553 97.1369 123.276C96.5929 122.999 96.1715 122.599 95.8729 122.076L96.0809 121.74V123.5H94.3529V111.388H96.1609V116.636L95.8729 116.22C96.1929 115.729 96.6195 115.345 97.1529 115.068C97.6862 114.791 98.2942 114.652 98.9769 114.652C99.7982 114.652 100.534 114.849 101.185 115.244C101.846 115.639 102.364 116.177 102.737 116.86C103.121 117.543 103.313 118.311 103.313 119.164C103.313 120.017 103.121 120.785 102.737 121.468C102.364 122.151 101.852 122.695 101.201 123.1C100.55 123.495 99.8089 123.692 98.9769 123.692ZM98.8009 122.012C99.3129 122.012 99.7662 121.889 100.161 121.644C100.556 121.399 100.865 121.063 101.089 120.636C101.324 120.199 101.441 119.708 101.441 119.164C101.441 118.62 101.324 118.135 101.089 117.708C100.865 117.281 100.556 116.945 100.161 116.7C99.7662 116.455 99.3129 116.332 98.8009 116.332C98.2995 116.332 97.8462 116.455 97.4409 116.7C97.0462 116.945 96.7315 117.281 96.4969 117.708C96.2729 118.135 96.1609 118.62 96.1609 119.164C96.1609 119.708 96.2729 120.199 96.4969 120.636C96.7315 121.063 97.0462 121.399 97.4409 121.644C97.8462 121.889 98.2995 122.012 98.8009 122.012ZM105.072 123.5V114.844H106.8V116.588L106.64 116.332C106.832 115.767 107.141 115.361 107.568 115.116C107.994 114.86 108.506 114.732 109.104 114.732H109.632V116.38H108.88C108.282 116.38 107.797 116.567 107.424 116.94C107.061 117.303 106.88 117.825 106.88 118.508V123.5H105.072ZM110.868 123.5V114.844H112.677V123.5H110.868ZM110.868 113.66V111.58H112.677V113.66H110.868ZM114.79 123.5V111.388H116.598V119.5L115.894 119.324L120.23 114.844H122.486L119.222 118.316L122.63 123.5H120.55L117.51 118.908L118.582 118.764L116.022 121.484L116.598 120.284V123.5H114.79Z" fill="#494949"/>
<path d="M26.746 169.668C26.0833 169.668 25.4767 169.547 24.926 169.304C24.3753 169.052 23.9087 168.711 23.526 168.282C23.1433 167.853 22.868 167.372 22.7 166.84L23.89 166.35C24.142 167.022 24.5153 167.54 25.01 167.904C25.514 168.259 26.102 168.436 26.774 168.436C27.1847 168.436 27.544 168.371 27.852 168.24C28.16 168.109 28.398 167.927 28.566 167.694C28.7433 167.451 28.832 167.171 28.832 166.854C28.832 166.415 28.706 166.07 28.454 165.818C28.2113 165.557 27.852 165.361 27.376 165.23L25.458 164.642C24.702 164.409 24.1233 164.04 23.722 163.536C23.3207 163.032 23.12 162.453 23.12 161.8C23.12 161.231 23.2553 160.731 23.526 160.302C23.806 159.863 24.1887 159.523 24.674 159.28C25.1687 159.028 25.7287 158.902 26.354 158.902C26.9793 158.902 27.544 159.014 28.048 159.238C28.5613 159.462 28.9953 159.765 29.35 160.148C29.7047 160.521 29.966 160.951 30.134 161.436L28.958 161.926C28.734 161.338 28.398 160.895 27.95 160.596C27.502 160.288 26.9747 160.134 26.368 160.134C25.9947 160.134 25.6633 160.199 25.374 160.33C25.094 160.451 24.8747 160.633 24.716 160.876C24.5667 161.109 24.492 161.389 24.492 161.716C24.492 162.099 24.6133 162.439 24.856 162.738C25.0987 163.037 25.4673 163.265 25.962 163.424L27.712 163.942C28.5333 164.194 29.154 164.553 29.574 165.02C29.994 165.487 30.204 166.065 30.204 166.756C30.204 167.325 30.0547 167.829 29.756 168.268C29.4667 168.707 29.0607 169.052 28.538 169.304C28.0247 169.547 27.4273 169.668 26.746 169.668ZM35.1248 169.584C34.3874 169.584 33.8181 169.374 33.4168 168.954C33.0248 168.534 32.8288 167.941 32.8288 167.176V163.2H31.4568V161.954H31.7368C32.0728 161.954 32.3388 161.851 32.5348 161.646C32.7308 161.441 32.8288 161.17 32.8288 160.834V160.218H34.1308V161.954H35.8248V163.2H34.1308V167.134C34.1308 167.386 34.1681 167.605 34.2428 167.792C34.3268 167.979 34.4621 168.128 34.6488 168.24C34.8354 168.343 35.0828 168.394 35.3908 168.394C35.4561 168.394 35.5354 168.389 35.6288 168.38C35.7314 168.371 35.8248 168.361 35.9088 168.352V169.5C35.7874 169.528 35.6521 169.547 35.5028 169.556C35.3534 169.575 35.2274 169.584 35.1248 169.584ZM39.7259 169.668C39.2312 169.668 38.7925 169.579 38.4099 169.402C38.0365 169.215 37.7425 168.963 37.5279 168.646C37.3132 168.319 37.2059 167.946 37.2059 167.526C37.2059 167.125 37.2899 166.765 37.4579 166.448C37.6352 166.121 37.9059 165.846 38.2699 165.622C38.6432 165.398 39.1099 165.239 39.6699 165.146L42.4699 164.684V165.776L39.9639 166.196C39.4785 166.28 39.1239 166.434 38.8999 166.658C38.6852 166.882 38.5779 167.157 38.5779 167.484C38.5779 167.792 38.6992 168.049 38.9419 168.254C39.1939 168.459 39.5065 168.562 39.8799 168.562C40.3559 168.562 40.7665 168.464 41.1119 168.268C41.4665 168.063 41.7419 167.787 41.9379 167.442C42.1432 167.097 42.2459 166.714 42.2459 166.294V164.376C42.2459 163.965 42.0919 163.634 41.7839 163.382C41.4852 163.121 41.0885 162.99 40.5939 162.99C40.1645 162.99 39.7819 163.102 39.4459 163.326C39.1192 163.541 38.8765 163.83 38.7179 164.194L37.5839 163.606C37.7239 163.261 37.9479 162.953 38.2559 162.682C38.5639 162.402 38.9232 162.183 39.3339 162.024C39.7445 161.865 40.1739 161.786 40.6219 161.786C41.2005 161.786 41.7092 161.898 42.1479 162.122C42.5865 162.337 42.9272 162.64 43.1699 163.032C43.4219 163.415 43.5479 163.863 43.5479 164.376V169.5H42.2739V168.072L42.5119 168.156C42.3532 168.455 42.1385 168.716 41.8679 168.94C41.5972 169.164 41.2799 169.341 40.9159 169.472C40.5519 169.603 40.1552 169.668 39.7259 169.668ZM45.5666 169.5V161.954H46.8406V163.34L46.7006 163.144C46.8779 162.715 47.1486 162.397 47.5126 162.192C47.8766 161.977 48.3199 161.87 48.8426 161.87H49.3046V163.102H48.6466C48.1146 163.102 47.6853 163.27 47.3586 163.606C47.0319 163.933 46.8686 164.399 46.8686 165.006V169.5H45.5666ZM53.5955 169.584C52.8582 169.584 52.2888 169.374 51.8875 168.954C51.4955 168.534 51.2995 167.941 51.2995 167.176V163.2H49.9275V161.954H50.2075C50.5435 161.954 50.8095 161.851 51.0055 161.646C51.2015 161.441 51.2995 161.17 51.2995 160.834V160.218H52.6015V161.954H54.2955V163.2H52.6015V167.134C52.6015 167.386 52.6388 167.605 52.7135 167.792C52.7975 167.979 52.9328 168.128 53.1195 168.24C53.3062 168.343 53.5535 168.394 53.8615 168.394C53.9268 168.394 54.0062 168.389 54.0995 168.38C54.2022 168.371 54.2955 168.361 54.3795 168.352V169.5C54.2582 169.528 54.1228 169.547 53.9735 169.556C53.8242 169.575 53.6982 169.584 53.5955 169.584ZM58.6542 169.5V159.07H62.0702C63.1249 159.07 64.0442 159.285 64.8282 159.714C65.6122 160.143 66.2189 160.75 66.6482 161.534C67.0775 162.309 67.2922 163.223 67.2922 164.278C67.2922 165.323 67.0775 166.238 66.6482 167.022C66.2189 167.806 65.6122 168.417 64.8282 168.856C64.0442 169.285 63.1249 169.5 62.0702 169.5H58.6542ZM60.0262 168.24H62.0842C62.8589 168.24 63.5262 168.077 64.0862 167.75C64.6555 167.423 65.0942 166.966 65.4022 166.378C65.7102 165.781 65.8642 165.081 65.8642 164.278C65.8642 163.466 65.7055 162.766 65.3882 162.178C65.0802 161.59 64.6415 161.137 64.0722 160.82C63.5122 160.493 62.8495 160.33 62.0842 160.33H60.0262V168.24ZM70.9934 169.668C70.4988 169.668 70.0601 169.579 69.6774 169.402C69.3041 169.215 69.0101 168.963 68.7954 168.646C68.5808 168.319 68.4734 167.946 68.4734 167.526C68.4734 167.125 68.5574 166.765 68.7254 166.448C68.9028 166.121 69.1734 165.846 69.5374 165.622C69.9108 165.398 70.3774 165.239 70.9374 165.146L73.7374 164.684V165.776L71.2314 166.196C70.7461 166.28 70.3914 166.434 70.1674 166.658C69.9528 166.882 69.8454 167.157 69.8454 167.484C69.8454 167.792 69.9668 168.049 70.2094 168.254C70.4614 168.459 70.7741 168.562 71.1474 168.562C71.6234 168.562 72.0341 168.464 72.3794 168.268C72.7341 168.063 73.0094 167.787 73.2054 167.442C73.4108 167.097 73.5134 166.714 73.5134 166.294V164.376C73.5134 163.965 73.3594 163.634 73.0514 163.382C72.7528 163.121 72.3561 162.99 71.8614 162.99C71.4321 162.99 71.0494 163.102 70.7134 163.326C70.3868 163.541 70.1441 163.83 69.9854 164.194L68.8514 163.606C68.9914 163.261 69.2154 162.953 69.5234 162.682C69.8314 162.402 70.1908 162.183 70.6014 162.024C71.0121 161.865 71.4414 161.786 71.8894 161.786C72.4681 161.786 72.9768 161.898 73.4154 162.122C73.8541 162.337 74.1948 162.64 74.4374 163.032C74.6894 163.415 74.8154 163.863 74.8154 164.376V169.5H73.5414V168.072L73.7794 168.156C73.6208 168.455 73.4061 168.716 73.1354 168.94C72.8648 169.164 72.5474 169.341 72.1834 169.472C71.8194 169.603 71.4228 169.668 70.9934 169.668ZM79.7635 169.584C79.0261 169.584 78.4568 169.374 78.0555 168.954C77.6635 168.534 77.4675 167.941 77.4675 167.176V163.2H76.0955V161.954H76.3755C76.7115 161.954 76.9775 161.851 77.1735 161.646C77.3695 161.441 77.4675 161.17 77.4675 160.834V160.218H78.7695V161.954H80.4635V163.2H78.7695V167.134C78.7695 167.386 78.8068 167.605 78.8815 167.792C78.9655 167.979 79.1008 168.128 79.2875 168.24C79.4741 168.343 79.7215 168.394 80.0295 168.394C80.0948 168.394 80.1741 168.389 80.2675 168.38C80.3701 168.371 80.4635 168.361 80.5475 168.352V169.5C80.4261 169.528 80.2908 169.547 80.1415 169.556C79.9921 169.575 79.8661 169.584 79.7635 169.584ZM85.5152 169.668C84.7872 169.668 84.1385 169.495 83.5692 169.15C82.9998 168.805 82.5518 168.333 82.2252 167.736C81.8985 167.129 81.7352 166.453 81.7352 165.706C81.7352 164.95 81.8938 164.278 82.2112 163.69C82.5378 163.102 82.9765 162.64 83.5272 162.304C84.0872 161.959 84.7125 161.786 85.4032 161.786C85.9632 161.786 86.4578 161.889 86.8872 162.094C87.3258 162.29 87.6945 162.561 87.9932 162.906C88.3012 163.242 88.5345 163.629 88.6932 164.068C88.8612 164.497 88.9452 164.945 88.9452 165.412C88.9452 165.515 88.9358 165.631 88.9172 165.762C88.9078 165.883 88.8938 166 88.8752 166.112H82.6872V164.992H88.1192L87.5032 165.496C87.5872 165.011 87.5405 164.577 87.3632 164.194C87.1858 163.811 86.9245 163.508 86.5792 163.284C86.2338 163.06 85.8418 162.948 85.4032 162.948C84.9645 162.948 84.5632 163.06 84.1992 163.284C83.8352 163.508 83.5505 163.83 83.3452 164.25C83.1492 164.661 83.0698 165.151 83.1072 165.72C83.0698 166.271 83.1538 166.756 83.3592 167.176C83.5738 167.587 83.8725 167.909 84.2552 168.142C84.6472 168.366 85.0718 168.478 85.5292 168.478C86.0332 168.478 86.4578 168.361 86.8032 168.128C87.1485 167.895 87.4285 167.596 87.6432 167.232L88.7352 167.792C88.5858 168.137 88.3525 168.455 88.0352 168.744C87.7272 169.024 87.3585 169.248 86.9292 169.416C86.5092 169.584 86.0378 169.668 85.5152 169.668Z" fill="#666666"/>
<path d="M92.338 164.222L91.414 163.564L92.562 162.038L90.84 161.45L91.19 160.372L92.926 160.946V159.07H94.06V160.946L95.796 160.372L96.146 161.45L94.424 162.038L95.558 163.564L94.648 164.222L93.486 162.696L92.338 164.222Z" fill="#FF0F0F"/>
<path d="M18 188.1C18 184.74 18 183.06 18.654 181.776C19.2292 180.647 20.1471 179.729 21.2761 179.154C22.5595 178.5 24.2397 178.5 27.6 178.5H310.4C313.76 178.5 315.44 178.5 316.724 179.154C317.853 179.729 318.771 180.647 319.346 181.776C320 183.06 320 184.74 320 188.1V216.9C320 220.26 320 221.94 319.346 223.224C318.771 224.353 317.853 225.271 316.724 225.846C315.44 226.5 313.76 226.5 310.4 226.5H27.6C24.2397 226.5 22.5595 226.5 21.2761 225.846C20.1471 225.271 19.2292 224.353 18.654 223.224C18 221.94 18 220.26 18 216.9V188.1Z" fill="white"/>
<path d="M18 188.1C18 184.74 18 183.06 18.654 181.776C19.2292 180.647 20.1471 179.729 21.2761 179.154C22.5595 178.5 24.2397 178.5 27.6 178.5H310.4C313.76 178.5 315.44 178.5 316.724 179.154C317.853 179.729 318.771 180.647 319.346 181.776C320 183.06 320 184.74 320 188.1V216.9C320 220.26 320 221.94 319.346 223.224C318.771 224.353 317.853 225.271 316.724 225.846C315.44 226.5 313.76 226.5 310.4 226.5H27.6C24.2397 226.5 22.5595 226.5 21.2761 225.846C20.1471 225.271 19.2292 224.353 18.654 223.224C18 221.94 18 220.26 18 216.9V188.1Z" stroke="#CCCCCC"/>
<path d="M40.0013 210.833C44.5846 210.833 48.3346 207.083 48.3346 202.5C48.3346 197.917 44.5846 194.167 40.0013 194.167C35.418 194.167 31.668 197.917 31.668 202.5C31.668 207.083 35.418 210.833 40.0013 210.833Z" fill="#9AB0CE"/>
<path d="M36.457 202.5L38.8154 204.858L43.5404 200.142" stroke="white" stroke-width="1.5" stroke-linecap="round" stroke-linejoin="round"/>
<path d="M63.744 209.692C62.7947 209.692 61.9627 209.436 61.248 208.924C60.5333 208.401 59.9733 207.681 59.568 206.764C59.1733 205.836 58.976 204.759 58.976 203.532C58.976 202.295 59.1733 201.217 59.568 200.3C59.9733 199.383 60.528 198.668 61.232 198.156C61.9467 197.644 62.7787 197.388 63.728 197.388C64.6773 197.388 65.504 197.644 66.208 198.156C66.9227 198.668 67.4773 199.388 67.872 200.316C68.2773 201.233 68.48 202.305 68.48 203.532C68.48 204.759 68.2827 205.836 67.888 206.764C67.4933 207.681 66.9387 208.401 66.224 208.924C65.52 209.436 64.6933 209.692 63.744 209.692ZM63.744 207.964C64.3307 207.964 64.8373 207.783 65.264 207.42C65.6907 207.057 66.0213 206.545 66.256 205.884C66.4907 205.223 66.608 204.439 66.608 203.532C66.608 202.625 66.4907 201.841 66.256 201.18C66.0213 200.519 65.6907 200.007 65.264 199.644C64.8373 199.281 64.3253 199.1 63.728 199.1C63.1413 199.1 62.6347 199.281 62.208 199.644C61.7813 200.007 61.4507 200.519 61.216 201.18C60.9813 201.841 60.864 202.625 60.864 203.532C60.864 204.428 60.9813 205.212 61.216 205.884C61.4507 206.545 61.7813 207.057 62.208 207.42C62.6453 207.783 63.1573 207.964 63.744 207.964ZM70.2531 209.5V208.14L73.5171 204.652C74.1571 203.969 74.6585 203.42 75.0211 203.004C75.3945 202.577 75.6611 202.204 75.8211 201.884C75.9918 201.564 76.0771 201.228 76.0771 200.876C76.0771 200.3 75.9011 199.857 75.5491 199.548C75.1971 199.228 74.7438 199.068 74.1891 199.068C73.6131 199.068 73.1171 199.233 72.7011 199.564C72.2851 199.884 71.9971 200.353 71.8371 200.972L70.1731 200.492C70.3011 199.863 70.5571 199.319 70.9411 198.86C71.3251 198.391 71.7945 198.028 72.3491 197.772C72.9145 197.516 73.5225 197.388 74.1731 197.388C74.9305 197.388 75.5918 197.532 76.1571 197.82C76.7225 198.097 77.1598 198.487 77.4691 198.988C77.7891 199.489 77.9491 200.071 77.9491 200.732C77.9491 201.169 77.8638 201.596 77.6931 202.012C77.5331 202.417 77.2825 202.849 76.9411 203.308C76.5998 203.756 76.1625 204.263 75.6291 204.828L72.7491 207.9H78.1731V209.5H70.2531ZM79.1916 211.42L84.5356 198.22H86.5356L81.1916 211.42H79.1916ZM87.5188 209.5V208.14L90.7828 204.652C91.4228 203.969 91.9241 203.42 92.2868 203.004C92.6601 202.577 92.9268 202.204 93.0868 201.884C93.2574 201.564 93.3428 201.228 93.3428 200.876C93.3428 200.3 93.1668 199.857 92.8148 199.548C92.4628 199.228 92.0094 199.068 91.4548 199.068C90.8788 199.068 90.3828 199.233 89.9668 199.564C89.5508 199.884 89.2628 200.353 89.1028 200.972L87.4388 200.492C87.5668 199.863 87.8228 199.319 88.2068 198.86C88.5908 198.391 89.0601 198.028 89.6148 197.772C90.1801 197.516 90.7881 197.388 91.4388 197.388C92.1961 197.388 92.8574 197.532 93.4228 197.82C93.9881 198.097 94.4254 198.487 94.7348 198.988C95.0548 199.489 95.2148 200.071 95.2148 200.732C95.2148 201.169 95.1294 201.596 94.9588 202.012C94.7988 202.417 94.5481 202.849 94.2068 203.308C93.8654 203.756 93.4281 204.263 92.8948 204.828L90.0148 207.9H95.4388V209.5H87.5188ZM102.025 209.692C101.076 209.692 100.244 209.436 99.5293 208.924C98.8146 208.401 98.2546 207.681 97.8493 206.764C97.4546 205.836 97.2573 204.759 97.2573 203.532C97.2573 202.295 97.4546 201.217 97.8493 200.3C98.2546 199.383 98.8093 198.668 99.5133 198.156C100.228 197.644 101.06 197.388 102.009 197.388C102.959 197.388 103.785 197.644 104.489 198.156C105.204 198.668 105.759 199.388 106.153 200.316C106.559 201.233 106.761 202.305 106.761 203.532C106.761 204.759 106.564 205.836 106.169 206.764C105.775 207.681 105.22 208.401 104.505 208.924C103.801 209.436 102.975 209.692 102.025 209.692ZM102.025 207.964C102.612 207.964 103.119 207.783 103.545 207.42C103.972 207.057 104.303 206.545 104.537 205.884C104.772 205.223 104.889 204.439 104.889 203.532C104.889 202.625 104.772 201.841 104.537 201.18C104.303 200.519 103.972 200.007 103.545 199.644C103.119 199.281 102.607 199.1 102.009 199.1C101.423 199.1 100.916 199.281 100.489 199.644C100.063 200.007 99.7319 200.519 99.4973 201.18C99.2626 201.841 99.1453 202.625 99.1453 203.532C99.1453 204.428 99.2626 205.212 99.4973 205.884C99.7319 206.545 100.063 207.057 100.489 207.42C100.927 207.783 101.439 207.964 102.025 207.964ZM108.534 209.5V208.14L111.798 204.652C112.438 203.969 112.94 203.42 113.302 203.004C113.676 202.577 113.942 202.204 114.102 201.884C114.273 201.564 114.358 201.228 114.358 200.876C114.358 200.3 114.182 199.857 113.83 199.548C113.478 199.228 113.025 199.068 112.47 199.068C111.894 199.068 111.398 199.233 110.982 199.564C110.566 199.884 110.278 200.353 110.118 200.972L108.454 200.492C108.582 199.863 108.838 199.319 109.222 198.86C109.606 198.391 110.076 198.028 110.63 197.772C111.196 197.516 111.804 197.388 112.454 197.388C113.212 197.388 113.873 197.532 114.438 197.82C115.004 198.097 115.441 198.487 115.75 198.988C116.07 199.489 116.23 200.071 116.23 200.732C116.23 201.169 116.145 201.596 115.974 202.012C115.814 202.417 115.564 202.849 115.222 203.308C114.881 203.756 114.444 204.263 113.91 204.828L111.03 207.9H116.454V209.5H108.534ZM122.081 209.692C121.452 209.692 120.86 209.58 120.305 209.356C119.75 209.121 119.27 208.796 118.865 208.38C118.46 207.964 118.172 207.463 118.001 206.876L119.585 206.268C119.788 206.833 120.118 207.265 120.577 207.564C121.036 207.863 121.537 208.012 122.081 208.012C122.529 208.012 122.924 207.911 123.265 207.708C123.606 207.505 123.873 207.228 124.065 206.876C124.268 206.524 124.369 206.124 124.369 205.676C124.369 205.217 124.268 204.817 124.065 204.476C123.873 204.124 123.606 203.852 123.265 203.66C122.924 203.457 122.529 203.356 122.081 203.356C121.633 203.356 121.222 203.457 120.849 203.66C120.476 203.863 120.204 204.135 120.033 204.476L118.513 204.14L119.441 197.58H125.793V199.18H120.177L120.897 198.396L120.209 203.42L119.617 203.02C119.937 202.572 120.326 202.247 120.785 202.044C121.244 201.841 121.766 201.74 122.353 201.74C123.132 201.74 123.809 201.916 124.385 202.268C124.972 202.609 125.425 203.079 125.745 203.676C126.076 204.263 126.241 204.929 126.241 205.676C126.241 206.433 126.06 207.116 125.697 207.724C125.334 208.332 124.838 208.812 124.209 209.164C123.59 209.516 122.881 209.692 122.081 209.692Z" fill="#494949"/>
<rect x="167.25" y="20.75" width="71.5" height="24.5" rx="3.75" fill="white"/>
<rect x="167.25" y="20.75" width="71.5" height="24.5" rx="3.75" stroke="#D9D9D9" stroke-width="0.5"/>
<path d="M175.864 37.5V28.56H179.2C179.808 28.56 180.344 28.672 180.808 28.896C181.28 29.112 181.648 29.432 181.912 29.856C182.176 30.272 182.308 30.78 182.308 31.38C182.308 31.972 182.172 32.48 181.9 32.904C181.636 33.32 181.272 33.64 180.808 33.864C180.344 34.088 179.808 34.2 179.2 34.2H177.496V37.5H175.864ZM177.496 32.76H179.224C179.52 32.76 179.776 32.704 179.992 32.592C180.208 32.472 180.376 32.308 180.496 32.1C180.616 31.892 180.676 31.652 180.676 31.38C180.676 31.1 180.616 30.86 180.496 30.66C180.376 30.452 180.208 30.292 179.992 30.18C179.776 30.06 179.52 30 179.224 30H177.496V32.76ZM185.107 37.644C184.651 37.644 184.255 37.568 183.919 37.416C183.583 37.264 183.323 37.048 183.139 36.768C182.955 36.48 182.863 36.148 182.863 35.772C182.863 35.412 182.943 35.092 183.103 34.812C183.263 34.524 183.511 34.284 183.847 34.092C184.183 33.9 184.607 33.764 185.119 33.684L187.255 33.336V34.536L185.419 34.848C185.107 34.904 184.875 35.004 184.723 35.148C184.571 35.292 184.495 35.48 184.495 35.712C184.495 35.936 184.579 36.116 184.747 36.252C184.923 36.38 185.139 36.444 185.395 36.444C185.723 36.444 186.011 36.376 186.259 36.24C186.515 36.096 186.711 35.9 186.847 35.652C186.991 35.404 187.063 35.132 187.063 34.836V33.156C187.063 32.876 186.951 32.644 186.727 32.46C186.511 32.268 186.223 32.172 185.863 32.172C185.527 32.172 185.227 32.264 184.963 32.448C184.707 32.624 184.519 32.86 184.399 33.156L183.115 32.532C183.243 32.188 183.443 31.892 183.715 31.644C183.995 31.388 184.323 31.188 184.699 31.044C185.075 30.9 185.483 30.828 185.923 30.828C186.459 30.828 186.931 30.928 187.339 31.128C187.747 31.32 188.063 31.592 188.287 31.944C188.519 32.288 188.635 32.692 188.635 33.156V37.5H187.147V36.384L187.483 36.36C187.315 36.64 187.115 36.876 186.883 37.068C186.651 37.252 186.387 37.396 186.091 37.5C185.795 37.596 185.467 37.644 185.107 37.644ZM190.879 40.14C190.703 40.14 190.531 40.124 190.363 40.092C190.195 40.068 190.043 40.02 189.907 39.948V38.64C190.011 38.664 190.135 38.688 190.279 38.712C190.431 38.736 190.571 38.748 190.699 38.748C191.059 38.748 191.319 38.664 191.479 38.496C191.647 38.336 191.795 38.12 191.923 37.848L192.355 36.84L192.331 38.16L189.487 30.972H191.179L193.171 36.276H192.571L194.551 30.972H196.255L193.411 38.16C193.243 38.576 193.039 38.932 192.799 39.228C192.559 39.524 192.279 39.748 191.959 39.9C191.647 40.06 191.287 40.14 190.879 40.14ZM200.443 37.644C199.875 37.644 199.347 37.54 198.859 37.332C198.379 37.124 197.963 36.836 197.611 36.468C197.267 36.092 197.015 35.656 196.855 35.16L198.211 34.572C198.427 35.084 198.739 35.488 199.147 35.784C199.555 36.072 200.015 36.216 200.527 36.216C200.815 36.216 201.063 36.172 201.271 36.084C201.487 35.988 201.651 35.86 201.763 35.7C201.883 35.54 201.943 35.348 201.943 35.124C201.943 34.86 201.863 34.644 201.703 34.476C201.551 34.3 201.319 34.164 201.007 34.068L199.291 33.516C198.595 33.3 198.071 32.976 197.719 32.544C197.367 32.112 197.191 31.604 197.191 31.02C197.191 30.508 197.315 30.056 197.563 29.664C197.819 29.272 198.171 28.968 198.619 28.752C199.075 28.528 199.595 28.416 200.179 28.416C200.715 28.416 201.207 28.512 201.655 28.704C202.103 28.888 202.487 29.148 202.807 29.484C203.135 29.812 203.379 30.2 203.539 30.648L202.195 31.248C202.019 30.8 201.755 30.456 201.403 30.216C201.051 29.968 200.643 29.844 200.179 29.844C199.907 29.844 199.667 29.892 199.459 29.988C199.251 30.076 199.087 30.204 198.967 30.372C198.855 30.532 198.799 30.724 198.799 30.948C198.799 31.196 198.879 31.416 199.039 31.608C199.199 31.792 199.443 31.936 199.771 32.04L201.415 32.556C202.127 32.788 202.659 33.108 203.011 33.516C203.371 33.924 203.551 34.428 203.551 35.028C203.551 35.54 203.419 35.992 203.155 36.384C202.891 36.776 202.527 37.084 202.063 37.308C201.599 37.532 201.059 37.644 200.443 37.644ZM207.864 37.572C207.128 37.572 206.556 37.372 206.148 36.972C205.748 36.564 205.548 35.992 205.548 35.256V32.376H204.42V30.972H204.54C204.86 30.972 205.108 30.888 205.284 30.72C205.46 30.552 205.548 30.308 205.548 29.988V29.484H207.12V30.972H208.62V32.376H207.12V35.172C207.12 35.388 207.156 35.572 207.228 35.724C207.308 35.876 207.428 35.992 207.588 36.072C207.756 36.152 207.968 36.192 208.224 36.192C208.28 36.192 208.344 36.188 208.416 36.18C208.496 36.172 208.572 36.164 208.644 36.156V37.5C208.532 37.516 208.404 37.532 208.26 37.548C208.116 37.564 207.984 37.572 207.864 37.572ZM212.173 37.644C211.669 37.644 211.229 37.532 210.853 37.308C210.485 37.084 210.201 36.772 210.001 36.372C209.809 35.972 209.713 35.504 209.713 34.968V30.972H211.285V34.836C211.285 35.108 211.337 35.348 211.441 35.556C211.553 35.756 211.709 35.916 211.909 36.036C212.117 36.148 212.349 36.204 212.605 36.204C212.861 36.204 213.089 36.148 213.289 36.036C213.489 35.916 213.645 35.752 213.757 35.544C213.869 35.336 213.925 35.088 213.925 34.8V30.972H215.497V37.5H214.009V36.216L214.141 36.444C213.989 36.844 213.737 37.144 213.385 37.344C213.041 37.544 212.637 37.644 212.173 37.644ZM220.523 37.644C220.051 37.644 219.615 37.552 219.215 37.368C218.823 37.176 218.511 36.904 218.279 36.552L218.435 36.24V37.5H216.959V28.416H218.531V32.268L218.291 31.944C218.515 31.592 218.819 31.32 219.203 31.128C219.587 30.928 220.031 30.828 220.535 30.828C221.151 30.828 221.707 30.98 222.203 31.284C222.699 31.588 223.091 31.996 223.379 32.508C223.675 33.02 223.823 33.596 223.823 34.236C223.823 34.868 223.679 35.444 223.391 35.964C223.103 36.484 222.711 36.896 222.215 37.2C221.719 37.496 221.155 37.644 220.523 37.644ZM220.343 36.204C220.703 36.204 221.023 36.12 221.303 35.952C221.583 35.784 221.799 35.552 221.951 35.256C222.111 34.96 222.191 34.62 222.191 34.236C222.191 33.852 222.111 33.516 221.951 33.228C221.799 32.932 221.583 32.7 221.303 32.532C221.023 32.356 220.703 32.268 220.343 32.268C219.999 32.268 219.687 32.352 219.407 32.52C219.135 32.688 218.919 32.924 218.759 33.228C218.607 33.524 218.531 33.86 218.531 34.236C218.531 34.62 218.607 34.96 218.759 35.256C218.919 35.552 219.135 35.784 219.407 35.952C219.687 36.12 219.999 36.204 220.343 36.204ZM227.505 37.644C226.809 37.644 226.201 37.48 225.681 37.152C225.169 36.816 224.817 36.364 224.625 35.796L225.801 35.232C225.969 35.6 226.201 35.888 226.497 36.096C226.801 36.304 227.137 36.408 227.505 36.408C227.793 36.408 228.021 36.344 228.189 36.216C228.357 36.088 228.441 35.92 228.441 35.712C228.441 35.584 228.405 35.48 228.333 35.4C228.269 35.312 228.177 35.24 228.057 35.184C227.945 35.12 227.821 35.068 227.685 35.028L226.617 34.728C226.065 34.568 225.645 34.324 225.357 33.996C225.077 33.668 224.937 33.28 224.937 32.832C224.937 32.432 225.037 32.084 225.237 31.788C225.445 31.484 225.729 31.248 226.089 31.08C226.457 30.912 226.877 30.828 227.349 30.828C227.965 30.828 228.509 30.976 228.981 31.272C229.453 31.568 229.789 31.984 229.989 32.52L228.789 33.084C228.677 32.788 228.489 32.552 228.225 32.376C227.961 32.2 227.665 32.112 227.337 32.112C227.073 32.112 226.865 32.172 226.713 32.292C226.561 32.412 226.485 32.568 226.485 32.76C226.485 32.88 226.517 32.984 226.581 33.072C226.645 33.16 226.733 33.232 226.845 33.288C226.965 33.344 227.101 33.396 227.253 33.444L228.297 33.756C228.833 33.916 229.245 34.156 229.533 34.476C229.829 34.796 229.977 35.188 229.977 35.652C229.977 36.044 229.873 36.392 229.665 36.696C229.457 36.992 229.169 37.224 228.801 37.392C228.433 37.56 228.001 37.644 227.505 37.644Z" fill="#149994"/>
<path d="M140.433 112.032C139.745 111.57 139.561 110.638 140.023 109.95L147.546 98.7405C148.007 98.0527 148.939 97.8692 149.627 98.3309C150.315 98.7925 150.498 99.7244 150.037 100.412L143.35 110.376L153.314 117.063C154.002 117.525 154.186 118.457 153.724 119.145C153.262 119.833 152.33 120.016 151.643 119.554L140.433 112.032ZM201.913 45.5L203.411 45.421C204.128 59.0234 197.656 74.3152 188.767 83.5437C184.318 88.1633 179.114 91.4165 173.732 92.0212C168.244 92.6378 162.857 90.4697 158.248 84.8389L159.409 83.8889L160.57 82.9388C164.636 87.9068 169.072 89.526 173.397 89.04C177.827 88.5422 182.426 85.8032 186.607 81.4625C194.979 72.7701 201.084 58.2688 200.415 45.5791L201.913 45.5ZM159.409 83.8889L158.248 84.8389C153.744 79.336 151.85 74.0473 151.888 69.344C151.926 64.6352 153.902 60.6679 156.847 57.8493C162.648 52.2959 172.518 51.0372 178.733 57.6615L177.639 58.6878L176.545 59.7141C171.736 54.5879 163.816 55.331 158.921 60.0164C156.518 62.3172 154.919 65.5286 154.888 69.3682C154.857 73.2134 156.399 77.843 160.57 82.9388L159.409 83.8889ZM177.639 58.6878L178.733 57.6615C181.832 60.9654 183.22 65.6811 183.088 70.8435C182.955 76.0151 181.3 81.7446 178.177 87.2674C171.92 98.3301 159.702 108.687 141.558 112.258L141.269 110.786L140.979 109.314C158.258 105.913 169.737 96.0963 175.565 85.7905C178.485 80.629 179.97 75.3756 180.089 70.7665C180.207 66.1482 178.957 62.2855 176.545 59.7141L177.639 58.6878Z" fill="#149994"/>
</g>
<rect x="0.5" y="0.5" width="267" height="244" rx="15.5" stroke="#BEBEBE" stroke-opacity="0.36"/>
<defs>
<clipPath id="clip0_1046_4026">
<rect width="268" height="245" rx="16" fill="white"/>
</clipPath>
</defs>
</svg>
