<svg width="24" height="24" viewBox="0 0 24 24" fill="none" xmlns="http://www.w3.org/2000/svg">
<path d="M14 9.84647C13 8.92347 10.333 8.61647 10.333 10.4625C10.333 12.3085 14 11.3855 14 13.2305C14 15.0755 11 15.0765 10 13.8455M12 14.7025V16.0005M12 9.11347V8.00047M2 8.00047L11.732 3.13447C11.8152 3.09292 11.907 3.07129 12 3.07129C12.093 3.07129 12.1848 3.09292 12.268 3.13447L22 8.00047" stroke="white" stroke-width="1.5" stroke-linecap="round" stroke-linejoin="round"/>
<path d="M20 11V19C20 19.5304 19.7893 20.0391 19.4142 20.4142C19.0391 20.7893 18.5304 21 18 21H6C5.46957 21 4.96086 20.7893 4.58579 20.4142C4.21071 20.0391 4 19.5304 4 19V11" stroke="white" stroke-width="1.5" stroke-linecap="round" stroke-linejoin="round"/>
</svg>
