<svg width="72" height="72" viewBox="0 0 72 72" fill="none" xmlns="http://www.w3.org/2000/svg">
<path d="M7.875 43.875H19.125C19.4234 43.875 19.7095 43.7565 19.9205 43.5455C20.1315 43.3345 20.25 43.0484 20.25 42.75V31.5C20.25 31.2016 20.1315 30.9155 19.9205 30.7045C19.7095 30.4935 19.4234 30.375 19.125 30.375H7.875C7.57663 30.375 7.29048 30.4935 7.07951 30.7045C6.86853 30.9155 6.75 31.2016 6.75 31.5V42.75C6.75 43.0484 6.86853 43.3345 7.07951 43.5455C7.29048 43.7565 7.57663 43.875 7.875 43.875ZM9 32.625H12.375V34.875H14.625V32.625H18V41.625H9V32.625Z" fill="#2A5FAC"/>
<path d="M55.125 37.125V48.375C55.125 48.6734 55.0065 48.9595 54.7955 49.1705C54.5845 49.3815 54.2984 49.5 54 49.5H31.5C31.2016 49.5 30.9155 49.3815 30.7045 49.1705C30.4935 48.9595 30.375 48.6734 30.375 48.375V37.125C30.375 36.8266 30.4935 36.5405 30.7045 36.3295C30.9155 36.1185 31.2016 36 31.5 36H39.375V25.875C39.375 25.5766 39.4935 25.2905 39.7045 25.0795C39.9155 24.8685 40.2016 24.75 40.5 24.75H51.75C52.0484 24.75 52.3345 24.8685 52.5455 25.0795C52.7565 25.2905 52.875 25.5766 52.875 25.875V36H54C54.2984 36 54.5845 36.1185 54.7955 36.3295C55.0065 36.5405 55.125 36.8266 55.125 37.125Z" fill="#15C3A9"/>
<path d="M12.9359 13.5H14.0609C14.2101 13.5 14.3532 13.4407 14.4587 13.3352C14.5641 13.2298 14.6234 13.0867 14.6234 12.9375C14.6234 12.7883 14.5641 12.6452 14.4587 12.5398C14.3532 12.4343 14.2101 12.375 14.0609 12.375H12.9359C12.19 12.4496 11.445 12.2248 10.8648 11.7501C10.2846 11.2754 9.91675 10.5897 9.84216 9.84375C9.76757 9.09783 9.99235 8.35283 10.467 7.77264C10.9418 7.19245 11.6275 6.82459 12.3734 6.75V5.625H14.6234V6.80625C15.2587 6.93592 15.8296 7.2811 16.2396 7.78337C16.6497 8.28563 16.8735 8.91413 16.8734 9.5625H14.6234C14.6234 9.41332 14.5641 9.27024 14.4587 9.16475C14.3532 9.05926 14.2101 9 14.0609 9H12.9359C12.7867 9 12.6437 9.05926 12.5382 9.16475C12.4327 9.27024 12.3734 9.41332 12.3734 9.5625C12.3734 9.71168 12.4327 9.85476 12.5382 9.96025C12.6437 10.0657 12.7867 10.125 12.9359 10.125H14.0609C14.8068 10.0504 15.5518 10.2752 16.132 10.7499C16.7122 11.2246 17.0801 11.9103 17.1547 12.6562C17.2293 13.4022 17.0045 14.1472 16.5298 14.7274C16.0551 15.3076 15.3693 15.6754 14.6234 15.75V16.875H12.3734V15.75C11.7286 15.6185 11.1503 15.2651 10.7391 14.7512C10.328 14.2373 10.1101 13.5955 10.1234 12.9375H12.3734C12.3734 13.0867 12.4327 13.2298 12.5382 13.3352C12.6437 13.4407 12.7867 13.5 12.9359 13.5Z" fill="#15C3A9"/>
<path d="M38.8109 9H37.6859C37.5367 9 37.3937 9.05926 37.2882 9.16475C37.1827 9.27024 37.1234 9.41332 37.1234 9.5625C37.1234 9.71168 37.1827 9.85476 37.2882 9.96025C37.3937 10.0657 37.5367 10.125 37.6859 10.125H38.8109C39.1803 10.0881 39.5533 10.1242 39.9086 10.2315C40.264 10.3387 40.5947 10.5148 40.882 10.7499C41.1693 10.9849 41.4075 11.2743 41.5829 11.6014C41.7584 11.9285 41.8677 12.2869 41.9047 12.6562C41.9416 13.0256 41.9054 13.3986 41.7982 13.754C41.691 14.1093 41.5148 14.4401 41.2798 14.7274C41.0447 15.0146 40.7554 15.2528 40.4283 15.4283C40.1012 15.6037 39.7428 15.7131 39.3734 15.75V16.875H37.1234V15.75C36.4786 15.6185 35.9003 15.2651 35.4891 14.7512C35.078 14.2373 34.8601 13.5955 34.8734 12.9375H37.1234C37.1234 13.0867 37.1827 13.2298 37.2882 13.3352C37.3937 13.4407 37.5367 13.5 37.6859 13.5H38.8109C38.9601 13.5 39.1032 13.4407 39.2087 13.3352C39.3141 13.2298 39.3734 13.0867 39.3734 12.9375C39.3734 12.7883 39.3141 12.6452 39.2087 12.5398C39.1032 12.4343 38.9601 12.375 38.8109 12.375H37.6859C36.94 12.4496 36.195 12.2248 35.6148 11.7501C35.0346 11.2754 34.6668 10.5897 34.5922 9.84375C34.5176 9.09783 34.7423 8.35283 35.217 7.77264C35.6917 7.19245 36.3775 6.82459 37.1234 6.75V5.625H39.3734V6.80625C40.0087 6.93592 40.5796 7.2811 40.9896 7.78337C41.3997 8.28563 41.6235 8.91413 41.6234 9.5625H39.3734C39.3734 9.41332 39.3141 9.27024 39.2087 9.16475C39.1032 9.05926 38.9601 9 38.8109 9Z" fill="#15C3A9"/>
<path d="M47.8109 9H46.6859C46.5367 9 46.3937 9.05926 46.2882 9.16475C46.1827 9.27024 46.1234 9.41332 46.1234 9.5625C46.1234 9.71168 46.1827 9.85476 46.2882 9.96025C46.3937 10.0657 46.5367 10.125 46.6859 10.125H47.8109C48.5568 10.0504 49.3018 10.2752 49.882 10.7499C50.4622 11.2246 50.8301 11.9103 50.9047 12.6562C50.9793 13.4022 50.7545 14.1472 50.2798 14.7274C49.8051 15.3076 49.1193 15.6754 48.3734 15.75V16.875H46.1234V15.75C45.4786 15.6185 44.9003 15.2651 44.4892 14.7512C44.078 14.2373 43.8601 13.5955 43.8734 12.9375H46.1234C46.1234 13.0867 46.1827 13.2298 46.2882 13.3352C46.3937 13.4407 46.5367 13.5 46.6859 13.5H47.8109C47.9601 13.5 48.1032 13.4407 48.2087 13.3352C48.3141 13.2298 48.3734 13.0867 48.3734 12.9375C48.3734 12.7883 48.3141 12.6452 48.2087 12.5398C48.1032 12.4343 47.9601 12.375 47.8109 12.375H46.6859C45.94 12.4496 45.195 12.2248 44.6148 11.7501C44.0346 11.2754 43.6668 10.5897 43.5922 9.84375C43.5176 9.09783 43.7424 8.35283 44.2171 7.77264C44.6918 7.19245 45.3775 6.82459 46.1234 6.75V5.625H48.3734V6.80625C49.0087 6.93592 49.5796 7.2811 49.9896 7.78337C50.3997 8.28563 50.6235 8.91413 50.6234 9.5625H48.3734C48.3734 9.41332 48.3141 9.27024 48.2087 9.16475C48.1032 9.05926 47.9601 9 47.8109 9Z" fill="#15C3A9"/>
<path d="M61.875 50.6925V4.5C61.875 3.60489 61.5194 2.74645 60.8865 2.11351C60.2535 1.48058 59.3951 1.125 58.5 1.125H4.5C3.60489 1.125 2.74645 1.48058 2.11351 2.11351C1.48058 2.74645 1.125 3.60489 1.125 4.5V58.5C1.125 59.3951 1.48058 60.2535 2.11351 60.8865C2.74645 61.5194 3.60489 61.875 4.5 61.875H50.6925C50.9034 63.7704 51.6453 65.5677 52.8328 67.06C54.0202 68.5522 55.605 69.6788 57.4047 70.3099C59.2043 70.941 61.1456 71.0511 63.005 70.6273C64.8644 70.2036 66.5664 69.2634 67.9149 67.9149C69.2634 66.5664 70.2036 64.8644 70.6273 63.005C71.0511 61.1456 70.941 59.2043 70.3099 57.4047C69.6788 55.605 68.5522 54.0202 67.06 52.8328C65.5677 51.6453 63.7704 50.9034 61.875 50.6925ZM25.875 3.375H58.5C58.7984 3.375 59.0845 3.49353 59.2955 3.7045C59.5065 3.91548 59.625 4.20163 59.625 4.5V19.125H25.875V3.375ZM23.625 59.625H4.5C4.20163 59.625 3.91548 59.5065 3.7045 59.2955C3.49353 59.0845 3.375 58.7984 3.375 58.5V21.375H23.625V59.625ZM23.625 19.125H3.375V4.5C3.375 4.20163 3.49353 3.91548 3.7045 3.7045C3.91548 3.49353 4.20163 3.375 4.5 3.375H23.625V19.125ZM25.875 59.625V21.375H59.625V50.6925C57.3441 50.9485 55.2178 51.9719 53.5949 53.5949C51.9719 55.2178 50.9485 57.3441 50.6925 59.625H25.875ZM60.75 68.625C59.1925 68.625 57.6699 68.1631 56.3749 67.2978C55.0798 66.4325 54.0705 65.2026 53.4744 63.7636C52.8784 62.3247 52.7225 60.7413 53.0263 59.2137C53.3302 57.6861 54.0802 56.2829 55.1815 55.1815C56.2829 54.0802 57.6861 53.3302 59.2137 53.0263C60.7413 52.7225 62.3247 52.8784 63.7636 53.4744C65.2026 54.0705 66.4325 55.0798 67.2978 56.3749C68.1631 57.6699 68.625 59.1925 68.625 60.75C68.625 62.8386 67.7953 64.8416 66.3185 66.3185C64.8416 67.7953 62.8386 68.625 60.75 68.625Z" fill="#2A5FAC"/>
<path d="M32.625 47.25H41.625V38.25H38.25V40.5H36V38.25H32.625V47.25Z" fill="white"/>
<path d="M41.625 27V36H50.625V27H47.25V29.25H45V27H41.625Z" fill="white"/>
<path d="M43.875 47.25H52.875V38.25H49.5V40.5H47.25V38.25H43.875V47.25Z" fill="white"/>
<path d="M63.1335 56.7728L56.7695 63.1367L58.3605 64.7277L64.7245 58.3637L63.1335 56.7728Z" fill="#15C3A9"/>
<path d="M58.5 59.625C59.1213 59.625 59.625 59.1213 59.625 58.5C59.625 57.8787 59.1213 57.375 58.5 57.375C57.8787 57.375 57.375 57.8787 57.375 58.5C57.375 59.1213 57.8787 59.625 58.5 59.625Z" fill="#15C3A9"/>
<path d="M63 64.125C63.6213 64.125 64.125 63.6213 64.125 63C64.125 62.3787 63.6213 61.875 63 61.875C62.3787 61.875 61.875 62.3787 61.875 63C61.875 63.6213 62.3787 64.125 63 64.125Z" fill="#15C3A9"/>
</svg>
