<svg width="72" height="72" viewBox="0 0 72 72" fill="none" xmlns="http://www.w3.org/2000/svg">
<path d="M14.1412 65.7942H7.7145C7.40897 65.7942 7.11595 65.6728 6.89991 65.4568C6.68387 65.2408 6.5625 64.9477 6.5625 64.6422V55.3499C6.5625 55.0444 6.68387 54.7514 6.89991 54.5353C7.11595 54.3193 7.40897 54.1979 7.7145 54.1979H14.1412C14.4467 54.1979 14.7398 54.3193 14.9558 54.5353C15.1718 54.7514 15.2932 55.0444 15.2932 55.3499V64.6422C15.2932 64.7935 15.2634 64.9433 15.2055 65.0831C15.1476 65.2228 15.0628 65.3498 14.9558 65.4568C14.8488 65.5638 14.7218 65.6486 14.5821 65.7065C14.4423 65.7644 14.2925 65.7942 14.1412 65.7942ZM8.8665 63.4902H12.9892V56.5019H8.8665V63.4902ZM26.6764 65.7942H20.2504C19.9449 65.7942 19.6519 65.6728 19.4358 65.4568C19.2198 65.2408 19.0984 64.9477 19.0984 64.6422V46.7725C19.0984 46.467 19.2198 46.174 19.4358 45.9579C19.6519 45.7419 19.9449 45.6205 20.2504 45.6205H26.6764C26.9819 45.6205 27.275 45.7419 27.491 45.9579C27.707 46.174 27.8284 46.467 27.8284 46.7725V64.6422C27.8284 64.9477 27.707 65.2408 27.491 65.4568C27.275 65.6728 26.9819 65.7942 26.6764 65.7942ZM21.4024 63.4902H25.5244V47.9245H21.4024V63.4902ZM64.2835 65.7942H57.8567C57.5512 65.7942 57.2582 65.6728 57.0422 65.4568C56.8261 65.2408 56.7047 64.9477 56.7047 64.6422V55.3499C56.7047 55.0444 56.8261 54.7514 57.0422 54.5353C57.2582 54.3193 57.5512 54.1979 57.8567 54.1979H64.2835C64.589 54.1979 64.882 54.3193 65.098 54.5353C65.3141 54.7514 65.4355 55.0444 65.4355 55.3499V64.6422C65.4355 64.9477 65.3141 65.2408 65.098 65.4568C64.882 65.6728 64.589 65.7942 64.2835 65.7942ZM59.0087 63.4902H63.1315V56.5019H59.0087V63.4902ZM51.7475 65.7942H45.3215C45.016 65.7942 44.723 65.6728 44.507 65.4568C44.2909 65.2408 44.1695 64.9477 44.1695 64.6422V46.7725C44.1695 46.467 44.2909 46.174 44.507 45.9579C44.723 45.7419 45.016 45.6205 45.3215 45.6205H51.7475C52.0531 45.6205 52.3461 45.7419 52.5621 45.9579C52.7782 46.174 52.8995 46.467 52.8995 46.7725V64.6422C52.8995 64.9477 52.7782 65.2408 52.5621 65.4568C52.3461 65.6728 52.0531 65.7942 51.7475 65.7942ZM46.4735 63.4902H50.5955V47.9245H46.4735V63.4902ZM39.2123 65.7942H32.7856C32.4801 65.7942 32.1871 65.6728 31.971 65.4568C31.755 65.2408 31.6336 64.9477 31.6336 64.6422V38.9101C31.6336 38.6046 31.755 38.3116 31.971 38.0955C32.1871 37.8795 32.4801 37.7581 32.7856 37.7581H39.2123C39.5179 37.7581 39.8109 37.8795 40.0269 38.0955C40.243 38.3116 40.3643 38.6046 40.3643 38.9101V64.6422C40.3643 64.9477 40.243 65.2408 40.0269 65.4568C39.8109 65.6728 39.5179 65.7942 39.2123 65.7942ZM33.9376 63.4902H38.0603V40.0621H33.9376V63.4902ZM58.8777 46.4125C58.6408 46.4128 58.4096 46.3396 58.216 46.203L50.0635 40.4718C49.8135 40.296 49.6436 40.0282 49.5911 39.7271C49.5387 39.4261 49.608 39.1165 49.7837 38.8666C49.9595 38.6166 50.2274 38.4467 50.5284 38.3943C50.8295 38.3418 51.139 38.4111 51.389 38.5869L59.543 44.3181C59.7433 44.4589 59.8936 44.6599 59.9719 44.8919C60.0503 45.1239 60.0527 45.3748 59.9788 45.6083C59.9049 45.8417 59.7585 46.0455 59.5609 46.1902C59.3633 46.3348 59.1247 46.4127 58.8799 46.4125H58.8777ZM25.7246 37.7041C25.4752 37.7042 25.2326 37.6233 25.0331 37.4736C24.8336 37.324 24.6881 37.1136 24.6184 36.8742C24.5486 36.6348 24.5585 36.3792 24.6464 36.1458C24.7344 35.9125 24.8957 35.714 25.1061 35.5801L32.3673 30.9635C32.6249 30.8079 32.9332 30.7593 33.2262 30.8281C33.5192 30.8969 33.7737 31.0777 33.9351 31.3317C34.0965 31.5857 34.1522 31.8928 34.0901 32.1873C34.028 32.4818 33.8531 32.7403 33.6028 32.9075L26.3416 37.5241C26.1573 37.6417 25.9432 37.7042 25.7246 37.7041ZM13.1203 46.4125C12.8752 46.4131 12.6363 46.3356 12.4384 46.1911C12.2404 46.0467 12.0937 45.8428 12.0195 45.6093C11.9453 45.3757 11.9475 45.1246 12.0258 44.8924C12.1042 44.6602 12.2545 44.459 12.455 44.3181L20.6068 38.5869C20.7306 38.4998 20.8703 38.438 21.0179 38.405C21.1656 38.3719 21.3183 38.3683 21.4674 38.3943C21.6164 38.4202 21.7589 38.4753 21.8867 38.5564C22.0145 38.6374 22.125 38.7428 22.2121 38.8666C22.2991 38.9903 22.3609 39.13 22.3939 39.2777C22.427 39.4254 22.4306 39.5781 22.4047 39.7271C22.3787 39.8762 22.3236 40.0187 22.2426 40.1464C22.1615 40.2742 22.0561 40.3848 21.9323 40.4718L13.7798 46.203C13.5868 46.3392 13.3564 46.4124 13.1203 46.4125ZM46.2734 37.7041C46.0547 37.7042 45.8407 37.6417 45.6563 37.5241L38.3951 32.9082C38.1449 32.741 37.97 32.4825 37.9079 32.188C37.8458 31.8935 37.9014 31.5864 38.0629 31.3324C38.2243 31.0784 38.4787 30.8977 38.7717 30.8288C39.0647 30.76 39.373 30.8086 39.6307 30.9642L46.8919 35.5809C47.1023 35.7147 47.2636 35.9132 47.3515 36.1466C47.4395 36.3799 47.4493 36.6355 47.3796 36.8749C47.3099 37.1144 47.1644 37.3247 46.9649 37.4743C46.7654 37.624 46.5228 37.7049 46.2734 37.7049V37.7041Z" fill="#2A5FAC"/>
<path d="M10.9278 50.634C10.1697 50.6343 9.42867 50.4098 8.79825 49.9889C8.16783 49.568 7.67638 48.9696 7.38604 48.2694C7.0957 47.5692 7.01951 46.7987 7.16711 46.0552C7.31471 45.3117 7.67947 44.6286 8.21526 44.0924C8.75106 43.5563 9.43382 43.191 10.1772 43.0428C10.9206 42.8947 11.6912 42.9703 12.3916 43.2601C13.0921 43.5499 13.6908 44.0409 14.1122 44.671C14.5335 45.3011 14.7586 46.042 14.7589 46.8C14.7585 47.8162 14.3548 48.7908 13.6365 49.5096C12.9182 50.2285 11.944 50.6329 10.9278 50.634ZM10.9278 45.2729C10.6253 45.2726 10.3296 45.3621 10.078 45.5299C9.8264 45.6978 9.63025 45.9365 9.51438 46.2158C9.39851 46.4952 9.36812 46.8027 9.42705 47.0993C9.48599 47.396 9.6316 47.6685 9.84546 47.8823C10.0593 48.0962 10.3318 48.2418 10.6285 48.3007C10.9251 48.3597 11.2326 48.3293 11.5119 48.2134C11.7913 48.0975 12.03 47.9014 12.1979 47.6498C12.3657 47.3982 12.4552 47.1025 12.4549 46.8C12.4545 46.3951 12.2935 46.0069 12.0072 45.7206C11.7209 45.4343 11.3327 45.2733 10.9278 45.2729ZM23.4637 41.8219C22.7055 41.8225 21.9643 41.5982 21.3336 41.1774C20.703 40.7567 20.2113 40.1583 19.9208 39.458C19.6303 38.7578 19.554 37.9871 19.7015 37.2435C19.8491 36.4998 20.2139 35.8167 20.7497 35.2804C21.2856 34.7441 21.9685 34.3788 22.712 34.2307C23.4556 34.0826 24.2263 34.1583 24.9268 34.4483C25.6273 34.7383 26.226 35.2295 26.6472 35.8598C27.0685 36.4902 27.2934 37.2313 27.2934 37.9894C27.2926 39.0051 26.889 39.9791 26.171 40.6976C25.453 41.416 24.4794 41.8204 23.4637 41.8219ZM23.4637 36.4608C23.1612 36.4603 22.8654 36.5494 22.6137 36.717C22.3619 36.8846 22.1655 37.1232 22.0494 37.4024C21.9333 37.6817 21.9026 37.9891 21.9613 38.2858C22.0199 38.5825 22.1653 38.8552 22.3789 39.0692C22.5926 39.2833 22.8649 39.4291 23.1615 39.4884C23.4581 39.5476 23.7656 39.5175 24.0451 39.4019C24.3246 39.2863 24.5635 39.0903 24.7315 38.8389C24.8996 38.5875 24.9893 38.2918 24.9894 37.9894C24.9894 37.5845 24.8287 37.1961 24.5427 36.9095C24.2566 36.623 23.8686 36.4616 23.4637 36.4608ZM35.9989 34.7465C35.0638 34.7472 34.1496 34.4706 33.3718 33.9515C32.5941 33.4325 31.9878 32.6944 31.6296 31.8307C31.2715 30.967 31.1776 30.0164 31.3598 29.0993C31.5421 28.1822 31.9923 27.3398 32.6534 26.6786C33.3146 26.0174 34.157 25.5672 35.0741 25.385C35.9912 25.2027 36.9418 25.2966 37.8055 25.6548C38.6693 26.0129 39.4073 26.6192 39.9264 27.397C40.4454 28.1747 40.7221 29.089 40.7214 30.024C40.7194 31.2759 40.2213 32.476 39.3361 33.3612C38.4508 34.2464 37.2508 34.7446 35.9989 34.7465ZM35.9989 27.5991C35.5198 27.5984 35.0513 27.7397 34.6526 28.0053C34.2538 28.2709 33.9428 28.6487 33.7589 29.0911C33.5749 29.5334 33.5263 30.0204 33.6191 30.4904C33.7119 30.9604 33.942 31.3923 34.2803 31.7315C34.6186 32.0707 35.0499 32.302 35.5197 32.3961C35.9894 32.4901 36.4765 32.4428 36.9193 32.26C37.3622 32.0772 37.7409 31.7673 38.0075 31.3692C38.2742 30.9712 38.4168 30.5031 38.4174 30.024C38.4179 29.3818 38.1635 28.7657 37.71 28.311C37.2565 27.8563 36.6411 27.6002 35.9989 27.5991ZM48.5341 41.8219C47.7759 41.8225 47.0347 41.5982 46.404 41.1774C45.7734 40.7567 45.2817 40.1583 44.9912 39.458C44.7007 38.7578 44.6244 37.9871 44.7719 37.2435C44.9195 36.4998 45.2843 35.8167 45.8201 35.2804C46.356 34.7441 47.0389 34.3788 47.7824 34.2307C48.526 34.0826 49.2967 34.1583 49.9972 34.4483C50.6977 34.7383 51.2964 35.2295 51.7176 35.8598C52.1389 36.4902 52.3637 37.2313 52.3637 37.9894C52.363 39.0051 51.9594 39.9791 51.2414 40.6976C50.5234 41.416 49.5498 41.8204 48.5341 41.8219ZM48.5341 36.4608C48.2316 36.4603 47.9358 36.5494 47.6841 36.717C47.4323 36.8846 47.2359 37.1232 47.1198 37.4024C47.0037 37.6817 46.973 37.9891 47.0317 38.2858C47.0903 38.5825 47.2357 38.8552 47.4493 39.0692C47.663 39.2833 47.9353 39.4291 48.2319 39.4884C48.5285 39.5476 48.836 39.5175 49.1155 39.4019C49.395 39.2863 49.6339 39.0903 49.8019 38.8389C49.97 38.5875 50.0597 38.2918 50.0597 37.9894C50.0597 37.5845 49.8991 37.1961 49.6131 36.9095C49.327 36.623 48.939 36.4616 48.5341 36.4608ZM61.07 50.634C60.3119 50.6346 59.5707 50.4103 58.9401 49.9896C58.3095 49.5689 57.8178 48.9706 57.5273 48.2705C57.2367 47.5703 57.1603 46.7997 57.3077 46.0561C57.4552 45.3125 57.8198 44.6293 58.3556 44.093C58.8913 43.5566 59.574 43.1912 60.3175 43.0429C61.0609 42.8947 61.8316 42.9702 62.5321 43.2599C63.2326 43.5497 63.8314 44.0407 64.2529 44.6709C64.6743 45.301 64.8994 46.042 64.8997 46.8C64.8993 47.816 64.4958 48.7903 63.7778 49.5091C63.0598 50.2279 62.086 50.6325 61.07 50.634ZM61.07 45.2729C60.7675 45.2723 60.4716 45.3615 60.2198 45.5292C59.9681 45.6969 59.7717 45.9355 59.6556 46.2148C59.5395 46.4942 59.5089 46.8017 59.5677 47.0984C59.6264 47.3952 59.7719 47.6678 59.9857 47.8818C60.1995 48.0958 60.472 48.2416 60.7687 48.3006C61.0654 48.3597 61.3729 48.3294 61.6524 48.2135C61.9318 48.0977 62.1706 47.9016 62.3386 47.6499C62.5065 47.3983 62.596 47.1025 62.5957 46.8C62.5953 46.3954 62.4345 46.0074 62.1485 45.7211C61.8625 45.4348 61.4746 45.2737 61.07 45.2729ZM35.9989 16.8682C35.7403 16.8682 35.4924 16.7655 35.3095 16.5826C35.1267 16.3998 35.024 16.1519 35.024 15.8933V11.448C35.024 11.1895 35.1267 10.9415 35.3095 10.7587C35.4924 10.5759 35.7403 10.4731 35.9989 10.4731C36.2574 10.4731 36.5054 10.5759 36.6882 10.7587C36.871 10.9415 36.9737 11.1895 36.9737 11.448V15.8904C36.9741 16.0187 36.9492 16.1458 36.9004 16.2644C36.8515 16.383 36.7798 16.4908 36.6892 16.5816C36.5987 16.6725 36.4911 16.7445 36.3726 16.7937C36.2541 16.8429 36.1271 16.8682 35.9989 16.8682ZM35.9989 19.5552C35.9672 19.5552 35.9348 19.5552 35.9031 19.5509C35.8714 19.5466 35.8398 19.543 35.8081 19.5365C35.7457 19.5241 35.6847 19.5055 35.6259 19.4811C35.567 19.4565 35.5106 19.4264 35.4574 19.3911C35.4315 19.3738 35.4056 19.3543 35.3804 19.3342C35.3552 19.314 35.3322 19.2924 35.3084 19.2701C35.2846 19.2478 35.2645 19.2233 35.2443 19.1981C35.2241 19.1729 35.2054 19.1477 35.1874 19.1211C35.1519 19.0682 35.122 19.0117 35.0982 18.9526C35.0737 18.8938 35.0549 18.8328 35.042 18.7704C35.0362 18.7395 35.0312 18.7071 35.0283 18.6761C35.0248 18.6441 35.0232 18.6119 35.0233 18.5796C35.0232 18.5476 35.0248 18.5157 35.0283 18.4839C35.0283 18.4522 35.0362 18.4205 35.042 18.3895C35.0549 18.3269 35.0737 18.2657 35.0982 18.2067C35.1221 18.1479 35.1521 18.0916 35.1874 18.0389C35.2054 18.0123 35.2241 17.9863 35.2443 17.9619C35.2643 17.9367 35.2857 17.9127 35.3084 17.8899C35.4108 17.7884 35.5342 17.7106 35.6699 17.6621C35.8057 17.6136 35.9504 17.5955 36.0939 17.6091C36.1258 17.6121 36.1576 17.6169 36.189 17.6235C36.2514 17.6359 36.3124 17.6545 36.3711 17.6789C36.4299 17.7035 36.4863 17.7334 36.5396 17.7682C36.5662 17.7862 36.5921 17.8049 36.6166 17.8251C36.6411 17.8452 36.6649 17.8675 36.6886 17.8899C36.7113 17.9127 36.7327 17.9367 36.7527 17.9619C36.7729 17.9863 36.7916 18.0123 36.8096 18.0389C36.845 18.0916 36.8749 18.1479 36.8989 18.2067C36.9233 18.2657 36.9421 18.3269 36.955 18.3895C36.9608 18.4205 36.9658 18.4522 36.9687 18.4839C36.9722 18.5157 36.9739 18.5476 36.9737 18.5796C36.9739 18.6119 36.9722 18.6441 36.9687 18.6761C36.9687 18.7071 36.9608 18.7395 36.955 18.7704C36.9421 18.8328 36.9233 18.8938 36.8989 18.9526C36.8747 19.0116 36.8448 19.068 36.8096 19.1211C36.7916 19.1477 36.7729 19.1736 36.7527 19.1981C36.7325 19.2226 36.7109 19.2471 36.6886 19.2701C36.6663 19.2931 36.6418 19.314 36.6166 19.3342C36.592 19.3546 36.5663 19.3736 36.5396 19.3911C36.4864 19.4264 36.43 19.4565 36.3711 19.4811C36.3124 19.5055 36.2514 19.5241 36.189 19.5365C36.1573 19.543 36.1256 19.5473 36.0939 19.5509C36.0622 19.5545 36.0306 19.5552 35.9989 19.5552Z" fill="#15C3A9"/>
<path d="M42.5282 22.5151H29.4732C29.0227 22.517 28.5796 22.3998 28.189 22.1754C27.7984 21.951 27.474 21.6273 27.2487 21.2371C27.0234 20.847 26.9053 20.4042 26.9063 19.9537C26.9072 19.5032 27.0272 19.0609 27.2541 18.6717L33.7817 7.36773C33.895 7.17069 34.0337 6.98938 34.1942 6.82845C34.4729 6.55238 34.8113 6.34394 35.1832 6.21915C35.5551 6.09436 35.9507 6.05656 36.3395 6.10865C36.7283 6.16073 37.1 6.30133 37.426 6.51961C37.752 6.73789 38.0235 7.02804 38.2197 7.36773L44.7473 18.6717C44.9721 19.0613 45.0904 19.5031 45.0904 19.9528C45.0903 20.4026 44.9719 20.8444 44.747 21.2339C44.5222 21.6234 44.1987 21.9468 43.8092 22.1717C43.4198 22.3966 42.978 22.515 42.5282 22.5151ZM28.8252 19.9497C28.8263 20.0642 28.8568 20.1766 28.9137 20.2759C28.9695 20.3749 29.0509 20.457 29.1493 20.5138C29.2477 20.5705 29.3596 20.5998 29.4732 20.5984H42.5282C42.6418 20.5998 42.7537 20.5705 42.8521 20.5138C42.9505 20.457 43.0319 20.3749 43.0877 20.2759C43.1446 20.1766 43.1751 20.0642 43.1762 19.9497C43.1757 19.8372 43.1452 19.7268 43.0877 19.6301L36.5594 8.32605C36.5022 8.22869 36.4206 8.14797 36.3226 8.09188C36.2246 8.03579 36.1136 8.00628 36.0007 8.00628C35.8878 8.00628 35.7768 8.03579 35.6788 8.09188C35.5808 8.14797 35.4992 8.22869 35.442 8.32605L28.9137 19.6301C28.8562 19.7268 28.8256 19.8372 28.8252 19.9497Z" fill="#15C3A9"/>
</svg>
