<svg width="70" height="71" viewBox="0 0 70 71" fill="none" xmlns="http://www.w3.org/2000/svg">
<path fill-rule="evenodd" clip-rule="evenodd" d="M18.4827 33.6632C18.8163 33.2682 19.2833 33.0306 19.7812 33.0028C20.279 32.9749 20.7667 33.1591 21.1373 33.5148L27.4053 39.5311C27.7645 39.89 27.9774 40.3849 27.9983 40.9094C28.0192 41.4339 27.8464 41.9463 27.5171 42.3365C27.1878 42.7266 26.7281 42.9635 26.2369 42.9961C25.7457 43.0288 25.262 42.8546 24.8898 42.5111L18.6218 36.4949C18.2514 36.139 18.0287 35.6408 18.0026 35.1098C17.9765 34.5788 18.1492 34.0585 18.4827 33.6632Z" fill="#2A5FAC"/>
<path fill-rule="evenodd" clip-rule="evenodd" d="M27.9788 27.6604C28.3265 28.0539 28.5065 28.572 28.4793 29.1007C28.4521 29.6294 28.2199 30.1255 27.8338 30.4798L21.2997 36.4701C21.1095 36.6517 20.8857 36.7927 20.6413 36.8851C20.397 36.9774 20.137 37.0192 19.8766 37.0079C19.6162 36.9966 19.3606 36.9325 19.1248 36.8194C18.8891 36.7063 18.6778 36.5464 18.5034 36.349C18.329 36.1517 18.195 35.9209 18.1092 35.6702C18.0234 35.4194 17.9876 35.1538 18.0038 34.8887C18.02 34.6237 18.0879 34.3646 18.2036 34.1267C18.3193 33.8887 18.4804 33.6767 18.6775 33.5029L25.2116 27.5126C25.5978 27.1584 26.1063 26.975 26.6252 27.0027C27.1442 27.0304 27.6311 27.267 27.9788 27.6604ZM51.4969 33.6507C51.8445 34.0442 52.0245 34.5623 51.9973 35.091C51.9701 35.6197 51.7379 36.1158 51.3518 36.4701L44.8177 42.4604C44.6275 42.642 44.4037 42.7831 44.1593 42.8754C43.915 42.9677 43.655 43.0095 43.3946 42.9982C43.1342 42.9869 42.8787 42.9228 42.6429 42.8097C42.4071 42.6966 42.1958 42.5367 42.0214 42.3393C41.847 42.142 41.713 41.9112 41.6272 41.6605C41.5414 41.4097 41.5056 41.1441 41.5218 40.879C41.538 40.614 41.6059 40.3549 41.7216 40.117C41.8373 39.879 41.9984 39.667 42.1955 39.4932L48.7296 33.5029C49.1158 33.1487 49.6243 32.9653 50.1432 32.993C50.6622 33.0208 51.1491 33.2573 51.4969 33.6507Z" fill="#2A5FAC"/>
<path fill-rule="evenodd" clip-rule="evenodd" d="M42.0138 27.6623C42.3639 27.2683 42.854 27.0314 43.3763 27.0036C43.8986 26.9759 44.4104 27.1595 44.7992 27.5143L51.376 33.5141C51.7529 33.8721 51.9763 34.3656 51.9982 34.8887C52.0202 35.4118 51.8389 35.9227 51.4933 36.3118C51.1478 36.7009 50.6655 36.9371 50.15 36.9697C49.6346 37.0022 49.1271 36.8286 48.7366 36.486L42.1598 30.4862C41.7712 30.1313 41.5375 29.6344 41.5101 29.1049C41.4827 28.5753 41.6639 28.0564 42.0138 27.6623ZM38.4098 22.0705C38.6598 22.1395 38.8939 22.2578 39.0989 22.4186C39.3038 22.5794 39.4754 22.7795 39.604 23.0076C39.7326 23.2357 39.8156 23.4872 39.8483 23.7478C39.881 24.0084 39.8628 24.273 39.7946 24.5264L33.8766 46.5257C33.8085 46.7791 33.6918 47.0165 33.5332 47.2242C33.3746 47.4319 33.1772 47.6059 32.9522 47.7363C32.7273 47.8666 32.4792 47.9508 32.2222 47.984C31.9652 48.0172 31.7042 47.9987 31.4542 47.9296C31.2042 47.8605 30.9701 47.7422 30.7652 47.5814C30.5604 47.4206 30.3887 47.2205 30.2601 46.9924C30.1315 46.7644 30.0485 46.5129 30.0158 46.2523C29.9831 45.9917 30.0013 45.7271 30.0694 45.4737L35.9874 23.4744C36.0555 23.221 36.1721 22.9836 36.3307 22.7758C36.4893 22.5681 36.6867 22.3941 36.9117 22.2637C37.1367 22.1333 37.3847 22.0491 37.6418 22.016C37.8988 21.9828 38.1598 22.0014 38.4098 22.0705Z" fill="#2A5FAC"/>
<path d="M17.5622 20.3941C17.1974 20.0163 16.9955 19.5104 17.0001 18.9853C17.0046 18.4602 17.2153 17.9579 17.5866 17.5866C17.9579 17.2153 18.4602 17.0046 18.9853 17.0001C19.5104 16.9955 20.0163 17.1974 20.3941 17.5622L52.4378 49.6059C52.8026 49.9837 53.0045 50.4896 52.9999 51.0147C52.9954 51.5398 52.7847 52.0421 52.4134 52.4134C52.0421 52.7847 51.5398 52.9954 51.0147 52.9999C50.4896 53.0045 49.9837 52.8026 49.6059 52.4378L17.5622 20.3941Z" fill="#15C3A9"/>
</svg>
