<svg width="70" height="71" viewBox="0 0 70 71" fill="none" xmlns="http://www.w3.org/2000/svg">
<path opacity="0.5" d="M21.3516 21.35L25.5516 25.55M42 22L39.2016 24.5M45 44L39.2016 37.1M24.5016 42.35L28.7016 38.15" stroke="#2A5FAC" stroke-width="3" stroke-linejoin="round"/>
<path d="M21.6577 21.6577C20.9263 22.3891 19.9343 22.8 18.9 22.8C17.8657 22.8 16.8737 22.3891 16.1423 21.6577C15.4109 20.9263 15 19.9343 15 18.9C15 17.8657 15.4109 16.8737 16.1423 16.1423C16.8737 15.4109 17.8657 15 18.9 15C19.9343 15 20.9263 15.4109 21.6577 16.1423C22.3891 16.8737 22.8 17.8657 22.8 18.9C22.8 19.9343 22.3891 20.9263 21.6577 21.6577Z" stroke="#2A5FAC" stroke-width="3"/>
<path d="M24.9866 50.3366C23.8895 51.4337 22.4015 52.05 20.85 52.05C19.2985 52.05 17.8105 51.4337 16.7134 50.3366C15.6163 49.2395 15 47.7515 15 46.2C15 44.6485 15.6163 43.1605 16.7134 42.0634C17.8105 40.9663 19.2985 40.35 20.85 40.35C22.4015 40.35 23.8895 40.9663 24.9866 42.0634C26.0837 43.1605 26.7 44.6485 26.7 46.2C26.7 47.7515 26.0837 49.2395 24.9866 50.3366Z" stroke="#2A5FAC" stroke-width="3"/>
<path d="M52.2866 52.2866C51.1895 53.3837 49.7015 54 48.15 54C46.5985 54 45.1105 53.3837 44.0134 52.2866C42.9163 51.1895 42.3 49.7015 42.3 48.15C42.3 46.5985 42.9163 45.1105 44.0134 44.0134C45.1105 42.9163 46.5985 42.3 48.15 42.3C49.7015 42.3 51.1895 42.9163 52.2866 44.0134C53.3837 45.1105 54 46.5985 54 48.15C54 49.7015 53.3837 51.1895 52.2866 52.2866Z" stroke="#2A5FAC" stroke-width="3"/>
<path d="M47.0077 21.6577C46.2763 22.3891 45.2843 22.8 44.25 22.8C43.2157 22.8 42.2237 22.3891 41.4923 21.6577C40.7609 20.9263 40.35 19.9343 40.35 18.9C40.35 17.8657 40.7609 16.8737 41.4923 16.1423C42.2237 15.4109 43.2157 15 44.25 15C45.2843 15 46.2763 15.4109 47.0077 16.1423C47.7391 16.8737 48.15 17.8657 48.15 18.9C48.15 19.9343 47.7391 20.9263 47.0077 21.6577Z" stroke="#2A5FAC" stroke-width="3"/>
<path d="M33.4 39.8C35.6278 39.8 37.7644 38.915 39.3397 37.3397C40.915 35.7644 41.8 33.6278 41.8 31.4C41.8 29.1722 40.915 27.0356 39.3397 25.4603C37.7644 23.885 35.6278 23 33.4 23C31.1722 23 29.0356 23.885 27.4603 25.4603C25.885 27.0356 25 29.1722 25 31.4C25 33.6278 25.885 35.7644 27.4603 37.3397C29.0356 38.915 31.1722 39.8 33.4 39.8Z" stroke="#15C3A9" stroke-width="3"/>
</svg>
