<svg width="77" height="77" viewBox="0 0 77 77" fill="none" xmlns="http://www.w3.org/2000/svg">
<path d="M32.5 30.5C32.6326 30.5 32.7598 30.5527 32.8536 30.6464C32.9473 30.7402 33 30.8674 33 31V33C33 33.1326 32.9473 33.2598 32.8536 33.3536C32.7598 33.4473 32.6326 33.5 32.5 33.5H30.5C30.3674 33.5 30.2402 33.4473 30.1464 33.3536C30.0527 33.2598 30 33.1326 30 33C30 32.8674 30.0527 32.7402 30.1464 32.6464C30.2402 32.5527 30.3674 32.5 30.5 32.5H32V31C32 30.8674 32.0527 30.7402 32.1464 30.6464C32.2402 30.5527 32.3674 30.5 32.5 30.5ZM43.5 30.5C43.6326 30.5 43.7598 30.5527 43.8536 30.6464C43.9473 30.7402 44 30.8674 44 31V32.5H45.5C45.6326 32.5 45.7598 32.5527 45.8536 32.6464C45.9473 32.7402 46 32.8674 46 33C46 33.1326 45.9473 33.2598 45.8536 33.3536C45.7598 33.4473 45.6326 33.5 45.5 33.5H43.5C43.3674 33.5 43.2402 33.4473 43.1464 33.3536C43.0527 33.2598 43 33.1326 43 33V31C43 30.8674 43.0527 30.7402 43.1464 30.6464C43.2402 30.5527 43.3674 30.5 43.5 30.5ZM32.5 46.5C32.6326 46.5 32.7598 46.4473 32.8536 46.3536C32.9473 46.2598 33 46.1326 33 46V44C33 43.8674 32.9473 43.7402 32.8536 43.6464C32.7598 43.5527 32.6326 43.5 32.5 43.5H30.5C30.3674 43.5 30.2402 43.5527 30.1464 43.6464C30.0527 43.7402 30 43.8674 30 44C30 44.1326 30.0527 44.2598 30.1464 44.3536C30.2402 44.4473 30.3674 44.5 30.5 44.5H32V46C32 46.1326 32.0527 46.2598 32.1464 46.3536C32.2402 46.4473 32.3674 46.5 32.5 46.5ZM43.5 46.5C43.6326 46.5 43.7598 46.4473 43.8536 46.3536C43.9473 46.2598 44 46.1326 44 46V44.5H45.5C45.6326 44.5 45.7598 44.4473 45.8536 44.3536C45.9473 44.2598 46 44.1326 46 44C46 43.8674 45.9473 43.7402 45.8536 43.6464C45.7598 43.5527 45.6326 43.5 45.5 43.5H43.5C43.3674 43.5 43.2402 43.5527 43.1464 43.6464C43.0527 43.7402 43 43.8674 43 44V46C43 46.1326 43.0527 46.2598 43.1464 46.3536C43.2402 46.4473 43.3674 46.5 43.5 46.5ZM34 34.5C34 34.2348 34.1054 33.9804 34.2929 33.7929C34.4804 33.6054 34.7348 33.5 35 33.5H41C41.2652 33.5 41.5196 33.6054 41.7071 33.7929C41.8946 33.9804 42 34.2348 42 34.5V42.5C42 42.7652 41.8946 43.0196 41.7071 43.2071C41.5196 43.3946 41.2652 43.5 41 43.5H35C34.7348 43.5 34.4804 43.3946 34.2929 43.2071C34.1054 43.0196 34 42.7652 34 42.5V34.5ZM36 37C36 37.1326 36.0527 37.2598 36.1464 37.3536C36.2402 37.4473 36.3674 37.5 36.5 37.5H39.5C39.6326 37.5 39.7598 37.4473 39.8536 37.3536C39.9473 37.2598 40 37.1326 40 37C40 36.8674 39.9473 36.7402 39.8536 36.6464C39.7598 36.5527 39.6326 36.5 39.5 36.5H36.5C36.3674 36.5 36.2402 36.5527 36.1464 36.6464C36.0527 36.7402 36 36.8674 36 37ZM36 39C36 39.1326 36.0527 39.2598 36.1464 39.3536C36.2402 39.4473 36.3674 39.5 36.5 39.5H38.5C38.6326 39.5 38.7598 39.4473 38.8536 39.3536C38.9473 39.2598 39 39.1326 39 39C39 38.8674 38.9473 38.7402 38.8536 38.6464C38.7598 38.5527 38.6326 38.5 38.5 38.5H36.5C36.3674 38.5 36.2402 38.5527 36.1464 38.6464C36.0527 38.7402 36 38.8674 36 39Z" fill="black"/>
</svg>
