<svg width="70" height="71" viewBox="0 0 70 71" fill="none" xmlns="http://www.w3.org/2000/svg">
<path d="M45.6837 16.6C45.0835 16.6 44.5079 16.3577 44.0834 15.9263C43.659 15.495 43.4206 14.91 43.4206 14.3C43.4206 13.69 43.659 13.105 44.0834 12.6737C44.5079 12.2423 45.0835 12 45.6837 12H54.7364C55.3366 12 55.9122 12.2423 56.3367 12.6737C56.7611 13.105 56.9995 13.69 56.9995 14.3V23.5C56.9995 24.11 56.7611 24.695 56.3367 25.1263C55.9122 25.5577 55.3366 25.8 54.7364 25.8C54.1361 25.8 53.5605 25.5577 53.1361 25.1263C52.7117 24.695 52.4732 24.11 52.4732 23.5V19.8522L39.3627 33.1761C38.9383 33.6073 38.3628 33.8495 37.7627 33.8495C37.1626 33.8495 36.587 33.6073 36.1626 33.1761L29.8416 26.7522L17.8627 38.9261C17.4359 39.3451 16.8642 39.5769 16.2708 39.5716C15.6774 39.5664 15.1098 39.3245 14.6902 38.8981C14.2706 38.4716 14.0326 37.8948 14.0274 37.2917C14.0223 36.6887 14.2504 36.1077 14.6626 35.6739L28.2416 21.8739C28.666 21.4427 29.2415 21.2005 29.8416 21.2005C30.4417 21.2005 31.0173 21.4427 31.4417 21.8739L37.7627 28.2978L49.2731 16.6H45.6837Z" fill="#15C3A9"/>
<path d="M18.5263 55.7V48.8C18.5263 48.19 18.2879 47.605 17.8635 47.1737C17.439 46.7423 16.8634 46.5 16.2632 46.5C15.6629 46.5 15.0873 46.7423 14.6629 47.1737C14.2384 47.605 14 48.19 14 48.8V55.7C14 56.31 14.2384 56.895 14.6629 57.3264C15.0873 57.7577 15.6629 58 16.2632 58C16.8634 58 17.439 57.7577 17.8635 57.3264C18.2879 56.895 18.5263 56.31 18.5263 55.7Z" fill="#2A5FAC"/>
<path d="M29.1792 37.9737C29.6037 38.405 29.8421 38.99 29.8421 39.6V55.7C29.8421 56.31 29.6037 56.895 29.1792 57.3264C28.7548 57.7577 28.1792 58 27.5789 58C26.9787 58 26.4031 57.7577 25.9787 57.3264C25.5542 56.895 25.3158 56.31 25.3158 55.7V39.6C25.3158 38.99 25.5542 38.405 25.9787 37.9737C26.4031 37.5423 26.9787 37.3 27.5789 37.3C28.1792 37.3 28.7548 37.5423 29.1792 37.9737Z" fill="#2A5FAC"/>
<path d="M40.495 42.5737C40.0706 42.1423 39.495 41.9 38.8947 41.9C38.2945 41.9 37.7189 42.1423 37.2944 42.5737C36.87 43.005 36.6316 43.59 36.6316 44.2V55.7C36.6316 56.31 36.87 56.895 37.2944 57.3264C37.7189 57.7577 38.2945 58 38.8947 58C39.495 58 40.0706 57.7577 40.495 57.3264C40.9195 56.895 41.1579 56.31 41.1579 55.7V44.2C41.1579 43.59 40.9195 43.005 40.495 42.5737Z" fill="#2A5FAC"/>
<path d="M51.8108 31.0737C52.2352 31.505 52.4737 32.09 52.4737 32.7V55.7C52.4737 56.31 52.2352 56.895 51.8108 57.3264C51.3864 57.7577 50.8108 58 50.2105 58C49.6103 58 49.0347 57.7577 48.6102 57.3264C48.1858 56.895 47.9474 56.31 47.9474 55.7V32.7C47.9474 32.09 48.1858 31.505 48.6102 31.0737C49.0347 30.6423 49.6103 30.4 50.2105 30.4C50.8108 30.4 51.3864 30.6423 51.8108 31.0737Z" fill="#2A5FAC"/>
</svg>
