<svg width="72" height="72" viewBox="0 0 72 72" fill="none" xmlns="http://www.w3.org/2000/svg">
<path d="M62.76 41.6892C62.6194 41.3229 62.2077 41.1415 61.8413 41.2812L58.8514 42.4355C61.9935 38.3473 63.1757 33.2045 62.0921 28.143C61.11 23.556 58.3817 19.6315 54.4104 17.091C54.0801 16.8791 53.6402 16.9753 53.4288 17.3065C53.2174 17.6377 53.3141 18.0763 53.6444 18.2881C61.6519 23.4093 63.5365 34.2965 57.5303 41.8167L57.8081 38.2754C57.8391 37.884 57.5467 37.5426 57.1554 37.5112C56.7691 37.4973 56.4222 37.773 56.3917 38.1644L55.9342 43.9938C55.8925 44.5156 56.4097 44.8983 56.8982 44.7127L62.353 42.6079C62.7189 42.4664 62.9011 42.0547 62.76 41.6892ZM11.0387 34.2944C11.2057 38.9822 13.2078 43.3221 16.6753 46.5167C16.9641 46.7821 17.4138 46.7645 17.6795 46.4751C17.9455 46.1865 17.927 45.7368 17.6384 45.4713C14.4516 42.5367 12.6124 38.5492 12.4588 34.2444C12.2859 29.3893 14.2679 24.835 17.9151 21.6257L17.0236 25.064C16.9251 25.4443 17.1531 25.8319 17.5334 25.93C17.9055 26.0281 18.2991 25.8066 18.3993 25.4211L19.8666 19.761C19.9961 19.2589 19.5623 18.7869 19.0423 18.8849L13.3035 20.0061C12.9187 20.082 12.6675 20.4549 12.7429 20.8397C12.8173 21.2255 13.1888 21.4707 13.5764 21.4013L16.7204 20.787C12.9148 24.2659 10.8545 29.1227 11.0387 34.2944Z" fill="#2A5FAC"/>
<path d="M13.838 62.5508L11.2864 53.6442C10.9437 52.4443 11.5959 51.1796 12.7718 50.7642L14.8724 50.0241C16.1475 49.5725 17.5313 50.2809 17.9203 51.5682L20.6297 60.5228C21.0053 61.7644 20.3022 63.0846 19.0615 63.4658L16.8037 64.1587C15.5214 64.5517 14.1981 63.8058 13.838 62.5508Z" fill="#2A5FAC"/>
<path d="M57.4466 49.3332C58.5065 49.2752 59.572 49.7478 60.2027 50.6883C61.1167 52.052 60.81 53.8968 59.5042 54.8895L44.059 66.0155C42.7282 67.0281 40.9687 67.3068 39.3684 66.7344L21.8218 60.6921C21.4508 60.5645 21.2532 60.1602 21.3814 59.7892C21.5086 59.4182 21.9124 59.2193 22.2843 59.3488L39.8384 65.3938C40.9884 65.8037 42.248 65.6085 43.2134 64.8739L58.6586 53.7479C59.352 53.2205 59.5185 52.2195 59.0226 51.4803C58.5096 50.7142 57.4665 50.5052 56.6972 51.0122L47.0107 57.3976C46.6842 57.6141 46.2433 57.5244 46.0268 57.196C45.8108 56.8684 45.901 56.4271 46.229 56.2116C49.6478 53.9633 55.5958 50.0237 56.0556 49.7527C56.0557 49.7481 56.057 49.7438 56.057 49.7391C56.057 48.3302 54.4449 47.5218 53.3148 48.3283C43.6754 54.3184 44.0926 54.2206 43.7037 54.2206C42.9927 54.2206 42.723 53.2868 43.3258 52.9078L52.5247 47.1477C54.4147 45.7981 57.1469 46.9842 57.4466 49.3332Z" fill="#2A5FAC"/>
<path d="M15.6609 51.3091C15.38 51.3091 15.3747 51.3712 13.2457 52.1038C12.7771 52.2694 12.5167 52.7745 12.6536 53.2529L15.2052 62.1585C15.3506 62.6689 15.8854 62.9533 16.3876 62.8005L18.645 62.1076C19.1395 61.9559 19.4203 61.4295 19.2704 60.9336L16.561 51.9789C16.4337 51.5602 16.0507 51.3091 15.6609 51.3091Z" fill="white"/>
<path d="M38.1632 17.0011C38.5555 17.0011 38.8738 16.6829 38.8738 16.2906C38.8738 15.8983 38.5555 15.5801 38.1632 15.5801H34.7115C34.3192 15.5801 34.0009 15.8983 34.0009 16.2906C34.0009 16.6829 34.3192 17.0011 34.7115 17.0011H35.8679V18.5251C27.7104 18.8309 21.3086 25.5297 21.3086 33.6245C21.3086 41.928 28.0596 48.7537 36.4373 48.7537C44.7247 48.7537 51.5661 42.0185 51.5661 33.6245C51.5661 25.611 45.3057 18.9889 37.289 18.5393V17.0011H38.1632ZM44.3766 25.6856C44.6542 25.9632 45.1038 25.9632 45.3814 25.6856L46.6044 24.463C48.6478 26.7284 49.9416 29.6709 50.1091 32.914H48.3757C47.9834 32.914 47.6651 33.2322 47.6651 33.6245C47.6651 34.0168 47.9834 34.335 48.3757 34.335H50.1091C49.9416 37.5782 48.6478 40.5211 46.6042 42.7866L45.3814 41.5643C45.1038 41.2867 44.6542 41.2867 44.3766 41.5643C44.0991 41.8418 44.0991 42.2914 44.3766 42.569L45.5994 43.7915C43.3339 45.8353 40.3912 47.1292 37.1479 47.2967V45.5637C37.1479 45.1715 36.8296 44.8532 36.4373 44.8532C36.0451 44.8532 35.7268 45.1715 35.7268 45.5637V47.2967C32.4835 47.1292 29.5408 45.8353 27.2753 43.7915L28.498 42.569C28.7756 42.2914 28.7756 41.8418 28.498 41.5643C28.2205 41.2867 27.7709 41.2867 27.4933 41.5643L26.2705 42.7866C24.2269 40.5211 22.9331 37.5782 22.7656 34.335H24.499C24.8913 34.335 25.2096 34.0168 25.2096 33.6245C25.2096 33.2322 24.8913 32.914 24.499 32.914H22.7656C22.9331 29.6709 24.2269 26.7284 26.2703 24.463L27.4933 25.6856C27.7709 25.9632 28.2205 25.9632 28.498 25.6856C28.7756 25.4081 28.7756 24.9585 28.498 24.6809L27.275 23.4583C29.5406 21.4146 32.4835 20.1207 35.7268 19.9532V21.6862C35.7268 22.0784 36.0451 22.3967 36.4373 22.3967C36.8296 22.3967 37.1479 22.0784 37.1479 21.6862V19.9532C40.3912 20.1207 43.3341 21.4146 45.5997 23.4583L44.3766 24.6809C44.0991 24.9585 44.0991 25.4081 44.3766 25.6856Z" fill="#15C3A9"/>
<path d="M37.818 60.2099C38.5082 60.5578 39.2205 60.6975 39.8774 60.605C40.8754 60.467 41.2485 59.9783 40.8882 58.6668C40.6421 57.7647 40.0472 56.9876 39.2136 56.4797L31.7323 51.9131C24.4836 47.2882 18.4589 51.8224 18.3988 51.8687C18.0879 52.1092 17.6429 52.0518 17.4019 51.7401C17.1623 51.4301 17.2197 50.9833 17.5301 50.7437C17.5981 50.69 24.4138 45.5618 32.4844 50.7067L39.9537 55.2659C41.0982 55.9644 41.9165 57.0385 42.2593 58.2921C42.7996 60.2654 42.0837 61.7355 40.0712 62.0131C39.0707 62.1499 38.0676 61.928 37.1769 61.4774L27.8544 56.7656C27.5043 56.5888 27.3636 56.1614 27.5408 55.8117C27.7184 55.4611 28.1468 55.3186 28.4956 55.4981L37.818 60.2099Z" fill="#2A5FAC"/>
<path d="M37.799 32.0675V27.1826C37.799 26.7903 37.4807 26.4721 37.0885 26.4721C36.6962 26.4721 36.3779 26.7903 36.3779 27.1826V32.1183C35.2031 32.5859 34.6278 33.9913 35.3082 35.1792L31.7988 38.3651C31.5079 38.6287 31.4866 39.0784 31.7503 39.3689C32.0143 39.6599 32.4629 39.6809 32.7536 39.4179L36.3878 36.1189C37.8226 36.6824 39.3241 35.6085 39.3241 34.1167C39.3241 33.149 38.6786 32.3384 37.799 32.0675ZM37.1703 34.8504C36.7665 34.8504 36.4376 34.521 36.4376 34.1167C36.4376 33.7124 36.7665 33.384 37.1703 33.384C37.5742 33.384 37.9031 33.7124 37.9031 34.1167C37.9031 34.521 37.5742 34.8504 37.1703 34.8504ZM27.0065 13.5762C27.0065 13.1839 26.6882 12.8657 26.2959 12.8657H17.9667C17.5744 12.8657 17.2562 13.1839 17.2562 13.5762C17.2562 13.9685 17.5744 14.2867 17.9667 14.2867H26.2959C26.6882 14.2867 27.0065 13.9685 27.0065 13.5762ZM37.447 8.64415H25.4869C25.0946 8.64415 24.7764 8.9624 24.7764 9.35467C24.7764 9.74694 25.0946 10.0652 25.4869 10.0652H37.447C37.8392 10.0652 38.1575 9.74694 38.1575 9.35467C38.1575 8.9624 37.8392 8.64415 37.447 8.64415ZM27.315 4.97217H16.6363C16.244 4.97217 15.9258 5.29042 15.9258 5.68269C15.9258 6.07496 16.244 6.39322 16.6363 6.39322H27.315C27.7073 6.39322 28.0255 6.07496 28.0255 5.68269C28.0255 5.29042 27.7073 4.97217 27.315 4.97217Z" fill="#15C3A9"/>
</svg>
