<svg width="72" height="72" viewBox="0 0 72 72" fill="none" xmlns="http://www.w3.org/2000/svg">
<path d="M70.8081 58.3876C70.8774 58.1329 70.894 57.8667 70.8569 57.6054C70.8198 57.344 70.7297 57.093 70.5921 56.8677L69.1431 54.4703C68.8649 54.0221 68.4256 53.6975 67.9155 53.5632C67.4054 53.4289 66.8632 53.495 66.4004 53.7481L65.9785 53.9821C65.4339 53.5919 64.8471 53.2643 64.2291 53.0056V52.6152C64.2235 52.0825 64.0067 51.5738 63.6265 51.2007C63.2462 50.8276 62.7335 50.6206 62.2007 50.6251H59.3005C58.7684 50.6215 58.2565 50.8289 57.8769 51.2019C57.4974 51.5749 57.2811 52.0831 57.2755 52.6152V53.0056C56.6576 53.2645 56.0708 53.5921 55.5261 53.9821L55.1054 53.7492C54.643 53.4956 54.101 53.4287 53.5908 53.5625C53.0807 53.6962 52.6412 54.0202 52.3626 54.4681L50.9091 56.8688C50.7716 57.0939 50.6814 57.3447 50.6443 57.6059C50.6071 57.8671 50.6238 58.1331 50.6931 58.3876C50.7635 58.6467 50.8853 58.8891 51.0513 59.1001C51.2174 59.3112 51.4242 59.4867 51.6595 59.6161L52.0307 59.8208C51.9572 60.4381 51.9572 61.062 52.0307 61.6793L51.6595 61.8841C51.4242 62.0135 51.2174 62.189 51.0513 62.4C50.8853 62.6111 50.7635 62.8534 50.6931 63.1126C50.6238 63.3673 50.6072 63.6334 50.6443 63.8948C50.6815 64.1561 50.7716 64.4071 50.9091 64.6324L52.3581 67.0298C52.6363 67.478 53.0756 67.8026 53.5857 67.9369C54.0958 68.0713 54.638 68.0051 55.1009 67.7521L55.5227 67.5181C56.0673 67.9083 56.6542 68.2358 57.2721 68.4946V68.8849C57.2778 69.4177 57.4945 69.9264 57.8748 70.2995C58.255 70.6726 58.7678 70.8796 59.3005 70.8751H62.2007C62.7329 70.8787 63.2448 70.6713 63.6243 70.2983C64.0038 69.9253 64.2201 69.4171 64.2257 68.8849V68.4946C64.8436 68.2356 65.4304 67.908 65.9751 67.5181L66.3959 67.7509C66.8581 68.0051 67.4003 68.0723 67.9106 67.9385C68.4209 67.8048 68.8605 67.4803 69.1386 67.0321L70.5887 64.6313C70.7263 64.4062 70.8164 64.1554 70.8536 63.8943C70.8907 63.6331 70.8741 63.3671 70.8047 63.1126C70.7344 62.8534 70.6126 62.6111 70.4465 62.4C70.2805 62.189 70.0737 62.0135 69.8384 61.8841L69.4671 61.6793C69.5406 61.062 69.5406 60.4381 69.4671 59.8208L69.8384 59.6161C70.0743 59.487 70.2818 59.3117 70.4484 59.1006C70.615 58.8895 70.7374 58.647 70.8081 58.3876ZM67.2756 60.7501C67.2752 61.0275 67.2552 61.3046 67.216 61.5792C67.1651 61.9738 67.2345 62.3746 67.4151 62.7291C67.5958 63.0836 67.8793 63.3753 68.2285 63.5659L68.5109 63.7212L67.3217 65.6911L66.955 65.4886C66.6051 65.301 66.2092 65.2166 65.8133 65.2453C65.4173 65.274 65.0377 65.4145 64.7185 65.6506C64.2726 65.9775 63.7873 66.247 63.274 66.4527C62.8967 66.5958 62.5712 66.8492 62.3398 67.1799C62.1085 67.5105 61.982 67.9032 61.9769 68.3067V68.6251H59.5221V68.3067C59.517 67.9035 59.3906 67.5111 59.1595 67.1807C58.9284 66.8502 58.6031 66.5969 58.2261 66.4538C57.7123 66.2476 57.2266 65.9774 56.7805 65.6494C56.4605 65.4143 56.0805 65.2744 55.6843 65.2459C55.2882 65.2174 54.8921 65.3016 54.5417 65.4886L54.1772 65.6911L52.9881 63.7212L53.2716 63.5648C53.6207 63.3743 53.9042 63.0828 54.0849 62.7285C54.2655 62.3742 54.335 61.9736 54.2841 61.5792C54.2046 61.0293 54.2046 60.4708 54.2841 59.9209C54.3351 59.5263 54.2656 59.1256 54.085 58.7711C53.9043 58.4166 53.6208 58.1249 53.2716 57.9342L52.9892 57.7789L54.1784 55.8091L54.5451 56.0116C54.8948 56.1997 55.2909 56.2843 55.6869 56.2556C56.083 56.227 56.4627 56.0861 56.7816 55.8496C57.2275 55.5226 57.7128 55.2531 58.2261 55.0474C58.6034 54.9043 58.9289 54.6509 59.1603 54.3203C59.3916 53.9896 59.5181 53.597 59.5232 53.1934V52.8751H61.9802V53.1934C61.9854 53.5967 62.1117 53.989 62.3429 54.3195C62.574 54.6499 62.8992 54.9032 63.2762 55.0463C63.7901 55.2525 64.2758 55.5228 64.7219 55.8507C65.0416 56.0866 65.4216 56.227 65.8179 56.2555C66.2142 56.2839 66.6105 56.1994 66.9606 56.0116L67.3251 55.8091L68.5131 57.7789L68.2296 57.9353C67.8805 58.1258 67.5971 58.4173 67.4164 58.7716C67.2357 59.1259 67.1663 59.5265 67.2171 59.9209C67.256 60.1956 67.2755 60.4727 67.2756 60.7501Z" fill="#15C3A9"/>
<path d="M69.75 1.125H27C26.7016 1.125 26.4155 1.24353 26.2045 1.4545C25.9935 1.66548 25.875 1.95163 25.875 2.25V18H14.625C14.3266 18 14.0405 18.1185 13.8295 18.3295C13.6185 18.5405 13.5 18.8266 13.5 19.125V31.5H2.25C1.95163 31.5 1.66548 31.6185 1.4545 31.8295C1.24353 32.0405 1.125 32.3266 1.125 32.625V55.125C1.125 55.4234 1.24353 55.7095 1.4545 55.9205C1.66548 56.1315 1.95163 56.25 2.25 56.25H33.75C34.0484 56.25 34.3345 56.1315 34.5455 55.9205C34.7565 55.7095 34.875 55.4234 34.875 55.125V45H50.625C50.9234 45 51.2095 44.8815 51.4205 44.6705C51.6315 44.4595 51.75 44.1734 51.75 43.875V32.625H69.75C70.0484 32.625 70.3345 32.5065 70.5455 32.2955C70.7565 32.0845 70.875 31.7984 70.875 31.5V2.25C70.875 1.95163 70.7565 1.66548 70.5455 1.4545C70.3345 1.24353 70.0484 1.125 69.75 1.125ZM32.625 54H3.375V33.75H32.625V54ZM49.5 42.75H34.875V32.625C34.875 32.3266 34.7565 32.0405 34.5455 31.8295C34.3345 31.6185 34.0484 31.5 33.75 31.5H15.75V20.25H49.5V42.75ZM68.625 30.375H51.75V19.125C51.75 18.8266 51.6315 18.5405 51.4205 18.3295C51.2095 18.1185 50.9234 18 50.625 18H28.125V3.375H68.625V30.375ZM20.25 59.625H18V66.375C18 66.6734 18.1185 66.9595 18.3295 67.1705C18.5405 67.3815 18.8266 67.5 19.125 67.5H47.25V65.25H20.25V59.625Z" fill="#2A5FAC"/>
<path d="M58.2499 57.0084C58.99 56.5139 59.86 56.25 60.75 56.25C61.9435 56.25 63.0881 56.7241 63.932 57.568C64.7759 58.4119 65.25 59.5565 65.25 60.75C65.25 61.64 64.9861 62.51 64.4916 63.2501C63.9971 63.9901 63.2943 64.5669 62.4721 64.9075C61.6498 65.2481 60.745 65.3372 59.8721 65.1635C58.9992 64.9899 58.1974 64.5613 57.568 63.932C56.9387 63.3026 56.5101 62.5008 56.3365 61.6279C56.1628 60.755 56.252 59.8502 56.5925 59.0279C56.9331 58.2057 57.5099 57.5029 58.2499 57.0084Z" fill="#15C3A9"/>
<path d="M42.75 48.375H40.5V57.375C40.5 57.6734 40.6185 57.9595 40.8295 58.1705C41.0405 58.3815 41.3266 58.5 41.625 58.5H47.25V56.25H42.75V48.375ZM60.75 36H63V47.25H60.75V36ZM64.125 5.625H66.375V7.875H64.125V5.625ZM59.625 5.625H61.875V7.875H59.625V5.625ZM45 22.5H47.25V24.75H45V22.5ZM40.5 22.5H42.75V24.75H40.5V22.5ZM28.125 36H30.375V38.25H28.125V36ZM23.625 36H25.875V38.25H23.625V36Z" fill="#15C3A9"/>
<path d="M59.5 62.6208C59.87 62.868 60.305 63 60.75 63C61.3467 63 61.919 62.763 62.341 62.341C62.763 61.919 63 61.3467 63 60.75C63 60.305 62.868 59.87 62.6208 59.5C62.3736 59.13 62.0222 58.8416 61.611 58.6713C61.1999 58.501 60.7475 58.4564 60.311 58.5432C59.8746 58.6301 59.4737 58.8443 59.159 59.159C58.8443 59.4737 58.6301 59.8746 58.5432 60.311C58.4564 60.7475 58.501 61.1999 58.6713 61.611C58.8416 62.0222 59.13 62.3736 59.5 62.6208Z" fill="white"/>
</svg>
