<svg width="70" height="71" viewBox="0 0 70 71" fill="none" xmlns="http://www.w3.org/2000/svg">
<path d="M19.3 11.75C19.3 11.3389 19.1367 10.9446 18.846 10.6539C18.5553 10.3633 18.1611 10.2 17.75 10.2C17.3389 10.2 16.9447 10.3633 16.654 10.6539C16.3633 10.9446 16.2 11.3389 16.2 11.75V16.4H11.55C11.1389 16.4 10.7447 16.5633 10.454 16.8539C10.1633 17.1446 10 17.5389 10 17.95C10 18.361 10.1633 18.7553 10.454 19.046C10.7447 19.3366 11.1389 19.5 11.55 19.5H17.75C18.1611 19.5 18.5553 19.3366 18.846 19.046C19.1367 18.7553 19.3 18.361 19.3 17.95V11.75ZM53.4 11.75C53.4 11.3389 53.2367 10.9446 52.946 10.6539C52.6553 10.3633 52.2611 10.2 51.85 10.2C51.4389 10.2 51.0447 10.3633 50.754 10.6539C50.4633 10.9446 50.3 11.3389 50.3 11.75V17.95C50.3 18.361 50.4633 18.7553 50.754 19.046C51.0447 19.3366 51.4389 19.5 51.85 19.5H58.05C58.4611 19.5 58.8553 19.3366 59.146 19.046C59.4367 18.7553 59.6 18.361 59.6 17.95C59.6 17.5389 59.4367 17.1446 59.146 16.8539C58.8553 16.5633 58.4611 16.4 58.05 16.4H53.4V11.75ZM17.75 59.7999C18.1611 59.7999 18.5553 59.6366 18.846 59.346C19.1367 59.0553 19.3 58.661 19.3 58.25V52.0499C19.3 51.6389 19.1367 51.2446 18.846 50.9539C18.5553 50.6633 18.1611 50.5 17.75 50.5H11.55C11.1389 50.5 10.7447 50.6633 10.454 50.9539C10.1633 51.2446 10 51.6389 10 52.0499C10 52.461 10.1633 52.8553 10.454 53.146C10.7447 53.4366 11.1389 53.5999 11.55 53.5999H16.2V58.25C16.2 58.661 16.3633 59.0553 16.654 59.346C16.9447 59.6366 17.3389 59.7999 17.75 59.7999ZM51.85 59.7999C52.2611 59.7999 52.6553 59.6366 52.946 59.346C53.2367 59.0553 53.4 58.661 53.4 58.25V53.5999H58.05C58.4611 53.5999 58.8553 53.4366 59.146 53.146C59.4367 52.8553 59.6 52.461 59.6 52.0499C59.6 51.6389 59.4367 51.2446 59.146 50.9539C58.8553 50.6633 58.4611 50.5 58.05 50.5H51.85C51.4389 50.5 51.0447 50.6633 50.754 50.9539C50.4633 51.2446 50.3 51.6389 50.3 52.0499V58.25C50.3 58.661 50.4633 59.0553 50.754 59.346C51.0447 59.6366 51.4389 59.7999 51.85 59.7999Z" fill="#15C3A9"/>
<path d="M23.3064 20.408C23.8878 19.8266 24.6763 19.5 25.4984 19.5H44.0984C44.9206 19.5 45.7091 19.8266 46.2905 20.408C46.8718 20.9893 47.1984 21.7778 47.1984 22.6V47.4C47.1984 48.2222 46.8718 49.0107 46.2905 49.592C45.7091 50.1734 44.9206 50.5 44.0984 50.5H25.4984C24.6763 50.5 23.8878 50.1734 23.3064 49.592C22.725 49.0107 22.3984 48.2222 22.3984 47.4V22.6C22.3984 21.7778 22.725 20.9893 23.3064 20.408Z" fill="#2A5FAC"/>
<path d="M44.1 22.6H25.5V47.4H44.1V22.6Z" fill="white"/>
<path d="M29.0555 29.2539C29.3462 28.9632 29.7405 28.7999 30.1516 28.7999H39.4516C39.8626 28.7999 40.2569 28.9632 40.5476 29.2539C40.8383 29.5446 41.0016 29.9388 41.0016 30.3499C41.0016 30.761 40.8383 31.1553 40.5476 31.4459C40.2569 31.7366 39.8626 31.8999 39.4516 31.8999H30.1516C29.7405 31.8999 29.3462 31.7366 29.0555 31.4459C28.7649 31.1553 28.6016 30.761 28.6016 30.3499C28.6016 29.9388 28.7649 29.5446 29.0555 29.2539Z" fill="#15C3A9"/>
<path d="M29.0555 35.4539C29.3462 35.1632 29.7405 34.9999 30.1516 34.9999H36.3516C36.7626 34.9999 37.1569 35.1632 37.4476 35.4539C37.7383 35.7446 37.9016 36.1388 37.9016 36.5499C37.9016 36.961 37.7383 37.3553 37.4476 37.6459C37.1569 37.9366 36.7626 38.0999 36.3516 38.0999H30.1516C29.7405 38.0999 29.3462 37.9366 29.0555 37.6459C28.7649 37.3553 28.6016 36.961 28.6016 36.5499C28.6016 36.1388 28.7649 35.7446 29.0555 35.4539Z" fill="#15C3A9"/>
</svg>
