<svg width="72" height="72" viewBox="0 0 72 72" fill="none" xmlns="http://www.w3.org/2000/svg">
<path d="M58.8018 37.1571C66.4018 36.8361 72.3052 30.4283 71.9843 22.8283C71.6633 15.2283 65.2555 9.32483 57.6555 9.64579C50.0555 9.32483 43.6477 15.2283 43.3267 22.8283C43.0057 30.4283 48.9092 36.8361 56.5092 37.1571H58.8018ZM15.334 37.1571C22.8996 36.5266 28.5279 29.878 27.8974 22.301C27.267 14.7354 20.607 9.10703 13.0414 9.7375C5.47577 10.3794 -0.152581 17.028 0.477886 24.5936C1.03957 31.288 6.34696 36.5954 13.0414 37.1571H15.334ZM4.92554 30.2792C1.13128 25.2126 2.15149 18.0253 7.21815 14.231C12.2848 10.4367 19.4721 11.457 23.2664 16.5236C26.327 20.6044 26.327 26.1984 23.2664 30.2792C19.4721 25.2126 12.2848 24.1924 7.21815 27.9866C6.34696 28.64 5.57893 29.4081 4.92554 30.2792ZM14.096 34.8645C13.7521 34.8645 13.4196 34.853 13.0872 34.8186C10.531 34.6008 8.20397 33.5691 6.39281 31.9758C8.08934 29.5341 10.9092 27.9408 14.096 27.9408C17.2827 27.9408 20.1026 29.5341 21.7877 31.9758C19.9765 33.5691 17.661 34.6008 15.1047 34.8186C14.7723 34.853 14.4399 34.8645 14.096 34.8645ZM59.7188 34.681C59.054 34.8071 58.3547 34.8645 57.6555 34.8645C56.9562 34.8645 56.257 34.8071 55.5921 34.681C53.4485 34.3028 51.5113 33.3513 49.9638 31.9758C51.6488 29.5341 54.4802 27.9408 57.6555 27.9408C60.8307 27.9408 63.6621 29.5341 65.3472 31.9758C63.7882 33.3513 61.8624 34.3028 59.7188 34.681ZM66.8259 30.2792C63.0316 25.2126 55.8443 24.1924 50.7777 27.9866C49.9065 28.64 49.1384 29.4081 48.485 30.2792C44.6908 25.2126 45.711 18.0253 50.7777 14.231C55.8443 10.4367 63.0316 11.457 66.8259 16.5236C69.8865 20.6044 69.8865 26.1984 66.8259 30.2792Z" fill="#15C3A9"/>
<path d="M14.1008 15.3774C11.5675 15.3774 9.51562 17.4293 9.51562 19.9627C9.51562 22.496 11.5675 24.5479 14.1008 24.5479C16.6342 24.5479 18.686 22.496 18.686 19.9627C18.686 17.4293 16.6342 15.3774 14.1008 15.3774ZM14.1008 22.2553C12.8399 22.2553 11.8082 21.2236 11.8082 19.9627C11.8082 18.7017 12.8399 17.67 14.1008 17.67C15.3618 17.67 16.3934 18.7017 16.3934 19.9627C16.3934 21.2236 15.3618 22.2553 14.1008 22.2553ZM57.6603 15.3774C55.127 15.3774 53.0751 17.4293 53.0751 19.9627C53.0751 22.496 55.127 24.5479 57.6603 24.5479C60.1937 24.5479 62.2456 22.496 62.2456 19.9627C62.2456 17.4293 60.1937 15.3774 57.6603 15.3774ZM57.6603 22.2553C56.3994 22.2553 55.3677 21.2236 55.3677 19.9627C55.3677 18.7017 56.3994 17.67 57.6603 17.67C58.9213 17.67 59.9529 18.7017 59.9529 19.9627C59.9529 21.2236 58.9213 22.2553 57.6603 22.2553Z" fill="#15C3A9"/>
<path d="M48.4827 51.3255C54.5008 48.1503 58.318 42.8887 58.7995 37.1572H56.5069C56.0598 42.2239 52.4833 46.8893 46.9123 49.629C40.7567 43.7714 31.0819 43.7714 24.9262 49.629C19.3552 46.8893 15.7558 42.2239 15.3317 37.1572H13.0391C13.4747 42.8887 17.2918 48.2076 23.3558 51.3828C21.3612 53.8703 20.1461 56.8966 19.8825 60.0833H14.0937V62.3759H57.6532V60.0833H51.9217C51.6809 56.8851 50.4773 53.8359 48.4827 51.3255ZM22.1751 60.0833C22.668 52.5062 29.2134 46.7518 36.7905 47.2447C43.6912 47.6918 49.182 53.1825 49.629 60.0833H22.1751Z" fill="#2A5FAC"/>
<path d="M41.6115 50.9128H30.1484V53.2054H41.6115V50.9128Z" fill="#2A5FAC"/>
<path d="M41.6115 55.498H30.1484V57.7907H41.6115V55.498Z" fill="#2A5FAC"/>
</svg>
