<?xml version="1.0" encoding="utf-8"?>
<!-- Generator: Adobe Illustrator 19.2.1, SVG Export Plug-In . SVG Version: 6.00 Build 0)  -->
<svg version="1.1" id="layer" xmlns="http://www.w3.org/2000/svg" xmlns:xlink="http://www.w3.org/1999/xlink" x="0px" y="0px"
	 viewBox="0 0 652 652" style="enable-background:new 0 0 652 652;" xml:space="preserve">
<style type="text/css">
	.st0{fill:#3552A2;}
	.st1{fill:#628DB7;}
	.st2{fill:#EF8200;}
</style>
<path class="st0" d="M88.1,310.5c0,6.3-0.7,11.7-2.1,16.4c-1.4,4.7-3.6,8.5-6.8,11.6c-3,2.9-6.5,5.1-10.5,6.4c-4,1.3-8.6,2-14,2
	c-5.4,0-10.2-0.7-14.2-2.1c-4-1.4-7.4-3.5-10.2-6.3c-3.1-3.2-5.4-7-6.8-11.5c-1.4-4.5-2.1-10-2.1-16.5v-51.7h11.5V311
	c0,4.7,0.3,8.4,1,11.1c0.6,2.7,1.7,5.2,3.2,7.4c1.7,2.5,4,4.4,7,5.7c2.9,1.3,6.5,1.9,10.6,1.9c4.2,0,7.7-0.6,10.6-1.9
	c2.9-1.3,5.2-3.2,7-5.7c1.5-2.2,2.6-4.7,3.2-7.6c0.6-2.8,1-6.4,1-10.6v-52.5h11.5V310.5z"/>
<path class="st0" d="M151.2,345.1h-10.9v-36.9c0-3-0.2-5.8-0.5-8.4c-0.4-2.6-1-4.6-1.9-6.1c-1-1.6-2.4-2.8-4.2-3.6
	c-1.8-0.8-4.2-1.2-7.1-1.2c-3,0-6.1,0.7-9.4,2.2c-3.3,1.5-6.4,3.3-9.4,5.6v48.4h-11v-64.8h11v7.2c3.4-2.8,6.9-5,10.6-6.6
	c3.6-1.6,7.4-2.4,11.2-2.4c7,0,12.4,2.1,16.1,6.3c3.7,4.2,5.5,10.3,5.5,18.2V345.1z"/>
<path class="st0" d="M161.2,345.4h10.9v-64.8h-10.9V345.4z M160.5,269.8h12.3v-11.3h-12.3V269.8z"/>
<path class="st0" d="M220.7,344.6c-2.1,0.5-4.3,1-6.7,1.3c-2.4,0.3-4.6,0.5-6.5,0.5c-6.6,0-11.7-1.8-15.1-5.3
	c-3.5-3.6-5.2-9.3-5.2-17.1v-34.4h-7.4v-9.2h7.4v-21.8h10.9v21.8h22.6v9.2h-22.6v29.5c0,3.4,0.1,6.1,0.2,8c0.2,1.9,0.7,3.7,1.6,5.4
	c0.8,1.5,2,2.7,3.5,3.4c1.5,0.7,3.8,1.1,6.8,1.1c1.8,0,3.6-0.3,5.6-0.8c1.9-0.5,3.3-0.9,4.2-1.3h0.6V344.6z"/>
<path class="st0" d="M268.9,305.5c0-5.7-1.5-10.1-4.3-13.3c-2.8-3.1-7.2-4.7-13-4.7c-5.9,0-10.5,1.7-14,5.2
	c-3.5,3.4-5.4,7.7-5.9,12.8H268.9z M279.5,313.8h-47.8c0,4,0.6,7.4,1.8,10.4c1.2,3,2.8,5.4,4.9,7.3c2,1.9,4.4,3.2,7.2,4.2
	c2.8,0.9,5.8,1.4,9.1,1.4c4.4,0,8.9-0.9,13.3-2.6c4.5-1.8,7.7-3.5,9.6-5.2h0.6v11.9c-3.7,1.5-7.4,2.8-11.3,3.9
	c-3.8,1-7.9,1.6-12.1,1.6c-10.8,0-19.2-2.9-25.2-8.7c-6-5.8-9.1-14.1-9.1-24.8c0-10.6,2.9-19,8.7-25.2c5.8-6.2,13.4-9.3,22.9-9.3
	c8.8,0,15.5,2.6,20.2,7.7c4.7,5.1,7.1,12.3,7.1,21.7V313.8z"/>
<path class="st0" d="M329.5,329.2V292c-2.9-1.3-5.6-2.2-7.9-2.7c-2.3-0.5-4.9-0.8-7.6-0.8c-6.1,0-10.9,2.1-14.3,6.4
	c-3.4,4.3-5.1,10.3-5.1,18.1c0,7.7,1.3,13.5,3.9,17.5c2.6,4,6.9,6,12.7,6c3.1,0,6.2-0.7,9.4-2.1
	C323.8,333.1,326.7,331.4,329.5,329.2 M340.4,345.1h-10.9v-6.8c-3.1,2.7-6.4,4.8-9.8,6.3c-3.4,1.5-7.1,2.3-11.1,2.3
	c-7.8,0-13.9-3-18.5-8.9c-4.6-6-6.8-14.2-6.8-24.8c0-5.5,0.8-10.4,2.4-14.7c1.6-4.3,3.7-7.9,6.4-11c2.6-2.9,5.7-5.2,9.2-6.7
	c3.5-1.5,7.1-2.3,10.9-2.3c3.4,0,6.4,0.4,9.1,1.1c2.6,0.7,5.4,1.8,8.3,3.3v-24.4h10.9V345.1z"/>
<polygon class="st1" points="21.6,368.6 21.6,383.1 25,383.1 25,377.3 30.6,377.3 30.6,374.6 25,374.6 25,371.3 31,371.3 31,368.6 
	"/>
<polygon class="st1" points="38.7,368.6 38.7,383.1 48.5,383.1 48.5,380.4 42.2,380.4 42.2,377 47.8,377 47.8,374.3 42.2,374.3 
	42.2,371.3 48.2,371.3 48.2,368.6 "/>
<path class="st1" d="M60.3,380.7c0.3,0.1,0.8,0.1,1.2,0.1c3.2,0,5.3-1.6,5.3-5.1c0-3.1-1.9-4.6-4.9-4.6c-0.8,0-1.3,0.1-1.6,0.1
	V380.7z M56.9,368.8c1.3-0.2,3-0.3,4.7-0.3c3,0,4.9,0.5,6.3,1.5c1.6,1.1,2.6,2.9,2.6,5.5c0,2.8-1.1,4.7-2.5,5.9
	c-1.6,1.3-4.1,1.9-7.2,1.9c-1.8,0-3.1-0.1-4-0.2V368.8z"/>
<polygon class="st1" points="77,368.6 77,383.1 86.8,383.1 86.8,380.4 80.4,380.4 80.4,377 86.1,377 86.1,374.3 80.4,374.3 
	80.4,371.3 86.5,371.3 86.5,368.6 "/>
<path class="st1" d="M97.7,375h1.4c1.7,0,2.8-0.8,2.8-2.1c0-1.3-1-2-2.6-2c-0.8,0-1.3,0-1.6,0.1V375z M94.2,368.8
	c1.1-0.2,2.8-0.3,4.7-0.3c2.3,0,3.9,0.3,5,1.2c0.9,0.7,1.4,1.7,1.4,3c0,1.8-1.4,3.1-2.7,3.6v0.1c1.1,0.4,1.7,1.4,2.1,2.7
	c0.5,1.7,0.9,3.6,1.2,4.1h-3.6c-0.2-0.4-0.6-1.6-1.1-3.4c-0.4-1.8-1.1-2.3-2.5-2.3h-1v5.7h-3.5V368.8z"/>
<path class="st1" d="M119.4,376.9l-1-3.1c-0.3-0.9-0.5-2-0.8-2.8h-0.1c-0.2,0.9-0.5,2-0.7,2.8l-0.9,3.1H119.4z M115.5,379.4
	l-1.1,3.7h-3.6l4.7-14.5h4.6l4.8,14.5h-3.8l-1.2-3.7H115.5z"/>
<polygon class="st1" points="130.7,368.6 130.7,383.1 140.3,383.1 140.3,380.4 134.1,380.4 134.1,368.6 "/>
<path class="st1" d="M165.6,382.7c-0.6,0.3-2.1,0.6-3.9,0.6c-5.3,0-8.1-3.1-8.1-7.3c0-5,3.8-7.7,8.4-7.7c1.8,0,3.2,0.3,3.8,0.6
	l-0.7,2.6c-0.7-0.3-1.7-0.5-2.9-0.5c-2.7,0-4.9,1.6-4.9,4.8c0,2.9,1.8,4.8,4.9,4.8c1.1,0,2.2-0.2,2.9-0.5L165.6,382.7z"/>
<path class="st1" d="M174.6,375h1.4c1.7,0,2.8-0.8,2.8-2.1c0-1.3-1-2-2.6-2c-0.8,0-1.3,0-1.6,0.1V375z M171.2,368.8
	c1.1-0.2,2.8-0.3,4.7-0.3c2.3,0,3.9,0.3,5,1.2c0.9,0.7,1.4,1.7,1.4,3c0,1.8-1.4,3.1-2.7,3.6v0.1c1.1,0.4,1.7,1.4,2.1,2.7
	c0.5,1.7,0.9,3.6,1.2,4.1h-3.6c-0.2-0.4-0.6-1.6-1.1-3.4c-0.4-1.8-1.1-2.3-2.5-2.3h-1v5.7h-3.5V368.8z"/>
<polygon class="st1" points="188.4,368.6 188.4,383.1 198.3,383.1 198.3,380.4 191.9,380.4 191.9,377 197.6,377 197.6,374.3 
	191.9,374.3 191.9,371.3 198,371.3 198,368.6 "/>
<path class="st1" d="M207.4,380.7c0.3,0.1,0.8,0.1,1.2,0.1c3.2,0,5.3-1.6,5.3-5.1c0-3.1-1.9-4.6-4.9-4.6c-0.8,0-1.3,0.1-1.6,0.1
	V380.7z M203.9,368.8c1.3-0.2,3-0.3,4.7-0.3c2.9,0,4.9,0.5,6.3,1.5c1.6,1.1,2.6,2.9,2.6,5.5c0,2.8-1.1,4.7-2.5,5.9
	c-1.6,1.3-4.1,1.9-7.2,1.9c-1.8,0-3.1-0.1-4-0.2V368.8z"/>
<rect x="222.6" y="368.6" class="st1" width="3.5" height="14.5"/>
<polygon class="st1" points="231.2,368.6 231.2,371.4 235.3,371.4 235.3,383.1 238.8,383.1 238.8,371.4 243,371.4 243,368.6 "/>
<path class="st1" d="M261.7,368.6v8.3c0,2.5,1,3.8,2.8,3.8c1.8,0,2.8-1.2,2.8-3.8v-8.3h3.5v8.2c0,4.5-2.4,6.6-6.4,6.6
	c-3.9,0-6.2-2.1-6.2-6.7v-8.1H261.7z"/>
<path class="st1" d="M278,383.1v-14.5h4.1l3.2,5.3c0.9,1.5,1.8,3.3,2.5,5h0c-0.2-1.9-0.3-3.9-0.3-6.1v-4.2h3.2v14.5h-3.7l-3.3-5.6
	c-0.9-1.6-1.9-3.4-2.7-5.1H281c0.1,1.9,0.2,4,0.2,6.4v4.4H278z"/>
<rect x="298.4" y="368.6" class="st1" width="3.5" height="14.5"/>
<path class="st1" d="M315.3,380.8c2.4,0,3.7-2.1,3.7-4.9c0-2.6-1.3-4.9-3.7-4.9c-2.4,0-3.8,2.2-3.8,4.9
	C311.5,378.6,312.9,380.8,315.3,380.8L315.3,380.8z M315.1,383.4c-4.6,0-7.3-3.3-7.3-7.4c0-4.4,3-7.6,7.5-7.6c4.8,0,7.3,3.3,7.3,7.4
	C322.7,380.5,319.7,383.4,315.1,383.4L315.1,383.4z"/>
<path class="st1" d="M327.8,383.1v-14.5h4.1l3.2,5.3c0.9,1.5,1.8,3.3,2.5,5h0c-0.2-1.9-0.3-3.9-0.3-6.1v-4.2h3.2v14.5h-3.7l-3.3-5.6
	c-0.9-1.6-1.9-3.4-2.7-5.1h-0.1c0.1,1.9,0.2,4,0.2,6.4v4.4H327.8z"/>
<path class="st0" d="M434,321l-9.4,26.8h-3.7l-8.1-23.2l-8.1,23.2h-3.7l-9.4-26.8h3.2l8.2,24.1c0.1-0.5,0.2-0.8,0.2-1.1l7.9-23h3.4
	l7.9,22.9l0.2,1.1l8.1-24.1H434z"/>
<path class="st0" d="M457.5,324.1c2.6,2.6,4,6.1,4,10.4c0,0.1,0,0.2,0,0.4c0,0.2,0,0.3,0,0.4h-24.9c0.3,3.2,1.5,5.7,3.5,7.6
	c2.2,1.9,4.9,2.9,8.3,2.9c4.2,0,7.3-1.4,9.5-4.2l3.1,0.1c-1.3,2.2-3,3.9-5.3,5.1c-2.2,1.2-4.7,1.8-7.4,1.8c-2.6,0-5.1-0.6-7.3-1.7
	c-2.2-1.1-4-2.8-5.4-5c-1.4-2.2-2.1-4.7-2.1-7.5c0-4.3,1.3-7.8,4-10.4c2.7-2.7,6-4,10-4C451.5,320.2,454.8,321.5,457.5,324.1
	 M455.1,325.6c-2-1.8-4.5-2.6-7.5-2.6c-3,0-5.6,0.9-7.6,2.6c-2,1.8-3.2,4.2-3.5,7.4h22.1C458.3,329.9,457.1,327.4,455.1,325.6"/>
<path class="st0" d="M506.6,323.8l0.5-2.7h2.3v24.1v2c0,4.6-1.2,8.2-3.6,10.6c-2.4,2.5-5.6,3.7-9.6,3.7c-2.1,0-4.1-0.4-6-1.2
	c-1.9-0.8-3.5-1.9-4.9-3.3l1.5-2.3c1.1,1.3,2.5,2.4,4.1,3.1c1.7,0.7,3.4,1.1,5.3,1.1c3.3,0,5.8-1,7.7-3c1.9-2,2.8-4.9,2.8-8.6v-2.1
	c-2.6,2.5-5.8,3.7-9.7,3.7c-4,0-7.3-1.3-10-4c-2.7-2.6-4-6.1-4-10.4c0-4.3,1.3-7.8,4-10.4c2.7-2.6,6-4,10-4
	C500.8,320.1,504,321.3,506.6,323.8 M488.9,325.9c-2.1,2-3.2,4.9-3.2,8.5c0,3.7,1.1,6.5,3.2,8.5c2.1,2,4.9,3,8.3,3
	c4.2,0,7.3-1.4,9.4-4.3v-14.6c-2.1-2.9-5.2-4.3-9.4-4.3C493.8,322.9,491.1,323.9,488.9,325.9"/>
<path class="st0" d="M536.8,324.1c2.7,2.6,4,6.1,4,10.4c0,0.1,0,0.2,0,0.4c0,0.2,0,0.3,0,0.4h-24.9c0.3,3.2,1.5,5.7,3.5,7.6
	c2.2,1.9,4.9,2.9,8.3,2.9c4.2,0,7.3-1.4,9.5-4.2l3.1,0.1c-1.3,2.2-3,3.9-5.3,5.1c-2.2,1.2-4.7,1.8-7.4,1.8c-2.6,0-5.1-0.6-7.3-1.7
	c-2.2-1.1-4-2.8-5.4-5c-1.4-2.2-2.1-4.7-2.1-7.5c0-4.3,1.3-7.8,4-10.4c2.7-2.7,6-4,10-4C530.9,320.2,534.2,321.5,536.8,324.1
	 M534.5,325.6c-2-1.8-4.5-2.6-7.5-2.6c-3,0-5.6,0.9-7.6,2.6c-2,1.8-3.2,4.2-3.5,7.4h22.1C537.6,329.9,536.5,327.4,534.5,325.6"/>
<path class="st0" d="M550.9,348.6c-0.9-0.3-1.7-0.7-2.3-1.2c-0.6-0.5-1.1-1-1.4-1.5c-0.3-0.5-0.5-1.1-0.7-1.9
	c-0.2-0.8-0.2-1.4-0.3-1.8c0-0.4,0-1,0-1.8v-16.9h-2.8V321h2.8c0-0.4,0-3.2,0-8.4h2.8v8.4h8.4v2.4h-8.4v14.5c0,0.4,0,1,0,1.8
	c0,0.7,0,1.3,0,1.6c0,0.3,0,0.7,0.1,1.3c0,0.5,0.1,0.9,0.2,1.2c0.1,0.3,0.2,0.5,0.4,0.9c0.2,0.3,0.4,0.6,0.7,0.8
	c0.3,0.2,0.6,0.4,1.1,0.6c1.6,0.7,3.6,0.4,6.1-0.8l1.1,2.1c-1.1,0.7-2.4,1.2-3.9,1.5C553.3,348.9,552,348.9,550.9,348.6"/>
<path class="st2" d="M611,300.8V335c0,2.5-0.2,4.5-0.5,6.1c-0.3,1.5-0.9,2.9-1.7,4.1c-0.9,1.3-2.1,2.3-3.5,2.9c-1.6,0.7-3.5,1-5.8,1
	c-2.3,0-4.2-0.3-5.8-1c-1.5-0.7-2.7-1.6-3.5-2.9c-0.8-1.2-1.4-2.5-1.7-3.9c-0.4-1.5-0.5-3.7-0.5-6.4v-33.9h-10.6v33.6
	c0,4.2,0.5,7.8,1.3,10.7c0.9,3,2.5,5.7,4.6,7.8c1.9,1.9,4.2,3.4,6.9,4.3c2.7,0.9,5.8,1.4,9.3,1.4c3.4,0,6.5-0.5,9.2-1.3
	c2.7-0.9,5.1-2.4,7.1-4.4c2.1-2.1,3.7-4.8,4.6-7.9c0.9-3,1.3-6.6,1.3-10.6v-33.6H611z"/>
</svg>
