<svg width="82" height="82" viewBox="0 0 82 82" fill="none" xmlns="http://www.w3.org/2000/svg">
<g clip-path="url(#clip0_1027_1609)">
<g clip-path="url(#clip1_1027_1609)">
<path d="M14 25.9018C14 21.7358 14 19.6527 14.8108 18.0615C15.5239 16.6619 16.6619 15.5239 18.0615 14.8108C19.6527 14 21.7358 14 25.9018 14H108.098C112.264 14 114.347 14 115.938 14.8108C117.338 15.5239 118.476 16.6619 119.189 18.0615C120 19.6527 120 21.7357 120 25.9018V38.1754H14V25.9018Z" fill="#F5F5F5"/>
<path d="M14 25.9018C14 21.7358 14 19.6527 14.8108 18.0615C15.5239 16.6619 16.6619 15.5239 18.0615 14.8108C19.6527 14 21.7358 14 25.9018 14H108.098C112.264 14 114.347 14 115.938 14.8108C117.338 15.5239 118.476 16.6619 119.189 18.0615C120 19.6527 120 21.7357 120 25.9018V38.1754H14V25.9018Z" fill="url(#paint0_radial_1027_1609)"/>
<circle cx="27.5312" cy="26.0877" r="4.164" fill="#ACC3E5"/>
<circle cx="42.1054" cy="26.0877" r="4.164" fill="#ACC3E5"/>
<circle cx="56.6796" cy="26.0877" r="4.164" fill="#ACC3E5"/>
<rect width="106" height="68.8772" transform="translate(14 38.1754)" fill="#15C3A9"/>
<path d="M22 55.1754C22 54.2468 22 53.7824 22.0385 53.3913C22.4126 49.5931 25.4176 46.5881 29.2159 46.214C29.607 46.1754 30.0713 46.1754 31 46.1754H119C119.929 46.1754 120.393 46.1754 120.784 46.214C124.582 46.5881 127.587 49.5931 127.961 53.3913C128 53.7824 128 54.2468 128 55.1754C128 56.1041 128 56.5685 127.961 56.9596C127.587 60.7578 124.582 63.7628 120.784 64.1369C120.393 64.1754 119.929 64.1754 119 64.1754H31C30.0713 64.1754 29.607 64.1754 29.2159 64.1369C25.4176 63.7628 22.4126 60.7578 22.0385 56.9596C22 56.5685 22 56.1041 22 55.1754Z" fill="#8AE4D7"/>
<path d="M22 76.614C22 73.8526 24.2386 71.614 27 71.614H123C125.761 71.614 128 73.8526 128 76.614C128 79.3755 125.761 81.614 123 81.614H27C24.2386 81.614 22 79.3755 22 76.614Z" fill="#8AE4D7"/>
</g>
</g>
<rect x="1" y="1" width="80" height="80" rx="17" stroke="#2F9AFB" stroke-opacity="0.1" stroke-width="2"/>
<defs>
<radialGradient id="paint0_radial_1027_1609" cx="0" cy="0" r="1" gradientUnits="userSpaceOnUse" gradientTransform="translate(67 -18.0783) rotate(90) scale(62.0686 95.2585)">
<stop stop-color="#7EB2FF"/>
<stop offset="0.98486" stop-color="#043071"/>
</radialGradient>
<clipPath id="clip0_1027_1609">
<rect x="2" y="2" width="78" height="78" rx="16" fill="white"/>
</clipPath>
<clipPath id="clip1_1027_1609">
<rect x="14" y="14" width="106" height="101.351" rx="12" fill="white"/>
</clipPath>
</defs>
</svg>
