<svg width="72" height="72" viewBox="0 0 72 72" fill="none" xmlns="http://www.w3.org/2000/svg">
<path d="M59.46 48.51L56.76 47.715C57.84 46.62 58.5 45.135 58.5 43.5C58.5 40.185 55.815 37.5 52.5 37.5C49.185 37.5 46.5 40.185 46.5 43.5C46.5 45.135 47.16 46.62 48.24 47.715L45.57 48.51C45.105 48.645 44.67 48.84 44.25 49.08C43.83 48.855 43.41 48.645 42.96 48.51L40.26 47.715C41.34 46.62 42 45.135 42 43.5C42 40.185 39.315 37.5 36 37.5C32.685 37.5 30 40.185 30 43.5C30 45.135 30.66 46.62 31.74 47.715L29.04 48.51C28.59 48.645 28.17 48.855 27.765 49.08C27.3529 48.8413 26.9151 48.6501 26.46 48.51L23.76 47.715C24.84 46.62 25.5 45.135 25.5 43.5C25.5 40.185 22.815 37.5 19.5 37.5C16.185 37.5 13.5 40.185 13.5 43.5C13.5 45.135 14.16 46.62 15.24 47.715L12.555 48.51C9.57 49.395 7.5 52.47 7.5 56.01V63C7.5 63.825 8.175 64.5 9 64.5H63C63.825 64.5 64.5 63.825 64.5 63V56.01C64.5 52.47 62.43 49.395 59.46 48.51ZM19.5 40.5C21.15 40.5 22.5 41.85 22.5 43.5C22.5 45.15 21.15 46.5 19.5 46.5C18.675 46.5 17.925 46.17 17.385 45.615C16.83 45.075 16.5 44.325 16.5 43.5C16.5 41.85 17.85 40.5 19.5 40.5ZM24 56.01V61.5H10.5V56.01C10.5 53.835 11.715 51.885 13.41 51.39L18 50.01V52.5C18 53.325 18.675 54 19.5 54C20.325 54 21 53.325 21 52.5V50.01L25.38 51.33C24.51 52.635 24 54.27 24 56.01ZM36 40.5C37.65 40.5 39 41.85 39 43.5C39 45.15 37.65 46.5 36 46.5C35.175 46.5 34.425 46.17 33.885 45.615C33.33 45.075 33 44.325 33 43.5C33 41.85 34.35 40.5 36 40.5ZM37.335 53.535L36 54.885L34.665 53.535L35.625 49.68L36 49.56L36.375 49.68L37.335 53.535ZM45 61.5H27V56.01C27 53.835 28.215 51.885 29.91 51.39L32.28 50.67L31.545 53.64C31.41 54.15 31.56 54.69 31.935 55.065L34.935 58.065C35.235 58.35 35.61 58.5 36 58.5C36.39 58.5 36.765 58.35 37.065 58.065L40.065 55.065C40.44 54.69 40.59 54.15 40.455 53.64L39.72 50.67L42.105 51.39C43.785 51.885 45 53.835 45 56.01V61.5ZM52.5 40.5C54.15 40.5 55.5 41.85 55.5 43.5C55.5 45.15 54.15 46.5 52.5 46.5C51.675 46.5 50.925 46.17 50.385 45.615C49.83 45.075 49.5 44.325 49.5 43.5C49.5 41.85 50.85 40.5 52.5 40.5ZM61.5 61.5H48V56.01C48.0073 54.344 47.5276 52.7121 46.62 51.315L51 50.01V52.5C51 53.325 51.675 54 52.5 54C53.325 54 54 53.325 54 52.5V50.01L58.605 51.39C60.285 51.885 61.5 53.835 61.5 56.01V61.5Z" fill="#2A5FAC"/>
<path d="M49.5 21C49.5 28.4445 43.443 34.5 36 34.5C28.557 34.5 22.5 28.4445 22.5 21C22.5 13.5555 28.557 7.5 36 7.5C37.2652 7.49979 38.5242 7.67547 39.741 8.022C40.114 8.13896 40.4265 8.39689 40.6122 8.74087C40.7978 9.08485 40.8419 9.48771 40.7349 9.86367C40.628 10.2396 40.3785 10.559 40.0396 10.7538C39.7007 10.9486 39.2992 11.0033 38.9205 10.9065C37.3559 10.456 35.708 10.3751 34.1068 10.6702C32.5056 10.9653 30.9948 11.6283 29.6935 12.607C28.3923 13.5856 27.3362 14.8532 26.6084 16.3097C25.8807 17.7662 25.5013 19.3718 25.5 21C25.5 26.79 30.21 31.5 36 31.5C37.6278 31.4986 39.2331 31.1192 40.6893 30.3916C42.1455 29.6641 43.4129 28.6082 44.3915 27.3074C45.3701 26.0065 46.0332 24.4961 46.3285 22.8953C46.6239 21.2945 46.5434 19.6469 46.0935 18.0825C46.0392 17.8931 46.0227 17.6949 46.0451 17.4991C46.0674 17.3033 46.1281 17.1139 46.2236 16.9416C46.3192 16.7693 46.4477 16.6175 46.602 16.4949C46.7562 16.3723 46.9331 16.2812 47.1225 16.227C47.5052 16.1195 47.9148 16.1677 48.2621 16.361C48.6094 16.5544 48.8662 16.8771 48.9765 17.259C49.3255 18.4753 49.5017 19.7346 49.5 21Z" fill="#15C3A9"/>
<path d="M36 13.75C36.3978 13.75 36.8509 13.958 36.9854 14.4336H36.9863C37.275 15.3966 38.0011 17.2194 39.748 18.5986H39.749L40.0537 18.8281C40.7792 19.3444 41.6051 19.7251 42.4932 19.9785H42.4922C42.9428 20.103 43.25 20.5149 43.25 20.9707C43.25 21.427 42.9417 21.839 42.4902 21.9629L42.4893 21.9639C41.6068 22.2025 40.7929 22.5915 40.0576 23.1123L39.7471 23.3438C38 24.708 37.2592 26.5309 36.9873 27.5039V27.5049C36.8633 27.9413 36.4537 28.25 36 28.25C35.5463 28.25 35.1367 27.9413 35.0127 27.5049V27.5039C34.7233 26.54 33.9966 24.7202 32.252 23.3428L32.251 23.3418C31.4557 22.7075 30.5215 22.2525 29.5068 21.9629V21.9619C29.0568 21.8371 28.75 21.4261 28.75 20.9707C28.75 20.5144 29.0583 20.1024 29.5098 19.9785L29.5107 19.9775L29.8848 19.8662C30.7474 19.5849 31.5402 19.1556 32.2529 18.5977L32.5684 18.3369C34.0906 17.009 34.7578 15.3497 35.0127 14.4375C35.1457 13.959 35.601 13.75 36 13.75ZM36.002 17.3154C35.4559 18.2799 34.6554 19.312 33.5264 20.21L33.5273 20.2109C33.1806 20.4877 32.8062 20.7467 32.418 20.9746C32.6724 21.1269 32.9204 21.2876 33.1631 21.46L33.5234 21.7275L33.5264 21.7295L33.7637 21.9248C34.7685 22.7765 35.4842 23.7314 35.9971 24.625C36.5432 23.6605 37.3444 22.6275 38.4736 21.7295C38.8201 21.453 39.1932 21.1935 39.5811 20.9658C39.1999 20.7376 38.8337 20.4894 38.4766 20.2139L38.4736 20.2109C37.3427 19.3116 36.5543 18.2781 36.002 17.3154Z" fill="#15C3A9" stroke="#15C3A9" stroke-width="0.5"/>
</svg>
