<svg preserveAspectRatio="none" width="100%" height="100%" overflow="visible" style="display: block;" viewBox="0 0 72.8468 53.9978" fill="none" xmlns="http://www.w3.org/2000/svg">
<g id="Vector">
<path d="M20.1656 0.9C20.6428 0.545431 21.1857 0.287451 21.7635 0.140789C22.3412 -0.00587318 22.9425 -0.0383455 23.5329 0.0452272C24.1234 0.1288 24.6914 0.326781 25.2046 0.627865C25.7178 0.92895 26.1661 1.32724 26.524 1.8C26.8818 2.27276 27.1422 2.81073 27.2902 3.38319C27.4382 3.95565 27.471 4.55139 27.3867 5.1364C27.3023 5.72141 27.1025 6.28423 26.7986 6.79272C26.4948 7.30122 26.0928 7.74543 25.6156 8.1C18.5125 13.3785 14.4431 18.513 12.1133 22.995C15.3123 22.1791 18.6884 22.3709 21.7723 23.5438C24.8562 24.7167 27.4947 26.8124 29.3211 29.5396C31.1475 32.2669 32.071 35.4901 31.9633 38.7614C31.8556 42.0326 30.722 45.1894 28.7201 47.7928C26.7181 50.3963 23.9473 52.3171 20.7928 53.2884C17.6383 54.2596 14.2568 54.2329 11.1182 53.2121C7.9797 52.1913 5.24009 50.2271 3.2802 47.5924C1.32031 44.9577 0.237512 41.7835 0.182302 38.511C-0.393193 32.9848 0.398692 27.4029 2.48947 22.248C5.20084 15.471 10.501 8.082 20.1656 0.9ZM61.0406 0.9C61.5178 0.545431 62.0607 0.287451 62.6385 0.140789C63.2162 -0.00587318 63.8175 -0.0383455 64.4079 0.0452272C64.9984 0.1288 65.5664 0.326781 66.0796 0.627865C66.5928 0.92895 67.0411 1.32724 67.399 1.8C67.7568 2.27276 68.0172 2.81073 68.1652 3.38319C68.3132 3.95565 68.346 4.55139 68.2617 5.1364C68.1773 5.72141 67.9775 6.28423 67.6736 6.79272C67.3698 7.30122 66.9678 7.74543 66.4906 8.1C59.3875 13.3785 55.3181 18.513 52.9883 22.995C56.1873 22.1791 59.5634 22.3709 62.6473 23.5438C65.7312 24.7167 68.3697 26.8124 70.1961 29.5396C72.0225 32.2669 72.946 35.4901 72.8383 38.7614C72.7306 42.0326 71.597 45.1894 69.5951 47.7928C67.5931 50.3963 64.8224 52.3171 61.6678 53.2884C58.5133 54.2596 55.1318 54.2329 51.9932 53.2121C48.8547 52.1913 46.1151 50.2271 44.1552 47.5924C42.1953 44.9577 41.1125 41.7835 41.0573 38.511C40.4818 32.9848 41.2737 27.4029 43.3645 22.248C46.0804 15.471 51.376 8.082 61.0406 0.9Z" fill="var(--fill-0, black)"/>
<path d="M20.1656 0.9C20.6428 0.545431 21.1857 0.287451 21.7635 0.140789C22.3412 -0.00587318 22.9425 -0.0383455 23.5329 0.0452272C24.1234 0.1288 24.6914 0.326781 25.2046 0.627865C25.7178 0.92895 26.1661 1.32724 26.524 1.8C26.8818 2.27276 27.1422 2.81073 27.2902 3.38319C27.4382 3.95565 27.471 4.55139 27.3867 5.1364C27.3023 5.72141 27.1025 6.28423 26.7986 6.79272C26.4948 7.30122 26.0928 7.74543 25.6156 8.1C18.5125 13.3785 14.4431 18.513 12.1133 22.995C15.3123 22.1791 18.6884 22.3709 21.7723 23.5438C24.8562 24.7167 27.4947 26.8124 29.3211 29.5396C31.1475 32.2669 32.071 35.4901 31.9633 38.7614C31.8556 42.0326 30.722 45.1894 28.7201 47.7928C26.7181 50.3963 23.9473 52.3171 20.7928 53.2884C17.6383 54.2596 14.2568 54.2329 11.1182 53.2121C7.9797 52.1913 5.24009 50.2271 3.2802 47.5924C1.32031 44.9577 0.237512 41.7835 0.182302 38.511C-0.393193 32.9848 0.398692 27.4029 2.48947 22.248C5.20084 15.471 10.501 8.082 20.1656 0.9ZM61.0406 0.9C61.5178 0.545431 62.0607 0.287451 62.6385 0.140789C63.2162 -0.00587318 63.8175 -0.0383455 64.4079 0.0452272C64.9984 0.1288 65.5664 0.326781 66.0796 0.627865C66.5928 0.92895 67.0411 1.32724 67.399 1.8C67.7568 2.27276 68.0172 2.81073 68.1652 3.38319C68.3132 3.95565 68.346 4.55139 68.2617 5.1364C68.1773 5.72141 67.9775 6.28423 67.6736 6.79272C67.3698 7.30122 66.9678 7.74543 66.4906 8.1C59.3875 13.3785 55.3181 18.513 52.9883 22.995C56.1873 22.1791 59.5634 22.3709 62.6473 23.5438C65.7312 24.7167 68.3697 26.8124 70.1961 29.5396C72.0225 32.2669 72.946 35.4901 72.8383 38.7614C72.7306 42.0326 71.597 45.1894 69.5951 47.7928C67.5931 50.3963 64.8224 52.3171 61.6678 53.2884C58.5133 54.2596 55.1318 54.2329 51.9932 53.2121C48.8547 52.1913 46.1151 50.2271 44.1552 47.5924C42.1953 44.9577 41.1125 41.7835 41.0573 38.511C40.4818 32.9848 41.2737 27.4029 43.3645 22.248C46.0804 15.471 51.376 8.082 61.0406 0.9Z" fill="url(#paint0_radial_794_5738)"/>
</g>
<defs>
<radialGradient id="paint0_radial_794_5738" cx="0" cy="0" r="1" gradientUnits="userSpaceOnUse" gradientTransform="translate(36.4234 -82.8013) rotate(77.7618) scale(345.297 290.504)">
<stop stop-color="#7EB2FF"/>
<stop offset="0.85" stop-color="#043071"/>
</radialGradient>
</defs>
</svg>
