<svg width="30" height="30" viewBox="0 0 30 30" fill="none" xmlns="http://www.w3.org/2000/svg">
<g clip-path="url(#clip0_275_64443)">
<path d="M24.4188 3.90253L22.3488 1.83003C21.7696 1.24792 21.0807 0.786448 20.322 0.47233C19.5633 0.158212 18.7499 -0.00231999 17.9288 2.53318e-05H10C8.34301 0.00201015 6.75445 0.661128 5.58277 1.8328C4.4111 3.00447 3.75198 4.59303 3.75 6.25003V23.75C3.75198 25.407 4.4111 26.9956 5.58277 28.1673C6.75445 29.3389 8.34301 29.998 10 30H20C21.657 29.998 23.2456 29.3389 24.4172 28.1673C25.5889 26.9956 26.248 25.407 26.25 23.75V8.32128C26.252 7.50026 26.0912 6.68699 25.7769 5.92852C25.4625 5.17005 25.0009 4.48144 24.4188 3.90253ZM22.6513 5.67003C22.8286 5.84668 22.9873 6.04102 23.125 6.25003H20V3.12503C20.2087 3.26418 20.4033 3.42326 20.5813 3.60003L22.6513 5.67003ZM23.75 23.75C23.75 24.7446 23.3549 25.6984 22.6517 26.4017C21.9484 27.1049 20.9946 27.5 20 27.5H10C9.00544 27.5 8.05161 27.1049 7.34835 26.4017C6.64509 25.6984 6.25 24.7446 6.25 23.75V6.25003C6.25 5.25546 6.64509 4.30164 7.34835 3.59838C8.05161 2.89511 9.00544 2.50003 10 2.50003H17.5V6.25003C17.5 6.91307 17.7634 7.54895 18.2322 8.01779C18.7011 8.48663 19.337 8.75003 20 8.75003H23.75V23.75Z" fill="#195BD7" stroke="#F2F6FF" stroke-width="0.5" stroke-linecap="round" stroke-linejoin="round"/>
<path d="M20.8836 11.6161C20.6492 11.3817 20.3313 11.25 19.9998 11.25H9.99976C9.66824 11.25 9.35029 11.3817 9.11587 11.6161C8.88145 11.8505 8.74976 12.1685 8.74976 12.5C8.74976 12.8315 8.88145 13.1495 9.11587 13.3839C9.35029 13.6183 9.66824 13.75 9.99976 13.75H19.9998C20.3313 13.75 20.6492 13.6183 20.8836 13.3839C21.1181 13.1495 21.2498 12.8315 21.2498 12.5C21.2498 12.1685 21.1181 11.8505 20.8836 11.6161Z" fill="#15C3A9"/>
<path d="M20.8836 18.3839C21.1181 18.1495 21.2498 17.8315 21.2498 17.5C21.2498 17.1685 21.1181 16.8505 20.8836 16.6161C20.6492 16.3817 20.3313 16.25 19.9998 16.25H9.99976C9.66824 16.25 9.35029 16.3817 9.11587 16.6161C8.88145 16.8505 8.74976 17.1685 8.74976 17.5C8.74976 17.8315 8.88145 18.1495 9.11587 18.3839C9.35029 18.6183 9.66824 18.75 9.99976 18.75H19.9998C20.3313 18.75 20.6492 18.6183 20.8836 18.3839Z" fill="#15C3A9"/>
<path d="M21.2338 22.6935C21.2846 22.3669 21.2041 22.0336 21.0098 21.7663C20.8151 21.4982 20.5219 21.3184 20.1947 21.2663C19.8675 21.2143 19.533 21.2943 19.2648 21.4888C18.4235 22.0742 17.4406 22.4234 16.4185 22.5C16.0187 22.4891 15.6359 22.3362 15.3385 22.0688C14.6862 21.5511 13.8812 21.2633 13.0485 21.25C11.6601 21.3794 10.3375 21.9024 9.23601 22.7575C8.98509 22.9629 8.82385 23.2579 8.78631 23.58C8.74878 23.9021 8.83791 24.2262 9.03486 24.4838C9.23182 24.7415 9.52119 24.9125 9.84187 24.9607C10.1626 25.009 10.4894 24.9307 10.7535 24.7425C11.4193 24.2211 12.2078 23.8793 13.0435 23.75C13.3523 23.75 13.5085 23.8438 13.9185 24.125C14.6308 24.6876 15.5109 24.9956 16.4185 25C17.972 24.929 19.472 24.4112 20.7385 23.5088C21.0049 23.3132 21.1829 23.02 21.2338 22.6935Z" fill="#15C3A9"/>
<path d="M20.8836 11.6161C20.6492 11.3817 20.3313 11.25 19.9998 11.25H9.99976C9.66824 11.25 9.35029 11.3817 9.11587 11.6161C8.88145 11.8505 8.74976 12.1685 8.74976 12.5C8.74976 12.8315 8.88145 13.1495 9.11587 13.3839C9.35029 13.6183 9.66824 13.75 9.99976 13.75H19.9998C20.3313 13.75 20.6492 13.6183 20.8836 13.3839C21.1181 13.1495 21.2498 12.8315 21.2498 12.5C21.2498 12.1685 21.1181 11.8505 20.8836 11.6161Z" stroke="#F2F6FF" stroke-width="0.5" stroke-linecap="round" stroke-linejoin="round"/>
<path d="M20.8836 18.3839C21.1181 18.1495 21.2498 17.8315 21.2498 17.5C21.2498 17.1685 21.1181 16.8505 20.8836 16.6161C20.6492 16.3817 20.3313 16.25 19.9998 16.25H9.99976C9.66824 16.25 9.35029 16.3817 9.11587 16.6161C8.88145 16.8505 8.74976 17.1685 8.74976 17.5C8.74976 17.8315 8.88145 18.1495 9.11587 18.3839C9.35029 18.6183 9.66824 18.75 9.99976 18.75H19.9998C20.3313 18.75 20.6492 18.6183 20.8836 18.3839Z" stroke="#F2F6FF" stroke-width="0.5" stroke-linecap="round" stroke-linejoin="round"/>
<path d="M21.2338 22.6935C21.2846 22.3669 21.2041 22.0336 21.0098 21.7663C20.8151 21.4982 20.5219 21.3184 20.1947 21.2663C19.8675 21.2143 19.533 21.2943 19.2648 21.4888C18.4235 22.0742 17.4406 22.4234 16.4185 22.5C16.0187 22.4891 15.6359 22.3362 15.3385 22.0688C14.6862 21.5511 13.8812 21.2633 13.0485 21.25C11.6601 21.3794 10.3375 21.9024 9.23601 22.7575C8.98509 22.9629 8.82385 23.2579 8.78631 23.58C8.74878 23.9021 8.83791 24.2262 9.03486 24.4838C9.23182 24.7415 9.52119 24.9125 9.84187 24.9607C10.1626 25.009 10.4894 24.9307 10.7535 24.7425C11.4193 24.2211 12.2078 23.8793 13.0435 23.75C13.3523 23.75 13.5085 23.8438 13.9185 24.125C14.6308 24.6876 15.5109 24.9956 16.4185 25C17.972 24.929 19.472 24.4112 20.7385 23.5088C21.0049 23.3132 21.1829 23.02 21.2338 22.6935Z" stroke="#F2F6FF" stroke-width="0.5" stroke-linecap="round" stroke-linejoin="round"/>
</g>
<defs>
<clipPath id="clip0_275_64443">
<rect width="30" height="30" fill="white"/>
</clipPath>
</defs>
</svg>
