<svg width="37" height="37" viewBox="0 0 37 37" fill="none" xmlns="http://www.w3.org/2000/svg">
<path d="M30.58 12.5907L30.5894 12.6125L30.6 12.6339C32.6283 16.7158 32.3591 20.0402 30.8547 22.697C29.3191 25.4092 26.4219 27.5542 22.9691 29.0446C16.2223 31.957 8.45408 29.5381 5.75804 23.3056C3.08555 17.1277 6.83305 10.4291 13.6442 7.48896C20.4554 4.54876 27.9075 6.41275 30.58 12.5907ZM9.03674 22.5977C10.0595 24.9621 12.4254 26.0663 14.7669 26.423C17.1202 26.7815 19.6888 26.4328 21.5009 25.6506C23.3807 24.839 24.634 23.4259 25.1438 21.6284C25.6464 19.856 25.4009 17.8067 24.4968 15.7164C23.5939 13.6293 22.1923 11.8649 20.5123 10.8099C18.8145 9.74378 16.8061 9.39584 14.8371 10.2458C12.9432 11.0634 11.0566 13.0601 9.86341 15.2994C8.67428 17.5312 8.03279 20.2768 9.03674 22.5977Z" fill="url(#paint0_linear_275_64482)" stroke="#108CC6" stroke-width="2"/>
<path opacity="0.8" d="M5.69896 22.871C8.20252 30.423 16.0929 35.0645 23.6542 32.5782C31.2156 30.092 34.7799 21.6841 32.2764 14.132C29.7728 6.57998 21.8825 1.93848 14.3211 4.42473C6.75975 6.91098 3.19538 15.3189 5.69896 22.871ZM26.652 15.9814C27.8138 19.4862 24.7917 28.1636 20.4307 29.5976C16.0695 31.0317 10.0112 27.0305 10.0013 21.8742C9.9913 16.7178 12.9051 14.8395 17.027 13.4673C21.1487 12.095 25.4901 12.4766 26.652 15.9814Z" fill="#195BD7"/>
<path opacity="0.5" d="M30.0709 24.3243C33.6619 18.1047 32.0577 9.99847 25.8441 6.39091C19.6305 2.78336 11.8215 5.42444 8.23052 11.6441C4.63957 17.8638 6.24366 25.9701 12.4573 29.5776C18.671 33.1851 26.48 30.544 30.0709 24.3243ZM12.8525 14.3276C14.519 11.4411 22.1844 8.27258 25.7682 10.3533C29.3521 12.434 30.2887 18.9204 26.8172 22.021C23.3457 25.1216 20.3307 24.2835 16.9321 22.3271C13.5335 20.3708 11.1859 17.214 12.8525 14.3276Z" fill="#15C3A9"/>
<defs>
<linearGradient id="paint0_linear_275_64482" x1="13.2989" y1="6.65773" x2="23.3204" y2="29.8733" gradientUnits="userSpaceOnUse">
<stop stop-color="#41A7D7"/>
<stop offset="1" stop-color="#41A7D7" stop-opacity="0"/>
</linearGradient>
</defs>
</svg>
