<svg width="28" height="28" viewBox="0 0 28 28" fill="none" xmlns="http://www.w3.org/2000/svg">
<g clip-path="url(#clip0_275_64476)">
<path d="M10 1H3C2.46957 1 1.96086 1.21071 1.58579 1.58579C1.21071 1.96086 1 2.46957 1 3V10C1 10.5304 1.21071 11.0391 1.58579 11.4142C1.96086 11.7893 2.46957 12 3 12H10C10.5304 12 11.0391 11.7893 11.4142 11.4142C11.7893 11.0391 12 10.5304 12 10V3C12 2.46957 11.7893 1.96086 11.4142 1.58579C11.0391 1.21071 10.5304 1 10 1ZM25 16H18C17.4696 16 16.9609 16.2107 16.5858 16.5858C16.2107 16.9609 16 17.4696 16 18V25C16 25.5304 16.2107 26.0391 16.5858 26.4142C16.9609 26.7893 17.4696 27 18 27H25C25.5304 27 26.0391 26.7893 26.4142 26.4142C26.7893 26.0391 27 25.5304 27 25V18C27 17.4696 26.7893 16.9609 26.4142 16.5858C26.0391 16.2107 25.5304 16 25 16ZM10 16H3C2.46957 16 1.96086 16.2107 1.58579 16.5858C1.21071 16.9609 1 17.4696 1 18V25C1 25.5304 1.21071 26.0391 1.58579 26.4142C1.96086 26.7893 2.46957 27 3 27H10C10.5304 27 11.0391 26.7893 11.4142 26.4142C11.7893 26.0391 12 25.5304 12 25V18C12 17.4696 11.7893 16.9609 11.4142 16.5858C11.0391 16.2107 10.5304 16 10 16Z" stroke="#195BD7" stroke-width="2" stroke-linecap="round" stroke-linejoin="round"/>
<path d="M21.5 12V1M16 6.5H27" stroke="#15C3A9" stroke-width="2" stroke-linecap="round" stroke-linejoin="round"/>
</g>
<defs>
<clipPath id="clip0_275_64476">
<rect width="28" height="28" fill="white"/>
</clipPath>
</defs>
</svg>
