<svg width="32" height="32" viewBox="0 0 32 32" fill="none" xmlns="http://www.w3.org/2000/svg">
<path d="M22.9 23C21.7476 23 20.8039 23.0199 20.0599 23.0461C18.6665 23.0953 17.5 23.8558 17.5 25.25C17.5 26.6461 18.6635 27.4098 20.0589 27.457C20.7896 27.4817 21.7268 27.5 22.9 27.5C24.0732 27.5 25.0104 27.4817 25.7411 27.457C27.1365 27.4098 28.3 26.6461 28.3 25.25C28.3 23.8558 27.1335 23.0953 25.7401 23.0461C24.9961 23.0199 24.0525 23 22.9 23Z" stroke="#195BD7" stroke-width="2" stroke-linecap="round" stroke-linejoin="round"/>
<path d="M24.7001 16.25C24.7001 16.2214 24.6999 16.1931 24.6996 16.1652C24.6805 14.7443 23.3035 14.1235 21.8831 14.079C20.585 14.0384 18.6871 14 16.1501 14C13.6131 14 11.7151 14.0384 10.4171 14.079C8.99669 14.1235 7.61974 14.7443 7.60066 16.1652C7.60029 16.1931 7.6001 16.2214 7.6001 16.25C7.6001 16.2953 7.60057 16.3396 7.6015 16.3831C7.63119 17.7726 8.97784 18.3799 10.367 18.4235C11.6314 18.4632 13.5148 18.5 16.1501 18.5C18.7854 18.5 20.6688 18.4632 21.9332 18.4235C23.3224 18.3799 24.669 17.7726 24.6987 16.3831C24.6996 16.3396 24.7001 16.2953 24.7001 16.25Z" stroke="#195BD7" stroke-width="2" stroke-linecap="round" stroke-linejoin="round"/>
<path d="M9.4 5C8.24756 5 7.30391 5.01986 6.55984 5.04612C5.16652 5.09531 4 5.85581 4 7.25C4 8.64612 5.16351 9.40985 6.55884 9.45701C7.28955 9.4817 8.22681 9.5 9.4 9.5C10.5732 9.5 11.5105 9.4817 12.2411 9.45701C13.6365 9.40985 14.8 8.64612 14.8 7.25C14.8 5.85581 13.6335 5.09531 12.2401 5.04612C11.4961 5.01986 10.5524 5 9.4 5Z" stroke="#15C3A9" stroke-width="2" stroke-linecap="round" stroke-linejoin="round"/>
</svg>
