<svg width="30" height="26" viewBox="0 0 30 26" fill="none" xmlns="http://www.w3.org/2000/svg">
<path d="M1.66663 21.7481V20.4607C1.66663 18.0707 2.64996 15.7786 4.4003 14.0886C6.15064 12.3986 8.52461 11.4492 11 11.4492" stroke="#195BD7" stroke-width="2" stroke-linecap="round" stroke-linejoin="round"/>
<path d="M20.072 11.8507C20.2744 11.6368 20.5207 11.466 20.7952 11.3491C21.0698 11.2322 21.3666 11.1719 21.6666 11.1719C21.9667 11.1719 22.2635 11.2322 22.538 11.3491C22.8126 11.466 23.0589 11.6368 23.2613 11.8507C23.6946 12.309 24.3146 12.5575 24.9573 12.5279C25.2572 12.5147 25.5566 12.562 25.8365 12.6668C26.1164 12.7716 26.3706 12.9316 26.5829 13.1365C26.7952 13.3415 26.9609 13.5869 27.0694 13.8572C27.1779 14.1274 27.227 14.4165 27.2133 14.7061C27.1826 15.3253 27.44 15.9252 27.9146 16.3436C28.8546 17.1701 28.8546 18.5964 27.9146 19.4229C27.44 19.8413 27.1826 20.4399 27.2133 21.0605C27.227 21.35 27.1779 21.6391 27.0694 21.9094C26.9609 22.1796 26.7952 22.425 26.5829 22.63C26.3706 22.8349 26.1164 22.9949 25.8365 23.0997C25.5566 23.2045 25.2572 23.2518 24.9573 23.2387C24.6405 23.2244 24.3242 23.2776 24.0311 23.3947C23.738 23.5117 23.4752 23.6896 23.2613 23.9158C23.0589 24.1297 22.8126 24.3005 22.538 24.4174C22.2635 24.5343 21.9667 24.5946 21.6666 24.5946C21.3666 24.5946 21.0698 24.5343 20.7952 24.4174C20.5207 24.3005 20.2744 24.1297 20.072 23.9158C19.8581 23.6896 19.5953 23.5117 19.3022 23.3947C19.009 23.2776 18.6928 23.2244 18.376 23.2387C18.0761 23.2518 17.7766 23.2045 17.4967 23.0997C17.2169 22.9949 16.9627 22.8349 16.7504 22.63C16.5381 22.425 16.3724 22.1796 16.2639 21.9094C16.1553 21.6391 16.1063 21.35 16.12 21.0605C16.1346 20.7544 16.0792 20.4491 15.9578 20.166C15.8363 19.883 15.6518 19.6293 15.4173 19.4229C15.1958 19.2275 15.0189 18.9897 14.8978 18.7246C14.7768 18.4595 14.7142 18.173 14.7142 17.8833C14.7142 17.5935 14.7768 17.307 14.8978 17.0419C15.0189 16.7768 15.1958 16.539 15.4173 16.3436C15.8933 15.9252 16.1506 15.3266 16.12 14.7061C16.1063 14.4165 16.1553 14.1274 16.2639 13.8572C16.3724 13.5869 16.5381 13.3415 16.7504 13.1365C16.9627 12.9316 17.2169 12.7716 17.4967 12.6668C17.7766 12.562 18.0761 12.5147 18.376 12.5279C19.0173 12.5575 19.6386 12.309 20.072 11.8494V11.8507Z" stroke="#15C3A9" stroke-width="2" stroke-linecap="round" stroke-linejoin="round"/>
<path d="M11 11.4473C12.4144 11.4473 13.771 10.9048 14.7712 9.93906C15.7714 8.97335 16.3333 7.66358 16.3333 6.29786C16.3333 4.93215 15.7714 3.62237 14.7712 2.65667C13.771 1.69096 12.4144 1.14844 11 1.14844C9.58547 1.14844 8.22892 1.69096 7.22872 2.65667C6.22853 3.62237 5.66663 4.93215 5.66663 6.29786C5.66663 7.66358 6.22853 8.97335 7.22872 9.93906C8.22892 10.9048 9.58547 11.4473 11 11.4473Z" stroke="#195BD7" stroke-width="2" stroke-linecap="round" stroke-linejoin="round"/>
<path d="M19.485 17.8837L20.9383 19.2869L23.8477 16.4805" stroke="#15C3A9" stroke-width="2" stroke-linecap="round" stroke-linejoin="round"/>
</svg>
