<svg width="32" height="32" viewBox="0 0 32 32" fill="none" xmlns="http://www.w3.org/2000/svg">
<path d="M8.83511 27.9916C8.12163 27.9667 7.44289 27.7885 6.79889 27.4571C6.15593 27.1268 5.54822 26.6427 4.97578 26.0049C4.0383 24.9799 3.30822 23.7193 2.78556 22.2231C2.26185 20.727 2 19.173 2 17.5611C2 15.6817 2.36348 13.9175 3.09044 12.2687C3.81741 10.6198 4.81607 9.18409 6.08644 7.96142C7.35681 6.73876 8.84341 5.77311 10.5462 5.06447C12.249 4.35582 14.067 4.001 16 4C17.933 3.999 19.751 4.35532 21.4538 5.06896C23.1566 5.78259 24.638 6.74775 25.898 7.96442C27.158 9.18109 28.1567 10.6134 28.894 12.2612C29.6313 13.909 30 15.6667 30 17.5341C30 19.148 29.7304 20.6996 29.1911 22.1887C28.6519 23.6779 27.9062 24.9584 26.9542 26.0304C26.3486 26.6901 25.7284 27.1817 25.0938 27.505C24.4601 27.8284 23.7881 27.9901 23.0778 27.9901C22.7107 27.9901 22.3539 27.9482 22.0076 27.8644C21.6601 27.7815 21.3127 27.6568 20.9653 27.4901L18.7876 26.4421C18.3572 26.2345 17.9024 26.0788 17.4233 25.975C16.9432 25.8712 16.4589 25.8193 15.9704 25.8193C15.4623 25.8193 14.9733 25.8712 14.5036 25.975C14.0338 26.0788 13.593 26.2345 13.1813 26.4421L11.0347 27.4901C10.6613 27.6817 10.2999 27.8189 9.95044 27.9018C9.59993 27.9856 9.22815 28.0166 8.83511 27.9916ZM8.88333 26.493C9.11667 26.493 9.35674 26.468 9.60356 26.4181C9.85037 26.3682 10.0899 26.2809 10.3222 26.1561L12.5 25.1081C13.0444 24.8337 13.6086 24.634 14.1924 24.5093C14.7763 24.3845 15.3659 24.3221 15.9611 24.3221C16.5564 24.3221 17.1527 24.3845 17.75 24.5093C18.3473 24.634 18.9177 24.8337 19.4611 25.1081L21.6778 26.1561C21.9111 26.2809 22.1444 26.3682 22.3778 26.4181C22.6111 26.468 22.8444 26.493 23.0778 26.493C23.5704 26.493 24.0422 26.3682 24.4933 26.1187C24.9434 25.8692 25.3893 25.4949 25.8311 24.9958C26.6607 24.0477 27.3037 22.9123 27.76 21.5899C28.2163 20.2674 28.4444 18.898 28.4444 17.4817C28.4444 14.1381 27.2389 11.3045 24.8278 8.98097C22.4167 6.65742 19.4741 5.49614 16 5.49714C12.5259 5.49814 9.58333 6.67089 7.17222 9.01541C4.76111 11.3599 3.55556 14.2045 3.55556 17.5491C3.55556 18.9714 3.8003 20.3562 4.28978 21.7036C4.77926 23.0511 5.44193 24.1864 6.27778 25.1096C6.71852 25.6087 7.1463 25.9645 7.56111 26.1771C7.97593 26.3897 8.41667 26.494 8.88333 26.493Z" fill="#195BD7" stroke="#195BD7" stroke-width="0.7" stroke-linecap="round" stroke-linejoin="round"/>
<path d="M17.6491 19.318C17.2062 19.7727 16.661 20 16.0135 20C15.3671 19.999 14.8219 19.7716 14.378 19.318C13.934 18.8644 13.7121 18.306 13.7121 17.6429C13.7121 16.9797 13.934 16.4213 14.378 15.9677C14.8209 15.513 15.3661 15.2857 16.0135 15.2857C16.124 15.2857 16.2422 15.2972 16.368 15.3203C16.4938 15.3433 16.6119 15.3753 16.7224 15.4161L19.5639 11.6479C19.028 11.3074 18.4587 11.0429 17.8563 10.8543C17.2538 10.6657 16.6395 10.5714 16.0135 10.5714C14.5283 10.5714 13.1884 11.0051 11.9937 11.8726C10.7989 12.74 9.97349 13.8877 9.51729 15.3156C9.44773 15.5125 9.34903 15.6828 9.22117 15.8263C9.09331 15.9698 8.93323 16.0416 8.74093 16.0416C8.48419 16.0395 8.28268 15.9206 8.13641 15.6849C7.99014 15.4491 7.9615 15.1872 8.05049 14.8991C8.62023 13.1402 9.63645 11.7175 11.0992 10.6311C12.5619 9.54371 14.2 9 16.0135 9C17.821 9 19.453 9.54371 20.9095 10.6311C22.364 11.7175 23.3767 13.1402 23.9475 14.8991C24.0364 15.1872 24.0124 15.4497 23.8753 15.6864C23.7393 15.9232 23.5332 16.0416 23.257 16.0416C23.0647 16.0416 22.8995 15.9698 22.7614 15.8263C22.6244 15.6838 22.5211 15.5136 22.4515 15.3156C22.3042 14.797 22.0868 14.3125 21.7994 13.862C21.512 13.4115 21.1688 12.9925 20.7699 12.6049L17.9376 16.3559C18.0532 16.5444 18.1452 16.7487 18.2137 16.9687C18.2813 17.1877 18.315 17.4124 18.315 17.6429C18.315 18.306 18.093 18.8644 17.6491 19.318Z" fill="#15C3A9" stroke="#15C3A9" stroke-width="0.7" stroke-linecap="round" stroke-linejoin="round"/>
</svg>
