<svg width="37" height="36" viewBox="0 0 37 36" fill="none" xmlns="http://www.w3.org/2000/svg">
<path fill-rule="evenodd" clip-rule="evenodd" d="M27.6688 6.90253L25.5988 4.83003C25.0196 4.24792 24.3307 3.78645 23.572 3.47233C22.8133 3.15821 21.9999 2.99768 21.1788 3.00003H13.25C11.593 3.00201 10.0044 3.66113 8.83277 4.8328C7.6611 6.00447 7.00198 7.59303 7 9.25003V19.75H9.5V9.25003C9.5 8.25546 9.89509 7.30164 10.5983 6.59838C11.3016 5.89511 12.2554 5.50003 13.25 5.50003H20.75V9.25003C20.75 9.91307 21.0134 10.549 21.4822 11.0178C21.9511 11.4866 22.587 11.75 23.25 11.75H27V26.75C27 27.7446 26.6049 28.6984 25.9017 29.4017C25.1984 30.1049 24.2446 30.5 23.25 30.5H15.25C15.25 30.5 14.9143 31.4928 14.5 32C14.1045 32.4841 13.25 33 13.25 33H23.25C24.907 32.998 26.4956 32.3389 27.6672 31.1673C28.8389 29.9956 29.498 28.407 29.5 26.75V11.3213C29.502 10.5003 29.3412 9.68699 29.0269 8.92852C28.7125 8.17005 28.2509 7.48144 27.6688 6.90253ZM26.375 9.25C26.2373 9.041 26.0786 8.84665 25.9013 8.67L23.8313 6.6C23.6533 6.42323 23.4587 6.26415 23.25 6.125V9.25H26.375Z" fill="#195BD7"/>
<path d="M25.5988 4.83003L25.4215 5.00635L25.4219 5.0067L25.5988 4.83003ZM27.6688 6.90253L27.4919 7.0792L27.4925 7.0798L27.6688 6.90253ZM21.1788 3.00003V3.25003L21.1795 3.25002L21.1788 3.00003ZM13.25 3.00003V2.75003L13.2497 2.75003L13.25 3.00003ZM8.83277 4.8328L8.656 4.65602L8.83277 4.8328ZM7 9.25003L6.75 9.24973V9.25003H7ZM7 19.75H6.75C6.75 19.8881 6.86193 20 7 20V19.75ZM9.5 19.75V20C9.63807 20 9.75 19.8881 9.75 19.75H9.5ZM20.75 5.50003H21C21 5.36195 20.8881 5.25003 20.75 5.25003V5.50003ZM21.4822 11.0178L21.3055 11.1946L21.4822 11.0178ZM27 11.75H27.25C27.25 11.612 27.1381 11.5 27 11.5V11.75ZM15.25 30.5V30.25C15.1428 30.25 15.0475 30.3184 15.0132 30.42L15.25 30.5ZM14.5 32L14.6936 32.1582L14.5 32ZM13.25 33L13.1208 32.786C13.0247 32.844 12.9791 32.959 13.0092 33.0671C13.0393 33.1752 13.1378 33.25 13.25 33.25V33ZM23.25 33V33.25H23.2503L23.25 33ZM29.5 26.75L29.75 26.7503V26.75H29.5ZM29.5 11.3213L29.25 11.3207V11.3213H29.5ZM25.9013 8.67L25.7245 8.84678L25.7248 8.8471L25.9013 8.67ZM26.375 9.25V9.5C26.467 9.5 26.5515 9.44952 26.5951 9.36856C26.6387 9.28761 26.6344 9.18925 26.5838 9.11246L26.375 9.25ZM23.8313 6.6L24.008 6.42322L24.0075 6.42265L23.8313 6.6ZM23.25 6.125L23.3887 5.91701C23.312 5.86585 23.2133 5.86107 23.132 5.90457C23.0508 5.94808 23 6.0328 23 6.125H23.25ZM23.25 9.25H23C23 9.38807 23.1119 9.5 23.25 9.5V9.25ZM25.4219 5.0067L27.4919 7.0792L27.8456 6.72586L25.7756 4.65336L25.4219 5.0067ZM23.4764 3.70332C24.2045 4.00479 24.8657 4.44768 25.4215 5.00635L25.776 4.6537C25.1735 4.04815 24.4569 3.56811 23.6677 3.24135L23.4764 3.70332ZM21.1795 3.25002C21.9676 3.24777 22.7483 3.40184 23.4764 3.70332L23.6677 3.24135C22.8784 2.91458 22.0322 2.74759 21.178 2.75003L21.1795 3.25002ZM13.25 3.25003H21.1788V2.75003H13.25V3.25003ZM9.00955 5.00958C10.1344 3.88472 11.6595 3.25193 13.2503 3.25003L13.2497 2.75003C11.5265 2.75209 9.87448 3.43754 8.656 4.65602L9.00955 5.00958ZM7.25 9.25033C7.25191 7.65953 7.88469 6.13444 9.00955 5.00958L8.656 4.65602C7.43751 5.87451 6.75206 7.52653 6.75 9.24973L7.25 9.25033ZM7.25 19.75V9.25003H6.75V19.75H7.25ZM9.5 19.5H7V20H9.5V19.5ZM9.25 9.25003V19.75H9.75V9.25003H9.25ZM10.4216 6.4216C9.67143 7.17174 9.25 8.18916 9.25 9.25003H9.75C9.75 8.32177 10.1187 7.43153 10.7751 6.77515L10.4216 6.4216ZM13.25 5.25003C12.1891 5.25003 11.1717 5.67145 10.4216 6.4216L10.7751 6.77515C11.4315 6.11877 12.3217 5.75003 13.25 5.75003V5.25003ZM20.75 5.25003H13.25V5.75003H20.75V5.25003ZM21 9.25003V5.50003H20.5V9.25003H21ZM21.659 10.841C21.2371 10.4191 21 9.84676 21 9.25003H20.5C20.5 9.97937 20.7897 10.6788 21.3055 11.1946L21.659 10.841ZM23.25 11.5C22.6533 11.5 22.081 11.263 21.659 10.841L21.3055 11.1946C21.8212 11.7103 22.5207 12 23.25 12V11.5ZM27 11.5H23.25V12H27V11.5ZM27.25 26.75V11.75H26.75V26.75H27.25ZM26.0784 29.5785C26.8286 28.8283 27.25 27.8109 27.25 26.75H26.75C26.75 27.6783 26.3813 28.5685 25.7249 29.2249L26.0784 29.5785ZM23.25 30.75C24.3109 30.75 25.3283 30.3286 26.0784 29.5785L25.7249 29.2249C25.0685 29.8813 24.1783 30.25 23.25 30.25V30.75ZM15.25 30.75H23.25V30.25H15.25V30.75ZM14.6936 32.1582C14.9237 31.8765 15.1223 31.4747 15.2596 31.1596C15.3295 30.999 15.386 30.855 15.4251 30.751C15.4447 30.6989 15.4599 30.6567 15.4704 30.6273C15.4756 30.6126 15.4796 30.6011 15.4824 30.5931C15.4838 30.5891 15.4848 30.586 15.4856 30.5838C15.4859 30.5827 15.4862 30.5819 15.4864 30.5812C15.4865 30.5809 15.4866 30.5807 15.4867 30.5805C15.4867 30.5804 15.4868 30.5803 15.4868 30.5803C15.4868 30.5802 15.4868 30.5802 15.4868 30.5802C15.4868 30.5801 15.4868 30.5801 15.25 30.5C15.0132 30.42 15.0132 30.4199 15.0132 30.4199C15.0132 30.4199 15.0132 30.4199 15.0132 30.4199C15.0132 30.4199 15.0132 30.4199 15.0132 30.4199C15.0132 30.42 15.0131 30.4201 15.0131 30.4203C15.0129 30.4206 15.0128 30.4212 15.0125 30.422C15.0119 30.4236 15.0111 30.4261 15.0099 30.4295C15.0075 30.4363 15.0039 30.4466 14.9992 30.46C14.9896 30.4869 14.9754 30.5262 14.957 30.5752C14.9202 30.6732 14.8669 30.809 14.8012 30.96C14.667 31.2681 14.4906 31.6163 14.3064 31.8418L14.6936 32.1582ZM13.25 33C13.3792 33.2141 13.3792 33.214 13.3793 33.214C13.3793 33.214 13.3793 33.214 13.3793 33.214C13.3794 33.2139 13.3795 33.2139 13.3795 33.2138C13.3797 33.2138 13.3799 33.2136 13.3802 33.2135C13.3807 33.2131 13.3815 33.2127 13.3824 33.2121C13.3843 33.211 13.3869 33.2093 13.3904 33.2072C13.3972 33.203 13.4071 33.1969 13.4198 33.1891C13.445 33.1733 13.4812 33.1505 13.5257 33.1216C13.6145 33.064 13.7372 32.9821 13.8728 32.8844C14.1389 32.6928 14.474 32.427 14.6936 32.1582L14.3064 31.8418C14.1305 32.0571 13.8406 32.2914 13.5806 32.4787C13.4531 32.5705 13.3374 32.6478 13.2537 32.7021C13.2119 32.7292 13.1782 32.7504 13.1552 32.7648C13.1437 32.772 13.1349 32.7774 13.129 32.781C13.1261 32.7828 13.1239 32.7841 13.1225 32.7849C13.1218 32.7854 13.1213 32.7857 13.1211 32.7858C13.1209 32.7859 13.1208 32.786 13.1208 32.786C13.1207 32.786 13.1207 32.786 13.1207 32.786C13.1207 32.786 13.1208 32.786 13.1208 32.786C13.1208 32.786 13.1208 32.786 13.25 33ZM23.25 32.75H13.25V33.25H23.25V32.75ZM27.4904 30.9905C26.3656 32.1153 24.8405 32.7481 23.2497 32.75L23.2503 33.25C24.9735 33.248 26.6255 32.5625 27.844 31.344L27.4904 30.9905ZM29.25 26.7497C29.2481 28.3405 28.6153 29.8656 27.4904 30.9905L27.844 31.344C29.0625 30.1255 29.7479 28.4735 29.75 26.7503L29.25 26.7497ZM29.25 11.3213V26.75H29.75V11.3213H29.25ZM28.7959 9.02423C29.0976 9.75216 29.2519 10.5327 29.25 11.3207L29.75 11.3219C29.7521 10.4678 29.5848 9.62181 29.2578 8.8328L28.7959 9.02423ZM27.4925 7.0798C28.0512 7.63541 28.4942 8.29629 28.7959 9.02423L29.2578 8.8328C28.9308 8.0438 28.4507 7.32747 27.845 6.72525L27.4925 7.0798ZM25.7248 8.8471C25.89 9.0117 26.0379 9.1928 26.1662 9.38754L26.5838 9.11246C26.4367 8.8892 26.2671 8.68159 26.0777 8.4929L25.7248 8.8471ZM23.6545 6.77678L25.7245 8.84678L26.078 8.49322L24.008 6.42322L23.6545 6.77678ZM23.1113 6.33299C23.3065 6.46317 23.4886 6.61198 23.655 6.77735L24.0075 6.42265C23.8181 6.23448 23.6108 6.06513 23.3887 5.91701L23.1113 6.33299ZM23.5 9.25V6.125H23V9.25H23.5ZM26.375 9H23.25V9.5H26.375V9Z" fill="#F2F6FF"/>
<path d="M24.1339 13.3661C23.8995 13.1317 23.5815 13 23.25 13H13.25C12.9185 13 12.6005 13.1317 12.3661 13.3661C12.1317 13.6005 12 13.9185 12 14.25C12 14.5815 12.1317 14.8995 12.3661 15.1339C12.6005 15.3683 12.9185 15.5 13.25 15.5H23.25C23.5815 15.5 23.8995 15.3683 24.1339 15.1339C24.3683 14.8995 24.5 14.5815 24.5 14.25C24.5 13.9185 24.3683 13.6005 24.1339 13.3661Z" fill="#15C3A9" stroke="#F2F6FF" stroke-width="0.5" stroke-linecap="round" stroke-linejoin="round"/>
<path d="M24.1339 18.3661C23.8995 18.1317 23.5815 18 23.25 18H17.25V20.5H23.25C23.5815 20.5 23.8995 20.3683 24.1339 20.1339C24.3683 19.8995 24.5 19.5815 24.5 19.25C24.5 18.9185 24.3683 18.6005 24.1339 18.3661Z" fill="#15C3A9" stroke="#F2F6FF" stroke-width="0.5" stroke-linecap="round" stroke-linejoin="round"/>
<path d="M14.5289 20.9628C14.3554 20.794 14.1201 20.6992 13.8748 20.6992C13.6295 20.6992 13.3942 20.794 13.2207 20.9628C13.0473 21.1316 12.9498 21.3605 12.9498 21.5992V21.8728C11.8918 21.2787 10.6618 21.0407 9.45062 21.196C8.23945 21.3512 7.11476 21.8909 6.25095 22.7314C6.08918 22.9022 6.00152 23.1272 6.0063 23.3594C6.01107 23.5916 6.10791 23.813 6.27657 23.9773C6.44524 24.1417 6.67266 24.2362 6.9113 24.2412C7.14994 24.2462 7.38131 24.1612 7.55705 24.004C7.90843 23.6619 8.32706 23.3922 8.78795 23.2109C9.24883 23.0297 9.74253 22.9407 10.2396 22.9492C10.8441 22.9598 11.4367 23.1143 11.9656 23.3992H11.0998C10.8545 23.3992 10.6192 23.494 10.4457 23.6628C10.2723 23.8316 10.1748 24.0605 10.1748 24.2992C10.1748 24.5379 10.2723 24.7668 10.4457 24.9356C10.6192 25.1044 10.8545 25.1992 11.0998 25.1992H13.8748C14.1201 25.1992 14.3554 25.1044 14.5289 24.9356C14.7023 24.7668 14.7998 24.5379 14.7998 24.2992V21.5992C14.7998 21.3605 14.7023 21.1316 14.5289 20.9628Z" fill="#15C3A9"/>
<path d="M9.78771 31.0365C10.6288 31.0939 11.4724 30.964 12.2542 30.6568C12.9447 30.3852 13.572 29.9794 14.0987 29.467C14.2604 29.2963 14.3481 29.0712 14.3433 28.8391C14.3385 28.6069 14.2417 28.3854 14.073 28.2211C13.9044 28.0568 13.6769 27.9622 13.4383 27.9573C13.1997 27.9523 12.9683 28.0373 12.7926 28.1944C12.4412 28.5365 12.0226 28.8063 11.5617 28.9875C11.1008 29.1687 10.6071 29.2577 10.1101 29.2492C9.50556 29.2387 8.91293 29.0842 8.384 28.7992H9.2498C9.49513 28.7992 9.73041 28.7044 9.90388 28.5356C10.0773 28.3668 10.1748 28.1379 10.1748 27.8992C10.1748 27.6605 10.0773 27.4316 9.90388 27.2628C9.73041 27.094 9.49513 26.9992 9.2498 26.9992H6.4748C6.22948 26.9992 5.9942 27.094 5.82073 27.2628C5.64726 27.4316 5.5498 27.6605 5.5498 27.8992V30.5992C5.5498 30.8379 5.64726 31.0668 5.82073 31.2356C5.9942 31.4044 6.22948 31.4992 6.4748 31.4992C6.72013 31.4992 6.95541 31.4044 7.12888 31.2356C7.30235 31.0668 7.3998 30.8379 7.3998 30.5992V30.3256C8.12994 30.736 8.94657 30.9791 9.78771 31.0365Z" fill="#15C3A9"/>
</svg>
