<svg width="32" height="32" viewBox="0 0 32 32" fill="none" xmlns="http://www.w3.org/2000/svg">
<path d="M27.924 22.4493C27.1932 18.0873 25.1047 14.0671 21.956 10.9613C21.2666 10.2906 20.9226 9.95594 20.1613 9.6466C19.4 9.33594 18.7453 9.33594 17.4373 9.33594H14.5626C13.2546 9.33594 12.6 9.33594 11.8386 9.6466C11.0786 9.95594 10.732 10.2906 10.044 10.9613C6.89525 14.0671 4.80677 18.0873 4.07597 22.4493C3.42664 26.3666 7.03997 29.3359 11.0773 29.3359H20.9226C24.9613 29.3359 28.576 26.3666 27.9226 22.4493" stroke="#195BD7" stroke-width="2" stroke-linecap="round" stroke-linejoin="round"/>
<path d="M9.67592 5.9253C9.39992 5.5253 9.00125 4.9813 9.82525 4.85864C10.6719 4.73064 11.5506 5.3093 12.4119 5.29864C13.1893 5.28664 13.5853 4.9413 14.0119 4.44797C14.4599 3.9293 15.1533 2.66797 15.9999 2.66797C16.8466 2.66797 17.5399 3.9293 17.9879 4.44797C18.4146 4.9413 18.8106 5.28797 19.5879 5.2973C20.4493 5.31064 21.3279 4.73064 22.1746 4.8573C22.9986 4.9813 22.5999 5.52397 22.3239 5.92397L21.0813 7.73597C20.5479 8.5093 20.2826 8.89597 19.7253 9.11597C19.1679 9.33597 18.4493 9.33463 17.0106 9.33463H14.9893C13.5493 9.33463 12.8306 9.33463 12.2746 9.11597C11.7186 8.8973 11.4519 8.50797 10.9186 7.73464L9.67592 5.9253Z" stroke="#195BD7" stroke-width="2" stroke-linecap="round" stroke-linejoin="round"/>
<path d="M18.1689 17.2256C17.8809 16.1602 16.4129 15.2003 14.6516 15.9189C12.8902 16.6376 12.6116 18.9482 15.2742 19.1949C16.4796 19.3056 17.2636 19.0656 17.9822 19.7442C18.7022 20.4216 18.8356 22.3082 16.9969 22.8162C15.1609 23.3242 13.3409 22.5309 13.1436 21.4029M15.7889 14.6562V15.6709M15.7889 22.9722V23.9909" stroke="#15C3A9" stroke-width="2" stroke-linecap="round" stroke-linejoin="round"/>
</svg>
