<svg width="32" height="32" viewBox="0 0 32 32" fill="none" xmlns="http://www.w3.org/2000/svg">
<path d="M11 9C11 7.67392 11.5268 6.40215 12.4645 5.46447C13.4021 4.52678 14.6739 4 16 4C17.3261 4 18.5979 4.52678 19.5355 5.46447C20.4732 6.40215 21 7.67392 21 9C21 10.3261 20.4732 11.5979 19.5355 12.5355C18.5979 13.4732 17.3261 14 16 14C14.6739 14 13.4021 13.4732 12.4645 12.5355C11.5268 11.5979 11 10.3261 11 9Z" stroke="#195BD7" stroke-width="2" stroke-linecap="round" stroke-linejoin="round"/>
<path d="M16 17C21.256 17 26.6493 20.4187 26.9986 27.2827C27.012 27.5475 26.9197 27.8069 26.7419 28.0037C26.5641 28.2004 26.3155 28.3186 26.0506 28.332C23.2786 28.4733 10.4346 28.56 5.94795 28.332C5.68333 28.3182 5.435 28.2 5.25751 28.0032C5.08001 27.8065 4.98786 27.5473 5.00129 27.2827C5.35062 20.4173 10.744 17 16 17Z" stroke="#195BD7" stroke-width="2" stroke-linecap="round" stroke-linejoin="round"/>
<path d="M19.3097 20.8405C19.2674 20.5787 19.1229 20.3445 18.9079 20.1892C18.6929 20.034 18.425 19.9705 18.1632 20.0128C17.9015 20.055 17.6672 20.1995 17.5119 20.4145L15.2279 23.5759L14.4306 22.6639C14.2559 22.4642 14.0091 22.3422 13.7444 22.3246C13.4797 22.3069 13.2189 22.3952 13.0192 22.5699C12.8196 22.7446 12.6976 22.9914 12.6799 23.2561C12.6623 23.5207 12.7506 23.7816 12.9252 23.9812L14.3039 25.5572C14.4326 25.704 14.5928 25.8199 14.7724 25.8962C14.9521 25.9726 15.1467 26.0074 15.3417 25.9982C15.5367 25.989 15.7271 25.9359 15.8988 25.8429C16.0705 25.75 16.219 25.6195 16.3332 25.4612L19.1332 21.5852C19.2885 21.3702 19.3519 21.1023 19.3097 20.8405Z" fill="#15C3A9"/>
</svg>
