<svg width="32" height="32" viewBox="0 0 32 32" fill="none" xmlns="http://www.w3.org/2000/svg">
<path fill-rule="evenodd" clip-rule="evenodd" d="M15.2609 1.20096C15.4856 1.06931 15.7405 1 16 1C16.2595 1 16.5144 1.06931 16.7391 1.20096L19.6957 2.93347C20.0325 3.13379 20.2775 3.46115 20.3772 3.84409C20.477 4.22704 20.4235 4.63448 20.2283 4.97751C20.0331 5.32054 19.7121 5.57131 19.3354 5.6751C18.9587 5.77888 18.5568 5.72725 18.2174 5.53147L17.4783 5.09797V6.99998C17.4783 7.3978 17.3225 7.77933 17.0453 8.06064C16.7681 8.34194 16.3921 8.49998 16 8.49998C15.6079 8.49998 15.2319 8.34194 14.9547 8.06064C14.6775 7.77933 14.5217 7.3978 14.5217 6.99998V5.09797L13.7826 5.53147C13.4432 5.72725 13.0413 5.77888 12.6646 5.6751C12.2879 5.57131 11.9669 5.32054 11.7717 4.97751C11.5765 4.63448 11.523 4.22704 11.6228 3.84409C11.7225 3.46115 11.9675 3.13379 12.3043 2.93347L15.2609 1.20096ZM8.71503 6.76748C8.91106 7.11199 8.96418 7.52142 8.86271 7.90568C8.76125 8.28994 8.5135 8.61756 8.17398 8.81648L7.43484 9.24998L9.05799 10.201C9.22747 10.2988 9.37622 10.4296 9.49566 10.5859C9.61511 10.7423 9.7029 10.921 9.75398 11.1119C9.80506 11.3029 9.81842 11.5021 9.79329 11.6983C9.76817 11.8945 9.70505 12.0837 9.60756 12.255C9.51009 12.4263 9.38017 12.5764 9.22531 12.6965C9.07044 12.8167 8.89368 12.9046 8.7052 12.9551C8.51672 13.0057 8.32024 13.0179 8.12708 12.9911C7.93393 12.9643 7.7479 12.899 7.57971 12.799L5.95656 11.848V12.7135C5.95656 13.1113 5.80081 13.4928 5.52358 13.7742C5.24635 14.0555 4.87034 14.2135 4.47828 14.2135C4.08622 14.2135 3.71021 14.0555 3.43298 13.7742C3.15575 13.4928 3 13.1113 3 12.7135V9.24998C3.00027 8.98694 3.0687 8.72859 3.19843 8.50085C3.32816 8.27312 3.51464 8.084 3.73914 7.95248L6.6957 6.21997C7.03523 6.02107 7.43872 5.96717 7.81742 6.07013C8.19611 6.17308 8.51899 6.42447 8.71503 6.76898V6.76748ZM23.285 6.76748C23.481 6.42297 23.8039 6.17158 24.1826 6.06863C24.5613 5.96567 24.9648 6.01957 25.3043 6.21847L28.2609 7.95098C28.4856 8.08263 28.6722 8.27198 28.8019 8.5C28.9317 8.72802 29 8.98668 29 9.24998V12.715C29 13.1128 28.8443 13.4943 28.567 13.7757C28.2898 14.057 27.9138 14.215 27.5217 14.215C27.1297 14.215 26.7536 14.057 26.4764 13.7757C26.1992 13.4943 26.0434 13.1128 26.0434 12.715V11.848L24.4203 12.799C24.0809 12.9948 23.679 13.0464 23.3023 12.9426C22.9256 12.8388 22.6046 12.5881 22.4094 12.245C22.2142 11.902 22.1607 11.4946 22.2605 11.1116C22.3602 10.7287 22.6052 10.4013 22.942 10.201L24.5652 9.24998L23.826 8.81648C23.4865 8.61756 23.2388 8.28994 23.1373 7.90568C23.0358 7.52142 23.0889 7.11199 23.285 6.76748ZM4.47828 17.785C4.87034 17.785 5.24635 17.943 5.52358 18.2243C5.80081 18.5056 5.95656 18.8872 5.95656 19.285V20.152L7.57971 19.201C7.91906 19.0052 8.32096 18.9536 8.69768 19.0574C9.07441 19.1612 9.39539 19.4119 9.59058 19.755C9.78577 20.098 9.83931 20.5054 9.73954 20.8884C9.63976 21.2713 9.39476 21.5987 9.05799 21.799L7.43484 22.75L8.17398 23.1835C8.34346 23.2813 8.4922 23.4121 8.61165 23.5685C8.7311 23.7248 8.81889 23.9036 8.86997 24.0945C8.92105 24.2854 8.93441 24.4847 8.90928 24.6808C8.88415 24.877 8.82103 25.0662 8.72355 25.2375C8.62607 25.4088 8.49616 25.5589 8.34129 25.6791C8.18643 25.7992 8.00966 25.8871 7.82118 25.9377C7.6327 25.9882 7.43623 26.0005 7.24307 25.9737C7.04991 25.9469 6.86389 25.8816 6.6957 25.7815L3.73914 24.049C3.51442 23.9174 3.32781 23.728 3.19806 23.5C3.06832 23.272 3.00001 23.0133 3 22.75V19.285C3 18.8872 3.15575 18.5056 3.43298 18.2243C3.71021 17.943 4.08622 17.785 4.47828 17.785ZM27.5217 17.785C27.9138 17.785 28.2898 17.943 28.567 18.2243C28.8443 18.5056 29 18.8872 29 19.285V22.75C29 23.0133 28.9317 23.272 28.8019 23.5C28.6722 23.728 28.4856 23.9174 28.2609 24.049L25.3043 25.7815C25.1361 25.8816 24.9501 25.9469 24.7569 25.9737C24.5638 26.0005 24.3673 25.9882 24.1788 25.9377C23.9903 25.8871 23.8136 25.7992 23.6587 25.6791C23.5038 25.5589 23.3739 25.4088 23.2764 25.2375C23.179 25.0662 23.1158 24.877 23.0907 24.6808C23.0656 24.4847 23.0789 24.2854 23.13 24.0945C23.1811 23.9036 23.2689 23.7248 23.3883 23.5685C23.5078 23.4121 23.6565 23.2813 23.826 23.1835L24.5652 22.75L22.942 21.799C22.7725 21.7012 22.6238 21.5704 22.5043 21.4141C22.3849 21.2577 22.2971 21.079 22.246 20.888C22.1949 20.6971 22.1816 20.4979 22.2067 20.3017C22.2318 20.1055 22.295 19.9163 22.3924 19.745C22.4899 19.5737 22.6198 19.4236 22.7747 19.3035C22.9296 19.1833 23.1063 19.0954 23.2948 19.0449C23.4833 18.9943 23.6798 18.9821 23.8729 19.0089C24.0661 19.0357 24.2521 19.101 24.4203 19.201L26.0434 20.152V19.2865C26.0434 18.8887 26.1992 18.5071 26.4764 18.2258C26.7536 17.9445 27.1297 17.7865 27.5217 17.7865V17.785ZM16 23.5C16.3921 23.5 16.7681 23.6581 17.0453 23.9394C17.3225 24.2207 17.4783 24.6022 17.4783 25V26.902L18.2174 26.4685C18.3856 26.3685 18.5716 26.3032 18.7648 26.2764C18.9579 26.2496 19.1544 26.2618 19.3429 26.3124C19.5314 26.3629 19.7081 26.4508 19.863 26.571C20.0179 26.6912 20.1478 26.8412 20.2453 27.0125C20.3428 27.1839 20.4059 27.373 20.431 27.5692C20.4561 27.7654 20.4428 27.9647 20.3917 28.1556C20.3406 28.3465 20.2528 28.5253 20.1334 28.6816C20.0139 28.8379 19.8652 28.9688 19.6957 29.0665L16.7391 30.799C16.5144 30.9307 16.2595 31 16 31C15.7405 31 15.4856 30.9307 15.2609 30.799L12.3043 29.0665C12.1348 28.9688 11.9861 28.8379 11.8666 28.6816C11.7472 28.5253 11.6594 28.3465 11.6083 28.1556C11.5572 27.9647 11.5439 27.7654 11.569 27.5692C11.5941 27.373 11.6572 27.1839 11.7547 27.0125C11.8522 26.8412 11.9821 26.6912 12.137 26.571C12.2919 26.4508 12.4686 26.3629 12.6571 26.3124C12.8456 26.2618 13.0421 26.2496 13.2352 26.2764C13.4284 26.3032 13.6144 26.3685 13.7826 26.4685L14.5217 26.902V25C14.5217 24.6022 14.6775 24.2207 14.9547 23.9394C15.2319 23.6581 15.6079 23.5 16 23.5Z" fill="#195BD7" stroke="#F2F6FF" stroke-linecap="round" stroke-linejoin="round"/>
<path d="M12.0308 12.0524C11.6745 12.158 11.3708 12.4158 11.1863 12.7692C11.0019 13.1225 10.9519 13.5425 11.0474 13.9366C11.1428 14.3307 11.3759 14.6667 11.6954 14.8707L14.6132 16.7338V20.4615C14.6132 20.8696 14.7597 21.2609 15.0205 21.5494C15.2814 21.8379 15.6351 22 16.004 22C16.3728 22 16.7266 21.8379 16.9874 21.5494C17.2482 21.2609 17.3947 20.8696 17.3947 20.4615V16.7338L20.3126 14.8707C20.6294 14.6653 20.8599 14.3295 20.9538 13.9368C21.0477 13.544 20.9973 13.1261 20.8137 12.7743C20.63 12.4224 20.328 12.1652 19.9736 12.0588C19.6192 11.9524 19.2411 12.0053 18.9218 12.2061L16.004 14.0692L13.0861 12.2061C12.7667 12.0021 12.3871 11.9468 12.0308 12.0524Z" fill="#15C3A9" stroke="#F2F6FF" stroke-linecap="round" stroke-linejoin="round"/>
</svg>
