<svg width="24" height="24" viewBox="0 0 24 24" fill="none" xmlns="http://www.w3.org/2000/svg">
<path d="M9.96003 9.13697L10.846 6.03797C11.178 4.87797 12.822 4.87797 13.154 6.03797L14.039 9.13697C14.0951 9.33301 14.2001 9.51153 14.3443 9.6557C14.4885 9.79988 14.667 9.90493 14.863 9.96097L17.962 10.846C19.122 11.178 19.122 12.822 17.962 13.154L14.863 14.039C14.667 14.095 14.4885 14.2001 14.3443 14.3442C14.2001 14.4884 14.0951 14.6669 14.039 14.863L13.154 17.962C12.822 19.122 11.178 19.122 10.846 17.962L9.96103 14.863C9.905 14.6669 9.79994 14.4884 9.65577 14.3442C9.51159 14.2001 9.33307 14.095 9.13703 14.039L6.03803 13.154C4.87803 12.822 4.87803 11.178 6.03803 10.846L9.13703 9.96097C9.33307 9.90493 9.51159 9.79988 9.65577 9.6557C9.79994 9.51153 9.905 9.33301 9.96103 9.13697" fill="white"/>
<g opacity="0.5">
<path d="M19.896 16.5072C19.608 15.6632 18.393 15.6642 18.104 16.5072L18.079 16.5942L17.782 17.7822L16.594 18.0792C15.634 18.3182 15.634 19.6812 16.594 19.9212L17.782 20.2182L18.079 21.4062C18.319 22.3652 19.682 22.3652 19.922 21.4062L20.218 20.2182L21.406 19.9212C22.366 19.6812 22.366 18.3192 21.406 18.0792L20.218 17.7822L19.922 16.5942L19.896 16.5072Z" fill="white"/>
<path d="M5.92202 2.59322C5.68902 1.66422 4.40202 1.63522 4.10402 2.50622L4.07902 2.59322L3.78202 3.78122L2.59402 4.07822C1.63402 4.31722 1.63402 5.68022 2.59402 5.92022L3.78202 6.21722L4.07902 7.40522C4.31902 8.36422 5.68202 8.36422 5.92202 7.40522L6.21802 6.21722L7.40602 5.92022C8.36602 5.68022 8.36602 4.31822 7.40602 4.07822L6.21802 3.78122L5.92202 2.59322Z" fill="white"/>
</g>
</svg>
