<svg width="39" height="39" viewBox="0 0 39 39" fill="none" xmlns="http://www.w3.org/2000/svg">
<path d="M34.1333 -7.45142e-08L4.26667 -9.31427e-09C1.92 -4.19142e-09 4.19142e-09 1.92 9.31427e-09 4.26667L7.45142e-08 34.1333C7.9637e-08 36.48 1.92 38.4 4.26667 38.4L34.1333 38.4C36.48 38.4 38.4 36.48 38.4 34.1333L38.4 4.26667C38.4 1.92 36.48 -7.9637e-08 34.1333 -7.45142e-08ZM19.2 6.4C23.3173 6.4 26.6667 9.74933 26.6667 13.8667C26.6667 17.984 23.3173 21.3333 19.2 21.3333C15.0827 21.3333 11.7333 17.984 11.7333 13.8667C11.7333 9.74933 15.0827 6.4 19.2 6.4ZM34.1333 34.1333L4.26667 34.1333L4.26667 33.6427C4.26667 32.32 4.864 31.0827 5.888 30.272C9.536 27.3493 14.1653 25.6 19.2 25.6C24.2347 25.6 28.864 27.3493 32.512 30.272C33.536 31.0827 34.1333 32.3413 34.1333 33.6427L34.1333 34.1333Z" fill="black"/>
<path d="M34.1333 -7.45142e-08L4.26667 -9.31427e-09C1.92 -4.19142e-09 4.19142e-09 1.92 9.31427e-09 4.26667L7.45142e-08 34.1333C7.9637e-08 36.48 1.92 38.4 4.26667 38.4L34.1333 38.4C36.48 38.4 38.4 36.48 38.4 34.1333L38.4 4.26667C38.4 1.92 36.48 -7.9637e-08 34.1333 -7.45142e-08ZM19.2 6.4C23.3173 6.4 26.6667 9.74933 26.6667 13.8667C26.6667 17.984 23.3173 21.3333 19.2 21.3333C15.0827 21.3333 11.7333 17.984 11.7333 13.8667C11.7333 9.74933 15.0827 6.4 19.2 6.4ZM34.1333 34.1333L4.26667 34.1333L4.26667 33.6427C4.26667 32.32 4.864 31.0827 5.888 30.272C9.536 27.3493 14.1653 25.6 19.2 25.6C24.2347 25.6 28.864 27.3493 32.512 30.272C33.536 31.0827 34.1333 32.3413 34.1333 33.6427L34.1333 34.1333Z" fill="url(#paint0_radial_2905_229)"/>
<defs>
<radialGradient id="paint0_radial_2905_229" cx="0" cy="0" r="1" gradientUnits="userSpaceOnUse" gradientTransform="translate(-14.325 -29.2875) rotate(56.6599) scale(76.6229 58.5469)">
<stop stop-color="#7EB2FF"/>
<stop offset="1" stop-color="#CCE1FF"/>
</radialGradient>
</defs>
</svg>
