<svg width="45" height="48" viewBox="0 0 45 48" fill="none" xmlns="http://www.w3.org/2000/svg">
<path d="M44.7998 21.9551L35.6572 31.1094L35.6572 24.2432C34.5142 24.2432 25.3713 24.6101 24.3428 33.8564C27.9085 35.1152 29.7825 39.0517 28.5254 42.6221C27.9169 44.3379 26.6543 45.7422 25.0137 46.5273C23.3727 47.3125 21.4872 47.4147 19.7715 46.8105C16.2288 45.5289 14.332 41.6152 15.5889 38.0449C16.2288 36.0767 17.8287 34.5431 19.7715 33.8564C20.0923 29.9008 21.9213 26.22 24.8789 23.5781C27.8365 20.9363 31.696 19.5354 35.6572 19.666L35.6572 12.7998L44.7998 21.9551ZM9.14258 19.543C12.9596 19.543 16.6856 20.7804 19.7256 22.9951C18.7959 24.2069 18.0355 25.5284 17.4629 26.9258C15.1543 24.9715 12.2054 23.9509 9.14258 23.8857L9.14258 30.4004L2.5609e-08 21.7139L9.14258 13.0283L9.14258 19.543ZM32 8.68555L25.1426 8.68555L25.1426 18.3047C23.4283 19.3035 21.897 20.5415 20.5713 21.9746L20.5713 8.68555L13.7139 8.68555L22.8574 -2.69577e-08L32 8.68555Z" fill="black"/>
<path d="M44.7998 21.9551L35.6572 31.1094L35.6572 24.2432C34.5142 24.2432 25.3713 24.6101 24.3428 33.8564C27.9085 35.1152 29.7825 39.0517 28.5254 42.6221C27.9169 44.3379 26.6543 45.7422 25.0137 46.5273C23.3727 47.3125 21.4872 47.4147 19.7715 46.8105C16.2288 45.5289 14.332 41.6152 15.5889 38.0449C16.2288 36.0767 17.8287 34.5431 19.7715 33.8564C20.0923 29.9008 21.9213 26.22 24.8789 23.5781C27.8365 20.9363 31.696 19.5354 35.6572 19.666L35.6572 12.7998L44.7998 21.9551ZM9.14258 19.543C12.9596 19.543 16.6856 20.7804 19.7256 22.9951C18.7959 24.2069 18.0355 25.5284 17.4629 26.9258C15.1543 24.9715 12.2054 23.9509 9.14258 23.8857L9.14258 30.4004L2.5609e-08 21.7139L9.14258 13.0283L9.14258 19.543ZM32 8.68555L25.1426 8.68555L25.1426 18.3047C23.4283 19.3035 21.897 20.5415 20.5713 21.9746L20.5713 8.68555L13.7139 8.68555L22.8574 -2.69577e-08L32 8.68555Z" fill="url(#paint0_radial_2905_255)"/>
<path d="M44.7998 21.9551L35.6572 31.1094L35.6572 24.2432C34.5142 24.2432 25.3713 24.6101 24.3428 33.8564C27.9085 35.1152 29.7825 39.0517 28.5254 42.6221C27.9169 44.3379 26.6543 45.7422 25.0137 46.5273C23.3727 47.3125 21.4872 47.4147 19.7715 46.8105C16.2288 45.5289 14.332 41.6152 15.5889 38.0449C16.2288 36.0767 17.8287 34.5431 19.7715 33.8564C20.0923 29.9008 21.9213 26.22 24.8789 23.5781C27.8365 20.9363 31.696 19.5354 35.6572 19.666L35.6572 12.7998L44.7998 21.9551ZM9.14258 19.543C12.9596 19.543 16.6856 20.7804 19.7256 22.9951C18.7959 24.2069 18.0355 25.5284 17.4629 26.9258C15.1543 24.9715 12.2054 23.9509 9.14258 23.8857L9.14258 30.4004L2.5609e-08 21.7139L9.14258 13.0283L9.14258 19.543ZM32 8.68555L25.1426 8.68555L25.1426 18.3047C23.4283 19.3035 21.897 20.5415 20.5713 21.9746L20.5713 8.68555L13.7139 8.68555L22.8574 -2.69577e-08L32 8.68555Z" fill="url(#paint1_radial_2905_255)"/>
<defs>
<radialGradient id="paint0_radial_2905_255" cx="0" cy="0" r="1" gradientTransform="matrix(49.1313 78.682 -57.0633 39.5519 -16.7125 -35.9992)" gradientUnits="userSpaceOnUse">
<stop stop-color="#7EB2FF"/>
<stop offset="1" stop-color="#043071"/>
</radialGradient>
<radialGradient id="paint1_radial_2905_255" cx="0" cy="0" r="1" gradientTransform="matrix(49.1313 78.682 -57.0633 39.5519 -16.7125 -35.9992)" gradientUnits="userSpaceOnUse">
<stop stop-color="#7EB2FF"/>
<stop offset="1" stop-color="#CCE1FF"/>
</radialGradient>
</defs>
</svg>
