<svg width="47" height="47" viewBox="0 0 47 47" fill="none" xmlns="http://www.w3.org/2000/svg">
<g clip-path="url(#clip0_2905_246)">
<path d="M5.87805 25.082L19.2114 25.082C20.4336 25.082 21.4336 24.082 21.4336 22.8597L21.4336 5.08196C21.4336 3.85974 20.4336 2.85974 19.2114 2.85974L5.87805 2.85974C4.65582 2.85974 3.65582 3.85974 3.65582 5.08196L3.65582 22.8597C3.65582 24.082 4.65582 25.082 5.87805 25.082ZM5.87805 42.8597L19.2114 42.8597C20.4336 42.8597 21.4336 41.8597 21.4336 40.6375L21.4336 31.7486C21.4336 30.5264 20.4336 29.5264 19.2114 29.5264L5.87805 29.5264C4.65582 29.5264 3.65582 30.5264 3.65582 31.7486L3.65582 40.6375C3.65582 41.8597 4.65582 42.8597 5.87805 42.8597ZM28.1003 42.8597L41.4336 42.8597C42.6558 42.8597 43.6558 41.8597 43.6558 40.6375L43.6558 22.8597C43.6558 21.6375 42.6558 20.6375 41.4336 20.6375L28.1003 20.6375C26.878 20.6375 25.878 21.6375 25.878 22.8597L25.878 40.6375C25.878 41.8597 26.878 42.8597 28.1003 42.8597ZM25.878 5.08196L25.878 13.9709C25.878 15.1931 26.878 16.1931 28.1003 16.1931L41.4336 16.1931C42.6558 16.1931 43.6558 15.1931 43.6558 13.9709L43.6558 5.08196C43.6558 3.85974 42.6558 2.85974 41.4336 2.85974L28.1003 2.85974C26.878 2.85974 25.878 3.85974 25.878 5.08196Z" fill="black"/>
<path d="M5.87805 25.082L19.2114 25.082C20.4336 25.082 21.4336 24.082 21.4336 22.8597L21.4336 5.08196C21.4336 3.85974 20.4336 2.85974 19.2114 2.85974L5.87805 2.85974C4.65582 2.85974 3.65582 3.85974 3.65582 5.08196L3.65582 22.8597C3.65582 24.082 4.65582 25.082 5.87805 25.082ZM5.87805 42.8597L19.2114 42.8597C20.4336 42.8597 21.4336 41.8597 21.4336 40.6375L21.4336 31.7486C21.4336 30.5264 20.4336 29.5264 19.2114 29.5264L5.87805 29.5264C4.65582 29.5264 3.65582 30.5264 3.65582 31.7486L3.65582 40.6375C3.65582 41.8597 4.65582 42.8597 5.87805 42.8597ZM28.1003 42.8597L41.4336 42.8597C42.6558 42.8597 43.6558 41.8597 43.6558 40.6375L43.6558 22.8597C43.6558 21.6375 42.6558 20.6375 41.4336 20.6375L28.1003 20.6375C26.878 20.6375 25.878 21.6375 25.878 22.8597L25.878 40.6375C25.878 41.8597 26.878 42.8597 28.1003 42.8597ZM25.878 5.08196L25.878 13.9709C25.878 15.1931 26.878 16.1931 28.1003 16.1931L41.4336 16.1931C42.6558 16.1931 43.6558 15.1931 43.6558 13.9709L43.6558 5.08196C43.6558 3.85974 42.6558 2.85974 41.4336 2.85974L28.1003 2.85974C26.878 2.85974 25.878 3.85974 25.878 5.08196Z" fill="url(#paint0_radial_2905_246)"/>
</g>
<defs>
<radialGradient id="paint0_radial_2905_246" cx="0" cy="0" r="1" gradientUnits="userSpaceOnUse" gradientTransform="translate(-11.2661 -27.6481) rotate(56.6599) scale(79.8155 60.9864)">
<stop stop-color="#7EB2FF"/>
<stop offset="1" stop-color="#CCE1FF"/>
</radialGradient>
<clipPath id="clip0_2905_246">
<rect width="42.4" height="42.4" fill="white" transform="translate(0 4.43201) rotate(-6)"/>
</clipPath>
</defs>
</svg>
