<svg width="54" height="54" viewBox="0 0 54 54" fill="none" xmlns="http://www.w3.org/2000/svg">
<path fill-rule="evenodd" clip-rule="evenodd" d="M7.44696 7.10623C4.1676 10.4487 4.1676 15.8204 4.1676 26.5683C4.1676 37.3162 4.1676 42.6902 7.44696 46.0281C10.7308 49.3683 16.0082 49.3683 26.5676 49.3683C37.127 49.3683 42.4066 49.3683 45.686 46.0281C48.9676 42.6925 48.9676 37.3162 48.9676 26.5683C48.9676 15.8204 48.9676 10.4464 45.686 7.10623C42.4089 3.76831 37.127 3.76831 26.5676 3.76831C16.0082 3.76831 10.7286 3.76831 7.44696 7.10623ZM30.4876 22.0083C30.4876 22.9522 31.2402 23.7183 32.1676 23.7183L33.7132 23.7183L29.2041 28.3079C29.1521 28.361 29.0903 28.4031 29.0222 28.4319C28.9542 28.4606 28.8813 28.4754 28.8076 28.4754C28.7339 28.4754 28.661 28.4606 28.593 28.4319C28.5249 28.4031 28.4631 28.361 28.4111 28.3079L24.8585 24.6919C24.1234 23.9442 23.1268 23.5242 22.0876 23.5242C21.0484 23.5242 20.0518 23.9442 19.3167 24.6919L14.1804 29.9199C14.0153 30.0765 13.883 30.2652 13.7911 30.475C13.6993 30.6848 13.6499 30.9112 13.646 31.1408C13.642 31.3704 13.6835 31.5985 13.768 31.8114C13.8525 32.0243 13.9782 32.2177 14.1378 32.3801C14.2973 32.5425 14.4873 32.6705 14.6965 32.7565C14.9057 32.8425 15.1298 32.8848 15.3553 32.8807C15.5809 32.8766 15.8034 32.8264 16.0094 32.7329C16.2155 32.6395 16.401 32.5047 16.5548 32.3367L21.6911 27.1087C21.7431 27.0556 21.8049 27.0135 21.873 26.9847C21.941 26.956 22.0139 26.9412 22.0876 26.9412C22.1613 26.9412 22.2342 26.956 22.3022 26.9847C22.3703 27.0135 22.4321 27.0556 22.4841 27.1087L26.0367 30.7248C26.7718 31.4724 27.7684 31.8924 28.8076 31.8924C29.8468 31.8924 30.8434 31.4724 31.5785 30.7248L36.0876 26.1374L36.0876 27.7083C36.0876 28.1618 36.2646 28.5968 36.5797 28.9175C36.8947 29.2382 37.322 29.4183 37.7676 29.4183C38.2132 29.4183 38.6405 29.2382 38.9555 28.9175C39.2706 28.5968 39.4476 28.1618 39.4476 27.7083L39.4476 22.0083C39.4476 21.5548 39.2706 21.1198 38.9555 20.7992C38.6405 20.4785 38.2132 20.2983 37.7676 20.2983L32.1676 20.2983C31.722 20.2983 31.2947 20.4785 30.9797 20.7992C30.6646 21.1198 30.4876 21.5548 30.4876 22.0083Z" fill="black"/>
<path fill-rule="evenodd" clip-rule="evenodd" d="M7.44696 7.10623C4.1676 10.4487 4.1676 15.8204 4.1676 26.5683C4.1676 37.3162 4.1676 42.6902 7.44696 46.0281C10.7308 49.3683 16.0082 49.3683 26.5676 49.3683C37.127 49.3683 42.4066 49.3683 45.686 46.0281C48.9676 42.6925 48.9676 37.3162 48.9676 26.5683C48.9676 15.8204 48.9676 10.4464 45.686 7.10623C42.4089 3.76831 37.127 3.76831 26.5676 3.76831C16.0082 3.76831 10.7286 3.76831 7.44696 7.10623ZM30.4876 22.0083C30.4876 22.9522 31.2402 23.7183 32.1676 23.7183L33.7132 23.7183L29.2041 28.3079C29.1521 28.361 29.0903 28.4031 29.0222 28.4319C28.9542 28.4606 28.8813 28.4754 28.8076 28.4754C28.7339 28.4754 28.661 28.4606 28.593 28.4319C28.5249 28.4031 28.4631 28.361 28.4111 28.3079L24.8585 24.6919C24.1234 23.9442 23.1268 23.5242 22.0876 23.5242C21.0484 23.5242 20.0518 23.9442 19.3167 24.6919L14.1804 29.9199C14.0153 30.0765 13.883 30.2652 13.7911 30.475C13.6993 30.6848 13.6499 30.9112 13.646 31.1408C13.642 31.3704 13.6835 31.5985 13.768 31.8114C13.8525 32.0243 13.9782 32.2177 14.1378 32.3801C14.2973 32.5425 14.4873 32.6705 14.6965 32.7565C14.9057 32.8425 15.1298 32.8848 15.3553 32.8807C15.5809 32.8766 15.8034 32.8264 16.0094 32.7329C16.2155 32.6395 16.401 32.5047 16.5548 32.3367L21.6911 27.1087C21.7431 27.0556 21.8049 27.0135 21.873 26.9847C21.941 26.956 22.0139 26.9412 22.0876 26.9412C22.1613 26.9412 22.2342 26.956 22.3022 26.9847C22.3703 27.0135 22.4321 27.0556 22.4841 27.1087L26.0367 30.7248C26.7718 31.4724 27.7684 31.8924 28.8076 31.8924C29.8468 31.8924 30.8434 31.4724 31.5785 30.7248L36.0876 26.1374L36.0876 27.7083C36.0876 28.1618 36.2646 28.5968 36.5797 28.9175C36.8947 29.2382 37.322 29.4183 37.7676 29.4183C38.2132 29.4183 38.6405 29.2382 38.9555 28.9175C39.2706 28.5968 39.4476 28.1618 39.4476 27.7083L39.4476 22.0083C39.4476 21.5548 39.2706 21.1198 38.9555 20.7992C38.6405 20.4785 38.2132 20.2983 37.7676 20.2983L32.1676 20.2983C31.722 20.2983 31.2947 20.4785 30.9797 20.7992C30.6646 21.1198 30.4876 21.5548 30.4876 22.0083Z" fill="url(#paint0_radial_2905_237)"/>
<defs>
<radialGradient id="paint0_radial_2905_237" cx="0" cy="0" r="1" gradientTransform="matrix(49.1313 76.0148 -57.0633 38.2112 -12.5449 -31.0106)" gradientUnits="userSpaceOnUse">
<stop stop-color="#7EB2FF"/>
<stop offset="1" stop-color="#CCE1FF"/>
</radialGradient>
</defs>
</svg>
