<svg width="40" height="41" viewBox="0 0 40 41" fill="none" xmlns="http://www.w3.org/2000/svg">
<path d="M34.9475 2.04C33.6074 2.04 32.3223 2.57732 31.3747 3.53376C30.4272 4.49019 29.8948 5.7874 29.8948 7.14C29.8948 7.86828 30.0525 8.55984 30.3273 9.1902L26.3762 13.6762C25.0326 12.7437 23.4411 12.243 21.8106 12.24C20.315 12.24 18.9326 12.6806 17.7301 13.3946L13.1342 8.75772L13.0878 8.80464C13.4839 7.99272 13.7264 7.089 13.7264 6.12C13.7264 4.90958 13.3708 3.72634 12.7046 2.71991C12.0384 1.71348 11.0914 0.929068 9.98353 0.46586C8.87563 0.00265176 7.65653 -0.118545 6.4804 0.117597C5.30426 0.353738 4.22391 0.936612 3.37596 1.79251C2.52801 2.64841 1.95055 3.73889 1.7166 4.92605C1.48265 6.11321 1.60272 7.34374 2.06163 8.46202C2.52054 9.58031 3.29767 10.5361 4.29475 11.2086C5.29183 11.8811 6.46408 12.24 7.66326 12.24C8.62326 12.24 9.51656 11.9952 10.323 11.5954L10.2765 11.6423L14.8724 16.2792C14.1303 17.5238 13.7344 18.9474 13.7264 20.4C13.7264 22.4339 14.4944 24.274 15.7172 25.706L10.5089 30.9611C9.92478 30.7265 9.30242 30.6041 8.67378 30.6C5.88877 30.6 3.62115 32.8868 3.62115 35.7C3.62115 38.5132 5.88877 40.8 8.67378 40.8C11.4588 40.8 13.7264 38.5132 13.7264 35.7C13.7264 35.0452 13.593 34.423 13.3687 33.8456L19.1044 28.0561C19.9553 28.3621 20.8567 28.56 21.8106 28.56C26.2691 28.56 29.8948 24.9002 29.8948 20.4C29.8948 19.1026 29.5654 17.8928 29.0298 16.8014L33.3084 11.9401C33.8258 12.1196 34.3715 12.24 34.9475 12.24C37.7345 12.24 40.0001 9.95316 40.0001 7.14C40.0001 4.32684 37.7345 2.04 34.9475 2.04ZM21.8106 24.48C19.5814 24.48 17.7685 22.6501 17.7685 20.4C17.7685 18.1499 19.5814 16.32 21.8106 16.32C24.0398 16.32 25.8527 18.1499 25.8527 20.4C25.8527 22.6501 24.0398 24.48 21.8106 24.48Z" fill="black"/>
<path d="M34.9475 2.04C33.6074 2.04 32.3223 2.57732 31.3747 3.53376C30.4272 4.49019 29.8948 5.7874 29.8948 7.14C29.8948 7.86828 30.0525 8.55984 30.3273 9.1902L26.3762 13.6762C25.0326 12.7437 23.4411 12.243 21.8106 12.24C20.315 12.24 18.9326 12.6806 17.7301 13.3946L13.1342 8.75772L13.0878 8.80464C13.4839 7.99272 13.7264 7.089 13.7264 6.12C13.7264 4.90958 13.3708 3.72634 12.7046 2.71991C12.0384 1.71348 11.0914 0.929068 9.98353 0.46586C8.87563 0.00265176 7.65653 -0.118545 6.4804 0.117597C5.30426 0.353738 4.22391 0.936612 3.37596 1.79251C2.52801 2.64841 1.95055 3.73889 1.7166 4.92605C1.48265 6.11321 1.60272 7.34374 2.06163 8.46202C2.52054 9.58031 3.29767 10.5361 4.29475 11.2086C5.29183 11.8811 6.46408 12.24 7.66326 12.24C8.62326 12.24 9.51656 11.9952 10.323 11.5954L10.2765 11.6423L14.8724 16.2792C14.1303 17.5238 13.7344 18.9474 13.7264 20.4C13.7264 22.4339 14.4944 24.274 15.7172 25.706L10.5089 30.9611C9.92478 30.7265 9.30242 30.6041 8.67378 30.6C5.88877 30.6 3.62115 32.8868 3.62115 35.7C3.62115 38.5132 5.88877 40.8 8.67378 40.8C11.4588 40.8 13.7264 38.5132 13.7264 35.7C13.7264 35.0452 13.593 34.423 13.3687 33.8456L19.1044 28.0561C19.9553 28.3621 20.8567 28.56 21.8106 28.56C26.2691 28.56 29.8948 24.9002 29.8948 20.4C29.8948 19.1026 29.5654 17.8928 29.0298 16.8014L33.3084 11.9401C33.8258 12.1196 34.3715 12.24 34.9475 12.24C37.7345 12.24 40.0001 9.95316 40.0001 7.14C40.0001 4.32684 37.7345 2.04 34.9475 2.04ZM21.8106 24.48C19.5814 24.48 17.7685 22.6501 17.7685 20.4C17.7685 18.1499 19.5814 16.32 21.8106 16.32C24.0398 16.32 25.8527 18.1499 25.8527 20.4C25.8527 22.6501 24.0398 24.48 21.8106 24.48Z" fill="url(#paint0_radial_2905_265)"/>
<circle cx="21.9998" cy="21.2" r="5.2" fill="black"/>
<circle cx="21.9998" cy="21.2" r="5.2" fill="url(#paint1_radial_2905_265)"/>
<circle cx="21.9998" cy="21.2" r="5.2" fill="url(#paint2_radial_2905_265)"/>
<defs>
<radialGradient id="paint0_radial_2905_265" cx="0" cy="0" r="1" gradientTransform="matrix(42.1125 68.0133 -48.9114 34.1889 -12.7249 -31.118)" gradientUnits="userSpaceOnUse">
<stop stop-color="#7EB2FF"/>
<stop offset="1" stop-color="#CCE1FF"/>
</radialGradient>
<radialGradient id="paint1_radial_2905_265" cx="0" cy="0" r="1" gradientUnits="userSpaceOnUse" gradientTransform="translate(5.99981 -1.6) rotate(55.5915) scale(35.3927 27.0432)">
<stop stop-color="#7EB2FF"/>
<stop offset="1" stop-color="#043071"/>
</radialGradient>
<radialGradient id="paint2_radial_2905_265" cx="0" cy="0" r="1" gradientUnits="userSpaceOnUse" gradientTransform="translate(12.9201 8.06797) rotate(56.6599) scale(20.752 15.8565)">
<stop stop-color="#7EB2FF"/>
<stop offset="1" stop-color="#CCE1FF"/>
</radialGradient>
</defs>
</svg>
