<svg width="2186" height="654" viewBox="0 0 2186 654" fill="none" xmlns="http://www.w3.org/2000/svg">
<path d="M2185.81 302.208L2186 301.901L2104.23 251.623L2022.61 201.425L2022.52 201.374H2022.31L1858.91 301.886H1858.74V301.994L1777.59 351.913V252.06L1859.13 201.976L1858.94 201.668L1859.13 201.36L1777.42 151.111L1696.36 101.106L1777.07 51.4585L1776.88 51.1578V51.1435L1777.07 50.8429L1695.36 0.658531L1695.18 0.966323L1694.99 0.658531L1614.15 50.3848L1532.64 0.100211L1532.49 0L1532.34 0.221896L1532.26 0.0930533L1450.69 50.2917L1450.51 50.1772L1450.29 50.5351L1286.9 151.068L1205.19 201.346L1123.61 251.545L1042 301.758L1042.19 302.065L1042 302.373L1123.78 352.622L1123.96 352.314L1124.15 352.622L1205.17 302.788L1205.32 402.534H1205.68L1205.49 402.835L1286.9 452.869V452.919H1286.98L1287.07 452.969L1368.49 503.003V503.025H1368.52L1450.75 553.56L1531.94 603.451V604.31H1532.65V603.887L1614.2 654L1614.38 653.692L1614.57 654L1696.13 603.837L1695.94 603.529L1696.13 603.222L1614.36 552.958L1614.28 453.205L1695.32 403.35V502.76L1695.2 502.831L1695.39 503.132L1695.2 503.44L1776.87 553.681V554.046H1777.58V553.724L2022.65 402.985L2022.46 402.685H2022.83L2022.8 302.86L2103.95 352.751L2104.14 352.443V352.808H2104.24L2185.76 302.667L2186 302.516L2185.81 302.216L2185.81 302.208ZM1777.27 553.087L1696.08 503.139L1777.41 453.148L1858.03 502.695V503.025H1858.57L1858.62 503.053L1777.27 553.087H1777.27ZM1451.62 553.259L1532.48 503.519L1532.51 503.497L1613.32 553.173L1532.42 602.914L1451.62 553.259ZM1613.56 453.212L1613.65 552.529L1532.7 502.774L1532.65 502.745V403.436L1613.56 453.22V453.212ZM1531.94 502.302L1450.75 452.404L1450.82 353.087L1531.71 402.849L1531.94 402.992V502.302ZM1288.08 452.754L1368.99 402.985L1449.72 452.604L1368.76 502.337L1288.08 452.762L1288.08 452.754ZM1450.69 51.1364L1531.68 101.12L1450.54 151.033L1369.26 101.242L1450.6 51.1936L1450.69 51.1364ZM1614.15 51.2223L1694.99 101.106L1613.87 151.011L1533.04 101.113L1614.15 51.2223ZM1776.87 351.691L1696.04 301.829V202.369L1776.87 252.081V351.684V351.691ZM1614.74 152.378L1695.32 201.933V301.385L1614.97 251.824L1614.74 251.688V152.378ZM1614.74 151.541V151.326L1695.68 101.528L1776.55 151.419L1695.56 201.246L1614.74 151.541ZM1368.49 302.795V402.448L1287.62 452.196V352.55L1368.49 302.795ZM1450.52 151.863L1531.53 201.668L1450.6 251.444L1369.58 201.654L1450.52 151.863ZM1449.92 251.867L1368.79 301.772L1287.8 251.953L1368.9 202.076L1449.92 251.867ZM1450.24 252.511L1450.1 351.799L1369.47 302.194L1450.24 252.511ZM1454.47 349.558L1450.82 351.799L1450.95 252.067L1531.81 202.334L1531.96 301.879L1454.47 349.551V349.558ZM1532.21 201.246L1451.22 151.448L1532.36 101.535L1613.2 151.426L1532.21 201.246ZM1449.85 151.448L1368.9 201.238L1287.78 151.376L1368.96 101.428L1368.75 101.765L1449.85 151.448H1449.85ZM1368.21 201.654L1287.12 251.53L1206.05 201.654L1287.08 151.791L1368.21 201.654H1368.21ZM1286.44 251.953L1205.58 301.7L1124.48 251.852L1205.38 202.076L1286.45 251.953H1286.44ZM1287.12 252.375L1368.11 302.194L1287.28 351.92L1206.26 302.115L1287.12 252.375ZM1369.21 402.284V302.881L1450.1 352.651V353.094L1450.04 451.974L1369.21 402.291V402.284ZM1532.11 401.99L1531.89 402.119L1451.14 352.443L1532.31 302.509L1613.16 352.207L1532.1 401.99H1532.11ZM1533 302.087L1614.08 252.203L1613.9 251.902V251.537V251.895L1613.71 251.587L1532.68 301.443L1532.53 201.897L1613.88 151.849L1614.03 151.942V251.888H1614.39L1614.2 252.196L1694.93 301.994L1613.86 351.792L1533.01 302.094L1533 302.087ZM1695.61 302.409L1776.73 352.443L1695.87 402.183L1614.54 352.207L1695.61 302.409ZM1776.87 353.202V452.64L1696.04 502.323V402.914L1776.87 353.195V353.202ZM1778.09 452.726L1858.93 403.028L1858.95 403.014L1940.12 452.919L1859.29 502.631L1778.08 452.726H1778.09ZM1859.1 402.262L1859.45 302.86L1940.42 352.651V452.268L1859.14 402.284L1859.09 402.262H1859.1ZM1940.65 351.949L1859.77 302.208L1940.75 252.389L2021.67 302.151L1940.65 351.942V351.949ZM1941.15 352.493L2022.09 302.738L2022.12 402.484L1941.15 452.289V352.493ZM2022.34 301.736L1941.44 251.974L2022.21 202.291L2103.19 252.046L2022.34 301.736ZM1777.66 352.708L1858.74 302.846L1858.38 402.47V402.527L1777.59 452.203V352.808H1777.6L1777.66 352.708ZM1858.26 201.668L1777.21 251.451L1696.24 201.661L1777.23 151.842L1858.26 201.668H1858.26ZM1776.2 51.1578L1695.69 100.684L1614.84 50.7999L1695.18 1.38148L1776.2 51.1578ZM1613.47 50.7999L1532.36 100.691L1451.36 50.7069L1532.25 0.944849L1532.45 0.823164L1613.47 50.8071V50.7999ZM1042.87 302.058L1123.8 252.275L1204.9 302.123L1123.97 351.892L1042.87 302.058ZM1206.04 402.327L1205.89 302.731L1286.9 352.529V452.031L1206.04 402.327ZM1369.44 502.753L1450.4 453.019L1531.83 503.075L1450.94 552.837L1369.44 502.753ZM1533.1 603.329L1614 553.588L1695.26 603.529L1614.38 653.27L1533.1 603.322V603.329ZM1613.92 452.59L1532.65 402.584V402.498L1613.85 352.629L1695.18 402.606L1613.92 452.597V452.59ZM2023.02 302.158L2103.86 252.468L2184.98 302.309L2104.14 352.035L2023.02 302.166V302.158Z" fill="url(#paint0_radial_718_6237)"/>
<path d="M0.18608 302.208L-7.725e-06 301.901L81.768 251.623L163.393 201.425L163.479 201.374H163.693L327.086 301.886H327.258V301.994L408.41 351.913V252.06L326.871 201.976L327.058 201.668L326.871 201.36L408.582 151.111L489.642 101.106L408.933 51.4585L409.119 51.1578V51.1435L408.933 50.8429L490.636 0.658531L490.822 0.966323L491.009 0.658531L571.846 50.3848L653.356 0.100211L653.514 0L653.657 0.221896L653.736 0.0930533L735.31 50.2917L735.489 50.1772L735.711 50.5351L899.097 151.068L980.815 201.346L1062.39 251.545L1144 301.758L1143.81 302.065L1144 302.373L1062.22 352.622L1062.04 352.314L1061.85 352.622L980.829 302.788L980.679 402.534H980.321L980.507 402.835L899.097 452.869V452.919H899.018L898.932 452.969L817.508 503.003V503.025H817.479L735.246 553.56L654.065 603.451V604.31H653.349V603.887L571.803 654L571.617 653.692L571.431 654L489.871 603.837L490.057 603.529L489.871 603.222L571.639 552.958L571.724 453.205L490.679 403.35V502.76L490.801 502.831L490.615 503.132L490.801 503.44L409.133 553.681V554.046H408.417V553.724L163.35 402.985L163.536 402.685H163.171L163.199 302.86L82.0542 352.751L81.861 352.443V352.808H81.7608L0.243304 302.667L-7.725e-06 302.516L0.193156 302.216L0.18608 302.208ZM408.732 553.087L489.921 503.139L408.589 453.148L327.966 502.695V503.025H327.43L327.38 503.053L408.725 553.087H408.732ZM734.38 553.259L653.521 503.519L653.485 503.497L572.676 553.173L653.578 602.914L734.38 553.259ZM572.44 453.212L572.354 552.529L653.299 502.774L653.349 502.745V403.436L572.44 453.22V453.212ZM654.065 502.302L735.246 452.404L735.182 353.087L654.294 402.849L654.065 402.992V502.302ZM897.916 452.754L817.007 402.985L736.284 452.604L817.243 502.337L897.923 452.762L897.916 452.754ZM735.31 51.1364L654.315 101.12L735.461 151.033L816.742 101.242L735.396 51.1936L735.31 51.1364ZM571.853 51.2223L491.009 101.106L572.125 151.011L652.963 101.113L571.853 51.2223ZM409.126 351.691L489.964 301.829V202.369L409.126 252.081V351.684V351.691ZM571.259 152.378L490.679 201.933V301.385L571.03 251.824L571.259 251.688V152.378ZM571.259 151.541V151.326L490.321 101.528L409.448 151.419L490.436 201.246L571.259 151.541ZM817.508 302.795V402.448L898.381 452.196V352.55L817.508 302.795ZM735.475 151.863L654.473 201.668L735.404 251.444L816.42 201.654L735.475 151.863ZM736.083 251.867L817.214 301.772L898.195 251.953L817.1 202.076L736.083 251.867ZM735.761 252.511L735.897 351.799L816.535 302.194L735.761 252.511ZM731.532 349.558L735.182 351.799L735.046 252.067L654.194 202.334L654.043 301.879L731.532 349.551V349.558ZM653.786 201.246L734.781 151.448L653.636 101.535L572.798 151.426L653.786 201.246ZM736.155 151.448L817.1 201.238L898.224 151.376L817.043 101.428L817.25 101.765L736.148 151.448H736.155ZM817.787 201.654L898.882 251.53L979.949 201.654L898.918 151.791L817.794 201.654H817.787ZM899.562 251.953L980.421 301.7L1061.52 251.852L980.622 202.076L899.555 251.953H899.562ZM898.875 252.375L817.894 302.194L898.718 351.92L979.741 302.115L898.875 252.375ZM816.792 402.284V302.881L735.897 352.651V353.094L735.962 451.974L816.792 402.291V402.284ZM653.893 401.99L654.108 402.119L734.86 352.443L653.693 302.509L572.841 352.207L653.9 401.99H653.893ZM652.999 302.087L571.918 252.203L572.104 251.902V251.537V251.895L572.29 251.587L653.321 301.443L653.471 201.897L572.118 151.849L571.968 151.942V251.888H571.61L571.796 252.196L491.066 301.994L572.14 351.792L652.991 302.094L652.999 302.087ZM490.386 302.409L409.269 352.443L490.128 402.183L571.46 352.207L490.386 302.409ZM409.126 353.202V452.64L489.964 502.323V402.914L409.126 353.195V353.202ZM407.909 452.726L327.072 403.028L327.05 403.014L245.884 452.919L326.707 502.631L407.917 452.726H407.909ZM326.9 402.262L326.549 302.86L245.576 352.651V452.268L326.864 402.284L326.907 402.262H326.9ZM245.347 351.949L326.234 302.208L245.247 252.389L164.33 302.151L245.347 351.942V351.949ZM244.853 352.493L163.908 302.738L163.879 402.484L244.853 452.289V352.493ZM163.658 301.736L244.56 251.974L163.786 202.291L82.8128 252.046L163.658 301.736ZM408.339 352.708L327.258 302.846L327.616 402.47V402.527L408.41 452.203V352.808H408.403L408.339 352.708ZM327.737 201.668L408.79 251.451L489.756 201.661L408.768 151.842L327.745 201.668H327.737ZM409.799 51.1578L490.314 100.684L571.159 50.7999L490.822 1.38148L409.799 51.1578ZM572.533 50.7999L653.643 100.691L734.638 50.7069L653.75 0.944849L653.55 0.823164L572.533 50.8071V50.7999ZM1143.13 302.058L1062.2 252.275L981.101 302.123L1062.03 351.892L1143.13 302.058ZM979.963 402.327L980.113 302.731L899.097 352.529V452.031L979.963 402.327ZM816.556 502.753L735.597 453.019L654.165 503.075L735.06 552.837L816.556 502.753ZM652.898 603.329L571.996 553.588L490.737 603.529L571.617 653.27L652.898 603.322V603.329ZM572.082 452.59L653.349 402.584V402.498L572.147 352.629L490.815 402.606L572.082 452.597V452.59ZM162.978 302.158L82.14 252.468L1.02338 302.309L81.861 352.035L162.978 302.166V302.158Z" fill="url(#paint1_radial_718_6237)"/>
<defs>
<radialGradient id="paint0_radial_718_6237" cx="0" cy="0" r="1" gradientUnits="userSpaceOnUse" gradientTransform="translate(1555 294) rotate(31.3049) scale(212.52 200.242)">
<stop stop-color="#1C8DEA"/>
<stop offset="1" stop-color="#1C8DEA" stop-opacity="0"/>
</radialGradient>
<radialGradient id="paint1_radial_718_6237" cx="0" cy="0" r="1" gradientUnits="userSpaceOnUse" gradientTransform="translate(631 294) rotate(148.695) scale(212.52 200.242)">
<stop stop-color="#1C8DEA"/>
<stop offset="1" stop-color="#1C8DEA" stop-opacity="0"/>
</radialGradient>
</defs>
</svg>
