<svg width="402" height="638" viewBox="0 0 402 638" fill="none" xmlns="http://www.w3.org/2000/svg">
<g opacity="0.6" clip-path="url(#clip0_49_3483)">
<path d="M544.812 294.812L544.993 294.511L465.227 245.465L385.6 196.495L385.517 196.446H385.307L225.915 294.498H225.747V294.602L146.581 343.3V245.891L226.124 197.032L225.942 196.732L226.124 196.432L146.414 147.413L67.3387 98.6314L146.072 50.199L145.89 49.9057V49.8918L146.072 49.5985L66.3682 0.642413L66.1867 0.942671L66.0052 0.642413L-12.8533 49.1516L-92.3682 0.0977585L-92.5218 0L-92.6614 0.216465L-92.7382 0.0907758L-172.316 49.0608L-172.49 48.9491L-172.707 49.2982L-332.093 147.371L-411.81 196.418L-491.387 245.388L-571 294.372L-570.818 294.672L-571 294.972L-491.227 343.991L-491.045 343.691L-490.864 343.991L-411.824 295.377L-411.677 392.682H-411.328L-411.51 392.975L-332.093 441.785V441.834H-332.016L-331.932 441.882L-252.501 490.692V490.713H-252.473L-172.253 540.011L-93.0594 588.681V589.519H-92.3612V589.107L-12.8115 637.993L-12.6299 637.693L-12.4484 637.993L67.1152 589.058L66.9337 588.758L67.1152 588.457L-12.6509 539.424L-12.7347 442.113L66.3263 393.478V490.454L66.2076 490.524L66.3892 490.818L66.2076 491.118L145.876 540.13V540.486H146.574V540.172L385.642 393.122L385.461 392.829H385.817L385.789 295.447L464.948 344.117L465.136 343.817V344.173H465.234L544.756 295.259L544.993 295.112L544.805 294.819L544.812 294.812ZM146.267 539.55L67.0664 490.825L146.407 442.057L225.056 490.392V490.713H225.579L225.628 490.741L146.274 539.55H146.267ZM-171.408 539.718L-92.5287 491.195L-92.4938 491.174L-13.6632 539.634L-92.5846 588.157L-171.408 539.718ZM-13.4329 442.12L-13.3491 539.005L-92.3123 490.468L-92.3612 490.44V393.562L-13.4329 442.127V442.12ZM-93.0594 490.008L-172.253 441.331L-172.19 344.445L-93.2828 392.989L-93.0594 393.129V490.008ZM-330.941 441.673L-252.012 393.122L-173.265 441.526L-252.243 490.042L-330.948 441.68L-330.941 441.673ZM-172.316 49.8848L-93.3037 98.6453L-172.462 147.336L-251.754 98.764L-172.4 49.9406L-172.316 49.8848ZM-12.8604 49.9686L66.0052 98.6314L-13.1257 147.315L-91.9842 98.6383L-12.8604 49.9686ZM145.883 343.083L67.0245 294.442V197.416L145.883 245.912V343.077V343.083ZM-12.2808 148.649L66.3263 196.99V294.009L-12.0574 245.66L-12.2808 245.527V148.649ZM-12.2808 147.832V147.622L66.6754 99.0433L145.569 147.713L66.5637 196.32L-12.2808 147.832ZM-252.501 295.384V392.598L-331.394 441.128V343.921L-252.501 295.384ZM-172.476 148.146L-93.4573 196.732L-172.407 245.29L-251.44 196.718L-172.476 148.146ZM-173.07 245.702L-252.215 294.386L-331.213 245.786L-252.103 197.13L-173.07 245.702ZM-172.756 246.33L-172.888 343.188L-251.551 294.798L-172.756 246.33ZM-168.629 341.003L-172.19 343.188L-172.058 245.898L-93.185 197.381L-93.0384 294.491L-168.629 340.996V341.003ZM-92.787 196.32L-171.799 147.741L-92.6405 99.0503L-13.7819 147.72L-92.787 196.32ZM-173.14 147.741L-252.103 196.313L-331.241 147.671L-252.047 98.9456L-252.25 99.2738L-173.133 147.741H-173.14ZM-252.773 196.718L-331.883 245.374L-410.965 196.718L-331.918 148.076L-252.78 196.718H-252.773ZM-332.546 245.786L-411.426 294.316L-490.536 245.688L-411.621 197.13L-332.539 245.786H-332.546ZM-331.876 246.198L-252.878 294.798L-331.722 343.307L-410.763 294.721L-331.876 246.198ZM-251.803 392.438V295.468L-172.888 344.019V344.452L-172.951 440.912L-251.803 392.445V392.438ZM-92.8918 392.151L-93.1013 392.277L-171.876 343.817L-92.6963 295.105L-13.8238 343.586L-92.8988 392.151H-92.8918ZM-92.0191 294.693L-12.9232 246.03L-13.1047 245.737V245.381V245.73L-13.2862 245.43L-92.3333 294.065L-92.4799 196.955L-13.1187 148.132L-12.972 148.223V245.723H-12.6229L-12.8044 246.023L65.9493 294.602L-13.1396 343.181L-92.0121 294.7L-92.0191 294.693ZM66.6126 295.007L145.743 343.817L66.864 392.34L-12.4764 343.586L66.6126 295.007ZM145.883 344.557V441.561L67.0245 490.029V393.052L145.883 344.55V344.557ZM147.07 441.645L225.928 393.164L225.949 393.15L305.129 441.834L226.284 490.329L147.063 441.645H147.07ZM226.096 392.417L226.438 295.447L305.429 344.019V441.198L226.131 392.438L226.089 392.417H226.096ZM305.653 343.335L226.745 294.812L305.75 246.212L384.686 294.756L305.653 343.328V343.335ZM306.134 343.866L385.098 295.328L385.126 392.633L306.134 441.219V343.866ZM385.342 294.351L306.421 245.807L385.216 197.34L464.208 245.877L385.342 294.351ZM146.651 344.075L225.747 295.433L225.398 392.619V392.675L146.581 441.135V344.173H146.588L146.651 344.075ZM225.279 196.732L146.211 245.297L67.227 196.725L146.232 148.125L225.272 196.732H225.279ZM145.227 49.9057L66.6824 98.2194L-12.1831 49.5566L66.1867 1.34767L145.227 49.9057ZM-13.5236 49.5566L-92.6474 98.2264L-171.66 49.4658L-92.7522 0.921723L-92.5566 0.803016L-13.5236 49.5636V49.5566ZM-570.148 294.665L-491.199 246.1L-412.089 294.728L-491.038 343.279L-570.148 294.665ZM-410.979 392.479L-411.126 295.321L-332.093 343.9V440.968L-410.979 392.479ZM-251.572 490.447L-172.595 441.931L-93.1571 490.762L-172.071 539.306L-251.572 490.447ZM-91.9213 588.562L-13 540.039L66.2705 588.758L-12.6299 637.281L-91.9213 588.555V588.562ZM-13.0837 441.512L-92.3612 392.731V392.647L-13.1465 343.998L66.1937 392.752L-13.0837 441.519V441.512ZM386.005 294.763L464.864 246.289L543.995 294.909L465.136 343.419L386.005 294.77V294.763Z" fill="url(#paint0_radial_49_3483)"/>
</g>
<defs>
<radialGradient id="paint0_radial_49_3483" cx="0" cy="0" r="1" gradientUnits="userSpaceOnUse" gradientTransform="translate(-2.39474 264.745) rotate(15.4884) scale(609.503 487.662)">
<stop stop-color="#1C8DEA"/>
<stop offset="1" stop-color="#1C8DEA" stop-opacity="0"/>
</radialGradient>
<clipPath id="clip0_49_3483">
<rect width="1116" height="638" fill="white" transform="translate(-571)"/>
</clipPath>
</defs>
</svg>
