<svg width="32" height="32" viewBox="0 0 32 32" fill="none" xmlns="http://www.w3.org/2000/svg">
<path d="M15.3003 23.0747C19.3176 18.776 23.1963 15.86 28.0683 11.7307C29.5269 10.4947 29.7523 8.32802 28.6083 6.79335C27.3923 5.16135 25.0816 4.83468 23.519 6.13202C19.0563 9.83335 15.5843 13.3987 12.2909 17.2067C12.1176 17.4067 12.0309 17.5067 11.9416 17.5627C11.8312 17.6332 11.7032 17.671 11.5722 17.6717C11.4412 17.6724 11.3127 17.636 11.2016 17.5667C11.1109 17.512 11.0243 17.4133 10.8509 17.2173L9.09628 15.2307C8.72398 14.8076 8.25911 14.4761 7.73782 14.262C7.21654 14.0479 6.65288 13.9569 6.09069 13.9961C5.5285 14.0353 4.98294 14.2037 4.49643 14.4881C4.00992 14.7725 3.59557 15.1654 3.28562 15.636C2.83079 16.3234 2.61714 17.1424 2.67819 17.9643C2.73925 18.7863 3.07156 19.5647 3.62295 20.1773L6.37495 23.2307C8.43228 25.5133 9.46162 26.656 10.6976 26.6667C11.9323 26.6773 13.0549 25.4773 15.3003 23.0747Z" fill="#ECFDF3" stroke="#148F81" stroke-width="1.5" stroke-linecap="round" stroke-linejoin="round"/>
</svg>
