<svg width="24" height="24" viewBox="0 0 24 24" fill="none" xmlns="http://www.w3.org/2000/svg">
<path d="M21.7121 9.28715L17.7121 5.28997C17.6189 5.1968 17.5082 5.12289 17.3864 5.07247C17.2646 5.02204 17.134 4.99609 17.0021 4.99609C16.7358 4.99609 16.4804 5.1018 16.2921 5.28997C16.1038 5.47815 15.998 5.73336 15.998 5.99947C15.998 6.26559 16.1038 6.5208 16.2921 6.70897L18.5921 8.99736H7.00209C6.73687 8.99736 6.48252 9.10264 6.29498 9.29004C6.10745 9.47745 6.00209 9.73162 6.00209 9.99665C6.00209 10.2617 6.10745 10.5159 6.29498 10.7033C6.48252 10.8907 6.73687 10.996 7.00209 10.996H21.0021C21.1996 10.995 21.3923 10.9356 21.556 10.8254C21.7197 10.7151 21.8471 10.5589 21.9221 10.3764C21.9987 10.1944 22.0196 9.99383 21.9823 9.79998C21.9449 9.60612 21.8509 9.42768 21.7121 9.28715ZM17.0021 12.9946H3.00209C2.80466 12.9955 2.61195 13.0549 2.44823 13.1652C2.28451 13.2754 2.15711 13.4316 2.08209 13.6141C2.00551 13.7961 1.98459 13.9967 2.02196 14.1905C2.05934 14.3844 2.15333 14.5628 2.29209 14.7033L6.29209 18.7005C6.38505 18.7942 6.49565 18.8685 6.61751 18.9193C6.73937 18.97 6.87008 18.9961 7.00209 18.9961C7.1341 18.9961 7.26481 18.97 7.38667 18.9193C7.50853 18.8685 7.61913 18.7942 7.71209 18.7005C7.80582 18.6076 7.88021 18.4971 7.93098 18.3753C7.98175 18.2536 8.00789 18.1229 8.00789 17.991C8.00789 17.8591 7.98175 17.7285 7.93098 17.6067C7.88021 17.4849 7.80582 17.3744 7.71209 17.2815L5.41209 14.9931H17.0021C17.2674 14.9931 17.5217 14.8879 17.7092 14.7005C17.8968 14.5131 18.0021 14.2589 18.0021 13.9938C18.0021 13.7288 17.8968 13.4746 17.7092 13.2872C17.5217 13.0998 17.2674 12.9946 17.0021 12.9946Z" fill="#056CC1"/>
</svg>
