<svg width="20" height="14" viewBox="0 0 20 14" fill="none" xmlns="http://www.w3.org/2000/svg">
<path d="M19.7121 4.28715L15.7121 0.289974C15.6189 0.196804 15.5082 0.122894 15.3864 0.0724735C15.2646 0.0220435 15.134 -0.00390625 15.0021 -0.00390625C14.7358 -0.00390625 14.4804 0.101804 14.2921 0.289974C14.1038 0.478154 13.998 0.733364 13.998 0.999474C13.998 1.26559 14.1038 1.5208 14.2921 1.70897L16.5921 3.99736H5.00209C4.73687 3.99736 4.48252 4.10264 4.29498 4.29004C4.10745 4.47745 4.00209 4.73162 4.00209 4.99665C4.00209 5.26168 4.10745 5.51588 4.29498 5.70328C4.48252 5.89068 4.73687 5.99598 5.00209 5.99598H19.0021C19.1996 5.99498 19.3923 5.93558 19.556 5.82538C19.7197 5.71508 19.8471 5.55888 19.9221 5.37638C19.9987 5.19438 20.0196 4.99383 19.9823 4.79998C19.9449 4.60612 19.8509 4.42768 19.7121 4.28715ZM15.0021 7.99458H1.00209C0.804662 7.99548 0.611952 8.05488 0.448232 8.16518C0.284512 8.27538 0.157112 8.43158 0.0820925 8.61408C0.00551248 8.79608 -0.0154076 8.99668 0.0219624 9.19048C0.0593424 9.38438 0.153332 9.56278 0.292092 9.70328L4.29209 13.7005C4.38505 13.7942 4.49565 13.8685 4.61751 13.9193C4.73937 13.97 4.87008 13.9961 5.00209 13.9961C5.1341 13.9961 5.26481 13.97 5.38667 13.9193C5.50853 13.8685 5.61913 13.7942 5.71209 13.7005C5.80582 13.6076 5.88021 13.4971 5.93098 13.3753C5.98175 13.2536 6.00789 13.1229 6.00789 12.991C6.00789 12.8591 5.98175 12.7285 5.93098 12.6067C5.88021 12.4849 5.80582 12.3744 5.71209 12.2815L3.41209 9.99308H15.0021C15.2674 9.99308 15.5217 9.88788 15.7092 9.70048C15.8968 9.51308 16.0021 9.25888 16.0021 8.99378C16.0021 8.72878 15.8968 8.47458 15.7092 8.28718C15.5217 8.09978 15.2674 7.99458 15.0021 7.99458Z" fill="#5F5F5F"/>
</svg>
