<svg width="13" height="22" viewBox="0 0 13 22" fill="none" xmlns="http://www.w3.org/2000/svg">
<path d="M8.5833 9.95806H7.5417V5.79134H9.625C9.9013 5.79134 10.1662 5.90109 10.3616 6.09644C10.5569 6.29179 10.6667 6.55674 10.6667 6.83301C10.6667 7.10928 10.7764 7.37423 10.9718 7.56958C11.1671 7.76493 11.4321 7.87468 11.7083 7.87468C11.9846 7.87468 12.2496 7.76493 12.4449 7.56958C12.6403 7.37423 12.75 7.10928 12.75 6.83301C12.75 6.00421 12.4208 5.20935 11.8347 4.6233C11.2487 4.03725 10.4538 3.70801 9.625 3.70801H7.5417V1.62468C7.5417 1.34841 7.4319 1.08346 7.2366 0.888108C7.0412 0.692758 6.7763 0.583008 6.5 0.583008C6.2237 0.583008 5.9588 0.692758 5.7634 0.888108C5.5681 1.08346 5.4583 1.34841 5.4583 1.62468V3.70801H4.4167C3.3116 3.70801 2.25179 4.147 1.47039 4.9284C0.68899 5.7098 0.25 6.76961 0.25 7.87468C0.25 8.97976 0.68899 10.0396 1.47039 10.821C2.25179 11.6024 3.3116 12.0414 4.4167 12.0414H5.4583V16.2081H3.375C3.09873 16.2081 2.83378 16.0983 2.63843 15.903C2.44308 15.7076 2.33333 15.4427 2.33333 15.1664C2.33333 14.8901 2.22359 14.6252 2.02824 14.4298C1.83289 14.2345 1.56793 14.1247 1.29167 14.1247C1.0154 14.1247 0.75045 14.2345 0.5551 14.4298C0.35975 14.6252 0.25 14.8901 0.25 15.1664C0.25 15.9952 0.57924 16.79 1.16529 17.3761C1.75134 17.9621 2.5462 18.2914 3.375 18.2914H5.4583V20.3747C5.4583 20.651 5.5681 20.9159 5.7634 21.1113C5.9588 21.3066 6.2237 21.4164 6.5 21.4164C6.7763 21.4164 7.0412 21.3066 7.2366 21.1113C7.4319 20.9159 7.5417 20.651 7.5417 20.3747V18.2914H8.5833C9.6884 18.2914 10.7482 17.8524 11.5296 17.071C12.311 16.2896 12.75 15.2298 12.75 14.1247C12.75 13.0196 12.311 11.9598 11.5296 11.1784C10.7482 10.397 9.6884 9.95806 8.5833 9.95806ZM5.4583 9.95806H4.4167C3.86413 9.95806 3.33423 9.73856 2.94353 9.34786C2.55283 8.95716 2.33333 8.42721 2.33333 7.87468C2.33333 7.32214 2.55283 6.79224 2.94353 6.40154C3.33423 6.01084 3.86413 5.79134 4.4167 5.79134H5.4583V9.95806ZM8.5833 16.2081H7.5417V12.0414H8.5833C9.1359 12.0414 9.6658 12.2609 10.0565 12.6516C10.4472 13.0423 10.6667 13.5722 10.6667 14.1247C10.6667 14.6773 10.4472 15.2072 10.0565 15.5979C9.6658 15.9886 9.1359 16.2081 8.5833 16.2081Z" fill="#5F5F5F"/>
</svg>
