<svg width="20" height="20" viewBox="0 0 20 20" fill="none" xmlns="http://www.w3.org/2000/svg">
<path d="M16.0955 8.3334H17.2727C18.7793 8.3334 20 7.21437 20 5.83335V3.33334C20 3.11199 19.9041 2.9004 19.7337 2.74415C19.5632 2.5879 19.3324 2.50001 19.0909 2.50001H16.3636V0.83334C16.3636 0.61198 16.2678 0.4004 16.0973 0.24415C15.9268 0.0878999 15.696 0 15.4545 0H4.54545C4.04298 0 3.63636 0.37273 3.63636 0.83334V2.50001H0.90909C0.40661 2.50001 0 2.87274 0 3.33334V5.83335C0 7.21437 1.2207 8.3334 2.72727 8.3334H3.90448C4.25248 9.3986 4.92543 10.3508 5.8443 11.0775C6.76405 11.8043 7.88975 12.2746 9.0909 12.4333V15H7.2727C5.76614 15 4.54543 16.119 4.54543 17.5V19.1667C4.54543 19.388 4.64131 19.5996 4.81177 19.7559C4.98223 19.9121 5.21305 20 5.45452 20H14.5454C14.7869 20 15.0177 19.9121 15.1882 19.7559C15.3586 19.5996 15.4545 19.388 15.4545 19.1667V17.5C15.4545 16.119 14.2338 15 12.7273 15H10.9091V12.4333C12.1103 12.2746 13.2359 11.8043 14.1557 11.0775C15.0745 10.3508 15.7475 9.3986 16.0955 8.3334ZM12.7273 16.6667C12.9688 16.6667 13.1996 16.7546 13.3701 16.9108C13.5405 17.0671 13.6364 17.2787 13.6364 17.5V18.3334H6.3637V17.5C6.3637 17.0394 6.77032 16.6667 7.2728 16.6667H12.7273ZM18.1819 4.16668V5.83335C18.1819 6.0547 18.086 6.26628 17.9155 6.42253C17.7451 6.57878 17.5143 6.66668 17.2728 6.66668H16.3637V4.16668H18.1819ZM2.72734 6.66668C2.22486 6.66668 1.81825 6.29395 1.81825 5.83335V4.16668H3.63643V6.66668H2.72734ZM5.45461 6.66668V1.66667H14.5455V6.66668C14.5455 8.1551 13.679 9.5304 12.2728 10.275C10.8665 11.0196 9.1337 11.0196 7.72734 10.275C6.32109 9.5304 5.45461 8.155 5.45461 6.66668Z" fill="#056CC1"/>
</svg>
