<svg width="25" height="25" viewBox="0 0 25 25" fill="none" xmlns="http://www.w3.org/2000/svg">
<path fill-rule="evenodd" clip-rule="evenodd" d="M9.5 5.5C9.5 3.567 11.067 2 13 2C14.933 2 16.5 3.567 16.5 5.5C16.5 5.63798 16.492 5.77409 16.4765 5.9079L20.2867 9.5064C20.3572 9.50215 20.4284 9.5 20.5 9.5C22.433 9.5 24 11.067 24 13C24 14.933 22.433 16.5 20.5 16.5C20.1179 16.5 19.7501 16.4388 19.4059 16.3256L16.2805 19.2773C16.4224 19.6579 16.5 20.0699 16.5 20.5C16.5 22.433 14.933 24 13 24C11.067 24 9.5 22.433 9.5 20.5C9.5 20.0699 9.57758 19.6579 9.71951 19.2773L6.59416 16.3256C6.24993 16.4388 5.88212 16.5 5.5 16.5C3.567 16.5 2 14.933 2 13C2 11.067 3.567 9.5 5.5 9.5C5.57164 9.5 5.64278 9.50215 5.71336 9.5064L9.52352 5.90791C9.50798 5.7741 9.5 5.63798 9.5 5.5ZM13 4C12.1716 4 11.5 4.67157 11.5 5.5C11.5 6.32843 12.1716 7 13 7C13.8284 7 14.5 6.32843 14.5 5.5C14.5 4.67157 13.8284 4 13 4ZM10.3942 7.83662L7.75836 10.326C8.51778 10.968 9 11.9277 9 13C9 13.8105 8.72452 14.5566 8.2621 15.1499L10.9347 17.674C11.5136 17.2502 12.2276 17 13 17C13.7724 17 14.4864 17.2502 15.0653 17.674L17.7379 15.1499C17.2755 14.5566 17 13.8105 17 13C17 11.9277 17.4822 10.968 18.2417 10.326L15.6059 7.83661C14.9651 8.55075 14.035 9 13 9C11.965 9 11.0349 8.55075 10.3942 7.83662ZM5.5 11.5C4.67157 11.5 4 12.1716 4 13C4 13.8284 4.67157 14.5 5.5 14.5C6.32843 14.5 7 13.8284 7 13C7 12.1716 6.32843 11.5 5.5 11.5ZM19 13C19 12.1716 19.6716 11.5 20.5 11.5C21.3284 11.5 22 12.1716 22 13C22 13.8284 21.3284 14.5 20.5 14.5C19.6716 14.5 19 13.8284 19 13ZM13 19C12.1716 19 11.5 19.6716 11.5 20.5C11.5 21.3284 12.1716 22 13 22C13.8284 22 14.5 21.3284 14.5 20.5C14.5 19.6716 13.8284 19 13 19Z" fill="#5F5F5F"/>
</svg>
