<svg width="24" height="24" viewBox="0 0 24 24" fill="none" xmlns="http://www.w3.org/2000/svg">
<path d="M15.38 15.5116H19.91C20.1668 15.5205 20.4103 15.6279 20.59 15.8115C20.683 15.9005 20.7568 16.0076 20.8066 16.1263C20.8565 16.245 20.8815 16.3726 20.88 16.5013V21C20.88 21.2651 20.7746 21.5194 20.5871 21.7069C20.3996 21.8944 20.1452 21.9997 19.88 21.9997C19.6148 21.9997 19.3604 21.8944 19.1729 21.7069C18.9854 21.5194 18.88 21.2651 18.88 21V19.2305C17.4628 20.5737 15.6833 21.4726 13.761 21.8164C11.8387 22.1602 9.85782 21.9338 8.06274 21.1652C6.26767 20.3965 4.73699 19.1193 3.6596 17.491C2.58222 15.8628 2.00529 13.9548 2 12.0026C2 11.7375 2.10536 11.4832 2.29289 11.2957C2.48043 11.1082 2.73478 11.0029 3 11.0029C3.26522 11.0029 3.51957 11.1082 3.70711 11.2957C3.89464 11.4832 4 11.7375 4 12.0026C4.00418 13.5976 4.48531 15.1549 5.38159 16.4745C6.27787 17.794 7.54834 18.8155 9.02978 19.4077C10.5112 19.9999 12.1359 20.1357 13.6952 19.7977C15.2544 19.4598 16.6769 18.6634 17.78 17.511H15.38C15.2487 17.511 15.1186 17.4851 14.9973 17.4349C14.876 17.3847 14.7658 17.311 14.6729 17.2182C14.58 17.1254 14.5064 17.0152 14.4561 16.8939C14.4059 16.7726 14.38 16.6426 14.38 16.5113C14.38 16.38 14.4059 16.25 14.4561 16.1287C14.5064 16.0074 14.58 15.8972 14.6729 15.8044C14.7658 15.7116 14.876 15.6379 14.9973 15.5877C15.1186 15.5374 15.2487 15.5116 15.38 15.5116Z" fill="#108CC6"/>
<path d="M5.12111 4.77501C6.9746 3.00444 9.4375 2.01312 12.0011 2.00581C13.315 2.00761 14.616 2.26569 15.8311 2.76559C18.2803 3.78021 20.2262 5.72556 21.2411 8.17402C21.7412 9.38874 21.9993 10.6893 22.0011 12.0029C22.0011 12.268 21.8957 12.5223 21.7082 12.7098C21.5207 12.8973 21.2663 13.0026 21.0011 13.0026C20.7359 13.0026 20.4815 12.8973 20.294 12.7098C20.1065 12.5223 20.0011 12.268 20.0011 12.0029C19.9949 10.4088 19.5124 8.85282 18.6153 7.53481C17.7183 6.2168 16.4477 5.19687 14.9667 4.60592C13.4857 4.01498 11.8618 3.87999 10.3035 4.21828C8.7452 4.55657 7.32358 5.35271 6.22111 6.50451H8.62111C8.88633 6.50451 9.14068 6.60983 9.32822 6.79731C9.51575 6.9848 9.62111 7.23908 9.62111 7.50422C9.62111 7.76935 9.51575 8.02363 9.32822 8.21112C9.14068 8.3986 8.88633 8.50392 8.62111 8.50392H4.12111C3.85589 8.50392 3.60154 8.3986 3.414 8.21112C3.22647 8.02363 3.12111 7.76935 3.12111 7.50422V3.00552C3.12035 2.87395 3.14557 2.74353 3.19534 2.62173C3.2451 2.49993 3.31843 2.38914 3.41111 2.29573C3.55098 2.15474 3.72968 2.05859 3.92443 2.01953C4.11918 1.98047 4.32115 2.00028 4.50459 2.07642C4.68804 2.15257 4.84464 2.2816 4.95444 2.44707C5.06424 2.61254 5.12227 2.80696 5.12111 3.00552V4.77501Z" fill="#108CC6"/>
<path fill-rule="evenodd" clip-rule="evenodd" d="M14.2485 10.503C14.5407 10.9487 14.6971 11.4697 14.6985 12.0026C14.6985 12.7185 14.4141 13.405 13.9077 13.9112C13.4014 14.4174 12.7146 14.7018 11.9985 14.7018C11.4655 14.7004 10.9443 14.5441 10.4985 14.2519C10.0575 13.9505 9.71386 13.5271 9.50963 13.0335C9.3054 12.5399 9.24941 11.9976 9.34849 11.4728C9.45405 10.9501 9.71151 10.4703 10.0886 10.0933C10.4658 9.71626 10.9457 9.45888 11.4685 9.35335C11.9935 9.2543 12.536 9.31028 13.0297 9.51444C13.5234 9.71861 13.9469 10.0622 14.2485 10.503ZM11.249 11.5003C11.1489 11.6486 11.0964 11.8238 11.0985 12.0026C11.0972 12.1211 11.1195 12.2387 11.1643 12.3485C11.209 12.4583 11.2753 12.558 11.3591 12.6418C11.443 12.7256 11.5427 12.7918 11.6525 12.8366C11.7623 12.8813 11.88 12.9037 11.9985 12.9023C12.1774 12.9044 12.3526 12.852 12.5009 12.7519C12.6492 12.6519 12.7635 12.5091 12.8285 12.3425C12.9 12.1789 12.9175 11.9968 12.8785 11.8227C12.8468 11.6487 12.7628 11.4885 12.6378 11.3635C12.5127 11.2385 12.3525 11.1545 12.1785 11.1229C12.0043 11.0838 11.8221 11.1014 11.6585 11.1728C11.4919 11.2379 11.349 11.3521 11.249 11.5003Z" fill="#108CC6"/>
</svg>
