<svg width="22" height="22" viewBox="0 0 22 22" fill="none" xmlns="http://www.w3.org/2000/svg">
<path fill-rule="evenodd" clip-rule="evenodd" d="M7.5 3.5C7.5 1.567 9.067 0 11 0C12.933 0 14.5 1.567 14.5 3.5C14.5 3.63798 14.492 3.77409 14.4765 3.9079L18.2867 7.5064C18.3572 7.50215 18.4284 7.5 18.5 7.5C20.433 7.5 22 9.067 22 11C22 12.933 20.433 14.5 18.5 14.5C18.1179 14.5 17.7501 14.4388 17.4059 14.3256L14.2805 17.2773C14.4224 17.6579 14.5 18.0699 14.5 18.5C14.5 20.433 12.933 22 11 22C9.067 22 7.5 20.433 7.5 18.5C7.5 18.0699 7.57758 17.6579 7.71951 17.2773L4.59416 14.3256C4.24993 14.4388 3.88212 14.5 3.5 14.5C1.567 14.5 0 12.933 0 11C0 9.067 1.567 7.5 3.5 7.5C3.57164 7.5 3.64278 7.50215 3.71336 7.5064L7.52352 3.90791C7.50798 3.7741 7.5 3.63798 7.5 3.5ZM11 2C10.1716 2 9.5 2.67157 9.5 3.5C9.5 4.32843 10.1716 5 11 5C11.8284 5 12.5 4.32843 12.5 3.5C12.5 2.67157 11.8284 2 11 2ZM8.3942 5.83662L5.75836 8.326C6.51778 8.968 7 9.9277 7 11C7 11.8105 6.72452 12.5566 6.2621 13.1499L8.9347 15.674C9.5136 15.2502 10.2276 15 11 15C11.7724 15 12.4864 15.2502 13.0653 15.674L15.7379 13.1499C15.2755 12.5566 15 11.8105 15 11C15 9.9277 15.4822 8.968 16.2417 8.326L13.6059 5.83661C12.9651 6.55075 12.035 7 11 7C9.965 7 9.0349 6.55075 8.3942 5.83662ZM3.5 9.5C2.67157 9.5 2 10.1716 2 11C2 11.8284 2.67157 12.5 3.5 12.5C4.32843 12.5 5 11.8284 5 11C5 10.1716 4.32843 9.5 3.5 9.5ZM17 11C17 10.1716 17.6716 9.5 18.5 9.5C19.3284 9.5 20 10.1716 20 11C20 11.8284 19.3284 12.5 18.5 12.5C17.6716 12.5 17 11.8284 17 11ZM11 17C10.1716 17 9.5 17.6716 9.5 18.5C9.5 19.3284 10.1716 20 11 20C11.8284 20 12.5 19.3284 12.5 18.5C12.5 17.6716 11.8284 17 11 17Z" fill="#5F5F5F"/>
</svg>
