<svg width="20" height="20" viewBox="0 0 20 20" fill="none" xmlns="http://www.w3.org/2000/svg">
<path d="M17.5905 7.52061L4.16016 0.801739C3.63014 0.537799 3.03168 0.443769 2.44638 0.532489C1.86108 0.621209 1.31742 0.888349 0.889542 1.29749C0.461652 1.70664 0.170353 2.23787 0.0553625 2.81877C-0.0596275 3.39966 0.0072924 4.00195 0.246982 4.54351L2.54989 9.6967C2.60214 9.8213 2.62906 9.9551 2.62908 10.0902C2.6291 10.2253 2.60222 10.359 2.55 10.4836L0.248542 15.6361C0.0535924 16.0744 -0.0287876 16.5544 0.00890239 17.0326C0.0465924 17.5109 0.203152 17.9721 0.464352 18.3745C0.725552 18.7769 1.08311 19.1076 1.50454 19.3366C1.92596 19.5656 2.39789 19.6857 2.87743 19.6859C3.32658 19.6815 3.76902 19.5766 4.17236 19.379L17.6008 12.6639C18.0771 12.4243 18.4775 12.0569 18.7572 11.6029C19.0369 11.1488 19.185 10.6259 19.1849 10.0925C19.1849 9.5591 19.0366 9.0361 18.7568 8.582C18.4769 8.1279 18.0765 7.76039 17.6001 7.52061H17.5905ZM16.7373 10.9462L3.3088 17.6613C3.13247 17.7459 2.93446 17.7746 2.74132 17.7435C2.54817 17.7125 2.36913 17.623 2.22821 17.4873C2.08728 17.3515 1.9912 17.1759 1.95285 16.984C1.9145 16.7921 1.93572 16.5931 2.01365 16.4136L4.30552 11.2611C4.33519 11.1923 4.3608 11.1218 4.38223 11.05L10.9914 11.0509C11.2458 11.0509 11.4898 10.9499 11.6697 10.7699C11.8495 10.59 11.9505 10.346 11.9505 10.0915C11.9505 9.837 11.8494 9.5929 11.6695 9.4129C11.4895 9.2329 11.2455 9.1318 10.9911 9.1318L4.38196 9.1308C4.36051 9.059 4.33488 8.9885 4.30519 8.9197L2.01188 3.76651C1.93389 3.58702 1.91262 3.38799 1.95092 3.1961C1.98921 3.00421 2.08524 2.82864 2.22613 2.69292C2.36702 2.55721 2.54603 2.46784 2.73917 2.4368C2.9323 2.40575 3.13032 2.43453 3.30668 2.51925L16.737 9.2381C16.8941 9.3187 17.026 9.441 17.1181 9.5917C17.2102 9.7424 17.259 9.9156 17.259 10.0922C17.259 10.2688 17.2103 10.442 17.1183 10.5927C17.0262 10.7433 16.8944 10.8657 16.7373 10.9462Z" fill="#056CC1"/>
</svg>
