<svg width="24" height="24" viewBox="0 0 24 24" fill="none" xmlns="http://www.w3.org/2000/svg">
<path d="M19.5905 9.52061L6.16016 2.80174C5.63014 2.5378 5.03168 2.44377 4.44638 2.53249C3.86108 2.62121 3.31742 2.88835 2.88954 3.29749C2.46165 3.70664 2.17035 4.23787 2.05536 4.81877C1.94037 5.39966 2.00729 6.00195 2.24698 6.54351L4.54989 11.6967C4.60214 11.8213 4.62906 11.9551 4.62908 12.0902C4.6291 12.2253 4.60222 12.359 4.55 12.4836L2.24854 17.6361C2.05359 18.0744 1.97121 18.5544 2.0089 19.0326C2.04659 19.5109 2.20315 19.9721 2.46435 20.3745C2.72555 20.7769 3.08311 21.1076 3.50454 21.3366C3.92596 21.5656 4.39789 21.6857 4.87743 21.6859C5.32658 21.6815 5.76902 21.5766 6.17236 21.379L19.6008 14.6639C20.0771 14.4243 20.4775 14.0569 20.7572 13.6029C21.0369 13.1488 21.185 12.6259 21.1849 12.0925C21.1849 11.5591 21.0366 11.0361 20.7568 10.582C20.4769 10.1279 20.0765 9.76039 19.6001 9.52061H19.5905ZM18.7373 12.9462L5.3088 19.6613C5.13247 19.7459 4.93446 19.7746 4.74132 19.7435C4.54817 19.7125 4.36913 19.623 4.22821 19.4873C4.08728 19.3515 3.9912 19.1759 3.95285 18.984C3.9145 18.7921 3.93572 18.5931 4.01365 18.4136L6.30552 13.2611C6.33519 13.1923 6.3608 13.1218 6.38223 13.05L12.9914 13.0509C13.2458 13.0509 13.4898 12.9499 13.6697 12.7699C13.8495 12.59 13.9505 12.346 13.9505 12.0915C13.9505 11.837 13.8494 11.5929 13.6695 11.4129C13.4895 11.2329 13.2455 11.1318 12.9911 11.1318L6.38196 11.1308C6.36051 11.059 6.33488 10.9885 6.30519 10.9197L4.01188 5.76651C3.93389 5.58702 3.91262 5.38799 3.95092 5.1961C3.98921 5.00421 4.08524 4.82864 4.22613 4.69292C4.36702 4.55721 4.54603 4.46784 4.73917 4.4368C4.9323 4.40575 5.13032 4.43453 5.30668 4.51925L18.737 11.2381C18.8941 11.3187 19.026 11.441 19.1181 11.5917C19.2102 11.7424 19.259 11.9156 19.259 12.0922C19.259 12.2688 19.2103 12.442 19.1183 12.5927C19.0262 12.7433 18.8944 12.8657 18.7373 12.9462Z" fill="#5F5F5F"/>
</svg>
