<svg width="24" height="24" viewBox="0 0 24 24" fill="none" xmlns="http://www.w3.org/2000/svg">
<path d="M2 12.1885C2 11.6362 2.44772 11.1885 3 11.1885H10C10.5523 11.1885 11 11.6362 11 12.1885C11 12.7408 10.5523 13.1885 10 13.1885H3C2.44772 13.1885 2 12.7408 2 12.1885Z" fill="#5F5F5F"/>
<path d="M2 7.18848C2 6.63619 2.44772 6.18848 3 6.18848H21C21.5523 6.18848 22 6.63619 22 7.18848C22 7.74076 21.5523 8.18848 21 8.18848H3C2.44772 8.18848 2 7.74076 2 7.18848Z" fill="#5F5F5F"/>
<path d="M2 17.1885C2 16.6362 2.44772 16.1885 3 16.1885H10C10.5523 16.1885 11 16.6362 11 17.1885C11 17.7408 10.5523 18.1885 10 18.1885H3C2.44772 18.1885 2 17.7408 2 17.1885Z" fill="#5F5F5F"/>
<path d="M21.0429 10.5229C20.8012 10.5303 20.5723 10.6426 20.4034 10.8348C18.9311 12.4726 17.5872 14.0782 16.1737 15.681L14.5119 14.2018C14.3193 14.0304 14.0734 13.9511 13.8281 13.9813C13.5822 14.0116 13.3582 14.1487 13.2037 14.3632C13.0499 14.577 12.9784 14.85 13.0057 15.1223C13.0329 15.3953 13.1565 15.644 13.3491 15.8155L15.6747 17.8809C16.0465 18.209 16.5807 18.1747 16.915 17.8002C18.5877 15.9393 20.0866 14.111 21.7212 12.2924C21.9943 11.9946 22.0755 11.5414 21.9259 11.1508C21.7757 10.7595 21.4256 10.5108 21.0429 10.5229Z" fill="#5F5F5F"/>
</svg>
