<svg width="24" height="25" viewBox="0 0 24 25" fill="none" xmlns="http://www.w3.org/2000/svg">
<path d="M12.0282 2.18848C10.715 2.18848 9.41461 2.44713 8.20135 2.94968C6.9881 3.45223 5.8857 4.18882 4.95712 5.11741C3.08175 6.99277 2.02819 9.53631 2.02819 12.1885C2.01944 14.4976 2.81898 16.737 4.28819 18.5185L2.28819 20.5185C2.14943 20.6591 2.05543 20.8377 2.01806 21.0317C1.98068 21.2257 2.00161 21.4264 2.07819 21.6085C2.16124 21.7884 2.29589 21.9396 2.46503 22.0429C2.63418 22.1461 2.83019 22.1968 3.02819 22.1885H12.0282C14.6804 22.1885 17.2239 21.1349 19.0993 19.2595C20.9746 17.3842 22.0282 14.8406 22.0282 12.1885C22.0282 9.53631 20.9746 6.99277 19.0993 5.11741C17.2239 3.24204 14.6804 2.18848 12.0282 2.18848ZM12.0282 20.1885H5.43819L6.36819 19.2585C6.55444 19.0711 6.65898 18.8177 6.65898 18.5535C6.65898 18.2893 6.55444 18.0358 6.36819 17.8485C5.05877 16.5405 4.24336 14.819 4.06088 12.9773C3.87839 11.1355 4.34013 9.28748 5.36741 7.748C6.3947 6.20852 7.92398 5.07284 9.6947 4.53445C11.4654 3.99606 13.368 4.08828 15.0784 4.79539C16.7888 5.5025 18.201 6.78075 19.0746 8.41237C19.9482 10.044 20.2291 11.928 19.8693 13.7435C19.5096 15.5589 18.5315 17.1935 17.1017 18.3687C15.672 19.5439 13.8789 20.187 12.0282 20.1885Z" fill="#5F5F5F"/>
</svg>
