<svg width="18" height="18" viewBox="0 0 18 18" fill="none" xmlns="http://www.w3.org/2000/svg">
<path d="M17.9995 17.25C17.9995 17.4489 17.9205 17.6397 17.7799 17.7803C17.6393 17.921 17.4485 18 17.2496 18H0.751139C0.552245 18 0.361497 17.921 0.220858 17.7803C0.0802189 17.6397 0.00120854 17.4489 0.00120854 17.25C0.00120854 17.0511 0.0802189 16.8604 0.220858 16.7197C0.361497 16.5791 0.552245 16.5001 0.751139 16.5001H17.2496C17.4485 16.5001 17.6393 16.5791 17.7799 16.7197C17.9205 16.8604 17.9995 17.0511 17.9995 17.25ZM0.219438 6.41473C0.057845 6.115 -0.0170188 5.77615 0.00324867 5.43623C0.0235161 5.09631 0.138113 4.76877 0.334178 4.49036C0.654592 4.02022 1.08369 3.63433 1.58506 3.36543L7.21029 0.437612C7.76319 0.150104 8.3772 0 9.00038 0C9.62355 0 10.2376 0.150104 10.7905 0.437612L16.4149 3.36768C16.9163 3.63658 17.3454 4.02247 17.6658 4.49261C17.8619 4.77102 17.9765 5.09856 17.9968 5.43848C18.017 5.7784 17.9422 6.11725 17.7806 6.41698C17.6066 6.74608 17.3457 7.02115 17.0262 7.21222C16.7067 7.4033 16.341 7.50307 15.9687 7.50067H15.7498V13.5003H16.4997C16.6986 13.5003 16.8893 13.5793 17.03 13.7199C17.1706 13.8606 17.2496 14.0513 17.2496 14.2502C17.2496 14.4491 17.1706 14.6399 17.03 14.7805C16.8893 14.9212 16.6986 15.0002 16.4997 15.0002H1.50107C1.30218 15.0002 1.11143 14.9212 0.970789 14.7805C0.830149 14.6399 0.751139 14.4491 0.751139 14.2502C0.751139 14.0513 0.830149 13.8606 0.970789 13.7199C1.11143 13.5793 1.30218 13.5003 1.50107 13.5003H2.251V7.50067H2.03202C1.65942 7.50299 1.29334 7.40295 0.97371 7.21146C0.654077 7.01996 0.393166 6.74437 0.219438 6.41473ZM3.75086 13.5003H6.00065V7.50067H3.75086V13.5003ZM7.50051 7.50067V13.5003H10.5002V7.50067H7.50051ZM14.2499 7.50067H12.0001V13.5003H14.2499V7.50067ZM1.54832 5.71953C1.59537 5.80628 1.66539 5.87841 1.75071 5.92802C1.83603 5.97762 1.93335 6.00279 2.03202 6.00076H15.9687C16.0674 6.00279 16.1647 5.97762 16.25 5.92802C16.3354 5.87841 16.4054 5.80628 16.4524 5.71953C16.4867 5.6622 16.5033 5.59603 16.5001 5.52932C16.4969 5.46261 16.474 5.39833 16.4344 5.34455C16.2527 5.0745 16.0086 4.85224 15.7228 4.69659L10.0983 1.76653C9.75931 1.59061 9.38302 1.49877 9.00113 1.49877C8.61923 1.49877 8.24294 1.59061 7.90398 1.76653L2.2795 4.69659C1.99376 4.85274 1.74969 5.07521 1.56781 5.3453C1.52813 5.39885 1.50512 5.46291 1.50165 5.52948C1.49819 5.59604 1.51442 5.66214 1.54832 5.71953Z" fill="white"/>
</svg>
