<svg width="20" height="20" viewBox="0 0 20 20" fill="none" xmlns="http://www.w3.org/2000/svg">
<path d="M13.1384 3.3335C13.6026 3.33351 14.0577 3.46277 14.4526 3.7068C14.8475 3.95083 15.1666 4.29999 15.3743 4.71516L16.5268 7.01933C16.7301 6.936 16.9326 6.85183 17.1293 6.75433C17.3271 6.65554 17.556 6.63937 17.7658 6.70938C17.9755 6.7794 18.1488 6.92986 18.2476 7.12766C18.3464 7.32547 18.3626 7.55442 18.2926 7.76415C18.2225 7.97388 18.0721 8.1472 17.8743 8.246C17.4626 8.451 17.2743 8.51433 17.2743 8.51433L18.0709 10.1085C18.2451 10.456 18.3351 10.8385 18.3351 11.2268V13.3335C18.3351 13.6852 18.2609 14.033 18.1173 14.3541C17.9737 14.6752 17.7639 14.9623 17.5018 15.1968V16.2502C17.5018 16.5817 17.3701 16.8996 17.1357 17.134C16.9012 17.3685 16.5833 17.5002 16.2518 17.5002C15.9202 17.5002 15.6023 17.3685 15.3679 17.134C15.1335 16.8996 15.0018 16.5817 15.0018 16.2502V15.8335H5.00177V16.2502C5.00177 16.5817 4.87007 16.8996 4.63565 17.134C4.40123 17.3685 4.08329 17.5002 3.75177 17.5002C3.42025 17.5002 3.10231 17.3685 2.86789 17.134C2.63347 16.8996 2.50177 16.5817 2.50177 16.2502V15.1968C1.9901 14.7385 1.66844 14.0735 1.66844 13.3335V11.2268C1.66859 10.8389 1.75903 10.4563 1.9326 10.1093L2.72927 8.51433C2.52736 8.43078 2.32784 8.34158 2.13094 8.24683C2.03271 8.1981 1.94507 8.13046 1.87303 8.04779C1.801 7.96512 1.74598 7.86905 1.71115 7.76508C1.67631 7.66111 1.66233 7.55129 1.67002 7.44191C1.6777 7.33253 1.7069 7.22574 1.75594 7.12766C1.85675 6.93073 2.03105 6.7814 2.24112 6.712C2.4512 6.6426 2.68015 6.65871 2.87844 6.75683C3.0751 6.85127 3.27455 6.93877 3.47677 7.01933L4.62927 4.71516C4.83693 4.29999 5.15608 3.95083 5.55097 3.7068C5.94586 3.46277 6.40089 3.33351 6.8651 3.3335H13.1384ZM15.6968 9.08683C14.2801 9.53433 12.2643 10.0002 10.0018 10.0002C7.73927 10.0002 5.72344 9.5335 4.30677 9.08683L3.42344 10.8535C3.36536 10.9694 3.33511 11.0972 3.3351 11.2268V13.3335C3.3351 13.5545 3.4229 13.7665 3.57918 13.9228C3.73546 14.079 3.94742 14.1668 4.16844 14.1668H15.8351C16.0561 14.1668 16.2681 14.079 16.4244 13.9228C16.5806 13.7665 16.6684 13.5545 16.6684 13.3335V11.2268C16.6683 11.0975 16.6381 10.97 16.5801 10.8543L15.6968 9.08683ZM6.25177 10.8335C6.58329 10.8335 6.90123 10.9652 7.13565 11.1996C7.37007 11.434 7.50177 11.752 7.50177 12.0835C7.50177 12.415 7.37007 12.733 7.13565 12.9674C6.90123 13.2018 6.58329 13.3335 6.25177 13.3335C5.92025 13.3335 5.60231 13.2018 5.36789 12.9674C5.13347 12.733 5.00177 12.415 5.00177 12.0835C5.00177 11.752 5.13347 11.434 5.36789 11.1996C5.60231 10.9652 5.92025 10.8335 6.25177 10.8335ZM13.7518 10.8335C14.0833 10.8335 14.4012 10.9652 14.6357 11.1996C14.8701 11.434 15.0018 11.752 15.0018 12.0835C15.0018 12.415 14.8701 12.733 14.6357 12.9674C14.4012 13.2018 14.0833 13.3335 13.7518 13.3335C13.4202 13.3335 13.1023 13.2018 12.8679 12.9674C12.6335 12.733 12.5018 12.415 12.5018 12.0835C12.5018 11.752 12.6335 11.434 12.8679 11.1996C13.1023 10.9652 13.4202 10.8335 13.7518 10.8335ZM13.1384 5.00016H6.8651C6.71039 5.00025 6.55874 5.0434 6.42717 5.12479C6.29559 5.20618 6.18926 5.3226 6.1201 5.461L5.06177 7.57516C6.35177 7.96266 8.0901 8.3335 10.0018 8.3335C11.9134 8.3335 13.6518 7.96266 14.9409 7.57516L13.8834 5.461C13.8143 5.3226 13.708 5.20618 13.5764 5.12479C13.4448 5.0434 13.2932 5.00025 13.1384 5.00016Z" fill="white"/>
</svg>
