<svg width="20" height="20" viewBox="0 0 20 20" fill="none" xmlns="http://www.w3.org/2000/svg">
<path d="M17.7096 8.28677C17.7086 8.81712 17.5434 9.33414 17.2366 9.76674C16.9298 10.1993 16.4965 10.5263 15.9963 10.7026C15.7227 10.8053 15.4327 10.8576 15.1405 10.8568C14.6101 10.8558 14.0931 10.6905 13.6605 10.3837C13.2279 10.0769 12.901 9.64362 12.7246 9.14344C12.6218 8.86957 12.5696 8.5793 12.5705 8.28677C12.573 8.57927 12.5205 8.8701 12.4163 9.14344C12.24 9.64349 11.9132 10.0767 11.4808 10.3835C11.0483 10.6903 10.5315 10.8556 10.0013 10.8568C9.47109 10.8556 8.95426 10.6903 8.52183 10.3835C8.08939 10.0767 7.76258 9.64349 7.5863 9.14344C7.48349 8.86957 7.43125 8.5793 7.43214 8.28677C7.4338 8.57927 7.38214 8.8701 7.27797 9.14344C7.10165 9.64362 6.77471 10.0769 6.34211 10.3837C5.90951 10.6905 5.39249 10.8558 4.86214 10.8568C4.57047 10.8584 4.2788 10.8068 4.0063 10.7026C3.50612 10.5263 3.07284 10.1993 2.76603 9.76674C2.45923 9.33414 2.29397 8.81712 2.29297 8.28677L2.67797 6.93427L3.60297 4.29594C3.72083 3.96056 3.9399 3.67005 4.22993 3.4645C4.51996 3.25896 4.86665 3.14852 5.22214 3.14844H14.7805C15.1358 3.14869 15.4823 3.25921 15.7722 3.46474C16.062 3.67028 16.281 3.9607 16.3988 4.29594L17.3238 6.93427L17.7096 8.28677Z" stroke="white" stroke-width="1.5" stroke-linecap="round" stroke-linejoin="round"/>
<path d="M15.9956 10.7026V15.1393C15.9954 15.5934 15.8149 16.0289 15.4937 16.35C15.1726 16.6711 14.7372 16.8516 14.2831 16.8518H5.71724C5.49228 16.8519 5.2695 16.8077 5.06164 16.7217C4.85377 16.6357 4.66489 16.5096 4.50578 16.3505C4.34667 16.1915 4.22046 16.0027 4.13434 15.7948C4.04823 15.587 4.00391 15.3643 4.00391 15.1393V10.7026M7.43141 14.2826H12.5697" stroke="white" stroke-width="1.5" stroke-linecap="round" stroke-linejoin="round"/>
</svg>
